/* XPM */
static char * chiseled_polished_blackstone_xpm[] = {
"64 64 6 1",
" 	c #4E4B54",
".	c #3C3947",
"+	c #312C36",
"@	c #27221C",
"#	c #160F10",
"$	c #1F121B",
"            ..      .  ...    ...             ..    ....+..    @",
" .      .+.  ....    ...    ...   ...    ..  ..  .    .+++..  .@",
"  .   ..+++.++..++. +.+    ... ....+   .  ..   .++..+.++..  ..+#",
"  .. ....+++..+++++..+++..   ....++...++..   +...+++...+.+...++#",
" .. .++.+...++.++...++.++..++.++++..++.++...+..++@@++...++.+.++$",
" . ...++++.++++...+++...++++....+@@++++.++++.++.++@@..+.+++..+.$",
" . .+++..+++@+++++....++@+....++@++++@+++.+...+@+@+++.++@+@.+.+$",
"  .++...++@+@@+@+.+.+++@+++.+++@@@+@@+@@++..++++@@@++.+++@@++@+$",
"  .+++.+@@+@@@@@@++++@@@@+++++@++@@@@@++++++++@@@+++++.+++@@+@@$",
"  ..+.+@@$$$$$$$$$$$$$$$@@@@@@$$$$@@$$@@@@@@@@@@@@@@$...+++@+@@$",
"  .++...+$          ..+.             .       ....   @ ..+.++@@@$",
" .++..+.+$    .  ...++  .        .. ....  ..  .. .  @. +...+@+@$",
" .++.+..+$  ..  .++++....+. ..    .++..+.   ..++....@  . .+.+++$",
" .+..+.++$ .. ....++...+++.++..    .+++.   ..+.+++.+@    ++..++$",
" +..+@+++$ . ....+...+++.++..    .....++.+++..+++++.@ .  .++..+$",
" +..++@+@$    .+.++.+++....+++. ....+.....+++...+.++@ ..  .+.+@$",
" ..+.+@@@@   ..+..+++.++++..+++..+++++.++++...+...+.@..  ...+@@$",
" .+@.++@@@  ....+.++.++@@++..+..++.++...++++.+..+...@.. ..+.++@$",
"..+@+.+@@@  +..++++++@@@+...+@++..+..+++@@+++++++..+@ .. .+++++$",
".. ++++@+@ .++..+++.@@@+...+@@@+++++...++@@++@++.+.+@  . +++@+@$",
".  . .+++@ +.+...+..+@++++..+++@@@+++.+.++@@@++@@++@$   ..+.@@@$",
".   ..+@+@ +.++..+.+@+++@+++..++@@@@+++++@@@++@@++@@$ .. .++@@@$",
". . .++@@$ ...++..++++@@+++..++@+++@@@++@@+++..@+@@.$. +.++++@@$",
"  ..++++@$ ..+...++++@@@@+++++@@@+@+++++++@@++..@@+.$. .+.+.+@+$",
"  +.+.++@@ +.+.+                          ....+++@.+$   ++.+++@$",
"  ++..++@@ ++.++   ..++.                .. +.+@+.+.+$  +.+..++@$",
" .++.+@+@$..@+@+  .+++...             .  ...++@...@+$ .++++.@++$",
"   ++++@+$+.@@@+ ++.++++.       ..  ..++++..++++.+@@$.+.+.++@@+$",
"  .+.++@@$.++@+@ .++@@@@    ..    ...+@@@@ ..+@..@@@@ ....+@@+@$",
" . .++++@$.++@+@ ..+$$$@  .. ...   ..+$$$@ ...+.+@+@@ . .+.+@@@$",
" ...+.+++$+@+@@@ +.+$$$$   ...+.++...+$$$$ .+.++++++@  .+.+.+@@$",
". . ..+++$++@+@+ +++$$$$ .+....++..+++$$$$ .++@++@+@@  ..++..@+$",
".   +..++$++@@++ +++$$$$ +..+.....++++$$$$ ..+$@++@@@   ..+.+@+$",
".. .@+..+$++@@++ .++$$$$ ....+++.....+$$$$ ...@@++@$@ . .+..+++$",
" .  .@+.+@.++@@+ ..+$$$$ ++...++++..++$$$$ ..+$@+@+$$...+@+.@++$",
"   . .+.+@+.++@@ ..+@@@@ +......+....+@@@@ +++$@@++@$.. .@@+.@@$",
"  .. ++++@..+++@ ...    ..++..++++++..    ..++$$@+@+@. ..+@+++@$",
"  +..@++@@.++++@ +...++.+++..++++@++++.....+.+$@+@@+@  .++@@+@@$",
"  +.++@+@@++..@+ .++++.+@@++++@@@++++@++....++@@+@@@@  .+.@++@@$",
"  .+++@@@$... ++.+++....+@@+@@@@@@@+++@@+.++++@+@+.@@   ..+.+@+$",
"   .+++@$$.  ++.+@@@@@$$$$@$$$@@@@@@$$$$$$@@@@+++...$    ..+@++$",
"   ..++@@$  ...+++++++@$$$$@@@+..++@@@@@@@@+@+.+...+$.  .+.@@@+$",
"    .+.@+$....+++...+@@@@@@@++.+..+++@++@++..@+..+..@ . .+@@@++$",
"     ..@+$. .++..++++++@@+@@@+++++@@@++..+..+++++@+.@ . .+@+@+@$",
"  .+ .+++@..    ...+@@@++@@++...@+++@@@++..+...+.+@@@...+.@+.+@$",
"   .+ .++@...  ++.+@@@++++.....++@@+++@@+++++...+@@+@ .+..+..+.$",
"   .++.++@..  ++.++@+@@+..++..+@@@$$@@@++++...+++++.$  .+..+.+.$",
"    .++++@  ......++++@@@++..+++@@@$$@+@@@..++..++.+$   ++..+@.$",
"  . +..@+@..+++.++.+.@@@++@++@@@+@+@@$$@++++@++....+$ . +++.+@@$",
". .++.+@@@+...+++...++++@@++@@++++@@@@@+@@@+@@+++.+@$ . +.+.@+@$",
".. .+++@$@++....+++...+++@@@@+@@@@@@+++@+@@@@@@@++@@$ .....+@..$",
"+.  .++@@$++++.+++..+++@@@@@+++@@@@@@@++@@@@@@@@@@$$$  . .+++.+$",
"++. .+@@.$@@@@$$$$$$@@@@@@@@@@@@$$@@$$$$@@$$$$$$$$$$$   .+.+.++@",
".++.++@+....       . ..+          .         ..+.       ..++..@+@",
".+++..++.+.   ...   ..+..    ... +..    ..+.++   .. .  ++++.++@$",
".+.....++.+. ...+...   .++..  .++.. ...  .++. . ....  ..++.++@@$",
"..++.+++...+..+.@++.. +++.. .+++.+...+..   ..+...+.+.. ++.+.++@$",
"+.+++++..++..+@@++...+.+.++...+.+++.+.++...++...+++......++@@+@$",
"++.+....++.++...++++....++.++..+.++++++...+++++++.....+...++@@@$",
"+@+++..++...+++..@+...+++@@@@+.+@..++..+......+@@+..++.+@++@@@$$",
"++@@@+++..++.@@+++@@+..+++@@+++@@@+++++@+++..+++@@@@+++++@@@$@$@",
"@++@@@+@@@+...@@@@+@@@+.+@+@$$@+@@@@++@@@+@+...@@@@+@++@@@@$$$$@",
"$@@@++++@$@++.+@@$$$@@@+++@$$@+@@++++@+@@@+.+++++@@@++@+@@@@$$@$",
"$$@@@@@@@@$$@@@@@@$$$$########$$##$$$$##$$@@##@@@@@@@@$$$$@@@@$$"};
