/* XPM */
static char * cracked_brick_xpm[] = {
"64 64 6 1",
" 	c #2D2D2D",
".	c #242424",
"+	c #414141",
"@	c #383737",
"#	c #585858",
"$	c #4B4C4F",
"                                               .........        ",
".         . .....        .. ........        ..............    ..",
"++ ++++++++++@..######$$##########$$$$######$$+.$$$$++$$$$$$$+ .",
"@@ @@@@@@@@@@ ..#$$$$$$$$$$$$$$$$$$$$$$$$$$+++@ +++++++++++++@ .",
"@@@ @@@@@@@@  ..#$$$$$$$$$$$$$$$$$$$$$++$$$$++ @+++++@@@@+++@@  ",
"@@@ @@@@@@@   ..#$$$$$$$$$$$$$$$$$$$+++$+$++++ ++++@@@@@++@@@@  ",
"++@+ @@@@@@@  ..#$$$$$$$$$$$$$$+++$$$++++++++ ++++@@@+@@@@@@@@ .",
"+++@@ @@@@    ..#$$$$$$$$$$$$$+$++++$$++++++ @+++++@++@+@@@@@@  ",
"+@@@@@ @@@@   ..#$$$$$$$$$$$$$$$$++++++++++ @+++++++@++@@@@@@@  ",
"++@@@@@ @@  @ ..#$$$$$$$$$++++$$++++++++++ @+++++++++@@@@@@@@@ .",
"@@@@@@@  @@@@ ..#$$$$$$$+$$+++++$$+++++++ @++++++++++@@@@@@@ @ .",
"@@@@@@  . @@  ..#$$$$$$+++++++++++++++++ @++++++++++@@@@@+@@   .",
"@@@@@@@@ .    ..#$$$$$$$$+$++++++++++++ @+++++++++@@@@@++@@@  ..",
"@@@@@@@@@.    ..#$$$$$$$+++$++++++++++@ ++++++@@+++@@@@@++@@@ ..",
"@@@@@@@@@ .   ..$$$$$$$$$$++++++++++++ @+@@+++++@@@@@@++@@@@@@..",
" @@ @@@@@@.   ..$$$$$$$$+++++++++++++@ +@@@@@+@@++@@@@@@@@@@@@ .",
"   @@@@@@ ..  ..$+$$++++++++++++++++@  ++@+@@@@++@@@@@@@@@  @@  ",
"  @@@@     .  ..+++$$++++++++++++@+++ @@++@@@@@@@@@@@@@@ @@  @ .",
"     @@    .. ..@++++++++@@@++++++@@  @@@@@@@@@@@@+++@@@@     ..",
"            .... @@+++@@++@@@@++@@@@. @@@@@@@@@@++++@@        ..",
"..................                 ..                  .........",
".....................   ...  .. ......  ........ .  ............",
"##########$$$$####$$$$##$$+$++@@@@..++++++++++@@.@++++++@@@@@@  ",
"$$$$$$$$$$$+$$$$$$$$$$$+++++@@@@@@ .+@@@@@@@@@@@.@@@@@@@  @ @@  ",
"$$$$$$$$$$$$+++$$$$$+++++++++@+@@@ .+@@@@@@@   @. @@   @@  @@@  ",
"$$$$$$$$$$$$$$++$$++$+++++++++@@@@ .+@@@@@    @@ .@ @    @@@@@  ",
"$$$$$$$+++$$$$$$+$$+++++@@+++@@@@@ .@@@@@@@     @.@@@@@ @@  @@  ",
"$$$$$++$$$$$$$+$$$+++++@@@@@++@@@  .+@@@@        . @@@     @@@ .",
"$$$$++$$++$+++$$++++++@@+++@@@@@ .. +@@@@@        .       @@@@..",
"$$+$$++++$+$++++++++++++@+@@@@@ .   +@@@@@@@      .    @@@@@ @..",
"$+$+++++++$$$+++++@@++@+++++@@@..   +@@ @@@        .    @@   @ .",
"$$++$++++++++$$++++@@@+++++++@ .    +@@@           .      @  @ .",
"$$$++$$$++++@++@@@@@@+++++@@@@..    @  @@       @   .       @@  ",
"$$++$+$$$+@@++++@@@++++@@@@@@@..    @@        @@    ..     @@  .",
"$++$$$$++++@@@@@@@@@++++@@@@@ .     @@@@       @@@@  ....   .. .",
"++++++$$++++@@@@@@@@@@@@++@@@ .     @@@@@@  @@@@@@   . ...   ...",
".                ..           ........            ..............",
"...         .. .......     .............    ..  ................",
"  @+++++++++@@@@  ..$###########$$##$$$$+#############$$+$$++@@@",
" .+++@@@@@@@@@@   ..$$$$$$$$$$$$$$$$$$$$ $$$$$$$$$$$$+++++++++@ ",
" .+@@@@@@  @@     ..$$+++++++$+$$$$$++++ +$+$$++++++++++++@+@@  ",
" .@@@@@@    @@    ..$+++++++++$$$$$$$+++ @+$$++++++++++++++@@@  ",
"..+@@@@ @@@       ..$+++++++$$$$$+++++++@ +++++++++@@++++@@@@@  ",
"..+@@@@@@@        ..$$+++++++$$$+++++++++ @++++++@@@++@@@@@@ @  ",
"..@@@@@@@@@@@    ...$$+$++++++++$$+++++++@ +++++++@@@@@@@@@@    ",
"..@@@@@@  @@    ....$$$+++++++++++++++++++ @++++@@@@@@@@@@@@    ",
"..@@@@ @@     ..  ..$$++++++++++++++++++++@ +++@@@+@@@@@@@@     ",
"..@@@       ..   ...$++++++++++++++++++++@@.@+++++@@@@@@@ @     ",
"..@@@@@           ..$++++++++++++++++++@@@+@.@+++@++@@@@        ",
"..@ @@   @@  @    ..$++++@@++@+++++@@@++@@@@. @@@@@@@@@@@@      ",
"..@   @@  @@@     ..$+++++@@@++++@@@@++@@@@@ .@  @@@@ @@        ",
"..     @@@@@      ..+@++@@@@@@@+++@@@@@@@@@@@. @  @@@@         .",
"....................                         ..              ...",
"......................       ....   . ..  .........     ........",
"$+$$$$$$$$+++ @++++$+$$+$$$$$+ .@++++++.@++++@@@   .+$$$$$$$$$$$",
"+++++++++++@ @+++++++++++++++@   @@@@@ .@@@  @@@@  .++++++++++++",
"++++++++++@ @++++++++++++++++@  @@@@@@. @@@@   @@   ++++++++++++",
"+++++++++@ ++++++++++++++++++@  @ @@@ .@@@    @@@@ .++++++++++++",
"+@@@++++@ +++++++@++@@++++++@@    @@ . @    @@ @ @ .$+++++@@++++",
"@++@@@+@ ++++++@@+++++@@++@@@@   @@ . @    @@@@@   .$++++@@++++@",
"++@@@++ @++@@+++@@@++@@@@@@@@@  @@@. @@@@ @ @@@    .++@@+++@+@@+",
"+@+++++ +@@@++@@@@+++++@@@@@@@  @@ .  @@@@   @@@   .+@@+@+++@@@@",
"@@@+++  @@++@@@@@@@@++@@@@@@@@  @ . @              .+@@@++@@@@@@",
"@@++@@ @@++@+@@@@@@@@@@@@@@@@@   @.               ..++@@@@@@@@@@"};
