/* XPM */
static char * OFFICEDOOR_xpm[] = {
"64 64 6 1",
" 	c #E6EDF3",
".	c #444E5F",
"+	c #1C242A",
"@	c #C5D1DC",
"#	c #8E9DAA",
"$	c #435B69",
"                              ..++                            @@",
"                              ..++                            @@",
"  @@@@@@@@@@@@@@@@@@@@@@@@@@@@..++@@@@@@@@@@@@@@@@@@@@@@@@@@@@..",
"  @@@@@@@@@@@@@@@@@@@@@@@@@@@@..++@@@@@@@@@@@@@@@@@@@@@@@@@@@@..",
"  ##########################@@..++##########################@@..",
"  ##########################@@..++##########################@@..",
"  ##########################@@..++##########################@@..",
"  ##########################@@..++##########################@@..",
"  ######..++++++++++++++####@@..++######++++++++++++++++####@@..",
"  ######..++++++++++++++####@@..++######++++++++++++++++####@@..",
"  ######..$$++++++++++++####@@..++######++$$++++++++++++####@@..",
"  ######..$$++++++++++++####@@..++######++$$++++++++++++####@@..",
"  ######..$$++++++++++++####@@..++######++$$++++++++++++####@@..",
"  ######..$$++++++++++++####@@..++######++$$++++++++++++####@@..",
"  ######..$$++++++++++++####@@..++######++$$++++++++++++####@@..",
"  ######..$$++++++++++++####@@..++######++$$++++++++++++####@@..",
"  ######..$$++++++++++++####@@..++######++$$++++++++++++####@@..",
"  ######..$$++++++++++++####@@..++######++$$++++++++++++####@@..",
"  ######..$$++++++++++++####@@..++######++$$++++++++++++####@@..",
"  ######..$$++++++++++++####@@..++######++$$++++++++++++####@@..",
"  ######..$$++++++++++++####@@..++######++$$++++++++++++####@@..",
"  ######..$$++++++++++++####@@..++######++$$++++++++++++####@@..",
"  ######..$$++++++++++$$####@@..++######++$$++++++++++$$####@@..",
"  ######..$$++++++++++$$####@@..++######++$$++++++++++$$####@@..",
"  ######..$$++++++++$$$$####@@..++######++$$++++++++$$$$####@@..",
"  ######..$$++++++++$$$$####@@..++######++$$++++++++$$$$####@@..",
"  ######..$$++++++$$$$$$####@@..++######++$$++++++$$$$$$####@@..",
"  ######..$$++++++$$$$$$####@@..++######++$$++++++$$$$$$####@@..",
"  ######..$$++++$$$$$$++####@@..++######++$$++++$$$$$$++####@@..",
"  ######..$$++++$$$$$$++####@@..++######++$$++++$$$$$$++####@@..",
"  ######..$$++$$$$$$++++##  @@..++  @@##++$$++$$$$$$++++####@@..",
"  ######..$$++$$$$$$++++##  @@..++  @@##++$$++$$$$$$++++####@@..",
"  ######..$$$$$$$$++++++##@@@@..++@@@@##++$$$$$$$$++++++####@@..",
"  ######..$$$$$$$$++++++##@@@@..++@@@@##++$$$$$$$$++++++####@@..",
"  ######..$$$$$$++++++++##......++....##++$$$$$$++++++++####@@..",
"  ######..$$$$$$++++++++##......++....##++$$$$$$++++++++####@@..",
"  ######..$$$$++++++++++####@@..++######++$$$$++++++++++####@@..",
"  ######..$$$$++++++++++####@@..++######++$$$$++++++++++####@@..",
"  ######..$$++++++++++++####@@..++######++$$++++++++++++####@@..",
"  ######..$$++++++++++++####@@..++######++$$++++++++++++####@@..",
"  ######..$$++++++++++++####@@..++######++$$++++++++++++####@@..",
"  ######..$$++++++++++++####@@..++######++$$++++++++++++####@@..",
"  ######..$$++++++++++++####@@..++######++$$++++++++++++####@@..",
"  ######..$$++++++++++++####@@..++######++$$++++++++++++####@@..",
"  ######..$$++++++++++++####@@..++######++$$++++++++++++####@@..",
"  ######..$$++++++++++++####@@..++######++$$++++++++++++####@@..",
"  ######..$$++++++++++$$####@@..++######++$$++++++++++$$####@@..",
"  ######..$$++++++++++$$####@@..++######++$$++++++++++$$####@@..",
"  ######..$$++++++++$$$$####@@..++######++$$++++++++$$$$####@@..",
"  ######..$$++++++++$$$$####@@..++######++$$++++++++$$$$####@@..",
"  ######..$$++++++$$$$$$####@@..++######++$$++++++$$$$$$####@@..",
"  ######..$$++++++$$$$$$####@@..++######++$$++++++$$$$$$####@@..",
"  ######..$$++++$$$$$$$$####@@..++######++$$++++$$$$$$$$####@@..",
"  ######..$$++++$$$$$$$$####@@..++######++$$++++$$$$$$$$####@@..",
"  ######................####@@..++######................####@@..",
"  ######................####@@..++######................####@@..",
"  ##########################@@..++##########################@@..",
"  ##########################@@..++##########################@@..",
"  ##########################@@..++##########################@@..",
"  ##########################@@..++##########################@@..",
"  ##########################@@..++##########################@@..",
"  ##########################@@..++##########################@@..",
"  ##########################@@..++##########################@@..",
"  ##########################@@..++##########################@@.."};
