/* XPM */
static char *b3b3306b454b4456cfc571ac3a3b49803tXGJNR1u00ZBZJT[] = {
/* columns rows colors chars-per-pixel */
"128 128 5 1 ",
"  c black",
". c gray19",
"X c gray38",
"o c gray57",
"O c gray76",
/* pixels */
"   XXo. . . ...    X...oo.  oXOOOOOooo.. .. X . X Xo.XOoOOOOOoXXX Xo.. . XXo X.XOOOOX...XoOoooOoooOOOXoX.. XooOOOOoX..XXOoo.XX. ",
"..XXX.. .  . .. XXoooXoooX ..XOOOOOOX... ..   .   X.XOOoOOOOoX.X. XX....  Xo ..OooOOoX oXoOOOOOOooOOoXo.X .XooOOOOoOo. XoX.   . ",
"X.XXOOo....  ......ooo..oX  .oXooOoo.. .XX..   .   .OoOOOOOOXXX XXooOXX .. X ..XOooOX  .OOOOOOOOOOOOOOo..XXoOOOOOOOOo..X..X    .",
".oOOOOX.X..XXX .  ..XXXXX. . .X.OOXXX..X.XXo ..X.  ..OOOOOOO.X...XooOOXXX. X  XXooooX  XXoOOOOOOOOOOoOo..X.ooOOOOOOOX. X  . .X X",
"XOOOOo.  XXXOXX ...X   X.  .. .XXX.... .Xooo..o.....XOooOOO.. ..Xo.oXXo.XX .X.X....X .X.XOOOOOOOOOoOOoo.  ooOOoOOoOoo ..  . X.oX",
"OOOOOoo XXXOXOoX...  .  .... .  X.. ..XooOOOoXoOX.  X.OoOOO.X   . X.X.  .......      ..XXOOOOOOOOOOXoo.X..XoXoOOOXooO...  .XXXXO",
"OOOOOo.. .OOOOXXXoXX  X.. X... ... ...XoOOooOOoOoo.. ..XXo.XX   .. ..   .. . .   .   ...XoOOOOoooooo..... .XXoXoooo.XX  ..XXXOoo",
"OOOOoXX ..XXOOOOo. .  XX.. .. .    X..OOooOOOoOOOX. ..X..XX . .. X .    . .. XX.XX...  Xo.oOoooXX...X  X..  .XoXoo.X X .XoXoooOO",
"OOOOXo..  .XXOooX. .X.oX.  X..X . .XXXOoooXOooXXoOX. . .. . .XX.X..XXX .. . X.ooXXXooX ...OOo.ooX ... .. . .  XXXX   . ..oX.oOoO",
"XoOooo.   XX XoOX  ..oX.   oXoOXX...X.oX.XoXX...XXX   .    ...XXo.XXXX.XX  oooOXOXOOXo...X.o..  .  ...XX.X X            .X.X.oXo",
"oXo.XX..X.  XXXX    Xo   ..XOOXoX. .XXX  .XX.XX XX   XX..     XoXoooo.X  XXoooOOOOoOXX.  .oXX.  .X.XX.ooooXo.   ..XXX .X  .  XXO",
"oooo  .Xo... ... ..o.X  .X.XoooOXX  .... .X.........X..oX.X   XoXOOo.X ..oXoOOOOOOOOOOo.  . X   ....ooXoooo.X.  .XX.XXoXXX . . .",
"XXXX. .XXo.X.  X..  .  . ooOOOOo.. X . .  . .  .. . XXOoooX  . ooOOX...XXoOOOOOOOOOOOOoXX .. . ..X..XooOOOoOXX  .XooOOo......   ",
".. . .XXoooo. .  .. . ..XXOoOOOoXX X..XXXX.. X..X..oooOoOX.o.....XX... ..ooOOOOOOOOOOOoo.. ..... XXXoXOOOOOoO.   oXoOooooX.X.  .",
"XX . X.oooXX...   .. . ...OooOOXX  X.o.XX.XXXXo.. X.XoOoOOOX.X . XX . .XOOOOOOOOOOOOOOoo.. .....X....ooOOOOOo.X ..oOOOOOooXo..  ",
".  .XoXXOOoXoXX  ....  ..XXoXoX. X  X...oooooXOX. .XoOooOOoX.o.. X...X.XoOOOOOOOOOOOoOOo. .XXOOX.X  ..ooOoOOo.  .XXOOOOOoOoXo.. ",
"X .o.OOOOOOOOOX .o.XX.. . ..Xo... .  .  ...XX.XX  .XXX.XX...XXXX ... .XOOoOoooOoOOoOOXOX .XooOooXo.. X..OOOOooX. oXOOOOOOOoOoo..",
" .XooOOOOOOOOO.X XXoo.X   . X.  . ... . . ....X.. X. ....X   XX..  X.XXOXOXoOXXoOOOoX.o.X XXOOOOOoXX  XXoOOOOOX. .XOOOOOOOOoOOo.",
"  .XOOOOOOOOOoo. .XOoo. .   X... Xo. X .. ...  X... .   ... . ... .Xoo..XXX.XX.ooXX.X.XX.X.oOOOOOooX. . oooOOOXX  XOOOOOOOOOoO. ",
" .XXoOOOOOOXOoX..XXOOX...X  .   . XXoo.X  . . .  ..       .   ..  . XXXX..XX. .X XX  ..   .OOOOOOooo... ...oOooX  XXooOOOoOXXo.X",
". oOoOOOOOOXXX ..oXOOOooOo.X. ..... .oXoXoX   . XXX.X XXXX.X.  XX.  X . .. . X  .   .  XX..XOOOOOOOoXX  ....XOX.  XooooOXOX.X.XX",
".. ooOOOOoXoX.. ..X.OOOoXoXo.XXXX . XXXoOX.o..   XXoXooo.o..oXooo..  X  .       ..X.X..  XoOOOOOOOOOOo.X....Xo...  XoXoXoX..X   ",
"   .oOOOOXXX.X.X..X XOOOOoo. .XXoX.  ..oOXOoX... .OXXoXOooOOOoXoo    XXXX.X.X..X XX ..XX  oXoOOOOOOOoooX.  .X...     ... X  ....",
"X ..XXXoX.X    .X .....oOo. .X.XoX.. . .XXoOooX.  oOOoOoooOoOOOoX .XX.XoX.oXXXoXoo..oooXX  ..XOOOOOOOooOX   . . .    X.X. .   . ",
"X. ...o.X.  XX oXX.. ..XoO. XXooooXX  .X.oOoOoo  .XXOOoOOOOOOOoo   XooOoooooooXXoOXOOX.X. X.XXXOOOOOOOXo.. .  X..X.X.....  . .oX",
"O... .X.   ..XXXX.X   XXXXX ..oOOOoXX...  XOOoo. .oooXooOoOoOOXX  .oOoOOooOOoOOoOoOoo.    .  .ooOOOOoXoX . .X.XoXooXX...   oX.Xo",
"O.. .  . .X XoXooo.. ...X.. .XoOOOOooX    XXOOXX. ..XXoXOoXOo.X  .XoXoooXoXXooooXooXO.. .X .  XXXOoOXX..   X.X.OoXoX. .X.X.XXoOO",
"OooXX. ....XXoOOooX...  X. X.oOoOOOOO...  .XooXX   XXXoo.oo.XX. .  XoX.ooo.XoXoXXXoo.X.X X.  ..XooXooX.   XXXooOOOOoX ..oOOooOOO",
"OooooX  XooooOOOOOoXo.X     XoOOOOOOOOoX.  XXX.X..  .. ..X. ...   . ..X. .XXX..XXX.XX....o.X. . X o.XX. .XoXOOOoOOOOX  .XOOoOOOO",
"OOOO.X. ooXOOOOOOOOoOoX.   XXOoOOOOOOOXOX ...X .    .    . X  ..X...    .  . ...  . .X XXOoXoX  . . . .X.oooXOOOOoOoo ..ooOOOOOO",
"OOOOXX. .XOOOOOOOOOOOoOX  ..XXOOOOOooXXoX.X .    ..X... ...  X oo..X        .     ....XooOoOX. .. . .X.XXoooOOOOOOoX.X.oXOOOOOOO",
"OOOOoX. .XoOOOOOOOOOOOoXXX .oOOOooOXooXX...X.. X.oXXo.. X..X. ..oXX    . X. XX..X.   XooOOOooX X.. . ..XXoOOOOOooXoX. .  .XoOOOO",
"OOOOXoo...XooOOOOOOOOOOoo...oOoOoOOo..X  ... X  XoXXXX..o. X  XOXX.X...... . .XX.  .XooXOOOOXX .XXXX   .oooOOOOXXoX   .  XooOOOO",
"ooOo.X.X. .oOoXoOoOoOOOOX X.Oooo... ..  ... o. ..oOOOoo.. ..  XOoooXX .. . .  ...X .XXooOOOXX ..oo.X   .oOOooOX.X...X.    .ooOoX",
"o.oX.X X .XXX.XoXOOoOOoOo. oOoXoo. . . XX.oOOX ..XOOOOO.  .o  XXoOoX  ..XXXX X .  ...OoOOOOo ..XXOXXXX...XXOoXXX. XXXX.X..o.OO..",
"X.XX. .... X.. .oo..oXOoo.X..o X.  .. X.XoooO....XOOOOOX  XX. .XOOooX. .Xo.oX.  X.. XoOOOoo.X .XXOOo.XX ..ooX.X    .ooX.X .XXX..",
".. .... .... .. ..  .XoXoX .X. X.. .X..ooXoOO.. .XoOOOXXX.XXXX.XooOXO.  XXoX...XX..X.OXoOOX.  ooXOOoXX  .....  ..X.ooOOo. . X.. ",
"... XXX..XX... .  ... X.  . . ..  ..o.oOoOoOOoX .oOOOoX. X.o...X.XOOoX...XX. .X X.  oXXOooXX ..ooOOOoXX. ...     oooOOOo. X. . .",
".X ...X.. .XX    .  ... ... .. ...oXXXOOOOOOoX.. oXOOoo  ..XOX .oXoOoo  X..  .X.X  .X.XoXoXXXXoOOOOOOXo.X . .  .oOOoOOoOXo  .  X",
"XXX.X. .XXX.X .XX.XX...  ..  ..o.XOOOoOOOOOOOXX..XXOOOo..XoXO.X..oOOoO. XX.......  . X..XX. X.XOOOOOOOOX ..  .XoooOOOOOooX XX..o",
".OXXX.  XXX.  .o..X.oXXX.. ..X.XoXooXOOOOOOOOo. .XoOOoX  .XOOo .XXOOOXX.. .  X  ..X. ...  . XXoOooooOOOX.X  XoXXOOOOOOOOoX  Xo.X",
"oooXX  ..XX  X.OoOXOX...oXX  ..X....ooXXXOOOOoX.XXoOoOX .oXoO.X...XoOooX. ........o.         oXXOooOOOOXoX  .XoOOOOOOOOOX  .ooXX",
"oOoXX  XXXX  ooOoOOoXoOXoXX . . .X.X..oXXoOXXoo. oOoOo...XoOOO....XoOOX..   . X.X..   .  XX. .....XoXXXXX. .XoOOOOOOOOO. ...XXOO",
"Oooo. X.Xo.. .ooOOOOOOoOXX.X.X  ......XXXo.o...  XoXXo  .XoOOO..  XOOOOX  ..  o..o...XXo.oo..XX X XX... XX.. XXOooOOOOoo. .XXXOO",
"OOoX   oOX. ..XOOOOOOOOOOX..X XX.  .... X.  X. .. .X..X  oXOOOo.X.XooOoo  X. X.oOo.  ..ooo.X   .... X. .    X.ooOoOoOOo.. .XOOOO",
"ooX...Xoo  .XooOOOOOOOOooX. X.XXoX X.      .. .   . ... XXoXoXXXX .oOoXo. XoooOoO.. .XooOOX  .  .... . .. .  ...XOXOOOXX...XoOOO",
"Xo.  XoOo.  .OOoOOOoOOoXX.X...XooXXo . X   ...XXX  ..X.X.X.X.oXo. ..XXooX.XooOoO.X  .XXoOooX X.XX .X  .........X.XXXoOX.. XoOOOO",
"oo.. .XX.X..XoOOOoooOoXX..  ... o.OooXXX...XXXXXo .. .   . X.X. .  .X.X   .XoXoX.. XXXOOOX   XXXXX.  ...X.X . . X XXo..X. .XoOOO",
"o. X XXX  ..XoOOXXXo..    .. .  XXooXXOOX. XX.oOoXo.X. .. .      . . .  . .X...oX. XXOoOXX .. XX.....X    ..XX  ...X.X...oXOOOXO",
".....Xo.. .oOOOX.o.X . ...  ..    XooooOo. XXOOoOoXo.X ....X.          ..    .X.  XXXOOOoX .X..  .X.X..oo   ..X.. .  .  .XoXOOOX",
"XX.XXOX.  XXooOoX.XX..   . .X.   ..X..oXoX..oXOOoOoX . Xo.o   . ..XX .X..XX  X .  .oOOoXX X.   ..  .Xoo.XX..XXX. . X.. . X.XXoo.",
"X. .oOoX.XXoXX.X..  .. ..X.  .XX.X.  .XoooX XOOOOOXo  XXoO.. ..oo.X   .Xo.XX  . ..oXXOOOXX. ..X.XXXXOXX . .XXOO.. XX.X.X . XoX.X",
"  .ooX.X .X.X    .  X..X..X.X.XX.XX .   .o  oXXOOO.. ..oOoX. XoXooXX.XXoXoXX..X.. X.ooo..  .Xo.ooooXo.X . XoXoOoX .XXXXoX. ...X.",
" ..oXX. ..X.   .. XXXo.o.X.X. ..XXo. .   X.  oXoooXX ..ooo.X .OOOoX ..ooOoXoXX.. .XoXXo.  XX.ooooOXX.o  X.oXOOX. ..XoXXoX.. ... ",
" oXOoXX  X. . .. oX.oOOX.  ... ..ooo.X.. .X .XoXoXX  XooOOo XooOoo.. XXoOOOooooX.   ..XX. Xo.oXXoo.X ...XoOOXX.  .XOOOoXo.X   ..",
"X.oX.....   .....oOOOOXo.  XoX.....XX. X   ...... .  .OOOOX. XOOoX. .oOoOOOoooOXX . X ....  .XX.X.   . .XoOOX. ...XooOOOXXX X  .",
". .X.. . . .X..oXOOoOooo. ..oX.......XX.X .... .. X XoXOOoo ..OOXoX .XooOOOOOOOXo... .  . ... .     . .o.XOOX. ...XOOOoOooX ..  ",
"   .  .X. X.oXOOOoOOOooX. .XooooX. ..ooo..... . .   oXooooo...OoX.. .XOOOOOOOOOooX. .XXX XX    .. XX...X.Xoo.. .X .oOoOoX.. ..X ",
". ... XXXX.OOXooooooXooX .XoOOoXXX ...o.X  X...XX ...oXoXo. ..ooOX. .oOOOOOOOOOoOOo .X.o.o.X...XX..o... ooo.X...XX.OX..XX   ..o ",
"X. .XXo.oXoXXoXXXo.Xoo.X ..XOOOO.. ...X. .XX.o.ooX.....Xoo.X.oXOXX  oOOOOOOOOOOOOOoX  XXXoX....XXo.XX...Xoo. ..XX .ooX... .XoXXX",
"o.  X.XX.X XX.X.  X.. .. ..XoXoOXX.  .X  ..ooXOoXoo..  X.Xo XX.oX..oooOOOOOOOOOOoO.. XooooOoXX .oooOoX. XX.X. .o. .ooX.. ..XooXo",
"OXoX.  .....X  . ..  ..  ...o.X.X.X ... X.XOOoOoXOX .   .... XXX.  .oOOOOOOOOOOOOXX  .XoOOoOo.   .oOOXX. .X..XXX..X..   ..oOOOOX",
"oooX.  .     .X .  . .   . .X ...X.  .. XXXOOoOOoX  X ....  .. .  .XoOOOOOOOOOoOX...X.OOOOOOoo  ..XOOXX ... XXooXXXX. ...XoOOOOo",
"OOX...X    .. X. .. ..X..X   ... ....   XoooOOOOo . Xo.  X . .. . XXXoOOOOOooOoXoX. XXooOOOOoO.. .XXo.  . .X.XoX     ..oXOXOOOOo",
"OO.. .oXXooooXo.ooXX.  X.  ..  ... XX.. oooOOOOoX. X .XXoX  X...    XXoOOoOoXXoXX  ..XooXXOoooO. ..X.X. .X . X.o. .  XXXOoOOOoOo",
"X.. .oXXXoooXXOooXX..  . .X.. . . XoXo ..ooOOOOX . XXXoXX . o...X   .XOOXo..XXXX   .X. XooXo.XXXX XX. .XoXX   ..     oOooOOoOOXX",
"..X...oOoOXooXX.X... ...  X......X.Xoo.. oooOOXoX .oOOOoX.  XXXX. . o..oX. X     .  ...XXX...X.o  .X..XoooXX...   XXXXooOo.X.o..",
" .. .  XoOXXoX . X    XX ..Ooo.  .XXXo.X X.oOXX... oOOooo .X.ooXo.X.. .X X .  .  .X.  X..   ...XX ...  o..X  ..  ...XXX.o..   . ",
"...X . .oXo..X .   X XXX  .OOXX  . X.oo .X.XOo. ...XOOoXX .XoooX. .     .. . ...X.X. ...  . .  ..  ...Xo.. . X X ..XXXXo X..  . ",
"X.. X  XX.X........XoooXXX.XOXoXX .. .X...XoX.   XooOoo.X  X.XXX. ..  . . XX..X..ooX .  XX.XX . .. ..XX.X. . .X...  ..XX. X    .",
".o .   .  . ..X.XoXXoOOX. ..XXX.....  ..X  ..X  XXXXOXoX...  .  . .X...X...oooXXOoo.  X .oXXoX. XXX...   .. X...X.. ..   .......",
"X.. .XX..  .XXo.XooXooOX    .X Xo.X    ..  X.   oOOOXX.X.  .  ..X..o ..o.ooOooOOOo...X  .XXooo.oXoX.XX   XoXo   .oX.. X.X.X o.oo",
".  .X..   X.oooOOOOOOOoX.   X X.  ..   .   ....X.o.o.    .X..X. oX.X. XXXXOOOOOOOOo. .X.  ..XOOooX.   .  .ooX  XXOoX...X..ooXOO.",
"X.  XX.X.  .ooOOXOOoooX  X    . .  . XX.X. .  . .XXX ..   . XXXXooX...XXOOOOOOOOOX. ..X .  XX.oooO.   ..oXoo  ..XoOo.....oXoOoXX",
"  .oXoOooX...oXXXXXoXo .XXXXX..   .X .X.XX. .. . X   ..  . X.X.oXX.X.XXoOOOOOOOOOX  ...X   .X..XX. .. ...oOX  X.OOOX ..XXOooXX. ",
" .oXOoOOo.  ..XX.X X.. .XooooX.X. .XoXXOoooXX . . X . .XX ....XXX..  .XoOOOOOOOOoX.   ..o.... X... .   XXXo...XXoOOo  .oXoXo.XX.",
"  XOOOOOXXX     . ..X.  XXOoo.X.  ooooOooOXoo  ..X .XoX...XX X.   ... XOOoOOOoOOo  X.. .o.. . .   . .X   ..   .XOOO....XOoo.... ",
"  .OoOoXo.....      .  ...oOOooX  XOoOoOOOOoXX o.XXoXXXX..  .  . X  X.XoooOOOooo. X.XX ..X.  ..  . .oX.  . . ..oOOOX..XXoXXX X  ",
"X XXoOoo ..XXX...X.X .X X.oOoOoX.XoOOOOOOOOOX..oXOXOXooO.XX   X X.....XX.o..oX.X..XX.X..X. .XX.. ..XXoX.  .. X.oOOOoX. . XX...  ",
"  ..OXX.. ......XXXXX.XX  XoooX ..oXOOOOOOOOoX..ooOOoOOOOX...X..X.XX .. .X.X.XX... Xoo.   X.XOX X.XOOXooXX .X..XOO.X..  .  ...X.",
" .Xoo.XX.X .o..X.oXXoXX  . ..X. ..ooOOOooOOOXX XoOOOOOOooX   .  .  ...X .  ... X  X.OX.. . Xoo. ..ooOOoXXo..  .XXo.X  .  . .XoX.",
"X. .oXX....XooX .OOOOOOoX.. . X..XooOOoXXOXXo..oXoOoOXoXX.  . .  .    .   ... ... .ooo.X ...Oo .XXoOOOoOoo... XXoX.  . .  . .Xo ",
"o...XX.  .XOOX..XoOOOOoX. ..  X . XoooooXXo .  .XOOooXo. X. .XX..X .X..X....     . .oXXX   oX.XX.ooOOOOOOoo.X.X.. .. .oX.oX . ..",
"..X.  . .oXOXo  XXoOoOXX  .  .   XXXoXX. X    .X..O.XXX . .X.X.XXXX..X.XX.  .o...X. .oOXX  .XX   XXoXOOOOOOX.   ..  .oOXOOX  .o.",
"X  . XX.XOoX.X.X..oXoOXX. XX.. .. ...XX    .  .  ... ..   ..  X .X   X.oXX    .oo.  XXOoX.   .  X .X.OOoOoOX.. .  ..oooOoooo...X",
"  . ...XXXoXX  . XoooXX . .XXX.XX..X .   .  ..X .XX  .X .   ..   X ....XoOX. .oXXXX ..oOXX... .  .X.oXoOOoo.. . . ..XooOoo.XX . ",
" XX.XXX..o.X.  .  .XXXX ..XOoooOXX . .   ...Xoo ... ....X. X.. .X.   ...oXOX ..X.XXX  XXX   .X..     .XXX.o ...XX. ..XXoX.X.X . ",
"..XX..       .oXX  XX   ooXooOXoXX.   .Xoo.XXXo...  ..Xo.oX..X.X.  .X ..XX.X .....XX   ..  ...Xo   . .  X...  ....   X XX  .    ",
"..oOX.. ....X oo...X XX.XXXooXXoXX . oooOOOooooX.  ..ooXooXOX..X.  XX . ..X .X... ..      Xo.oooX.. .. . .   oXOOo  ..  .  . ...",
" XoXoXX.X   XooOX... . .XoXoXXXX. . .oXOooOOOOOX . XoOOOOOOOOoo   .oo.X.X    XX.  .X... X.o.ooXoX.oX .      ..oOOXo   .X.. .X. .",
".X.X.X  .  ..ooOoX.  . .X.. ..  .X.XXoOOOOOOOOOOX..XXOoOOOOOOXXX XooooX    .ooX.. X .  XXX..XX X..X...  .  .oXooOooo   . ..Xo.X ",
"  .X.. .  .. XXXXXoX   ..  .....   .ooOOOOOOOOOoX. XOOOOOOOOoX   XXooXo ..XX.XX.o.X .X . . .X. ..  .  .   ..OOOOOOoo........OoX ",
"   .X    oX  XooXXOo   X .. .. .. XXXoOOOOOOOOOo.  .XoOOOOOOoX.  oXoOXXX .XoXOOoXoXX .     ......    .   XXXoOOOOOOO..X...X.oo. ",
"..   X  .XX  ..X.XoX  ...  .Xo.oo.XXOOOOOOOOOOOOXX ..XOOooOoo.  XXOooOOX. .X.oX.oooX ...X .. .. .. ...  ..XXOOOOOOOOX. X.....X. ",
"oX  ..XXooXo  X .XX.. X.ooo..XOXo ..oOOOOOOOOOOoo...XXXXOOoOX X.XooooOoo.. oXXX..X..  XXXXXooXXX . .. X.X..oooOOOOOOo. .. ...Xoo",
"o. ...XXoOo..X.  .XX. X.XXXoOOOOo .ooOOOOOOOOOOOX....oo.oXOOXX XXXX.o..XXX XX   .     .oXoXo..    . X..XX  XoOOOOOOOXXX.XX. ....",
"..X X.XOOOOOoX...... X.X.XXXoXooo...oOOOOOOOOOOoOX    XX.XXo. ..XXXX X.     ... .X... .Xo..XX.   XX.oXOOX  .OOOOOOOOX. .XoX. . X",
". ...ooOOOOoooX..  ...  X.XXX.ooo.  XoOoOOOOOOOo.     ....XX.  .X.  .   .  . .XX ..X .XX.XX .  .X XoOXooo.X.OOoOOOOOX..XOXX.X   ",
".X .XoOOOoXOOoXXX. .X... . .. .X  X oXoOOOOOOXX.X....  .. X ..    ...  .X.. XXooooXo....X ......XooOXX...  XoXOOOOOOoX.XooOoX.. ",
"X. XoXOooo.oo... .. XXXX.       ...  XXXOOooXXoX  XoX..X  ...    . .....oXXooXOooooXoX  . . XX.XXoXoX..X...XXXOOOOOOo X XooO... ",
"   X.XoXo. X..   X  ..XXX.. . .. X..  .XXXOoOoX.  XX...X... ..X .XX..ooo.X..oXOOooOXX.X.   .XoX..XXX .      ..oXOOOoo....XOOoX.X",
"X...X.. .X ..  .Xo.. ..oXXo  .X.. ... .XXXoXo. XXXXXOXoo.Xo.   ..XXXXooXo X.oOOOOOoX..XX. .. .XXXX   .... .  .XOOOOOoX  .XoOoooo",
". .   ..      . XXX.  .XoOX  XX.Xo.X. .....XX  ..oXoOooooXX...X.XX.XXXooXX.oXOOOOOOo  ..X.X .XX .X ..XXXX.XX..XXoOOOoo. XooOOooo",
" .   .    ..X. ..oOX .  .X.. XXX..... . .  .   XXOOOOOOOOOX... . ... .Xo.. .oOOOOoO.X.XoO.oX    . X. .XX.oXX.  XXXOOoX. .XOOooo ",
" X...X.X.X.XX. ..XoOX X... .XXX X  X. X ..  .XXoXOOOOOOOOOoX. .   . .XX.X. oXXoooooX..ooooo...  X...ooXoXOO.   Xo.OoO....XOOXXX ",
"   oX...XooOXX...oOOXo...X..X .     .. .XX .  XOoOOOOOOOOOOX .XXXX   . . . XXXooOOoX..XOOOoo   . Xo.XOoOoOOOX.. ..OOOX .XoO.X...",
"..XoOXXXoOOoo.  ooXXo.o  ..   ...X.   ..o.o....oOOOOOOOOOOOo. .o.X...   . ...XXXXo  .X.oOOOo XX  . ..oXXoOoXX.X ..XoOX. XOXo.  .",
" XXOOOOOOOoOOX.XX.XXoX.o  .  ..XXoX. . .XXO. .XoOOOOOOOoOOOX. .oXoo.X .  ..... XX.XXX.OOOOO....     X.XooOooOooX  .Xoo  ooX  . X",
"ooOOOOOOOOOOoo.    ..X.X. . XXXooXX.  .XOOOX  XXXOOOoOoOXXO...XXOooX.X...    ... .X.XXOOOoOo.XXo  X.  X..XoOOoo .. XoX.. o.  X..",
"OoOOOOOOOOOOOX.   .   ..   X.o.X.o .. XoOooo . .XXoXoooo.oXX .XOoooXXXo. .X. .     .XOOOOOoX ..o  X ...XXooooOX.. ..X..  X. X.oX",
"oOOOOOOOOOOOo..   ..   .  ..OoXo... .XXoOOOXoX.XoXoX.XX X. . XXooOOOOo.. oXX.. XX   .oOOOooX .XXX XoX .. .X.XOOOXX.X . X...X.oOO",
"OOOOOOOOOOOOOo  .X.XXXXXX  ..o .X. ..XXOOOOo. .X.XX .XX  ....XXXXOOOoX.  .Xo.Xo.o.. XXXOOoo. .Xo..oXo.X  . .XXXo...   ...  ..ooo",
"OOOOOOOOOOOoooX.XXoo.o.XX  X    .   oooOOOO.X.  . .  . . ...  ..XoXooX  .ooOooXoOX . .OOOoX. .Xo. .oooX  .  .X..X ... X.X.   XoO",
"XOoOOOOOOoXOo..X.oo.oXXXo  ....  .. .OoOOoo.X.     ... XX.X..  X.ooX.X.X.XOOOOOOoX.  .OOoXX. ..oX X.oooo.X .. .X  . ...XXX.  ...",
".XOOoOOOXXXXX.   .XXo.ooX .  ..X X...ooOOoo.  X.  . . XXoo.X.X.. XoX .. oOoOOOOooOo ..XOXX.. X.X. ...X. . X..  .    XoOoXoo . XX",
" XoXOOOXXoo.....X . XX ... . .ooo. .  .XXo . ..XX  ..oooooX.... ..o... .OOooX..XoX...ooo.X...  .  . X.X.X  .......X  XooOOo.... ",
" ..XoXX.o X.  XX. .  .  X. ..XXXX . . ..X... .oX ....XXXX.X ..XX    ...oo..oXXXX.  XX XX  .. ..  . .  .......  .XX.  XooOoOXo. .",
"....XoX.. X ....X .. .   ...X.  .    X..X . .XOo.  .       ...  ..  X ...XXXX   .  ...X . .X.XX.X.X...XXX.....oo.oXXX.oOOOOXo.. ",
"X  .X..  ..XXooo.oXX... . .XX..  .. X. .   X.XOoX......  .    ........X .    ....... .   . oXXooXoooXoooXo.. .oOoOo .oOoOOOOOOX.",
"X.  . .. . XXoOOoXOXXXX .  ..  . .XXX  .XXXXOoOO.X XXX...    .XX.  ..    ....XXXX  X. ..XXoXXoOOooXXXoOooXo  .oXOoX. X.XoOOOOXo.",
"oXX.....XoXoOOOOOOooXooo.     ..X..XX  ..oXXoOOOo..XX..XXXX..X  ..  ......XX.Xo.oX.X. . XX.o...oXXXooXooOX ..XXoooX  .XXOOOOOOoo",
"oXoX .X.oXXOXOOOooOoOo.XX X .. ....     .ooOOOOOoX. .Xo..X  . ..  X.XX.XoooX..XXoOXOXoX.X. .X.X....XXXoOooX...OoOooX .XoOOOOOOoo",
"OOOX X.ooooooOOOooOo..X .. X. ..   ..   .XOOOOOOo.   . ...X .  X X .oXoOXoXo. .XOOOOOX. .. . ....... ..Xo. X.XooOOoo...ooOOOOOoO",
"O.. X X.XOoOOOo.Xo..... . .o. XX.XX.    ooOOOoOOoXX .      XX XoXX  .XXOOOo.X..oOOOOooX X X .X    ..  X X .X.oOOOOOX..oooOOOOOOo",
"XoX .  .OXOooo.oX.. ... ....O.XXX.X.XX.  XXoXOOoo...    ..XXXXXoXX  ...ooooo ..oOOOOoo..o. X   X.   .   X..XoOOOOOoo. .oOOOOoooX",
"XX   . .XX.oX....  .  .X....oXOoXXOooX.  .o.oXoooX  .   oXX.OoOXXX X  ..XOOX...XOOOoo  .X.XXXooX....X      .ooOOOOO. ...OOOXXXo.",
" . .. ... X  X... ..XX.oo. .XooOOOoOOO.  X.XXXoo.X .XX.oXXoOoOXX . X   .XXoXX.XXOOOoX . .XXoOoo..oXoXXX.. X OoOOOOOOX..oOoOoo.XX",
" .X.X..     .. .X XXo..X....XOoOOOOooXX   X .XXX.  .ooXoOoOOoXXX  .X...  .XX. .XOOOOXX o.oOOOOOOXXoOXOoo. XXooOOOOOoX  .oXOo .  "
};
