/* XPM */
static char * Star_Ceiling_7_xpm[] = {
"64 64 520 2",
"  	c #383C2A",
". 	c #343826",
"+ 	c #2F3222",
"@ 	c #2C2E1E",
"# 	c #262A1C",
"$ 	c #232619",
"% 	c #1D2118",
"& 	c #171B15",
"* 	c #141712",
"= 	c #474A46",
"- 	c #0A0E09",
"; 	c #0A0C08",
"> 	c #090B06",
", 	c #090C07",
"' 	c #070A06",
") 	c #070905",
"! 	c #060905",
"~ 	c #060906",
"{ 	c #2C2F2C",
"] 	c #050804",
"^ 	c #070704",
"/ 	c #050905",
"( 	c #030402",
"_ 	c #222321",
": 	c #484A47",
"< 	c #1F211E",
"[ 	c #030502",
"} 	c #040503",
"| 	c #0A0C09",
"1 	c #040603",
"2 	c #060805",
"3 	c #343734",
"4 	c #2D2F2C",
"5 	c #5C6159",
"6 	c #343A33",
"7 	c #050704",
"8 	c #434542",
"9 	c #070906",
"0 	c #050603",
"a 	c #0A0D09",
"b 	c #515351",
"c 	c #373936",
"d 	c #040604",
"e 	c #030503",
"f 	c #030403",
"g 	c #4D4F4D",
"h 	c #060B06",
"i 	c #060806",
"j 	c #505250",
"k 	c #050705",
"l 	c #1E211D",
"m 	c #616560",
"n 	c #0D0F0C",
"o 	c #2F312E",
"p 	c #2B2F2C",
"q 	c #10120F",
"r 	c #090D09",
"s 	c #373A38",
"t 	c #131512",
"u 	c #050604",
"v 	c #323432",
"w 	c #3B3C3A",
"x 	c #050805",
"y 	c #070B07",
"z 	c #141613",
"A 	c #676A65",
"B 	c #4C4F4C",
"C 	c #818780",
"D 	c #1C1F1B",
"E 	c #171917",
"F 	c #040504",
"G 	c #3A3D3B",
"H 	c #444844",
"I 	c #040704",
"J 	c #646764",
"K 	c #3A3D39",
"L 	c #484B49",
"M 	c #262926",
"N 	c #272C27",
"O 	c #545654",
"P 	c #333432",
"Q 	c #1D1E1C",
"R 	c #080B07",
"S 	c #3C3F3B",
"T 	c #090B08",
"U 	c #373937",
"V 	c #0F120F",
"W 	c #494B48",
"X 	c #3D3F3D",
"Y 	c #515250",
"Z 	c #040804",
"` 	c #0F110F",
" .	c #0E100D",
"..	c #383A38",
"+.	c #0F110E",
"@.	c #454745",
"#.	c #070A07",
"$.	c #2E302D",
"%.	c #343634",
"&.	c #242722",
"*.	c #262826",
"=.	c #323331",
"-.	c #1F211F",
";.	c #5E615E",
">.	c #060907",
",.	c #2F322F",
"'.	c #6B6E69",
").	c #080A07",
"!.	c #3F413F",
"~.	c #090C09",
"{.	c #666A65",
"].	c #1D1F1C",
"^.	c #343533",
"/.	c #060705",
"(.	c #10110F",
"_.	c #252625",
":.	c #5A5D5A",
"<.	c #424441",
"[.	c #181B17",
"}.	c #3B3E3C",
"|.	c #101310",
"1.	c #353734",
"2.	c #2A2C2A",
"3.	c #313230",
"4.	c #4B4C4A",
"5.	c #434642",
"6.	c #232422",
"7.	c #171A16",
"8.	c #393B38",
"9.	c #272926",
"0.	c #4E514D",
"a.	c #222522",
"b.	c #5D5F5C",
"c.	c #5B5D59",
"d.	c #646762",
"e.	c #3E403D",
"f.	c #0C0F0B",
"g.	c #0E100C",
"h.	c #4C4F4B",
"i.	c #3C3E3B",
"j.	c #0B0E0B",
"k.	c #555956",
"l.	c #454644",
"m.	c #444744",
"n.	c #60645F",
"o.	c #545853",
"p.	c #0A0D08",
"q.	c #040705",
"r.	c #272927",
"s.	c #4B4F4C",
"t.	c #303330",
"u.	c #5C605B",
"v.	c #4A4E4A",
"w.	c #5B5E5B",
"x.	c #575A56",
"y.	c #292B28",
"z.	c #363836",
"A.	c #0A0E0A",
"B.	c #151814",
"C.	c #060A06",
"D.	c #5B5F5A",
"E.	c #0E120C",
"F.	c #414441",
"G.	c #0B0D0A",
"H.	c #3E423E",
"I.	c #3A3C3A",
"J.	c #0F120E",
"K.	c #121512",
"L.	c #0E0F0D",
"M.	c #575957",
"N.	c #4B4E4C",
"O.	c #1B1E1B",
"P.	c #292A28",
"Q.	c #757873",
"R.	c #090C08",
"S.	c #404440",
"T.	c #121411",
"U.	c #656864",
"V.	c #262726",
"W.	c #4A4C49",
"X.	c #20221F",
"Y.	c #383B38",
"Z.	c #4A4D4A",
"`.	c #11140F",
" +	c #797C77",
".+	c #0D100C",
"++	c #424541",
"@+	c #646864",
"#+	c #131713",
"$+	c #080A06",
"%+	c #131613",
"&+	c #414341",
"*+	c #4B4D4A",
"=+	c #252725",
"-+	c #2F312F",
";+	c #636562",
">+	c #050606",
",+	c #3C3F3C",
"'+	c #2A2D2A",
")+	c #606360",
"!+	c #131513",
"~+	c #111410",
"{+	c #1E211E",
"]+	c #5C605C",
"^+	c #141614",
"/+	c #636662",
"(+	c #212420",
"_+	c #61635F",
":+	c #050806",
"<+	c #636561",
"[+	c #11130F",
"}+	c #292B29",
"|+	c #050605",
"1+	c #101311",
"2+	c #111411",
"3+	c #060804",
"4+	c #494B49",
"5+	c #1A1B19",
"6+	c #272827",
"7+	c #474846",
"8+	c #191B18",
"9+	c #707570",
"0+	c #121713",
"a+	c #5B5D5A",
"b+	c #1B1F1D",
"c+	c #171B17",
"d+	c #202320",
"e+	c #121310",
"f+	c #484A48",
"g+	c #353834",
"h+	c #080A08",
"i+	c #545C59",
"j+	c #535A58",
"k+	c #626562",
"l+	c #818782",
"m+	c #080B08",
"n+	c #555755",
"o+	c #171A17",
"p+	c #0B0D0B",
"q+	c #242524",
"r+	c #323532",
"s+	c #090D0A",
"t+	c #1B211F",
"u+	c #111615",
"v+	c #070907",
"w+	c #474947",
"x+	c #4E514E",
"y+	c #393C39",
"z+	c #4F514F",
"A+	c #242523",
"B+	c #0A0D0A",
"C+	c #080B09",
"D+	c #0B0E0A",
"E+	c #0D110E",
"F+	c #080C09",
"G+	c #101412",
"H+	c #161916",
"I+	c #1C1E1C",
"J+	c #242623",
"K+	c #454744",
"L+	c #161816",
"M+	c #1B1D1B",
"N+	c #383A37",
"O+	c #232522",
"P+	c #090C0A",
"Q+	c #070A08",
"R+	c #595E5A",
"S+	c #111511",
"T+	c #101411",
"U+	c #1C201C",
"V+	c #4C4E4C",
"W+	c #1C1E1B",
"X+	c #3D3F3C",
"Y+	c #2B2D2A",
"Z+	c #4C4E4B",
"`+	c #121511",
" @	c #363936",
".@	c #191C17",
"+@	c #474945",
"@@	c #141612",
"#@	c #0F1310",
"$@	c #1C1D1B",
"%@	c #181A18",
"&@	c #040605",
"*@	c #666965",
"=@	c #191B19",
"-@	c #1C1F1C",
";@	c #1D211B",
">@	c #989C94",
",@	c #21241F",
"'@	c #171D19",
")@	c #313331",
"!@	c #4D504C",
"~@	c #050706",
"{@	c #3C3F3D",
"]@	c #222422",
"^@	c #0C0F0A",
"/@	c #1D201A",
"(@	c #282B26",
"_@	c #0C100B",
":@	c #090B07",
"<@	c #3A413C",
"[@	c #242724",
"}@	c #5A5C59",
"|@	c #2B2D2B",
"1@	c #0B0F0B",
"2@	c #050707",
"3@	c #2C302D",
"4@	c #272826",
"5@	c #0C0E0A",
"6@	c #0B0E09",
"7@	c #121612",
"8@	c #333533",
"9@	c #313431",
"0@	c #3D423F",
"a@	c #7F8681",
"b@	c #090D08",
"c@	c #595C58",
"d@	c #222521",
"e@	c #545754",
"f@	c #0D100D",
"g@	c #0F130E",
"h@	c #767B76",
"i@	c #080906",
"j@	c #10130F",
"k@	c #50544E",
"l@	c #747872",
"m@	c #383D37",
"n@	c #232623",
"o@	c #3F423F",
"p@	c #252925",
"q@	c #444945",
"r@	c #060904",
"s@	c #1E201D",
"t@	c #545652",
"u@	c #2D312B",
"v@	c #090A08",
"w@	c #2D302D",
"x@	c #181A17",
"y@	c #141713",
"z@	c #1B1C1A",
"A@	c #252624",
"B@	c #424542",
"C@	c #3A3E38",
"D@	c #323631",
"E@	c #3F4240",
"F@	c #383B39",
"G@	c #282A27",
"H@	c #141714",
"I@	c #818680",
"J@	c #1D221C",
"K@	c #1F201E",
"L@	c #4D524D",
"M@	c #393B39",
"N@	c #575A55",
"O@	c #0D110D",
"P@	c #191C16",
"Q@	c #727470",
"R@	c #464946",
"S@	c #040505",
"T@	c #454743",
"U@	c #4F5450",
"V@	c #3C3D3B",
"W@	c #30312F",
"X@	c #404340",
"Y@	c #3B3D3B",
"Z@	c #323332",
"`@	c #1A1C19",
" #	c #151813",
".#	c #2A2B29",
"+#	c #202321",
"@#	c #414440",
"##	c #0E110C",
"$#	c #30322F",
"%#	c #1D1F1D",
"&#	c #646862",
"*#	c #3E403E",
"=#	c #101410",
"-#	c #5F645D",
";#	c #3B3E3B",
">#	c #171B16",
",#	c #111310",
"'#	c #0E0F0E",
")#	c #343733",
"!#	c #4E504D",
"~#	c #555754",
"{#	c #4E524D",
"]#	c #181B18",
"^#	c #80847C",
"/#	c #6F736E",
"(#	c #0F120D",
"_#	c #585B58",
":#	c #656964",
"<#	c #292C28",
"[#	c #1A1E18",
"}#	c #20221E",
"|#	c #070805",
"1#	c #5A5D59",
"2#	c #595D58",
"3#	c #2D302C",
"4#	c #0E110E",
"5#	c #0C0D0B",
"6#	c #6A706A",
"7#	c #212320",
"8#	c #444643",
"9#	c #444743",
"0#	c #2F302E",
"a#	c #4C4F4A",
"b#	c #949892",
"c#	c #161A15",
"d#	c #424440",
"e#	c #0F130F",
"f#	c #272A23",
"g#	c #171A15",
"h#	c #161815",
"i#	c #5D615C",
"j#	c #414540",
"k#	c #3D403B",
"l#	c #8D918B",
"m#	c #111510",
"n#	c #696C65",
"o#	c #2F342D",
"p#	c #3F433E",
"q#	c #30332F",
"r#	c #0E110D",
"s#	c #535651",
"t#	c #2F312D",
"u#	c #5F635E",
"v#	c #101510",
"w#	c #1A1D18",
"x#	c #6C716C",
"y#	c #393B37",
"z#	c #080B06",
"A#	c #0C0E0D",
"B#	c #6B6E6A",
"C#	c #121312",
"D#	c #4D4F4C",
"E#	c #373B35",
"F#	c #131612",
"G#	c #080C07",
"H#	c #0C100C",
"I#	c #1A1C18",
"J#	c #252923",
"K#	c #949993",
"L#	c #2B2C2A",
"M#	c #2A2C29",
"N#	c #0C0F0C",
"O#	c #8A8E89",
"P#	c #2B2E29",
"Q#	c #282D28",
"R#	c #919790",
"S#	c #1C201B",
"T#	c #0E110F",
"U#	c #171816",
"V#	c #222622",
"W#	c #2D312D",
"X#	c #444642",
"Y#	c #222722",
"Z#	c #535652",
"`#	c #1C1F1A",
" $	c #2C2E2B",
".$	c #313432",
"+$	c #2F302F",
"@$	c #202220",
"#$	c #363835",
"$$	c #151715",
"%$	c #151815",
"&$	c #8E948E",
"*$	c #161A16",
"=$	c #282B28",
"-$	c #10140F",
";$	c #515451",
">$	c #343633",
",$	c #2C2E2C",
"'$	c #0E120D",
")$	c #292C2A",
"!$	c #4A4B49",
"~$	c #0B0F0A",
"{$	c #8D928C",
"]$	c #5C5E5A",
"^$	c #1F231D",
"/$	c #1A1D19",
"($	c #404140",
"_$	c #0C0E0B",
":$	c #353735",
"<$	c #3B3E39",
"[$	c #454A46",
"}$	c #5D615E",
"|$	c #525552",
"1$	c #484B47",
"2$	c #4B4E4B",
"3$	c #0B0C0B",
"4$	c #626660",
"5$	c #4A5049",
"6$	c #676A66",
"7$	c #2E312E",
"8$	c #262725",
"9$	c #0D0F0B",
"0$	c #181B16",
"a$	c #575955",
"b$	c #141812",
"c$	c #777B77",
"d$	c #1F231E",
"e$	c #282A28",
"f$	c #60635F",
"g$	c #333633",
"h$	c #747774",
"i$	c #535653",
"j$	c #191C19",
"k$	c #656863",
"l$	c #151714",
"m$	c #222421",
"n$	c #232523",
"o$	c #1E201E",
"p$	c #1F221F",
"q$	c #575B56",
"r$	c #080C06",
"s$	c #3C403E",
"t$	c #515450",
"u$	c #1E231D",
"  . + @ # $ % & * = - ; ; > , ' ) ! ~ { ] ^ ! / ] ( ( _ ( ( ( ( ( ( ( ( : < [ } } | ( ( 1 2 / 3 4 5 6 7 7 7 8 } 1 9 0 ( ( ( ( ( ",
"} ( [ a 1 1 ' b 7 c 1 } 1 ( ( } d [ e 2 1 e e e ( ( ( f ( ( ( ( ( ( ( ( 1 [ ( ( ( ( } 1 2 ! a g a h i j 2 1 k 2 l m n ( ( ( ( ( ",
"( ( ( o p [ 1 2 1 ( ( ( ( ( ( ( ( q ( 7 r 7 ( ( s t ( e ( ( ( u v ( ( ( ( ( ( ( ( ( w ~ x x y z e 1 e } ( ( 9 A B C D e ( ( E d ",
"( F ( G H 1 ( 1 ( I 1 ( ( ( ( F ( } 1 7 J K ( ( e ( ( 3 L ( ( ( ( ( ( ( ( ( ( ( ( ( M / 2 2 / I ( ( ( ( } ' x , ~ N 7 [ ( ( e } ",
"( f ( I 1 ( ( ( [ O 7 } P ( ( f ( ( [ Q R S ( ( ( ( ( 2 T ( ( ( ( ( ( ( ( U ( ( ( ( e e V ! x 1 ( ( ( ( 2 W } e I e 1 ( ( ( ( 1 ",
"( F ( X ' f f ( ( ~ ( [ } ( ( f ( ( ( Y 1 1 ( ( ( ( ( ( ( ( ( ( ( ( ( f ( [ ( f f ( ( ( Z ] I ( ( ( ( ( ( ( ( f ( ( ( ( ( ( ( 1 ",
"( f ( } [ ( ( ( ( ( ( ( ( ( ( ( ( ( ( f ( ( ( ( ( [ ( ( `  .( ( ( ( ( ( ( ( ( ( ( ( ( ( 1 I ( ( ( ( ( ..( ( ( ( ( ( ( ( ( ( ( [ ",
"( f ( ( ( ( ( ( ( ( i ( ( ( ( ( +.@.( ( ( ( ( ( 1 #.[ ( $.%.1 ( ( ( ( ( ( ( ( ( ( ( ( ( } &.u %.*.( ( ( ( ( ( ( ( ( ( ( ( ( ( ( ",
"( F ( ( ( ( ( ( e x =.1 ( ( ( ( 9 -.( f f ( ( ( } ;.>.e ( F ( ( ( ( ( ( ( +.,.( ( ( ( ( ! '.7 q ).( ( ( ( ( ( ( ( ( ( ( ( !.( ( ",
"( ( ( ( F ( ( ( ( ~.{.1 d ( ( [ ( ( ( ].^.I 9 /.[ 1 ( ( ( ( ( ( ( ( ( ( (._.:.d [ ( ( } } I [ 1 1 <.} ( ( ( ( ( [ 9 ( ( ( ( ( ( ",
"( [.- ( ( ( ( ( ( ( 1 1 }.( ( [ ( ( ( 2 |.1.2.3.[ ( ( ( ( ( ( ( ( ( ( /.4.1 ( } ( ( } 5.} ( } ( } 6.] e ( ( ( } 7.8.1 9.e ( ( ( ",
"( 0.a.( ( 7 b.9.[ ( ( ( ( ( ( ( ( ( ( ( ( ( ( ( ( ( ( ( ( ( ( [ 1 1 1 7 4 ( ( } ( ( [ x } ( | r ( ( 1 x d ( } R c.1 ' d.[ ( ( ( ",
"( 1 e.( ( f i ( ( ( ( ( ( ( ( ( ( ( ( ( ( ( ( ( ( ( ( ( ( ( ( f.g.h._ i.} ( } j.] 1 1 k.9 1 l.m.( [ ! n.y 1 1 o.p.} q.x e F ( ( ",
"r.s.e ( ( ( ( ( ( ( ( ( ( t.( ( ( ( ( ( ( ( ( ( ( ( ( ( ( ( 1 u.v.w.' I ( ( d x.y./ z.A.1 [ 1 ( ( ( 7 B.( e C.D.E.R I F.2 ( ( [ ",
"' ( ( ( ( ( ( ( ( ( ( ( 7 G.( ( ( ( ( ( ( ( ( ( ( ( ( ( ( e 4 ! H.e e ( ( ( x 1 ( [ I.} I [ 1 e ~ 1 ( [ ( 1 ' J.K.j.7 < k } 3 a ",
"( e ( ( L.@.( ( ( ( ( 1 M.N.} ( ( ( ( e.( ( ( ( ( ( ( ( 7 k O.%.P.( ( ( ( [ I.f.u ( ( e 2 +.7 7 Q.R.e ( ( ' S.7.T. .2 [ [ 1 U.V ",
"( f ( ( ( ( ( ( ( ( ( ( V.*.( ( | ( ( ( ( ( ( ( ( ( ( ( _ W.} ( ( ( [ t [ X.Y.Z.a ( ( e `. +9 I .+0 ( ( 1 ++@+#+.+$+u ( ( ( [ 1 ",
"( F ( ( e %+( F ( ( ( d k v ( f &+( ( ( ( } x } ( [ *+} =+( F ( ( ( e -+} ;+n 1 ( ( ( [ ~.A.[ F e ( ( ( 1 W ' ' ' / >+( ( ( ( ( ",
"( f ( ( } ,+( ( } |.'+( f ) ( ( ( ( ( ( ( k )+R ( ( !+} e ( ( ( ( ( ( ( [ } e ( ( ( ( ( d / 1 ( ( ( ( [ I ~+d ! ' ! 1 ( ( ( ( ( ",
"( f ( ( ( ( ( ( ( {+]+} ( ( ( ( ( ( ( ( ( ( 2 ( ( f x } ( f ( ( ( ( 7 1 [ [ ( ( ( 8.[ ( e Z 1 ( ( ( 7 ! k I I x 9 ! I ( ( ( ( ( ",
"( f ( ( ( ( ( ( ( } [ ( ( ( ( ( ( ( ( ( ( ( ( ( ( F ^+/+} ( ( r.).d (+_+} ( ( ( e ~ ( x :+x 1 ( ( 1 <+[+[ [ I e 2 ! e ( ( ( ( ( ",
"( ( ( ( } : 7 ( ( ( ( ( ( ( ( ( ( ( }+e ( ( ( ( ( ( |+~ ( ( ( }+1 ] R ).( ( ( ( ( 1 f x 1+#.d ( ( [ 2+3+e ( I 1 e e ( } 4+2 ( ( ",
"( f ( ( ( 9 } ( ( ( ( ( ( ( ( ( ( ( 5+1 !+( ( 6+( f f ( ( ( ( ( 1 7+8+( } } ( ( ( f ] ~.9+0+x k d I ! ! 9.k / / i I I ( ~+7 ( ( ",
"( F ( ( F ( ( ( ( ( ( ( ( ( ( ( ( ( ( ( ( ( ( ( ( ( ( ( ( ( ( ( ( F ( ( .+a+I ( ( ( ( d J.7 1 1 e f 7 ( F ! ~ 9 b+c+! 1 1 I ( ( ",
"} 1 d+1 ( ( 1 7 [ ( ( ( ( ( [ e+( ( [ ( ( ( ( ( f+7 ( ( ( ( ( ( ( ( ( ( 3+g+e ( ( ( f ( } I e ( ( ( ( ( ( R ! h+i+j+R ! d 1 } ( ",
"1 Y.k+] [ I 2+l+m+( ( ( ( ( ( ( ( ( n+o+( ( ( ( T.} ( ( } p+R ( ( ( ( [ } e e ( ( ( q+} F ( 1 r+( ( ( ( } A.~ s+t+u+m+#.v+' i / ",
"( F } } e x w+x+y+( ( ( ( }+u } ( ( u } 1 ( ( ( ( ( ( ( } z+: | T ( ( I / 1 A+} 1 e e e ( ( ( F ( ( ( ( B+C+>.D+E+F+G+B+H+w.9 9 ",
"( ( u I+( }+Z.[ } ( ( ( [ R $+) [ ( ( J+K+e ( 1 ( ( ( ( ( I I L+M+( ( Z / I ` } o I ( ( ( ( ( ( ( ( ( ] | x N+O+P+Q+R+S+T+U+~ ' ",
"( f v+V+W+X+T ( ( ( ( ( [ 9 $+! 1 ( f I Y+( ( t Z+e f 2++.e F f ( ( ( 1 `+/ ( ( ( ( [ R.2 ( ( ( ( [  @f..@J.+@@@9 ~ #@#.m+$+' a ",
"( $@%@).2 ( ( ( ( ( ( ( ( } x I 4 ( F ( ( ( ( U [ ( ( I } [ ( ( ( Y+J+( 8 x ( &@d ( R *@~+k [ =@I I -@;@>@;@A ,@T Q+R ~ R ! ' '@",
"i.X c ( ( ( ( ( ( ( ( ( ( ( ( ( } ( ( ( ( ( ( ( ( 5+)@x ( 1 I ( ( [ [ ( !@~@} / x ' #+{@2 I e T.]@ .( ^@/@C.(@_@m+R ).$+~.:@R.<@",
"a [@}@} ( ( ( ( ( ( ( ( ( e ( ( ( ( ( ( ( ( ( ( ( T.|@1@y R e ( } } e } I e 2@R 3@D+|.*+' I F ( 4@~+1 ' I 9 ! ) ' 5@`.6@| R $+7@",
"e ] &@f ( 8@9@e ( ( ( ( e d ( ( ( ( ( ( ( ( ( 1 [ e ' 0@a@b@1 x c@d@( e@f@( I g@h@7@R ' i@7 ( ( } 7 m./ / / j@$+$+].k@l@m@R.R D+",
"X.( f ( [ n@Y.} f f ( d@o@).} ( ( ( ( ( ( } I ! x I / p@q@r@7 ] 5.s@[ 7 ( ( e ] ! 7 ~ C.! Z ( ( ( d x 1 ' ' t@B+m+~.).u@& R.#.a ",
"( d v@1 w@n@} ( ( ( ( )@x@B 2 I R.( ( ( ( e ! T y@^@] 7 u [ z@l.[ 1 [ e [ ( ( [ ( [ A@2.1 [ ).B@( F 1 C.C@D@! ).B+B+R 2 ].R / 2 ",
"( ( ( 1 E@F@e ( ( ( ( } [ ( 1 1 G@( ( ( ( ( ' H@I@J@] e ( ( 7 2 e K@( ( ( ( ( ( ( ( ( ( ( ( d ^+( ( f ] n.L@R ).j.a v+I M@#.1 [ ",
"( ( ( ( e 9 A@( ( ( ( ( ( ( 1.( ( ( ( ( ( 7 `+N@O@' [ F ( ( ( ( I ( ( ( 1 1 e ( ( ( ( ( ( ( e ( ( ( ( ] 7 R C.Y.P@Q@m+( [ } ( ( ",
"( ( ( ( ( } v@( ( ( ( ( ( ( ( ( f ( ( ( 7 R@! ! d ! d } ( ( ( ( e ( ( 1 / y.1 ( ( ( ( } -+( S@( ( ( ( [ ( 1 1 7 .+T@' [ } 1 1 1 ",
"( ( ( ( ( ( ( ( ( ( f ( ( ( ( ( ( ( ( } 9 } I ( [ R U@V@( ( ( ( ( ( ( ( I R@! ( ( f ( e [ ( ( ( ( ( ( ( ( ( ( f@W@1 e e ! ! 3+*+",
"( ( ( ( ( ( ( ( ( ( ( ( ( ( ( ( ( ( ( u -+( f ( [ ! X@7 ( ( o+[ ( ( ( ( e 1 Y@k ( F ( ( ( ( Z@`@( ( ( ( ( ( ( } ( ( ( e ! $+). #",
"( .#P.( ( ( ( ( ( ( ( ( ( ( ( +#[ ( f ( ( ( ( ( f } ( ( ( ( @#7 [ ( ( ( ( ( } [ ( ( ( ( ( ( } } [ e 7 z.7 ( ( ( ( ( ( e ' $+' ##",
"( ( ( ( ( ( ( /.( ( $#( ( ( ( %#1 ( ( ( ( ( ( ( ( ( ( ( ( 1 J.&#' ( ( ( ( ( ( ( [ ( ( [ ( e F e 7 1 ] ' I e [ ( ( ( ( 1 *#R./ / ",
"( 2.( ( ( ( ( ( ( ( I 1 } ( ( ( F ( ( ( ( ( ( ( ( ( ( } =#x 6@-#' ( ( f } 1 1 ( x 1 ( i ;#I >+x ~ 9 / >#,#1 ( ( ( ( ( } 2 } } 1 ",
"( '#( ( ( ( ( ( ( 1 )#!#e ( ( ( ( ( } ~ d ( ( ( ( ( ( m+~#1 1 I e ( ( I r |@x 9 {#]#1 e } 1 I x / T J.^#*@R.I I ( ( R@{+( f [ } ",
"( f ( ( ( ( ( ( ( e y ' ( ( ( ( ( 1 ,#/#(#[ ( ( O+( ( 1 e ( ( ( ( ( ( 9 8+_#7 ! :#<#~ e [ I e@d 1 I 2 [#}#|#} [ ( ( 7 x e ( I R ",
"( F ( [ ' 1#} ( ( ( F ( ( ( ( ( ( ( f.2#)@d@3#} ( ( ( ( ( ( ( ( ( 1 } [.u@R ( 1 u ' ' ( 1 I 4#( } e 7 } 9 x ] ] x 5#( [ ( [ ' / ",
"( f ( ] f.6#] 7 ( ( ( ( ( ( ( ( ( e x I 7#8#9#( ( ( 0#=.( ( ( ( ( I T a#b#c#d#k d ! e#R f.' x [ e I 1 1 x / f#g#I h#( ( ( 7 i#j#",
"( ( ( [ } F f }+[ ( U ( ( ( ( ( } } ( ( I I [ ( ( ( !+7.( ( ( ( ( ( u B.7.R g.1 ! R.k#l#m#T ' 1 [ R R.R.x 2 n#o#c } ( ( ( ( p#q#",
"( f ( ( ( ( ( ( p+e [ ( ( ( e r#s#I ( ( ( ( ( ( ( [ ( ( ( ( ( ( ( [ ] 1 7 ! x 7 I [ t#u#v#; $+' 9 w#x#e#!.R.y#z#! ( ( ( ( 1 d 7 ",
"( ( ( ( A#( ( 2 R@} ( ( ( e 1@B#' ( ( ( ( ( ( C#( ).D#( [ ( [ ( 1 /.! Z 7 ! E#F#} I G#H##.x Y@D+I#J#K#M R.9 ! ! 7 ( ( ( ( [ ( ( ",
"( f ( } L#( ( M#1 e ( ( ( ( ~ 2 ( ( ( ( ( ( ( ( ( d 2+( -.] R N#! ) 2+' 0  .O#P#! / } 1 ] 1 ~ Q#R#S#^+T#/ x x I 1 ( ( ( ( ( ( e ",
"( F ( ( ( } U#( 1 e ( ( ( ( [ ( ( ( ( ( ( ( f f ( ( ( ( ( 7 V#D+) ' J W#1 m+J.- I [.X#[ } ( d o+Y#R.$+Z#`#! 2 e #. $[ ( ( ( ( ( ",
"( ( .$} ( ( G.e ! 1 ( ( +$@$( ( ( ( ( ( #$$$( ( ( ( ( ( Y+%$&$*$C.! j.A.} #.z.2 e ,#y.1 V x 1 ] 2 ' 9 #$=$-$R.} ~.;$} ( ( ( ( ( ",
"( ( r+1 ( ( ( f >$d ( ( ( 1 ( ( ( ( ( ( X.,$( ( ( ( ( ( 1 '$)$d e } [ ] ( d d e [ ( F } !$x 1 ( e * ~$5@{${#a#! $$R ] ( ( ( ( ( ",
"( S@( ( ( f f ( ( ( F ( ( ( ( ( ( ( ( ( }+..( u 1 ( ( ( ( } } [ ( ( ( ( ( H+( ( d e ( ( e e } } } ]$c#2 ^$/$/ ] ($R./ e ( ( ( ( ",
"( ( ( } _$( ( } :$( ( ( ( ( ( ( ( ( ( ( I [ <$[$1 ( ( ( ( ( ( ( ( ( ( ( e ( [ ( V@4#( ( ( ( m+}$k ] I ] x ' 7 x |$e } Z 1$t ( ( ",
"( F ( | 2$( ( 3$[ ( F ( ( ( ( ( ( ( ( ( [ 7 4$5$I ( ( ( ( ( ( ( ( ( ( ( j@V ( ( ( 1 ( ( ( ( 1 ! ( ( ( ( ( x } e x ( ( ( } ] ( ( ",
"( ( ( ( ( ( ( F ( ( 1 } ( ( ( ( ( ( ( ( ( 1 x d [ ( ( ( ( ( ( ( ( ( e k c@6$x [ ( [ ( ] 1 ( ( e ( ( ( ( ( x 1 ( ( 8+e ( ( ( } ( ",
"} ' 1 ( ( ( ( ( ( ( 1 I ( ( ( ( ( ( ( ( [ ( ( ( e } ( 7$( f ( ( ( ( ( e N#n 1 ( ( ( } d.~+( ( ( ( ( ( ( 7 z.1 ( ! I 1 ( ( } ! 7 ",
"} 8$x 1 ( ( ( ( ( } r x I [ ( ( ( ( ( ( 1 1 ( ( P.d e ( ( F ( ( ( f ( ( e ~ 8.e ( f 1 9$! [ [ F ( ( ( ( } 1 R.R.0$a$1 ( ( M@b$c$",
"1 2 Z e ( ( ( ( ( e 2 d$] I e$( ( ( ( ,#q ;.( ( f d x+( ( ( ( ( ( ( ( ( 7 } ( R.f.1 ( 1 , f$7 ( ( ( ( ( 1 7 g$h$j@i$' 1 ( ( R j$",
"e x Z [ ( ( ( ( ( ( x k$z#I d e 8+} e Z.n l$1 ( ( } ] ( ( m$( ( ( ( ( [ [ [ } (@l@x ( ( 2 g+7 [ ( ( } d ( 1 F#/$f.R.! I ( [ e d ",
"( [ ( ( ( ( ( ( ( 1 n$1 } f f ( ( ( e [ o$p$[ ( ( ).( ( ( ( ( ( ( ( e V#7 ( 1 f.J.I ( ( ( 7 [ ( ( ( 2+;$7 x )#:@q$r$i J.1 7 ( 1 ",
"s$( ( 1 ( ( ( ( ( ( ( ( [ ( ( ( ( ( ( [ 7#M@X+7 ( ( d 1 ( ( ( ( ( ( x k+p+( I F#7 } ( ( ( ( 7 ( ( ( e 7 ( 1 t$$+:@! ' X u$r#e 1 "};
