/* XPM */
static char * wood_ceiling_xpm[] = {
"64 64 26 1",
" 	c #674A24",
".	c #4F391C",
"+	c #5F4323",
"@	c #372814",
"#	c #7C582D",
"$	c #3D3016",
"%	c #422E19",
"&	c #261D0E",
"*	c #70522A",
"=	c #694727",
"-	c #724D2A",
";	c #956537",
">	c #372A13",
",	c #2A2110",
"'	c #271B0D",
")	c #503F1C",
"!	c #483718",
"~	c #895D33",
"{	c #4F351D",
"]	c #1B1309",
"^	c #936B37",
"/	c #332311",
"(	c #784E23",
"_	c #342611",
":	c #432D16",
"<	c #51351B",
" .+.+.+.+@#.$$..+%#.++..+...+%#.+.+& $..*.=.+@#$..-.+++@;...$.=@",
" .+.+...+@#.>...+%#.+++.....+%#.+.+, >..*.=.+@ +..=$.+.@;.....+@",
" $+......@ +>$>.+%#.+++.+$..+@#.+.+@ '>.+.+.+@#++.=$++.@#+.+.+=%",
" $+.+..>.@)+>.>.+@#.++$..$..+@#$..+& '>.-.=.+@#+.+=++++@#+.+..+@",
" .....-+.@;+>.>.+@#$.+..+>+.+@#.$.+&!'>.-=+.+,#++.=++++@#++++++@",
"#.+.+.+++@~+>...+@#.$...+$=.+@ $$.+& >..*.=.+@#+++=++.+@#++++.+%",
"#++...+.+@~+$.$.+@ $$+..+.=.+@ .$.+, .+.*==.+@#++.=++.+@#+$+++.%",
"#+..+.+$+@~+$...+% .$.+.++=.-@#.$.+, ++.-+=.+@#.++=.+.+@#+.++++@",
"#...+.+$+@~+-.=.+@#.$$+..+=.+@#+..+@#+..+++.=%#+++..+.+@#..$.++%",
"#.=.+.+$.%~+*...+{#+..+..+=.+@#.+.+@#+..-+=.=% .++.+..+@#+...++@",
" +=$=.+>$%#+*$..-{#.+.+.++=.=, .=.+%#.+.++..=@ .+..+..+,;.+..+.%",
" +=$+++>.% +*..>+{#++.+.+.=$=, +..+@;.+.++..=@~.+..+..+&;$+...+@",
" +=$.++>.%#.*..>-@#.+.+++$=.=@ ...+%;$..++..=%~.+...+.+&#.+.+..%",
" .=$=.+>., .+...+@#.+.+++.+.=@#..=.% +$+=++.=%~$+.....+& .+....%",
" .=$..+>.@#.-..$+@#$...++.+.+@ +$=.{#.$++.+.+%~$....+.+, .+.+$.@",
" .+$.++>., .-=+.+@!$..+.+.+.+@#+.=.{ ..++.+.+@~$=..$..>,).+..$.@",
"#.+.+.+$.& .*.=.-, >+..+....+@#+>=.% ..++.$.+@~$..+$+$.,!.+.+>+@",
"#.=$..+..]!.*==.$@).+.+.+...+@#+>=.% +.++.+.+@#$..+$+..,!...+$+@",
"#.=.+.+>.]!.-+=.>,).+...+.>.+@ +>$+% ....++.-@#.+.+$.$., .+.+.+@",
"#.=+=.+>>]!.+++.>@).+.+.+...=@ =>$+@ +....+.-@~$..+....,#...+++,",
"#.=.=++>.& .-+=.., .+.+.+.>.-@ ='>.% +.++++.-@~.+...+.$&#....++,",
"#$+.=++$.@#.++..+@#.+$+.=...+% =>$$@ +.++++.+@~+=..+++.,#..$.+.,",
"#$+.=.+$.%#.+...+%#.$$+++...+% ='>$@#+.+++=++@~.=..-+.+@;.+$++.,",
"~..=.+.++@ +.+..+% .$$++....+@ +>$$@#+.+++*+=,#.=..-+++@#.-$+..,",
"~..=.+.++@ =+.+.=@ .$.++-...+@#+'>.,#+.+..*+=,#.=.+.+.+@;.-.+$.,",
"~..=.+++.% =.+$.*@~..+++*.=.+@#='>$@!..++.=+=@#.=.+.+.+@;.+.+..,",
"~..=.+.+.@ =..$.*%~..+++*.=.+,#='$.@!.$...+++@#.=.+.+$.@;.-+..$@",
"~....+++.% =.+$.*%~$.+++*.=.+,#='$+@!.++++=++@#.=.+..$.%;.++...,",
"~.+..+.+.@ +..$.*%~$.++.*.=.+, =>$+@#>.+..+++@ .=.-..>+%#.+.$.$@",
";..=$-+..%)++.$.+@~$..+.+.+.., =$$+&#.+.+++.+@ .......+% .+.>.$,",
"~.+..+...%)+....+@~>..+.-.=.., =.$+&;$..+.+.+@ +..$$+.+@ .+.$.>@",
"#..=.-.+.%).+.+.=@#>$++.+++..@ -.$+,;..$++..+@ .=.>$...@#.$.$.>@",
"#+$=.+++.@!.+.+.+@#>$.+$..=..@ -.$+@^+.+.++.=@;+....+..@#.+.+.>@",
"#+.=.-++.@!.+.=.+@~$$.+$.+=..@#*+.+@^.$+.++.=@;.=.+.+.=@#.+.+.$@",
"#.$=$-++.&/>+.*.+@~$$.+$..=..% *+.+@^+++.++.=%~$=.+++.$@#.+.+.$@",
"#.$+.-+..]!>..*.+@~$..+$$.+.+@ -+.+@^+++.+..=% .=.++..$@#.+....@",
"#.+.-...$&).+.*.+@~$.++$>.=$.%#++.+@^+.++...=@~$=.=...$@#.+.-$=@",
"#$+.-...+& .+.*.=,#$.++$>+..+@#-+++@^+.+....+@ $+.-.=.+%#..+*.=@",
"#$+.*+.+., ++.=.=,#$..+>.+...%#++++@^+..+...+@#++.*+=$=%#>$+*$=@",
"#$+.*.>++, .+.+.=@#$..+>.+..-%#+++.@^+..$$..+, +..*+=$+%#>.+*.=,",
"#$+.+.>+.@#++...=@#.=.+$.++..@#+.+.@;...'$..+,#+..*+=$.%#>.+*.=@",
";$..+-.+.%#.+.+.=@#.=.+$+.+..@#=+++@;.+.>>+.+,#++.*.=$=@#>.$+.+@",
" ..+.*.$+@#++...=@ .=.+$+++..@ .$+.{#+...$+.+,#++.*.=$.@#>..-.=@",
" .+.+*++.% .++..+@ ...+$+.$.+@ =$=${#+....+.+,#.+.=.+$.%#>.$-=+@",
" .+.+++..,#+.++.+@ +..+$=.+.+%#..=.{#+.+.++.-@#.+.-.+.+@#$.>*.=@",
" +..+.++.@#..++.+@ .=$-$=.+.+@#=$=.%#..++++.+@#.+.-.=$.@#..'*==@",
" +..+$-.+@#..+..+@;+..+$=.+.+{#-.=.{ ..++++.*@#.+.-.=.+@#>.'-+=@",
" +..+>-$+@#......@;.=.-.=++.+{#-+..% +..+++.*% .+.+.=+=@#>>'+++@",
" ++.+>+.+@#.+....%~$=.+.+++$+{#+++.% +.+=.+.*% .+.+.=.=%#>.>-+=@",
" ++.+>..+@#......% .=.+.++=.-@#.+.-@#...=$+.*% .+.=$+.=%#$..++.@",
";++.+>..+@#.+$...@^$=++.++*$+@#.+.-@#.+.=.+.*%#.+.=$+.=@#$.+++.@",
"#.+.+'$.+@#..$...@^$+.+.-+*$+@#$..-@;++...+.-%#.+.=.+.=@#.++++.@",
"#.+$.'>.+@ .+>+..@^++++.++=.+@ ..+-@#++...+.-%#.+.=.+.=@#.++=++@",
"#.+.$'>..% .+$+.+@^+..+.-++.+@ .+.+@#.+.....+@#.+.=.+.=@#++.=.+@",
"#..$$'..+@#.+.+..@^+.+..+==.+@ ..+.@#.+.....+@#$..=...=@#.+.=.+@",
"#+..$'+.+% .+++.+@^++...+.+.+, .+.+@ .+...>.+@#.$.=....@#++.=.$@",
"#.+.$>+.+@#..++..@^++.+.+=+.+,#...+@#.+.....+@ $$.=..+.@#.+.+.+@",
"#-++.$+.., +.++.-@^.+++++.+.+@#.+..% +++.+>.+% .$.-...=,;+..+++@",
"(-+.+.-.+_#.+++.-@#.++++++..+@#.=$+@#.++....+@#.$.=.-+.@#...+.+@",
"(-+++.+.-_ ++.+.+@#.+++.+++.+%#..$+@ .=+..$.+{#+..-.-.=@;.+..++@",
"(.+.+.-.-:#.+$+.+@#.++.+.++.+% .$$+,#.=++...-{#.+.-+=$=@#++..++@",
"(.+.+.-.+:#.+.+.+% .+....++.+@ .$.+,#.=++$=.+{#++.*+..=@;++..+=@",
"(.+$..-.-<#...+.+% .+....+..+@~.++-, +=++.=.+@#.+.*.=$=,;++.>+*@",
"(.>$.+-.+<#...+.-% .++......+%~$=+-&)++++$=.+@#.+.*..$+@;+..>.*@"};
