/* XPM */
static char * Brick_wall_xpm[] = {
"32 32 4 1",
" 	c #121317",
".	c #5D5C62",
"+	c #333836",
"@	c #3F4243",
" .............. ++++++++++++++++",
" @@@@@@@@@@@@@. @@@@@@@@@@@@@@@+",
" @@@@@@@@@@@@@. @@@@@@@@@@@@@@@+",
" @@@@@@@@@@@@@. @@@@@@@@@@@@@@@+",
" @@@@@@@@@@@@@. @@@@@@@@@@@@@@@+",
" @@@@@@@@@@@@@. @@@@@@@@@@@@@@@+",
" +++++++++++++. @@@@@@@@@@@@@@@+",
"                                ",
"+++++++ .............. +++++++++",
"@@@@@@+ @@@@@@@@@@@@@. @@@@@@@@@",
"@@@@@@+ @@@@@@@@@@@@@. @@@@@@@@@",
"@@@@@@+ @@@@@@@@@@@@@. @@@@@@@@@",
"@@@@@@+ @@@@@@@@@@@@@. @@@@@@@@@",
"@@@@@@+ @@@@@@@@@@@@@. @@@@@@@@@",
"@@@@@@+ +++++++++++++. @@@@@@@@@",
"                                ",
" ++++++++++++++ ................",
" +@@@@@@@@@@@@+ @@@@@@@@@@@@@@@.",
" +@@@@@@@@@@@@+ @@@@@@@@@@@@@@@.",
" +@@@@@@@@@@@@+ @@@@@@@@@@@@@@@.",
" +@@@@@@@@@@@@+ @@@@@@@@@@@@@@@.",
" +@@@@@@@@@@@@+ @@@@@@@@@@@@@@@.",
" ++++++++++++++ +++++++++++++++.",
"                                ",
"....... .............. .........",
"@@@@@@+ @@@@@@@@@@@@@. @@@@@@@@@",
"@@@@@@+ @@@@@@@@@@@@@. @@@@@@@@@",
"@@@@@@+ @@@@@@@@@@@@@. @@@@@@@@@",
"@@@@@@+ @@@@@@@@@@@@@. @@@@@@@@@",
"@@@@@@+ @@@@@@@@@@@@@. @@@@@@@@@",
"@@@@@@+ @@@@@@@@@@@@@. @@@@@@@@@",
"                                "};
