/* XPM */
static char *1_white_80[] = {
"80 80 8 1",
". c None",
"a c #ffffff",
"b c #ffffff",
"c c #ffffff",
"d c #ffffff",
"e c #ffffff",
"f c #ffffff",
"g c #ffffff",
"................................................................................",
"................................................................................",
"................................................................................",
"................................................................................",
"................................................................................",
"................................................................................",
"................................................................................",
"................................................................................",
"................................................................................",
"................................................................................",
"................................................................................",
"................................................................................",
"................................................................................",
"................................................................................",
"................................................................................",
"...........................................aaaaaaaaaab..........................",
"...........................................aaaaaaaaaab..........................",
"...........................................aaaaaaaaaab..........................",
"...........................................aaaaaaaaaab..........................",
"...........................................aaaaaaaaaab..........................",
".....................................cdddddaaaaaaaaaab..........................",
".....................................eaaaaaaaaaaaaaaab..........................",
".....................................eaaaaaaaaaaaaaaab..........................",
".....................................eaaaaaaaaaaaaaaab..........................",
".....................................eaaaaaaaaaaaaaaab..........................",
".....................................eaaaaaaaaaaaaaaab..........................",
"................................fffffgaaaaaaaaaaaaaaab..........................",
"................................aaaaaaaaaaaaaaaaaaaaab..........................",
"................................aaaaaaaaaaaaaaaaaaaaab..........................",
"................................aaaaaaaaaaaaaaaaaaaaab..........................",
"................................aaaaaaaaaaaaaaaaaaaaab..........................",
"................................aaaaaaaaaaaaaaaaaaaaab..........................",
"...........................................aaaaaaaaaab..........................",
"...........................................aaaaaaaaaab..........................",
"...........................................aaaaaaaaaab..........................",
"...........................................aaaaaaaaaab..........................",
"...........................................aaaaaaaaaab..........................",
"...........................................aaaaaaaaaab..........................",
"...........................................aaaaaaaaaab..........................",
"...........................................aaaaaaaaaab..........................",
"...........................................aaaaaaaaaab..........................",
"...........................................aaaaaaaaaab..........................",
"...........................................aaaaaaaaaab..........................",
"...........................................aaaaaaaaaab..........................",
"...........................................aaaaaaaaaab..........................",
"...........................................aaaaaaaaaab..........................",
"...........................................aaaaaaaaaab..........................",
"...........................................aaaaaaaaaab..........................",
"...........................................aaaaaaaaaab..........................",
"...........................................aaaaaaaaaab..........................",
"...........................................aaaaaaaaaab..........................",
"...........................................aaaaaaaaaab..........................",
"...........................................aaaaaaaaaab..........................",
"...........................................aaaaaaaaaab..........................",
"...........................................aaaaaaaaaab..........................",
"...........................................aaaaaaaaaab..........................",
"...........................................aaaaaaaaaab..........................",
"...........................................aaaaaaaaaab..........................",
"...........................................aaaaaaaaaab..........................",
"...........................................aaaaaaaaaab..........................",
"...........................................aaaaaaaaaab..........................",
"...........................................aaaaaaaaaab..........................",
"...........................................aaaaaaaaaab..........................",
"...........................................aaaaaaaaaab..........................",
"...........................................aaaaaaaaaab..........................",
"................................................................................",
"................................................................................",
"................................................................................",
"................................................................................",
"................................................................................",
"................................................................................",
"................................................................................",
"................................................................................",
"................................................................................",
"................................................................................",
"................................................................................",
"................................................................................",
"................................................................................",
"................................................................................",
"................................................................................"
};