/* XPM */
static char *2_white_80[] = {
"80 80 10 1",
". c None",
"a c #ffffff",
"b c #ffffff",
"c c #ffffff",
"d c #ffffff",
"e c #ffffff",
"f c #ffffff",
"g c #ffffff",
"h c #ffffff",
"i c #ffffff",
"................................................................................",
"................................................................................",
"................................................................................",
"................................................................................",
"................................................................................",
"................................................................................",
"................................................................................",
"................................................................................",
"................................................................................",
"................................................................................",
"................................................................................",
"................................................................................",
"................................................................................",
"................................................................................",
"................................................................................",
"...............................abbbbbbbbbbbbbbbbbbbbb...........................",
"...............................abbbbbbbbbbbbbbbbbbbbb...........................",
"...............................abbbbbbbbbbbbbbbbbbbbb...........................",
"...............................abbbbbbbbbbbbbbbbbbbbb...........................",
"...............................abbbbbbbbbbbbbbbbbbbbb...........................",
"...............................abbbbcdddddddddddbbbbb...........................",
"..........................bbbbbbbbbba...........bbbbbbbbbba.....................",
"..........................bbbbbbbbbba...........bbbbbbbbbba.....................",
"..........................bbbbbbbbbba...........bbbbbbbbbba.....................",
"..........................bbbbbbbbbba...........bbbbbbbbbba.....................",
"..........................bbbbbbbbbba...........bbbbbbbbbba.....................",
"..........................dddddddddde...........bbbbbbbbbba.....................",
"................................................bbbbbbbbbba.....................",
"................................................bbbbbbbbbba.....................",
"................................................bbbbbbbbbba.....................",
"................................................bbbbbbbbbba.....................",
"................................................bbbbbbbbbba.....................",
"................................................bbbbbbbbbba.....................",
"................................................bbbbbbbbbba.....................",
"................................................bbbbbbbbbba.....................",
"................................................bbbbbbbbbba.....................",
"................................................bbbbbbbbbba.....................",
"................................................bbbbbbbbbba.....................",
"..........................................abbbbbbbbbb...........................",
"..........................................abbbbbbbbbb...........................",
"..........................................abbbbbbbbbb...........................",
"..........................................abbbbbbbbbb...........................",
"..........................................abbbbbbbbbb...........................",
".....................................bbbbbbbbbba................................",
".....................................bbbbbbbbbba................................",
".....................................bbbbbbbbbba................................",
".....................................bbbbbbbbbba................................",
".....................................bbbbbbbbbba................................",
"...............................fgggggbbbbbhhhhhi................................",
"...............................abbbbbbbbbb......................................",
"...............................abbbbbbbbbb......................................",
"...............................abbbbbbbbbb......................................",
"...............................abbbbbbbbbb......................................",
"...............................abbbbbbbbbb......................................",
"..........................bbbbbbbbbba...........................................",
"..........................bbbbbbbbbba...........................................",
"..........................bbbbbbbbbba...........................................",
"..........................bbbbbbbbbba...........................................",
"..........................bbbbbbbbbba...........................................",
"..........................bbbbbbbbbbcddddddddddddddddddddde.....................",
"..........................bbbbbbbbbbbbbbbbbbbbbbbbbbbbbbbba.....................",
"..........................bbbbbbbbbbbbbbbbbbbbbbbbbbbbbbbba.....................",
"..........................bbbbbbbbbbbbbbbbbbbbbbbbbbbbbbbba.....................",
"..........................bbbbbbbbbbbbbbbbbbbbbbbbbbbbbbbba.....................",
"..........................bbbbbbbbbbbbbbbbbbbbbbbbbbbbbbbba.....................",
"................................................................................",
"................................................................................",
"................................................................................",
"................................................................................",
"................................................................................",
"................................................................................",
"................................................................................",
"................................................................................",
"................................................................................",
"................................................................................",
"................................................................................",
"................................................................................",
"................................................................................",
"................................................................................",
"................................................................................"
};