/* XPM */
static char *3_white_80[] = {
"80 80 6 1",
". c None",
"a c #ffffff",
"b c #ffffff",
"c c #ffffff",
"d c #ffffff",
"e c #ffffff",
"................................................................................",
"................................................................................",
"................................................................................",
"................................................................................",
"................................................................................",
"................................................................................",
"................................................................................",
"................................................................................",
"................................................................................",
"................................................................................",
"................................................................................",
"................................................................................",
"................................................................................",
"................................................................................",
"................................................................................",
"...............................aaaaaaaaaaaaaaaaaaaaaa...........................",
"...............................aaaaaaaaaaaaaaaaaaaaaa...........................",
"...............................aaaaaaaaaaaaaaaaaaaaaa...........................",
"...............................aaaaaaaaaaaaaaaaaaaaaa...........................",
"...............................aaaaaaaaaaaaaaaaaaaaaa...........................",
"...............................aaaaabcccccccccccaaaaa...........................",
"..........................aaaaaaaaaad...........aaaaaaaaaad.....................",
"..........................aaaaaaaaaad...........aaaaaaaaaad.....................",
"..........................aaaaaaaaaad...........aaaaaaaaaad.....................",
"..........................aaaaaaaaaad...........aaaaaaaaaad.....................",
"..........................aaaaaaaaaad...........aaaaaaaaaad.....................",
"..........................cccccccccce...........aaaaaaaaaad.....................",
"................................................aaaaaaaaaad.....................",
"................................................aaaaaaaaaad.....................",
"................................................aaaaaaaaaad.....................",
"................................................aaaaaaaaaad.....................",
"................................................aaaaaaaaaad.....................",
"................................................aaaaaaaaaad.....................",
"................................................aaaaaaaaaad.....................",
"................................................aaaaaaaaaad.....................",
"................................................aaaaaaaaaad.....................",
"................................................aaaaaaaaaad.....................",
".....................................cccccccccccaaaaaccccce.....................",
".....................................aaaaaaaaaaaaaaaa...........................",
".....................................aaaaaaaaaaaaaaaa...........................",
".....................................aaaaaaaaaaaaaaaa...........................",
".....................................aaaaaaaaaaaaaaaa...........................",
".....................................aaaaaaaaaaaaaaaa...........................",
"................................................aaaaaccccce.....................",
"................................................aaaaaaaaaad.....................",
"................................................aaaaaaaaaad.....................",
"................................................aaaaaaaaaad.....................",
"................................................aaaaaaaaaad.....................",
"................................................aaaaaaaaaad.....................",
"................................................aaaaaaaaaad.....................",
"................................................aaaaaaaaaad.....................",
"................................................aaaaaaaaaad.....................",
"................................................aaaaaaaaaad.....................",
"................................................aaaaaaaaaad.....................",
"..........................aaaaaaaaaad...........aaaaaaaaaad.....................",
"..........................aaaaaaaaaad...........aaaaaaaaaad.....................",
"..........................aaaaaaaaaad...........aaaaaaaaaad.....................",
"..........................aaaaaaaaaad...........aaaaaaaaaad.....................",
"..........................aaaaaaaaaad...........aaaaaaaaaad.....................",
"..........................cccccaaaaabcccccccccccaaaaaccccce.....................",
"...............................aaaaaaaaaaaaaaaaaaaaaa...........................",
"...............................aaaaaaaaaaaaaaaaaaaaaa...........................",
"...............................aaaaaaaaaaaaaaaaaaaaaa...........................",
"...............................aaaaaaaaaaaaaaaaaaaaaa...........................",
"...............................aaaaaaaaaaaaaaaaaaaaaa...........................",
"................................................................................",
"................................................................................",
"................................................................................",
"................................................................................",
"................................................................................",
"................................................................................",
"................................................................................",
"................................................................................",
"................................................................................",
"................................................................................",
"................................................................................",
"................................................................................",
"................................................................................",
"................................................................................",
"................................................................................"
};