/* XPM */
static char *4_white_80[] = {
"80 80 8 1",
". c None",
"a c #ffffff",
"b c #ffffff",
"c c #ffffff",
"d c #ffffff",
"e c #ffffff",
"f c #ffffff",
"g c #ffffff",
"................................................................................",
"................................................................................",
"................................................................................",
"................................................................................",
"................................................................................",
"................................................................................",
"................................................................................",
"................................................................................",
"................................................................................",
"................................................................................",
"................................................................................",
"................................................................................",
"................................................................................",
"................................................................................",
"................................................................................",
"..........................................aaaaaaaaaab...........................",
"..........................................aaaaaaaaaab...........................",
"..........................................aaaaaaaaaab...........................",
"..........................................aaaaaaaaaab...........................",
"..........................................aaaaaaaaaab...........................",
"..........................................aaaaaaaaaab...........................",
"....................................aaaaaaaaaaaaaaaab...........................",
"....................................aaaaaaaaaaaaaaaab...........................",
"....................................aaaaaaaaaaaaaaaab...........................",
"....................................aaaaaaaaaaaaaaaab...........................",
"....................................aaaaaaaaaaaaaaaab...........................",
"....................................aaaaaaaaaaaaaaaab...........................",
"....................................aaaaaaaaaaaaaaaab...........................",
"....................................aaaaaaaaaaaaaaaab...........................",
"....................................aaaaaaaaaaaaaaaab...........................",
"....................................aaaaaaaaaaaaaaaab...........................",
"....................................aaaaaaaaaaaaaaaab...........................",
"...............................aaaaaaaaaaaaaaaaaaaaab...........................",
"...............................aaaaaaaaaaaaaaaaaaaaab...........................",
"...............................aaaaaaaaaaaaaaaaaaaaab...........................",
"...............................aaaaaaaaaaaaaaaaaaaaab...........................",
"...............................aaaaaaaaaaaaaaaaaaaaab...........................",
"...............................aaaaaaaaaaaaaaaaaaaaab...........................",
"...............................aaaaa......aaaaaaaaaab...........................",
"...............................aaaaa......aaaaaaaaaab...........................",
"...............................aaaaa......aaaaaaaaaab...........................",
"...............................aaaaa......aaaaaaaaaab...........................",
"...............................aaaaa......aaaaaaaaaab...........................",
".........................cdddddaaaaa......aaaaaaaaaab...........................",
".........................eaaaaaaaaaa......aaaaaaaaaab...........................",
".........................eaaaaaaaaaa......aaaaaaaaaab...........................",
".........................eaaaaaaaaaa......aaaaaaaaaab...........................",
".........................eaaaaaaaaaa......aaaaaaaaaab...........................",
".........................eaaaaaaaaaaeeeeeeaaaaaaaaaafeeeeeg.....................",
".........................eaaaaaaaaaaaaaaaaaaaaaaaaaaaaaaaae.....................",
".........................eaaaaaaaaaaaaaaaaaaaaaaaaaaaaaaaae.....................",
".........................eaaaaaaaaaaaaaaaaaaaaaaaaaaaaaaaae.....................",
".........................eaaaaaaaaaaaaaaaaaaaaaaaaaaaaaaaae.....................",
".........................eaaaaaaaaaaaaaaaaaaaaaaaaaaaaaaaae.....................",
"..........................................aaaaaaaaaab...........................",
"..........................................aaaaaaaaaab...........................",
"..........................................aaaaaaaaaab...........................",
"..........................................aaaaaaaaaab...........................",
"..........................................aaaaaaaaaab...........................",
"..........................................aaaaaaaaaab...........................",
"..........................................aaaaaaaaaab...........................",
"..........................................aaaaaaaaaab...........................",
"..........................................aaaaaaaaaab...........................",
"..........................................aaaaaaaaaab...........................",
"..........................................aaaaaaaaaab...........................",
"................................................................................",
"................................................................................",
"................................................................................",
"................................................................................",
"................................................................................",
"................................................................................",
"................................................................................",
"................................................................................",
"................................................................................",
"................................................................................",
"................................................................................",
"................................................................................",
"................................................................................",
"................................................................................",
"................................................................................"
};