/* XPM */
static char *5_gold_80[] = {
"80 80 6 1",
". c None",
"a c #ffc864",
"b c #ffc864",
"c c #ffc864",
"d c #ffc864",
"e c #ffc864",
"................................................................................",
"................................................................................",
"................................................................................",
"................................................................................",
"................................................................................",
"................................................................................",
"................................................................................",
"................................................................................",
"................................................................................",
"................................................................................",
"................................................................................",
"................................................................................",
"................................................................................",
"................................................................................",
"................................................................................",
"..........................aaaaaaaaaaaaaaaaaaaaaaaaaaaaaaaab.....................",
"..........................aaaaaaaaaaaaaaaaaaaaaaaaaaaaaaaab.....................",
"..........................aaaaaaaaaaaaaaaaaaaaaaaaaaaaaaaab.....................",
"..........................aaaaaaaaaaaaaaaaaaaaaaaaaaaaaaaab.....................",
"..........................aaaaaaaaaaaaaaaaaaaaaaaaaaaaaaaab.....................",
"..........................aaaaaaaaaacddddddddddddddddddddde.....................",
"..........................aaaaaaaaaab...........................................",
"..........................aaaaaaaaaab...........................................",
"..........................aaaaaaaaaab...........................................",
"..........................aaaaaaaaaab...........................................",
"..........................aaaaaaaaaab...........................................",
"..........................aaaaaaaaaab...........................................",
"..........................aaaaaaaaaab...........................................",
"..........................aaaaaaaaaab...........................................",
"..........................aaaaaaaaaab...........................................",
"..........................aaaaaaaaaab...........................................",
"..........................aaaaaaaaaab...........................................",
"..........................aaaaaaaaaaaaaaaaaaaaaaaaaaa...........................",
"..........................aaaaaaaaaaaaaaaaaaaaaaaaaaa...........................",
"..........................aaaaaaaaaaaaaaaaaaaaaaaaaaa...........................",
"..........................aaaaaaaaaaaaaaaaaaaaaaaaaaa...........................",
"..........................aaaaaaaaaaaaaaaaaaaaaaaaaaa...........................",
"..........................aaaaaaaaaacdddddddddddaaaaaddddde.....................",
"..........................aaaaaaaaaab...........aaaaaaaaaab.....................",
"..........................aaaaaaaaaab...........aaaaaaaaaab.....................",
"..........................aaaaaaaaaab...........aaaaaaaaaab.....................",
"..........................aaaaaaaaaab...........aaaaaaaaaab.....................",
"..........................aaaaaaaaaab...........aaaaaaaaaab.....................",
"................................................aaaaaaaaaab.....................",
"................................................aaaaaaaaaab.....................",
"................................................aaaaaaaaaab.....................",
"................................................aaaaaaaaaab.....................",
"................................................aaaaaaaaaab.....................",
"................................................aaaaaaaaaab.....................",
"................................................aaaaaaaaaab.....................",
"................................................aaaaaaaaaab.....................",
"................................................aaaaaaaaaab.....................",
"................................................aaaaaaaaaab.....................",
"................................................aaaaaaaaaab.....................",
"..........................aaaaaaaaaab...........aaaaaaaaaab.....................",
"..........................aaaaaaaaaab...........aaaaaaaaaab.....................",
"..........................aaaaaaaaaab...........aaaaaaaaaab.....................",
"..........................aaaaaaaaaab...........aaaaaaaaaab.....................",
"..........................aaaaaaaaaab...........aaaaaaaaaab.....................",
"..........................dddddaaaaacdddddddddddaaaaaddddde.....................",
"...............................aaaaaaaaaaaaaaaaaaaaaa...........................",
"...............................aaaaaaaaaaaaaaaaaaaaaa...........................",
"...............................aaaaaaaaaaaaaaaaaaaaaa...........................",
"...............................aaaaaaaaaaaaaaaaaaaaaa...........................",
"...............................aaaaaaaaaaaaaaaaaaaaaa...........................",
"................................................................................",
"................................................................................",
"................................................................................",
"................................................................................",
"................................................................................",
"................................................................................",
"................................................................................",
"................................................................................",
"................................................................................",
"................................................................................",
"................................................................................",
"................................................................................",
"................................................................................",
"................................................................................",
"................................................................................"
};