/* XPM */
static char *6_gold_80[] = {
"80 80 6 1",
". c None",
"a c #ffc864",
"b c #ffc864",
"c c #ffc864",
"d c #ffc864",
"e c #ffc864",
"................................................................................",
"................................................................................",
"................................................................................",
"................................................................................",
"................................................................................",
"................................................................................",
"................................................................................",
"................................................................................",
"................................................................................",
"................................................................................",
"................................................................................",
"................................................................................",
"................................................................................",
"................................................................................",
"................................................................................",
"...............................aaaaaaaaaaaaaaaaaaaaaa...........................",
"...............................aaaaaaaaaaaaaaaaaaaaaa...........................",
"...............................aaaaaaaaaaaaaaaaaaaaaa...........................",
"...............................aaaaaaaaaaaaaaaaaaaaaa...........................",
"...............................aaaaaaaaaaaaaaaaaaaaaa...........................",
"...............................aaaaabcccccccccccaaaaa...........................",
"..........................aaaaaaaaaad...........aaaaaaaaaad.....................",
"..........................aaaaaaaaaad...........aaaaaaaaaad.....................",
"..........................aaaaaaaaaad...........aaaaaaaaaad.....................",
"..........................aaaaaaaaaad...........aaaaaaaaaad.....................",
"..........................aaaaaaaaaad...........aaaaaaaaaad.....................",
"..........................aaaaaaaaaad...........cccccccccce.....................",
"..........................aaaaaaaaaad...........................................",
"..........................aaaaaaaaaad...........................................",
"..........................aaaaaaaaaad...........................................",
"..........................aaaaaaaaaad...........................................",
"..........................aaaaaaaaaad...........................................",
"..........................aaaaaaaaaad...........................................",
"..........................aaaaaaaaaad...........................................",
"..........................aaaaaaaaaad...........................................",
"..........................aaaaaaaaaad...........................................",
"..........................aaaaaaaaaad...........................................",
"..........................aaaaaaaaaabcccccccccccccccc...........................",
"..........................aaaaaaaaaaaaaaaaaaaaaaaaaaa...........................",
"..........................aaaaaaaaaaaaaaaaaaaaaaaaaaa...........................",
"..........................aaaaaaaaaaaaaaaaaaaaaaaaaaa...........................",
"..........................aaaaaaaaaaaaaaaaaaaaaaaaaaa...........................",
"..........................aaaaaaaaaaaaaaaaaaaaaaaaaaa...........................",
"..........................aaaaaaaaaad...........aaaaaaaaaad.....................",
"..........................aaaaaaaaaad...........aaaaaaaaaad.....................",
"..........................aaaaaaaaaad...........aaaaaaaaaad.....................",
"..........................aaaaaaaaaad...........aaaaaaaaaad.....................",
"..........................aaaaaaaaaad...........aaaaaaaaaad.....................",
"..........................aaaaaaaaaad...........aaaaaaaaaad.....................",
"..........................aaaaaaaaaad...........aaaaaaaaaad.....................",
"..........................aaaaaaaaaad...........aaaaaaaaaad.....................",
"..........................aaaaaaaaaad...........aaaaaaaaaad.....................",
"..........................aaaaaaaaaad...........aaaaaaaaaad.....................",
"..........................aaaaaaaaaad...........aaaaaaaaaad.....................",
"..........................aaaaaaaaaad...........aaaaaaaaaad.....................",
"..........................aaaaaaaaaad...........aaaaaaaaaad.....................",
"..........................aaaaaaaaaad...........aaaaaaaaaad.....................",
"..........................aaaaaaaaaad...........aaaaaaaaaad.....................",
"..........................aaaaaaaaaad...........aaaaaaaaaad.....................",
"...............................aaaaabcccccccccccaaaaa...........................",
"...............................aaaaaaaaaaaaaaaaaaaaaa...........................",
"...............................aaaaaaaaaaaaaaaaaaaaaa...........................",
"...............................aaaaaaaaaaaaaaaaaaaaaa...........................",
"...............................aaaaaaaaaaaaaaaaaaaaaa...........................",
"...............................aaaaaaaaaaaaaaaaaaaaaa...........................",
"................................................................................",
"................................................................................",
"................................................................................",
"................................................................................",
"................................................................................",
"................................................................................",
"................................................................................",
"................................................................................",
"................................................................................",
"................................................................................",
"................................................................................",
"................................................................................",
"................................................................................",
"................................................................................",
"................................................................................"
};