/* XPM */
static char *7_white_80[] = {
"80 80 6 1",
". c None",
"a c #ffffff",
"b c #ffffff",
"c c #ffffff",
"d c #ffffff",
"e c #ffffff",
"................................................................................",
"................................................................................",
"................................................................................",
"................................................................................",
"................................................................................",
"................................................................................",
"................................................................................",
"................................................................................",
"................................................................................",
"................................................................................",
"................................................................................",
"................................................................................",
"................................................................................",
"................................................................................",
"................................................................................",
"..........................abbbbbbbbbbbbbbbbbbbbbbbbbbbbbbbb.....................",
"..........................abbbbbbbbbbbbbbbbbbbbbbbbbbbbbbbb.....................",
"..........................abbbbbbbbbbbbbbbbbbbbbbbbbbbbbbbb.....................",
"..........................abbbbbbbbbbbbbbbbbbbbbbbbbbbbbbbb.....................",
"..........................abbbbbbbbbbbbbbbbbbbbbbbbbbbbbbbb.....................",
"..........................caaaaaaaaaaaaaaaaaaaaadbbbbbbbbbb.....................",
"................................................ebbbbbbbbbb.....................",
"................................................ebbbbbbbbbb.....................",
"................................................ebbbbbbbbbb.....................",
"................................................ebbbbbbbbbb.....................",
"................................................ebbbbbbbbbb.....................",
"................................................ebbbbbbbbbb.....................",
"...........................................bbbbbbbbbbe..........................",
"...........................................bbbbbbbbbbe..........................",
"...........................................bbbbbbbbbbe..........................",
"...........................................bbbbbbbbbbe..........................",
"...........................................bbbbbbbbbbe..........................",
"...........................................bbbbbbbbbbe..........................",
"...........................................bbbbbbbbbbe..........................",
"...........................................bbbbbbbbbbe..........................",
"...........................................bbbbbbbbbbe..........................",
"...........................................bbbbbbbbbbe..........................",
"...........................................bbbbbbbbbbe..........................",
".....................................ebbbbbbbbbb................................",
".....................................ebbbbbbbbbb................................",
".....................................ebbbbbbbbbb................................",
".....................................ebbbbbbbbbb................................",
".....................................ebbbbbbbbbb................................",
".....................................ebbbbbbbbbb................................",
".....................................ebbbbbbbbbb................................",
".....................................ebbbbbbbbbb................................",
".....................................ebbbbbbbbbb................................",
".....................................ebbbbbbbbbb................................",
".....................................ebbbbbbbbbb................................",
"................................bbbbbbbbbbe.....................................",
"................................bbbbbbbbbbe.....................................",
"................................bbbbbbbbbbe.....................................",
"................................bbbbbbbbbbe.....................................",
"................................bbbbbbbbbbe.....................................",
"................................bbbbbbbbbbe.....................................",
"................................bbbbbbbbbbe.....................................",
"................................bbbbbbbbbbe.....................................",
"................................bbbbbbbbbbe.....................................",
"................................bbbbbbbbbbe.....................................",
"................................bbbbbbbbbbe.....................................",
"................................bbbbbbbbbbe.....................................",
"................................bbbbbbbbbbe.....................................",
"................................bbbbbbbbbbe.....................................",
"................................bbbbbbbbbbe.....................................",
"................................bbbbbbbbbbe.....................................",
"................................................................................",
"................................................................................",
"................................................................................",
"................................................................................",
"................................................................................",
"................................................................................",
"................................................................................",
"................................................................................",
"................................................................................",
"................................................................................",
"................................................................................",
"................................................................................",
"................................................................................",
"................................................................................",
"................................................................................"
};