/* XPM */
static char *A_white_80[] = {
"80 80 5 1",
". c None",
"a c #ffffff",
"b c #ffffff",
"c c #ffffff",
"d c #ffffff",
"................................................................................",
"................................................................................",
"................................................................................",
"................................................................................",
"................................................................................",
"................................................................................",
"................................................................................",
"................................................................................",
"................................................................................",
"................................................................................",
"................................................................................",
"................................................................................",
"................................................................................",
"................................................................................",
"................................................................................",
"....................................abbbbbbbbbb.................................",
"....................................abbbbbbbbbb.................................",
"....................................abbbbbbbbbb.................................",
"....................................abbbbbbbbbb.................................",
"....................................abbbbbbbbbb.................................",
"....................................abbbbbbbbbb.................................",
"....................................abbbbbbbbbb.................................",
"....................................abbbbbbbbbb.................................",
"....................................abbbbbbbbbb.................................",
"....................................abbbbbbbbbb.................................",
"....................................abbbbbbbbbb.................................",
"...............................bbbbbbbbbbbbbbbbbbbbbb...........................",
"...............................bbbbbbbbbbbbbbbbbbbbbb...........................",
"...............................bbbbbbbbbbbbbbbbbbbbbb...........................",
"...............................bbbbbbbbbbbbbbbbbbbbbb...........................",
"...............................bbbbbbbbbbbbbbbbbbbbbb...........................",
"...............................bbbbbbbbbbbbbbbbbbbbbb...........................",
"...............................bbbbbbbbbbbbbbbbbbbbbb...........................",
"...............................bbbbbbbbbbbbbbbbbbbbbb...........................",
"...............................bbbbbbbbbbbbbbbbbbbbbb...........................",
"...............................bbbbbbbbbbbbbbbbbbbbbb...........................",
"...............................bbbbbbbbbbbbbbbbbbbbbb...........................",
".........................abbbbbbbbbb...........abbbbbbbbbb......................",
".........................abbbbbbbbbb...........abbbbbbbbbb......................",
".........................abbbbbbbbbb...........abbbbbbbbbb......................",
".........................abbbbbbbbbb...........abbbbbbbbbb......................",
".........................abbbbbbbbbb...........abbbbbbbbbb......................",
".........................abbbbbbbbbb...........abbbbbbbbbb......................",
".........................abbbbbbbbbb...........abbbbbbbbbb......................",
".........................abbbbbbbbbb...........abbbbbbbbbb......................",
".........................abbbbbbbbbb...........abbbbbbbbbb......................",
".........................abbbbbbbbbb...........abbbbbbbbbb......................",
".........................abbbbbbbbbb...........abbbbbbbbbb......................",
".........................abbbbbbbbbbcccccccccccdbbbbbbbbbb......................",
".........................abbbbbbbbbbbbbbbbbbbbbbbbbbbbbbbb......................",
".........................abbbbbbbbbbbbbbbbbbbbbbbbbbbbbbbb......................",
".........................abbbbbbbbbbbbbbbbbbbbbbbbbbbbbbbb......................",
".........................abbbbbbbbbbbbbbbbbbbbbbbbbbbbbbbb......................",
".........................abbbbbbbbbbbbbbbbbbbbbbbbbbbbbbbb......................",
"....................bbbbbbbbbba......................bbbbbbbbbba................",
"....................bbbbbbbbbba......................bbbbbbbbbba................",
"....................bbbbbbbbbba......................bbbbbbbbbba................",
"....................bbbbbbbbbba......................bbbbbbbbbba................",
"....................bbbbbbbbbba......................bbbbbbbbbba................",
"....................bbbbbbbbbba......................bbbbbbbbbba................",
"....................bbbbbbbbbba......................bbbbbbbbbba................",
"....................bbbbbbbbbba......................bbbbbbbbbba................",
"....................bbbbbbbbbba......................bbbbbbbbbba................",
"....................bbbbbbbbbba......................bbbbbbbbbba................",
"....................bbbbbbbbbba......................bbbbbbbbbba................",
"................................................................................",
"................................................................................",
"................................................................................",
"................................................................................",
"................................................................................",
"................................................................................",
"................................................................................",
"................................................................................",
"................................................................................",
"................................................................................",
"................................................................................",
"................................................................................",
"................................................................................",
"................................................................................",
"................................................................................"
};