/* XPM */
static char *B_white_80[] = {
"80 80 7 1",
". c None",
"a c #ffffff",
"b c #ffffff",
"c c #ffffff",
"d c #ffffff",
"e c #ffffff",
"f c #ffffff",
"................................................................................",
"................................................................................",
"................................................................................",
"................................................................................",
"................................................................................",
"................................................................................",
"................................................................................",
"................................................................................",
"................................................................................",
"................................................................................",
"................................................................................",
"................................................................................",
"................................................................................",
"................................................................................",
"................................................................................",
".......................aaaaaaaaaaaaaaaaaaaaaaaaaaaaaaaab........................",
".......................aaaaaaaaaaaaaaaaaaaaaaaaaaaaaaaab........................",
".......................aaaaaaaaaaaaaaaaaaaaaaaaaaaaaaaab........................",
".......................aaaaaaaaaaaaaaaaaaaaaaaaaaaaaaaab........................",
".......................aaaaaaaaaaaaaaaaaaaaaaaaaaaaaaaab........................",
".......................aaaaaaaaaacddddddddddddddddcaaaab........................",
".......................aaaaaaaaaae................eaaaaaaaaaa...................",
".......................aaaaaaaaaae................eaaaaaaaaaa...................",
".......................aaaaaaaaaae................eaaaaaaaaaa...................",
".......................aaaaaaaaaae................eaaaaaaaaaa...................",
".......................aaaaaaaaaae................eaaaaaaaaaa...................",
".......................aaaaaaaaaae................eaaaaaaaaaa...................",
".......................aaaaaaaaaae................eaaaaaaaaaa...................",
".......................aaaaaaaaaae................eaaaaaaaaaa...................",
".......................aaaaaaaaaae................eaaaaaaaaaa...................",
".......................aaaaaaaaaae................eaaaaaaaaaa...................",
".......................aaaaaaaaaae................eaaaaaaaaaa...................",
".......................aaaaaaaaaae................eaaaaaaaaaa...................",
".......................aaaaaaaaaae................eaaaaaaaaaa...................",
".......................aaaaaaaaaae................eaaaaaaaaaa...................",
".......................aaaaaaaaaae................eaaaaaaaaaa...................",
".......................aaaaaaaaaae................eaaaaaaaaaa...................",
".......................aaaaaaaaaacddddddddddddddddcaaaafddddd...................",
".......................aaaaaaaaaaaaaaaaaaaaaaaaaaaaaaaab........................",
".......................aaaaaaaaaaaaaaaaaaaaaaaaaaaaaaaab........................",
".......................aaaaaaaaaaaaaaaaaaaaaaaaaaaaaaaab........................",
".......................aaaaaaaaaaaaaaaaaaaaaaaaaaaaaaaab........................",
".......................aaaaaaaaaaaaaaaaaaaaaaaaaaaaaaaab........................",
".......................aaaaaaaaaae................eaaaaaaaaaa...................",
".......................aaaaaaaaaae................eaaaaaaaaaa...................",
".......................aaaaaaaaaae................eaaaaaaaaaa...................",
".......................aaaaaaaaaae................eaaaaaaaaaa...................",
".......................aaaaaaaaaae................eaaaaaaaaaa...................",
".......................aaaaaaaaaae................eaaaaaaaaaa...................",
".......................aaaaaaaaaae................eaaaaaaaaaa...................",
".......................aaaaaaaaaae................eaaaaaaaaaa...................",
".......................aaaaaaaaaae................eaaaaaaaaaa...................",
".......................aaaaaaaaaae................eaaaaaaaaaa...................",
".......................aaaaaaaaaae................eaaaaaaaaaa...................",
".......................aaaaaaaaaae................eaaaaaaaaaa...................",
".......................aaaaaaaaaae................eaaaaaaaaaa...................",
".......................aaaaaaaaaae................eaaaaaaaaaa...................",
".......................aaaaaaaaaae................eaaaaaaaaaa...................",
".......................aaaaaaaaaae................eaaaaaaaaaa...................",
".......................aaaaaaaaaacddddddddddddddddcaaaab........................",
".......................aaaaaaaaaaaaaaaaaaaaaaaaaaaaaaaab........................",
".......................aaaaaaaaaaaaaaaaaaaaaaaaaaaaaaaab........................",
".......................aaaaaaaaaaaaaaaaaaaaaaaaaaaaaaaab........................",
".......................aaaaaaaaaaaaaaaaaaaaaaaaaaaaaaaab........................",
".......................aaaaaaaaaaaaaaaaaaaaaaaaaaaaaaaab........................",
"................................................................................",
"................................................................................",
"................................................................................",
"................................................................................",
"................................................................................",
"................................................................................",
"................................................................................",
"................................................................................",
"................................................................................",
"................................................................................",
"................................................................................",
"................................................................................",
"................................................................................",
"................................................................................",
"................................................................................"
};