/* XPM */
static char *C_white_80[] = {
"80 80 6 1",
". c None",
"a c #ffffff",
"b c #ffffff",
"c c #ffffff",
"d c #ffffff",
"e c #ffffff",
"................................................................................",
"................................................................................",
"................................................................................",
"................................................................................",
"................................................................................",
"................................................................................",
"................................................................................",
"................................................................................",
"................................................................................",
"................................................................................",
"................................................................................",
"................................................................................",
"................................................................................",
"................................................................................",
"................................................................................",
"..................................aaaaaaaaaaaaaaaaaaaaaa........................",
"..................................aaaaaaaaaaaaaaaaaaaaaa........................",
"..................................aaaaaaaaaaaaaaaaaaaaaa........................",
"..................................aaaaaaaaaaaaaaaaaaaaaa........................",
"..................................aaaaaaaaaaaaaaaaaaaaaa........................",
"..................................aaaaabbbbbbbbbbbcaaaaa........................",
"............................daaaaaaaaaa...........daaaaaaaaaa...................",
"............................daaaaaaaaaa...........daaaaaaaaaa...................",
"............................daaaaaaaaaa...........daaaaaaaaaa...................",
"............................daaaaaaaaaa...........daaaaaaaaaa...................",
"............................daaaaaaaaaa...........daaaaaaaaaa...................",
".......................aaaaaaaaaad..............................................",
".......................aaaaaaaaaad..............................................",
".......................aaaaaaaaaad..............................................",
".......................aaaaaaaaaad..............................................",
".......................aaaaaaaaaad..............................................",
".......................aaaaaaaaaad..............................................",
".......................aaaaaaaaaad..............................................",
".......................aaaaaaaaaad..............................................",
".......................aaaaaaaaaad..............................................",
".......................aaaaaaaaaad..............................................",
".......................aaaaaaaaaad..............................................",
".......................aaaaaaaaaad..............................................",
".......................aaaaaaaaaad..............................................",
".......................aaaaaaaaaad..............................................",
".......................aaaaaaaaaad..............................................",
".......................aaaaaaaaaad..............................................",
".......................aaaaaaaaaad..............................................",
".......................aaaaaaaaaad..............................................",
".......................aaaaaaaaaad..............................................",
".......................aaaaaaaaaad..............................................",
".......................aaaaaaaaaad..............................................",
".......................aaaaaaaaaad..............................................",
".......................aaaaaaaaaad..............................................",
".......................aaaaaaaaaad..............................................",
".......................aaaaaaaaaad..............................................",
".......................aaaaaaaaaad..............................................",
".......................aaaaaaaaaad..............................................",
".......................aaaaaaaaaad..............................................",
"............................daaaaaaaaaa...........daaaaaaaaaa...................",
"............................daaaaaaaaaa...........daaaaaaaaaa...................",
"............................daaaaaaaaaa...........daaaaaaaaaa...................",
"............................daaaaaaaaaa...........daaaaaaaaaa...................",
"............................daaaaaaaaaa...........daaaaaaaaaa...................",
"............................ebbbbbaaaaabbbbbbbbbbbcaaaaabbbbb...................",
"..................................aaaaaaaaaaaaaaaaaaaaaa........................",
"..................................aaaaaaaaaaaaaaaaaaaaaa........................",
"..................................aaaaaaaaaaaaaaaaaaaaaa........................",
"..................................aaaaaaaaaaaaaaaaaaaaaa........................",
"..................................aaaaaaaaaaaaaaaaaaaaaa........................",
"................................................................................",
"................................................................................",
"................................................................................",
"................................................................................",
"................................................................................",
"................................................................................",
"................................................................................",
"................................................................................",
"................................................................................",
"................................................................................",
"................................................................................",
"................................................................................",
"................................................................................",
"................................................................................",
"................................................................................"
};