/* XPM */
static char *D_gold_80[] = {
"80 80 9 1",
". c None",
"a c #ffc864",
"b c #ffc864",
"c c #ffc864",
"d c #ffc864",
"e c #ffc864",
"f c #ffc864",
"g c #ffc864",
"h c #ffc864",
"................................................................................",
"................................................................................",
"................................................................................",
"................................................................................",
"................................................................................",
"................................................................................",
"................................................................................",
"................................................................................",
"................................................................................",
"................................................................................",
"................................................................................",
"................................................................................",
"................................................................................",
"................................................................................",
"................................................................................",
".......................aaaaaaaaaaaaaaaaaaaaaaaaaaab.............................",
".......................aaaaaaaaaaaaaaaaaaaaaaaaaaab.............................",
".......................aaaaaaaaaaaaaaaaaaaaaaaaaaab.............................",
".......................aaaaaaaaaaaaaaaaaaaaaaaaaaab.............................",
".......................aaaaaaaaaaaaaaaaaaaaaaaaaaab.............................",
".......................aaaaaaaaaacdddddddddddaaaaab.............................",
".......................aaaaaaaaaae...........aaaaaaaaaae........................",
".......................aaaaaaaaaae...........aaaaaaaaaae........................",
".......................aaaaaaaaaae...........aaaaaaaaaae........................",
".......................aaaaaaaaaae...........aaaaaaaaaae........................",
".......................aaaaaaaaaae...........aaaaaaaaaae........................",
".......................aaaaaaaaaae................faaaaaaaaaa...................",
".......................aaaaaaaaaae................faaaaaaaaaa...................",
".......................aaaaaaaaaae................faaaaaaaaaa...................",
".......................aaaaaaaaaae................faaaaaaaaaa...................",
".......................aaaaaaaaaae................faaaaaaaaaa...................",
".......................aaaaaaaaaae................faaaaaaaaaa...................",
".......................aaaaaaaaaae................faaaaaaaaaa...................",
".......................aaaaaaaaaae................faaaaaaaaaa...................",
".......................aaaaaaaaaae................faaaaaaaaaa...................",
".......................aaaaaaaaaae................faaaaaaaaaa...................",
".......................aaaaaaaaaae................faaaaaaaaaa...................",
".......................aaaaaaaaaae................faaaaaaaaaa...................",
".......................aaaaaaaaaae................faaaaaaaaaa...................",
".......................aaaaaaaaaae................faaaaaaaaaa...................",
".......................aaaaaaaaaae................faaaaaaaaaa...................",
".......................aaaaaaaaaae................faaaaaaaaaa...................",
".......................aaaaaaaaaae................faaaaaaaaaa...................",
".......................aaaaaaaaaae................faaaaaaaaaa...................",
".......................aaaaaaaaaae................faaaaaaaaaa...................",
".......................aaaaaaaaaae................faaaaaaaaaa...................",
".......................aaaaaaaaaae................faaaaaaaaaa...................",
".......................aaaaaaaaaae................faaaaaaaaaa...................",
".......................aaaaaaaaaae................faaaaaaaaaa...................",
".......................aaaaaaaaaae................faaaaaaaaaa...................",
".......................aaaaaaaaaae................faaaaaaaaaa...................",
".......................aaaaaaaaaae................faaaaaaaaaa...................",
".......................aaaaaaaaaae................faaaaaaaaaa...................",
".......................aaaaaaaaaae................faaaaaaaaaa...................",
".......................aaaaaaaaaae...........aaaaaaaaaae........................",
".......................aaaaaaaaaae...........aaaaaaaaaae........................",
".......................aaaaaaaaaae...........aaaaaaaaaae........................",
".......................aaaaaaaaaae...........aaaaaaaaaae........................",
".......................aaaaaaaaaae...........aaaaaaaaaae........................",
".......................aaaaaaaaaacdddddddddddaaaaagddddh........................",
".......................aaaaaaaaaaaaaaaaaaaaaaaaaaab.............................",
".......................aaaaaaaaaaaaaaaaaaaaaaaaaaab.............................",
".......................aaaaaaaaaaaaaaaaaaaaaaaaaaab.............................",
".......................aaaaaaaaaaaaaaaaaaaaaaaaaaab.............................",
".......................aaaaaaaaaaaaaaaaaaaaaaaaaaab.............................",
"................................................................................",
"................................................................................",
"................................................................................",
"................................................................................",
"................................................................................",
"................................................................................",
"................................................................................",
"................................................................................",
"................................................................................",
"................................................................................",
"................................................................................",
"................................................................................",
"................................................................................",
"................................................................................",
"................................................................................"
};