/* XPM */
static char *E_white_80[] = {
"80 80 6 1",
". c None",
"a c #ffffff",
"b c #ffffff",
"c c #ffffff",
"d c #ffffff",
"e c #ffffff",
"................................................................................",
"................................................................................",
"................................................................................",
"................................................................................",
"................................................................................",
"................................................................................",
"................................................................................",
"................................................................................",
"................................................................................",
"................................................................................",
"................................................................................",
"................................................................................",
"................................................................................",
"................................................................................",
"................................................................................",
"..........................aaaaaaaaaaaaaaaaaaaaaaaaaaaaaaaab.....................",
"..........................aaaaaaaaaaaaaaaaaaaaaaaaaaaaaaaab.....................",
"..........................aaaaaaaaaaaaaaaaaaaaaaaaaaaaaaaab.....................",
"..........................aaaaaaaaaaaaaaaaaaaaaaaaaaaaaaaab.....................",
"..........................aaaaaaaaaaaaaaaaaaaaaaaaaaaaaaaab.....................",
"..........................aaaaaaaaaacbbbbbbbbbbbbbbbbbbbbbd.....................",
"..........................aaaaaaaaaae...........................................",
"..........................aaaaaaaaaae...........................................",
"..........................aaaaaaaaaae...........................................",
"..........................aaaaaaaaaae...........................................",
"..........................aaaaaaaaaae...........................................",
"..........................aaaaaaaaaae...........................................",
"..........................aaaaaaaaaae...........................................",
"..........................aaaaaaaaaae...........................................",
"..........................aaaaaaaaaae...........................................",
"..........................aaaaaaaaaae...........................................",
"..........................aaaaaaaaaae...........................................",
"..........................aaaaaaaaaae...........................................",
"..........................aaaaaaaaaae...........................................",
"..........................aaaaaaaaaae...........................................",
"..........................aaaaaaaaaae...........................................",
"..........................aaaaaaaaaae...........................................",
"..........................aaaaaaaaaacbbbbbbbbbbbbbbbbd..........................",
"..........................aaaaaaaaaaaaaaaaaaaaaaaaaaab..........................",
"..........................aaaaaaaaaaaaaaaaaaaaaaaaaaab..........................",
"..........................aaaaaaaaaaaaaaaaaaaaaaaaaaab..........................",
"..........................aaaaaaaaaaaaaaaaaaaaaaaaaaab..........................",
"..........................aaaaaaaaaaaaaaaaaaaaaaaaaaab..........................",
"..........................aaaaaaaaaae...........................................",
"..........................aaaaaaaaaae...........................................",
"..........................aaaaaaaaaae...........................................",
"..........................aaaaaaaaaae...........................................",
"..........................aaaaaaaaaae...........................................",
"..........................aaaaaaaaaae...........................................",
"..........................aaaaaaaaaae...........................................",
"..........................aaaaaaaaaae...........................................",
"..........................aaaaaaaaaae...........................................",
"..........................aaaaaaaaaae...........................................",
"..........................aaaaaaaaaae...........................................",
"..........................aaaaaaaaaae...........................................",
"..........................aaaaaaaaaae...........................................",
"..........................aaaaaaaaaae...........................................",
"..........................aaaaaaaaaae...........................................",
"..........................aaaaaaaaaae...........................................",
"..........................aaaaaaaaaacbbbbbbbbbbbbbbbbbbbbbd.....................",
"..........................aaaaaaaaaaaaaaaaaaaaaaaaaaaaaaaab.....................",
"..........................aaaaaaaaaaaaaaaaaaaaaaaaaaaaaaaab.....................",
"..........................aaaaaaaaaaaaaaaaaaaaaaaaaaaaaaaab.....................",
"..........................aaaaaaaaaaaaaaaaaaaaaaaaaaaaaaaab.....................",
"..........................aaaaaaaaaaaaaaaaaaaaaaaaaaaaaaaab.....................",
"................................................................................",
"................................................................................",
"................................................................................",
"................................................................................",
"................................................................................",
"................................................................................",
"................................................................................",
"................................................................................",
"................................................................................",
"................................................................................",
"................................................................................",
"................................................................................",
"................................................................................",
"................................................................................",
"................................................................................"
};