/* XPM */
static char *G_white_80[] = {
"80 80 8 1",
". c None",
"a c #ffffff",
"b c #ffffff",
"c c #ffffff",
"d c #ffffff",
"e c #ffffff",
"f c #ffffff",
"g c #ffffff",
"................................................................................",
"................................................................................",
"................................................................................",
"................................................................................",
"................................................................................",
"................................................................................",
"................................................................................",
"................................................................................",
"................................................................................",
"................................................................................",
"................................................................................",
"................................................................................",
"................................................................................",
"................................................................................",
"................................................................................",
"..................................aaaaaaaaaaaaaaaaaaaaaa........................",
"..................................aaaaaaaaaaaaaaaaaaaaaa........................",
"..................................aaaaaaaaaaaaaaaaaaaaaa........................",
"..................................aaaaaaaaaaaaaaaaaaaaaa........................",
"..................................aaaaaaaaaaaaaaaaaaaaaa........................",
"..................................aaaaabbbbbbbbbbbcaaaaa........................",
"............................daaaaaaaaaa...........daaaaaaaaaa...................",
"............................daaaaaaaaaa...........daaaaaaaaaa...................",
"............................daaaaaaaaaa...........daaaaaaaaaa...................",
"............................daaaaaaaaaa...........daaaaaaaaaa...................",
"............................daaaaaaaaaa...........daaaaaaaaaa...................",
".......................aaaaaaaaaad..............................................",
".......................aaaaaaaaaad..............................................",
".......................aaaaaaaaaad..............................................",
".......................aaaaaaaaaad..............................................",
".......................aaaaaaaaaad..............................................",
".......................aaaaaaaaaad..............................................",
".......................aaaaaaaaaad..............................................",
".......................aaaaaaaaaad..............................................",
".......................aaaaaaaaaad..............................................",
".......................aaaaaaaaaad..............................................",
".......................aaaaaaaaaad..............................................",
".......................aaaaaaaaaad..........ebbbbbbbbbbbbbbbb...................",
".......................aaaaaaaaaad..........faaaaaaaaaaaaaaaa...................",
".......................aaaaaaaaaad..........faaaaaaaaaaaaaaaa...................",
".......................aaaaaaaaaad..........faaaaaaaaaaaaaaaa...................",
".......................aaaaaaaaaad..........faaaaaaaaaaaaaaaa...................",
".......................aaaaaaaaaad..........faaaaaaaaaaaaaaaa...................",
".......................aaaaaaaaaad................daaaaaaaaaa...................",
".......................aaaaaaaaaad................daaaaaaaaaa...................",
".......................aaaaaaaaaad................daaaaaaaaaa...................",
".......................aaaaaaaaaad................daaaaaaaaaa...................",
".......................aaaaaaaaaad................daaaaaaaaaa...................",
".......................aaaaaaaaaad................daaaaaaaaaa...................",
".......................aaaaaaaaaad................daaaaaaaaaa...................",
".......................aaaaaaaaaad................daaaaaaaaaa...................",
".......................aaaaaaaaaad................daaaaaaaaaa...................",
".......................aaaaaaaaaad................daaaaaaaaaa...................",
".......................aaaaaaaaaad................daaaaaaaaaa...................",
"............................daaaaaaaaaa...........daaaaaaaaaa...................",
"............................daaaaaaaaaa...........daaaaaaaaaa...................",
"............................daaaaaaaaaa...........daaaaaaaaaa...................",
"............................daaaaaaaaaa...........daaaaaaaaaa...................",
"............................daaaaaaaaaa...........daaaaaaaaaa...................",
"............................gbbbbbaaaaabbbbbbbbbbbcaaaaabbbbb...................",
"..................................aaaaaaaaaaaaaaaaaaaaaa........................",
"..................................aaaaaaaaaaaaaaaaaaaaaa........................",
"..................................aaaaaaaaaaaaaaaaaaaaaa........................",
"..................................aaaaaaaaaaaaaaaaaaaaaa........................",
"..................................aaaaaaaaaaaaaaaaaaaaaa........................",
"................................................................................",
"................................................................................",
"................................................................................",
"................................................................................",
"................................................................................",
"................................................................................",
"................................................................................",
"................................................................................",
"................................................................................",
"................................................................................",
"................................................................................",
"................................................................................",
"................................................................................",
"................................................................................",
"................................................................................"
};