/* XPM */
static char *H_gold_80[] = {
"80 80 5 1",
". c None",
"a c #ffc864",
"b c #ffc864",
"c c #ffc864",
"d c #ffc864",
"................................................................................",
"................................................................................",
"................................................................................",
"................................................................................",
"................................................................................",
"................................................................................",
"................................................................................",
"................................................................................",
"................................................................................",
"................................................................................",
"................................................................................",
"................................................................................",
"................................................................................",
"................................................................................",
"................................................................................",
".......................aaaaaaaaaab................baaaaaaaaaa...................",
".......................aaaaaaaaaab................baaaaaaaaaa...................",
".......................aaaaaaaaaab................baaaaaaaaaa...................",
".......................aaaaaaaaaab................baaaaaaaaaa...................",
".......................aaaaaaaaaab................baaaaaaaaaa...................",
".......................aaaaaaaaaab................baaaaaaaaaa...................",
".......................aaaaaaaaaab................baaaaaaaaaa...................",
".......................aaaaaaaaaab................baaaaaaaaaa...................",
".......................aaaaaaaaaab................baaaaaaaaaa...................",
".......................aaaaaaaaaab................baaaaaaaaaa...................",
".......................aaaaaaaaaab................baaaaaaaaaa...................",
".......................aaaaaaaaaab................baaaaaaaaaa...................",
".......................aaaaaaaaaab................baaaaaaaaaa...................",
".......................aaaaaaaaaab................baaaaaaaaaa...................",
".......................aaaaaaaaaab................baaaaaaaaaa...................",
".......................aaaaaaaaaab................baaaaaaaaaa...................",
".......................aaaaaaaaaab................baaaaaaaaaa...................",
".......................aaaaaaaaaab................baaaaaaaaaa...................",
".......................aaaaaaaaaab................baaaaaaaaaa...................",
".......................aaaaaaaaaab................baaaaaaaaaa...................",
".......................aaaaaaaaaab................baaaaaaaaaa...................",
".......................aaaaaaaaaab................baaaaaaaaaa...................",
".......................aaaaaaaaaacddddddddddddddddcaaaaaaaaaa...................",
".......................aaaaaaaaaaaaaaaaaaaaaaaaaaaaaaaaaaaaaa...................",
".......................aaaaaaaaaaaaaaaaaaaaaaaaaaaaaaaaaaaaaa...................",
".......................aaaaaaaaaaaaaaaaaaaaaaaaaaaaaaaaaaaaaa...................",
".......................aaaaaaaaaaaaaaaaaaaaaaaaaaaaaaaaaaaaaa...................",
".......................aaaaaaaaaaaaaaaaaaaaaaaaaaaaaaaaaaaaaa...................",
".......................aaaaaaaaaab................baaaaaaaaaa...................",
".......................aaaaaaaaaab................baaaaaaaaaa...................",
".......................aaaaaaaaaab................baaaaaaaaaa...................",
".......................aaaaaaaaaab................baaaaaaaaaa...................",
".......................aaaaaaaaaab................baaaaaaaaaa...................",
".......................aaaaaaaaaab................baaaaaaaaaa...................",
".......................aaaaaaaaaab................baaaaaaaaaa...................",
".......................aaaaaaaaaab................baaaaaaaaaa...................",
".......................aaaaaaaaaab................baaaaaaaaaa...................",
".......................aaaaaaaaaab................baaaaaaaaaa...................",
".......................aaaaaaaaaab................baaaaaaaaaa...................",
".......................aaaaaaaaaab................baaaaaaaaaa...................",
".......................aaaaaaaaaab................baaaaaaaaaa...................",
".......................aaaaaaaaaab................baaaaaaaaaa...................",
".......................aaaaaaaaaab................baaaaaaaaaa...................",
".......................aaaaaaaaaab................baaaaaaaaaa...................",
".......................aaaaaaaaaab................baaaaaaaaaa...................",
".......................aaaaaaaaaab................baaaaaaaaaa...................",
".......................aaaaaaaaaab................baaaaaaaaaa...................",
".......................aaaaaaaaaab................baaaaaaaaaa...................",
".......................aaaaaaaaaab................baaaaaaaaaa...................",
".......................aaaaaaaaaab................baaaaaaaaaa...................",
"................................................................................",
"................................................................................",
"................................................................................",
"................................................................................",
"................................................................................",
"................................................................................",
"................................................................................",
"................................................................................",
"................................................................................",
"................................................................................",
"................................................................................",
"................................................................................",
"................................................................................",
"................................................................................",
"................................................................................"
};