/* XPM */
static char *I_gold_80[] = {
"80 80 3 1",
". c None",
"a c #ffc864",
"b c #ffc864",
"................................................................................",
"................................................................................",
"................................................................................",
"................................................................................",
"................................................................................",
"................................................................................",
"................................................................................",
"................................................................................",
"................................................................................",
"................................................................................",
"................................................................................",
"................................................................................",
"................................................................................",
"................................................................................",
"................................................................................",
".....................................aaaaaaaaaab................................",
".....................................aaaaaaaaaab................................",
".....................................aaaaaaaaaab................................",
".....................................aaaaaaaaaab................................",
".....................................aaaaaaaaaab................................",
".....................................aaaaaaaaaab................................",
".....................................aaaaaaaaaab................................",
".....................................aaaaaaaaaab................................",
".....................................aaaaaaaaaab................................",
".....................................aaaaaaaaaab................................",
".....................................aaaaaaaaaab................................",
".....................................aaaaaaaaaab................................",
".....................................aaaaaaaaaab................................",
".....................................aaaaaaaaaab................................",
".....................................aaaaaaaaaab................................",
".....................................aaaaaaaaaab................................",
".....................................aaaaaaaaaab................................",
".....................................aaaaaaaaaab................................",
".....................................aaaaaaaaaab................................",
".....................................aaaaaaaaaab................................",
".....................................aaaaaaaaaab................................",
".....................................aaaaaaaaaab................................",
".....................................aaaaaaaaaab................................",
".....................................aaaaaaaaaab................................",
".....................................aaaaaaaaaab................................",
".....................................aaaaaaaaaab................................",
".....................................aaaaaaaaaab................................",
".....................................aaaaaaaaaab................................",
".....................................aaaaaaaaaab................................",
".....................................aaaaaaaaaab................................",
".....................................aaaaaaaaaab................................",
".....................................aaaaaaaaaab................................",
".....................................aaaaaaaaaab................................",
".....................................aaaaaaaaaab................................",
".....................................aaaaaaaaaab................................",
".....................................aaaaaaaaaab................................",
".....................................aaaaaaaaaab................................",
".....................................aaaaaaaaaab................................",
".....................................aaaaaaaaaab................................",
".....................................aaaaaaaaaab................................",
".....................................aaaaaaaaaab................................",
".....................................aaaaaaaaaab................................",
".....................................aaaaaaaaaab................................",
".....................................aaaaaaaaaab................................",
".....................................aaaaaaaaaab................................",
".....................................aaaaaaaaaab................................",
".....................................aaaaaaaaaab................................",
".....................................aaaaaaaaaab................................",
".....................................aaaaaaaaaab................................",
".....................................aaaaaaaaaab................................",
"................................................................................",
"................................................................................",
"................................................................................",
"................................................................................",
"................................................................................",
"................................................................................",
"................................................................................",
"................................................................................",
"................................................................................",
"................................................................................",
"................................................................................",
"................................................................................",
"................................................................................",
"................................................................................",
"................................................................................"
};