/* XPM */
static char *I_white_80[] = {
"80 80 3 1",
". c None",
"a c #ffffff",
"b c #ffffff",
"................................................................................",
"................................................................................",
"................................................................................",
"................................................................................",
"................................................................................",
"................................................................................",
"................................................................................",
"................................................................................",
"................................................................................",
"................................................................................",
"................................................................................",
"................................................................................",
"................................................................................",
"................................................................................",
"................................................................................",
".....................................aaaaaaaaaab................................",
".....................................aaaaaaaaaab................................",
".....................................aaaaaaaaaab................................",
".....................................aaaaaaaaaab................................",
".....................................aaaaaaaaaab................................",
".....................................aaaaaaaaaab................................",
".....................................aaaaaaaaaab................................",
".....................................aaaaaaaaaab................................",
".....................................aaaaaaaaaab................................",
".....................................aaaaaaaaaab................................",
".....................................aaaaaaaaaab................................",
".....................................aaaaaaaaaab................................",
".....................................aaaaaaaaaab................................",
".....................................aaaaaaaaaab................................",
".....................................aaaaaaaaaab................................",
".....................................aaaaaaaaaab................................",
".....................................aaaaaaaaaab................................",
".....................................aaaaaaaaaab................................",
".....................................aaaaaaaaaab................................",
".....................................aaaaaaaaaab................................",
".....................................aaaaaaaaaab................................",
".....................................aaaaaaaaaab................................",
".....................................aaaaaaaaaab................................",
".....................................aaaaaaaaaab................................",
".....................................aaaaaaaaaab................................",
".....................................aaaaaaaaaab................................",
".....................................aaaaaaaaaab................................",
".....................................aaaaaaaaaab................................",
".....................................aaaaaaaaaab................................",
".....................................aaaaaaaaaab................................",
".....................................aaaaaaaaaab................................",
".....................................aaaaaaaaaab................................",
".....................................aaaaaaaaaab................................",
".....................................aaaaaaaaaab................................",
".....................................aaaaaaaaaab................................",
".....................................aaaaaaaaaab................................",
".....................................aaaaaaaaaab................................",
".....................................aaaaaaaaaab................................",
".....................................aaaaaaaaaab................................",
".....................................aaaaaaaaaab................................",
".....................................aaaaaaaaaab................................",
".....................................aaaaaaaaaab................................",
".....................................aaaaaaaaaab................................",
".....................................aaaaaaaaaab................................",
".....................................aaaaaaaaaab................................",
".....................................aaaaaaaaaab................................",
".....................................aaaaaaaaaab................................",
".....................................aaaaaaaaaab................................",
".....................................aaaaaaaaaab................................",
".....................................aaaaaaaaaab................................",
"................................................................................",
"................................................................................",
"................................................................................",
"................................................................................",
"................................................................................",
"................................................................................",
"................................................................................",
"................................................................................",
"................................................................................",
"................................................................................",
"................................................................................",
"................................................................................",
"................................................................................",
"................................................................................",
"................................................................................"
};