/* XPM */
static char *J_gold_80[] = {
"80 80 7 1",
". c None",
"a c #ffc864",
"b c #ffc864",
"c c #ffc864",
"d c #ffc864",
"e c #ffc864",
"f c #ffc864",
"................................................................................",
"................................................................................",
"................................................................................",
"................................................................................",
"................................................................................",
"................................................................................",
"................................................................................",
"................................................................................",
"................................................................................",
"................................................................................",
"................................................................................",
"................................................................................",
"................................................................................",
"................................................................................",
"................................................................................",
"............................................abbbbbbbbbb.........................",
"............................................abbbbbbbbbb.........................",
"............................................abbbbbbbbbb.........................",
"............................................abbbbbbbbbb.........................",
"............................................abbbbbbbbbb.........................",
"............................................abbbbbbbbbb.........................",
"............................................abbbbbbbbbb.........................",
"............................................abbbbbbbbbb.........................",
"............................................abbbbbbbbbb.........................",
"............................................abbbbbbbbbb.........................",
"............................................abbbbbbbbbb.........................",
"............................................abbbbbbbbbb.........................",
"............................................abbbbbbbbbb.........................",
"............................................abbbbbbbbbb.........................",
"............................................abbbbbbbbbb.........................",
"............................................abbbbbbbbbb.........................",
"............................................abbbbbbbbbb.........................",
"............................................abbbbbbbbbb.........................",
"............................................abbbbbbbbbb.........................",
"............................................abbbbbbbbbb.........................",
"............................................abbbbbbbbbb.........................",
"............................................abbbbbbbbbb.........................",
"............................................abbbbbbbbbb.........................",
"............................................abbbbbbbbbb.........................",
"............................................abbbbbbbbbb.........................",
"............................................abbbbbbbbbb.........................",
"............................................abbbbbbbbbb.........................",
"............................................abbbbbbbbbb.........................",
"............................................abbbbbbbbbb.........................",
"............................................abbbbbbbbbb.........................",
"............................................abbbbbbbbbb.........................",
"............................................abbbbbbbbbb.........................",
"............................................abbbbbbbbbb.........................",
"............................bbbbbbbbbba.....abbbbbbbbbb.........................",
"............................bbbbbbbbbba.....abbbbbbbbbb.........................",
"............................bbbbbbbbbba.....abbbbbbbbbb.........................",
"............................bbbbbbbbbba.....abbbbbbbbbb.........................",
"............................bbbbbbbbbba.....abbbbbbbbbb.........................",
"............................bbbbbbbbbba.....abbbbbbbbbb.........................",
"............................bbbbbbbbbba.....abbbbbbbbbb.........................",
"............................bbbbbbbbbba.....abbbbbbbbbb.........................",
"............................bbbbbbbbbba.....abbbbbbbbbb.........................",
"............................bbbbbbbbbba.....abbbbbbbbbb.........................",
"............................bbbbbbbbbba.....abbbbbbbbbb.........................",
".................................cbbbbdeeeeedbbbbf..............................",
".................................cbbbbbbbbbbbbbbbf..............................",
".................................cbbbbbbbbbbbbbbbf..............................",
".................................cbbbbbbbbbbbbbbbf..............................",
".................................cbbbbbbbbbbbbbbbf..............................",
".................................cbbbbbbbbbbbbbbbf..............................",
"................................................................................",
"................................................................................",
"................................................................................",
"................................................................................",
"................................................................................",
"................................................................................",
"................................................................................",
"................................................................................",
"................................................................................",
"................................................................................",
"................................................................................",
"................................................................................",
"................................................................................",
"................................................................................",
"................................................................................"
};