/* XPM */
static char *K_white_80[] = {
"80 80 10 1",
". c None",
"a c #ffffff",
"b c #ffffff",
"c c #ffffff",
"d c #ffffff",
"e c #ffffff",
"f c #ffffff",
"g c #ffffff",
"h c #ffffff",
"i c #ffffff",
"................................................................................",
"................................................................................",
"................................................................................",
"................................................................................",
"................................................................................",
"................................................................................",
"................................................................................",
"................................................................................",
"................................................................................",
"................................................................................",
"................................................................................",
"................................................................................",
"................................................................................",
"................................................................................",
"................................................................................",
".......................aaaaaaaaaab................baaaaaaaaaa...................",
".......................aaaaaaaaaab................baaaaaaaaaa...................",
".......................aaaaaaaaaab................baaaaaaaaaa...................",
".......................aaaaaaaaaab................baaaaaaaaaa...................",
".......................aaaaaaaaaab................baaaaaaaaaa...................",
".......................aaaaaaaaaab................baaaacddddd...................",
".......................aaaaaaaaaab...........eaaaaaaaaab........................",
".......................aaaaaaaaaab...........eaaaaaaaaab........................",
".......................aaaaaaaaaab...........eaaaaaaaaab........................",
".......................aaaaaaaaaab...........eaaaaaaaaab........................",
".......................aaaaaaaaaab...........eaaaaaaaaab........................",
".......................aaaaaaaaaab...........eaaaaaaaaab........................",
".......................aaaaaaaaaab.....faaaaaaaaaa..............................",
".......................aaaaaaaaaab.....faaaaaaaaaa..............................",
".......................aaaaaaaaaab.....faaaaaaaaaa..............................",
".......................aaaaaaaaaab.....faaaaaaaaaa..............................",
".......................aaaaaaaaaab.....faaaaaaaaaa..............................",
".......................aaaaaaaaaaaaaaaaaaaaaag..................................",
".......................aaaaaaaaaaaaaaaaaaaaaag..................................",
".......................aaaaaaaaaaaaaaaaaaaaaag..................................",
".......................aaaaaaaaaaaaaaaaaaaaaag..................................",
".......................aaaaaaaaaaaaaaaaaaaaaag..................................",
".......................aaaaaaaaaaaaaaaaaaaaaag..................................",
".......................aaaaaaaaaaaaaaaah........................................",
".......................aaaaaaaaaaaaaaaah........................................",
".......................aaaaaaaaaaaaaaaah........................................",
".......................aaaaaaaaaaaaaaaah........................................",
".......................aaaaaaaaaaaaaaaah........................................",
".......................aaaaaaaaaaaaaaaaaaaaaag..................................",
".......................aaaaaaaaaaaaaaaaaaaaaag..................................",
".......................aaaaaaaaaaaaaaaaaaaaaag..................................",
".......................aaaaaaaaaaaaaaaaaaaaaag..................................",
".......................aaaaaaaaaaaaaaaaaaaaaag..................................",
".......................aaaaaaaaaaaaaaaaaaaaaag..................................",
".......................aaaaaaaaaab.....faaaaaaaaaa..............................",
".......................aaaaaaaaaab.....faaaaaaaaaa..............................",
".......................aaaaaaaaaab.....faaaaaaaaaa..............................",
".......................aaaaaaaaaab.....faaaaaaaaaa..............................",
".......................aaaaaaaaaab.....faaaaaaaaaa..............................",
".......................aaaaaaaaaab...........eaaaaaaaaab........................",
".......................aaaaaaaaaab...........eaaaaaaaaab........................",
".......................aaaaaaaaaab...........eaaaaaaaaab........................",
".......................aaaaaaaaaab...........eaaaaaaaaab........................",
".......................aaaaaaaaaab...........eaaaaaaaaab........................",
".......................aaaaaaaaaab...........iddddcaaaacddddd...................",
".......................aaaaaaaaaab................baaaaaaaaaa...................",
".......................aaaaaaaaaab................baaaaaaaaaa...................",
".......................aaaaaaaaaab................baaaaaaaaaa...................",
".......................aaaaaaaaaab................baaaaaaaaaa...................",
".......................aaaaaaaaaab................baaaaaaaaaa...................",
"................................................................................",
"................................................................................",
"................................................................................",
"................................................................................",
"................................................................................",
"................................................................................",
"................................................................................",
"................................................................................",
"................................................................................",
"................................................................................",
"................................................................................",
"................................................................................",
"................................................................................",
"................................................................................",
"................................................................................"
};