/* XPM */
static char *L_gold_80[] = {
"80 80 6 1",
". c None",
"a c #ffc864",
"b c #ffc864",
"c c #ffc864",
"d c #ffc864",
"e c #ffc864",
"................................................................................",
"................................................................................",
"................................................................................",
"................................................................................",
"................................................................................",
"................................................................................",
"................................................................................",
"................................................................................",
"................................................................................",
"................................................................................",
"................................................................................",
"................................................................................",
"................................................................................",
"................................................................................",
"................................................................................",
"..........................aaaaaaaaaab...........................................",
"..........................aaaaaaaaaab...........................................",
"..........................aaaaaaaaaab...........................................",
"..........................aaaaaaaaaab...........................................",
"..........................aaaaaaaaaab...........................................",
"..........................aaaaaaaaaab...........................................",
"..........................aaaaaaaaaab...........................................",
"..........................aaaaaaaaaab...........................................",
"..........................aaaaaaaaaab...........................................",
"..........................aaaaaaaaaab...........................................",
"..........................aaaaaaaaaab...........................................",
"..........................aaaaaaaaaab...........................................",
"..........................aaaaaaaaaab...........................................",
"..........................aaaaaaaaaab...........................................",
"..........................aaaaaaaaaab...........................................",
"..........................aaaaaaaaaab...........................................",
"..........................aaaaaaaaaab...........................................",
"..........................aaaaaaaaaab...........................................",
"..........................aaaaaaaaaab...........................................",
"..........................aaaaaaaaaab...........................................",
"..........................aaaaaaaaaab...........................................",
"..........................aaaaaaaaaab...........................................",
"..........................aaaaaaaaaab...........................................",
"..........................aaaaaaaaaab...........................................",
"..........................aaaaaaaaaab...........................................",
"..........................aaaaaaaaaab...........................................",
"..........................aaaaaaaaaab...........................................",
"..........................aaaaaaaaaab...........................................",
"..........................aaaaaaaaaab...........................................",
"..........................aaaaaaaaaab...........................................",
"..........................aaaaaaaaaab...........................................",
"..........................aaaaaaaaaab...........................................",
"..........................aaaaaaaaaab...........................................",
"..........................aaaaaaaaaab...........................................",
"..........................aaaaaaaaaab...........................................",
"..........................aaaaaaaaaab...........................................",
"..........................aaaaaaaaaab...........................................",
"..........................aaaaaaaaaab...........................................",
"..........................aaaaaaaaaab...........................................",
"..........................aaaaaaaaaab...........................................",
"..........................aaaaaaaaaab...........................................",
"..........................aaaaaaaaaab...........................................",
"..........................aaaaaaaaaab...........................................",
"..........................aaaaaaaaaab...........................................",
"..........................aaaaaaaaaacddddddddddddddddddddde.....................",
"..........................aaaaaaaaaaaaaaaaaaaaaaaaaaaaaaaad.....................",
"..........................aaaaaaaaaaaaaaaaaaaaaaaaaaaaaaaad.....................",
"..........................aaaaaaaaaaaaaaaaaaaaaaaaaaaaaaaad.....................",
"..........................aaaaaaaaaaaaaaaaaaaaaaaaaaaaaaaad.....................",
"..........................aaaaaaaaaaaaaaaaaaaaaaaaaaaaaaaad.....................",
"................................................................................",
"................................................................................",
"................................................................................",
"................................................................................",
"................................................................................",
"................................................................................",
"................................................................................",
"................................................................................",
"................................................................................",
"................................................................................",
"................................................................................",
"................................................................................",
"................................................................................",
"................................................................................",
"................................................................................"
};