/* XPM */
static char *M_gold_80[] = {
"80 80 4 1",
". c None",
"a c #ffc864",
"b c #ffc864",
"c c #ffc864",
"................................................................................",
"................................................................................",
"................................................................................",
"................................................................................",
"................................................................................",
"................................................................................",
"................................................................................",
"................................................................................",
"................................................................................",
"................................................................................",
"................................................................................",
"................................................................................",
"................................................................................",
"................................................................................",
"................................................................................",
".................aaaaaaaaaab...........................baaaaaaaaac..............",
".................aaaaaaaaaab...........................baaaaaaaaac..............",
".................aaaaaaaaaab...........................baaaaaaaaac..............",
".................aaaaaaaaaab...........................baaaaaaaaac..............",
".................aaaaaaaaaab...........................baaaaaaaaac..............",
".................aaaaaaaaaab...........................baaaaaaaaac..............",
".................aaaaaaaaaab...........................baaaaaaaaac..............",
".................aaaaaaaaaab...........................baaaaaaaaac..............",
".................aaaaaaaaaab...........................baaaaaaaaac..............",
".................aaaaaaaaaab...........................baaaaaaaaac..............",
".................aaaaaaaaaab...........................baaaaaaaaac..............",
".................aaaaaaaaaaaaaaaaa................baaaaaaaaaaaaaac..............",
".................aaaaaaaaaaaaaaaaa................baaaaaaaaaaaaaac..............",
".................aaaaaaaaaaaaaaaaa................baaaaaaaaaaaaaac..............",
".................aaaaaaaaaaaaaaaaa................baaaaaaaaaaaaaac..............",
".................aaaaaaaaaaaaaaaaa................baaaaaaaaaaaaaac..............",
".................aaaaaaaaaaaaaaaaa................baaaaaaaaaaaaaac..............",
".................aaaaaaaaaaaaaaaaa................baaaaaaaaaaaaaac..............",
".................aaaaaaaaaaaaaaaaa................baaaaaaaaaaaaaac..............",
".................aaaaaaaaaaaaaaaaa................baaaaaaaaaaaaaac..............",
".................aaaaaaaaaaaaaaaaa................baaaaaaaaaaaaaac..............",
".................aaaaaaaaaaaaaaaaa................baaaaaaaaaaaaaac..............",
".................aaaaaaaaaaaaaaaaaaaaaa.....aaaaaaaaaaaaaaaaaaaaac..............",
".................aaaaaaaaaaaaaaaaaaaaaa.....aaaaaaaaaaaaaaaaaaaaac..............",
".................aaaaaaaaaaaaaaaaaaaaaa.....aaaaaaaaaaaaaaaaaaaaac..............",
".................aaaaaaaaaaaaaaaaaaaaaa.....aaaaaaaaaaaaaaaaaaaaac..............",
".................aaaaaaaaaaaaaaaaaaaaaa.....aaaaaaaaaaaaaaaaaaaaac..............",
".................aaaaaaaaaaaaaaaaaaaaaa.....aaaaaaaaaaaaaaaaaaaaac..............",
".................aaaaaaaaaab......aaaaa.....aaaac......baaaaaaaaac..............",
".................aaaaaaaaaab......aaaaa.....aaaac......baaaaaaaaac..............",
".................aaaaaaaaaab......aaaaa.....aaaac......baaaaaaaaac..............",
".................aaaaaaaaaab......aaaaa.....aaaac......baaaaaaaaac..............",
".................aaaaaaaaaab......aaaaa.....aaaac......baaaaaaaaac..............",
".................aaaaaaaaaab......aaaaa.....aaaac......baaaaaaaaac..............",
".................aaaaaaaaaab......aaaaaaaaaaaaaac......baaaaaaaaac..............",
".................aaaaaaaaaab......aaaaaaaaaaaaaac......baaaaaaaaac..............",
".................aaaaaaaaaab......aaaaaaaaaaaaaac......baaaaaaaaac..............",
".................aaaaaaaaaab......aaaaaaaaaaaaaac......baaaaaaaaac..............",
".................aaaaaaaaaab......aaaaaaaaaaaaaac......baaaaaaaaac..............",
".................aaaaaaaaaab...........aaaaa...........baaaaaaaaac..............",
".................aaaaaaaaaab...........aaaaa...........baaaaaaaaac..............",
".................aaaaaaaaaab...........aaaaa...........baaaaaaaaac..............",
".................aaaaaaaaaab...........aaaaa...........baaaaaaaaac..............",
".................aaaaaaaaaab...........aaaaa...........baaaaaaaaac..............",
".................aaaaaaaaaab...........aaaaa...........baaaaaaaaac..............",
".................aaaaaaaaaab...........aaaaa...........baaaaaaaaac..............",
".................aaaaaaaaaab...........aaaaa...........baaaaaaaaac..............",
".................aaaaaaaaaab...........aaaaa...........baaaaaaaaac..............",
".................aaaaaaaaaab...........aaaaa...........baaaaaaaaac..............",
".................aaaaaaaaaab...........aaaaa...........baaaaaaaaac..............",
"................................................................................",
"................................................................................",
"................................................................................",
"................................................................................",
"................................................................................",
"................................................................................",
"................................................................................",
"................................................................................",
"................................................................................",
"................................................................................",
"................................................................................",
"................................................................................",
"................................................................................",
"................................................................................",
"................................................................................"
};