/* XPM */
static char *N_white_80[] = {
"80 80 3 1",
". c None",
"a c #ffffff",
"b c #ffffff",
"................................................................................",
"................................................................................",
"................................................................................",
"................................................................................",
"................................................................................",
"................................................................................",
"................................................................................",
"................................................................................",
"................................................................................",
"................................................................................",
"................................................................................",
"................................................................................",
"................................................................................",
"................................................................................",
"................................................................................",
"....................aaaaaaaaaaaaaaaaa................aaaaaaaaaab................",
"....................aaaaaaaaaaaaaaaaa................aaaaaaaaaab................",
"....................aaaaaaaaaaaaaaaaa................aaaaaaaaaab................",
"....................aaaaaaaaaaaaaaaaa................aaaaaaaaaab................",
"....................aaaaaaaaaaaaaaaaa................aaaaaaaaaab................",
"....................aaaaaaaaaaaaaaaaa................aaaaaaaaaab................",
"....................aaaaaaaaaaaaaaaaa................aaaaaaaaaab................",
"....................aaaaaaaaaaaaaaaaa................aaaaaaaaaab................",
"....................aaaaaaaaaaaaaaaaa................aaaaaaaaaab................",
"....................aaaaaaaaaaaaaaaaa................aaaaaaaaaab................",
"....................aaaaaaaaaaaaaaaaa................aaaaaaaaaab................",
"....................aaaaaaaaaaaaaaaaaaaaaa...........aaaaaaaaaab................",
"....................aaaaaaaaaaaaaaaaaaaaaa...........aaaaaaaaaab................",
"....................aaaaaaaaaaaaaaaaaaaaaa...........aaaaaaaaaab................",
"....................aaaaaaaaaaaaaaaaaaaaaa...........aaaaaaaaaab................",
"....................aaaaaaaaaaaaaaaaaaaaaa...........aaaaaaaaaab................",
"....................aaaaaaaaaaaaaaaaaaaaaa...........aaaaaaaaaab................",
"....................aaaaaaaaaab......aaaaa...........aaaaaaaaaab................",
"....................aaaaaaaaaab......aaaaa...........aaaaaaaaaab................",
"....................aaaaaaaaaab......aaaaa...........aaaaaaaaaab................",
"....................aaaaaaaaaab......aaaaa...........aaaaaaaaaab................",
"....................aaaaaaaaaab......aaaaa...........aaaaaaaaaab................",
"....................aaaaaaaaaab......aaaaaaaaaa......aaaaaaaaaab................",
"....................aaaaaaaaaab......aaaaaaaaaa......aaaaaaaaaab................",
"....................aaaaaaaaaab......aaaaaaaaaa......aaaaaaaaaab................",
"....................aaaaaaaaaab......aaaaaaaaaa......aaaaaaaaaab................",
"....................aaaaaaaaaab......aaaaaaaaaa......aaaaaaaaaab................",
"....................aaaaaaaaaab......aaaaaaaaaa......aaaaaaaaaab................",
"....................aaaaaaaaaab...........aaaaa......aaaaaaaaaab................",
"....................aaaaaaaaaab...........aaaaa......aaaaaaaaaab................",
"....................aaaaaaaaaab...........aaaaa......aaaaaaaaaab................",
"....................aaaaaaaaaab...........aaaaa......aaaaaaaaaab................",
"....................aaaaaaaaaab...........aaaaa......aaaaaaaaaab................",
"....................aaaaaaaaaab...........aaaaa......aaaaaaaaaab................",
"....................aaaaaaaaaab...........aaaaaaaaaaaaaaaaaaaaab................",
"....................aaaaaaaaaab...........aaaaaaaaaaaaaaaaaaaaab................",
"....................aaaaaaaaaab...........aaaaaaaaaaaaaaaaaaaaab................",
"....................aaaaaaaaaab...........aaaaaaaaaaaaaaaaaaaaab................",
"....................aaaaaaaaaab...........aaaaaaaaaaaaaaaaaaaaab................",
"....................aaaaaaaaaab................aaaaaaaaaaaaaaaab................",
"....................aaaaaaaaaab................aaaaaaaaaaaaaaaab................",
"....................aaaaaaaaaab................aaaaaaaaaaaaaaaab................",
"....................aaaaaaaaaab................aaaaaaaaaaaaaaaab................",
"....................aaaaaaaaaab................aaaaaaaaaaaaaaaab................",
"....................aaaaaaaaaab................aaaaaaaaaaaaaaaab................",
"....................aaaaaaaaaab................aaaaaaaaaaaaaaaab................",
"....................aaaaaaaaaab................aaaaaaaaaaaaaaaab................",
"....................aaaaaaaaaab................aaaaaaaaaaaaaaaab................",
"....................aaaaaaaaaab................aaaaaaaaaaaaaaaab................",
"....................aaaaaaaaaab................aaaaaaaaaaaaaaaab................",
"................................................................................",
"................................................................................",
"................................................................................",
"................................................................................",
"................................................................................",
"................................................................................",
"................................................................................",
"................................................................................",
"................................................................................",
"................................................................................",
"................................................................................",
"................................................................................",
"................................................................................",
"................................................................................",
"................................................................................"
};