/* XPM */
static char *Q_white_80[] = {
"80 80 8 1",
". c None",
"a c #ffffff",
"b c #ffffff",
"c c #ffffff",
"d c #ffffff",
"e c #ffffff",
"f c #ffffff",
"g c #ffffff",
"................................................................................",
"................................................................................",
"................................................................................",
"................................................................................",
"................................................................................",
"................................................................................",
"................................................................................",
"................................................................................",
"................................................................................",
"................................................................................",
"................................................................................",
"................................................................................",
"................................................................................",
"................................................................................",
"................................................................................",
"...............................aaaaaaaaaaaaaaaaaaaaaa...........................",
"...............................aaaaaaaaaaaaaaaaaaaaaa...........................",
"...............................aaaaaaaaaaaaaaaaaaaaaa...........................",
"...............................aaaaaaaaaaaaaaaaaaaaaa...........................",
"...............................aaaaaaaaaaaaaaaaaaaaaa...........................",
"...............................aaaaabbbbbbbbbbbcaaaaa...........................",
".........................daaaaaaaaaa...........daaaaaaaaaa......................",
".........................daaaaaaaaaa...........daaaaaaaaaa......................",
".........................daaaaaaaaaa...........daaaaaaaaaa......................",
".........................daaaaaaaaaa...........daaaaaaaaaa......................",
".........................daaaaaaaaaa...........daaaaaaaaaa......................",
"....................aaaaaaaaaad......................aaaaaaaaaad................",
"....................aaaaaaaaaad......................aaaaaaaaaad................",
"....................aaaaaaaaaad......................aaaaaaaaaad................",
"....................aaaaaaaaaad......................aaaaaaaaaad................",
"....................aaaaaaaaaad......................aaaaaaaaaad................",
"....................aaaaaaaaaad......................aaaaaaaaaad................",
"....................aaaaaaaaaad......................aaaaaaaaaad................",
"....................aaaaaaaaaad......................aaaaaaaaaad................",
"....................aaaaaaaaaad......................aaaaaaaaaad................",
"....................aaaaaaaaaad......................aaaaaaaaaad................",
"....................aaaaaaaaaad......................aaaaaaaaaad................",
"....................aaaaaaaaaad......................aaaaaaaaaad................",
"....................aaaaaaaaaad......................aaaaaaaaaad................",
"....................aaaaaaaaaad......................aaaaaaaaaad................",
"....................aaaaaaaaaad......................aaaaaaaaaad................",
"....................aaaaaaaaaad......................aaaaaaaaaad................",
"....................aaaaaaaaaad......................aaaaaaaaaad................",
"....................aaaaaaaaaad......................aaaaaaaaaad................",
"....................aaaaaaaaaad......................aaaaaaaaaad................",
"....................aaaaaaaaaad......................aaaaaaaaaad................",
"....................aaaaaaaaaad......................aaaaaaaaaad................",
"....................aaaaaaaaaad......................aaaaaaaaaad................",
"....................aaaaaaaaaad..........ebbbbbbbbbbbaaaaaaaaaad................",
"....................aaaaaaaaaad..........faaaaaaaaaaaaaaaaaaaaad................",
"....................aaaaaaaaaad..........faaaaaaaaaaaaaaaaaaaaad................",
"....................aaaaaaaaaad..........faaaaaaaaaaaaaaaaaaaaad................",
"....................aaaaaaaaaad..........faaaaaaaaaaaaaaaaaaaaad................",
"....................aaaaaaaaaad..........faaaaaaaaaaaaaaaaaaaaad................",
".........................daaaaaaaaaa...........daaaaaaaaaa......................",
".........................daaaaaaaaaa...........daaaaaaaaaa......................",
".........................daaaaaaaaaa...........daaaaaaaaaa......................",
".........................daaaaaaaaaa...........daaaaaaaaaa......................",
".........................daaaaaaaaaa...........daaaaaaaaaa......................",
".........................gbbbbbaaaaabbbbbbbbbbbgbbbbbaaaaabbbbbg................",
"...............................aaaaaaaaaaaaaaaa......aaaaaaaaaad................",
"...............................aaaaaaaaaaaaaaaa......aaaaaaaaaad................",
"...............................aaaaaaaaaaaaaaaa......aaaaaaaaaad................",
"...............................aaaaaaaaaaaaaaaa......aaaaaaaaaad................",
"...............................aaaaaaaaaaaaaaaa......aaaaaaaaaad................",
"................................................................................",
"................................................................................",
"................................................................................",
"................................................................................",
"................................................................................",
"................................................................................",
"................................................................................",
"................................................................................",
"................................................................................",
"................................................................................",
"................................................................................",
"................................................................................",
"................................................................................",
"................................................................................",
"................................................................................"
};