/* XPM */
static char *R_gold_80[] = {
"80 80 6 1",
". c None",
"a c #ffc864",
"b c #ffc864",
"c c #ffc864",
"d c #ffc864",
"e c #ffc864",
"................................................................................",
"................................................................................",
"................................................................................",
"................................................................................",
"................................................................................",
"................................................................................",
"................................................................................",
"................................................................................",
"................................................................................",
"................................................................................",
"................................................................................",
"................................................................................",
"................................................................................",
"................................................................................",
"................................................................................",
".......................aaaaaaaaaaaaaaaaaaaaaaaaaaaaaaaab........................",
".......................aaaaaaaaaaaaaaaaaaaaaaaaaaaaaaaab........................",
".......................aaaaaaaaaaaaaaaaaaaaaaaaaaaaaaaab........................",
".......................aaaaaaaaaaaaaaaaaaaaaaaaaaaaaaaab........................",
".......................aaaaaaaaaaaaaaaaaaaaaaaaaaaaaaaab........................",
".......................aaaaaaaaaacddddddddddddddddcaaaab........................",
".......................aaaaaaaaaab................baaaaaaaaaa...................",
".......................aaaaaaaaaab................baaaaaaaaaa...................",
".......................aaaaaaaaaab................baaaaaaaaaa...................",
".......................aaaaaaaaaab................baaaaaaaaaa...................",
".......................aaaaaaaaaab................baaaaaaaaaa...................",
".......................aaaaaaaaaab................baaaaaaaaaa...................",
".......................aaaaaaaaaab................baaaaaaaaaa...................",
".......................aaaaaaaaaab................baaaaaaaaaa...................",
".......................aaaaaaaaaab................baaaaaaaaaa...................",
".......................aaaaaaaaaab................baaaaaaaaaa...................",
".......................aaaaaaaaaab................baaaaaaaaaa...................",
".......................aaaaaaaaaab................baaaaaaaaaa...................",
".......................aaaaaaaaaab................baaaaaaaaaa...................",
".......................aaaaaaaaaab................baaaaaaaaaa...................",
".......................aaaaaaaaaab................baaaaaaaaaa...................",
".......................aaaaaaaaaab................baaaaaaaaaa...................",
".......................aaaaaaaaaacddddddddddddddddcaaaacddddd...................",
".......................aaaaaaaaaaaaaaaaaaaaaaaaaaaaaaaab........................",
".......................aaaaaaaaaaaaaaaaaaaaaaaaaaaaaaaab........................",
".......................aaaaaaaaaaaaaaaaaaaaaaaaaaaaaaaab........................",
".......................aaaaaaaaaaaaaaaaaaaaaaaaaaaaaaaab........................",
".......................aaaaaaaaaaaaaaaaaaaaaaaaaaaaaaaab........................",
".......................aaaaaaaaaab.....baaaaaaaaaa..............................",
".......................aaaaaaaaaab.....baaaaaaaaaa..............................",
".......................aaaaaaaaaab.....baaaaaaaaaa..............................",
".......................aaaaaaaaaab.....baaaaaaaaaa..............................",
".......................aaaaaaaaaab.....baaaaaaaaaa..............................",
".......................aaaaaaaaaab.....edddddaaaaaddddde........................",
".......................aaaaaaaaaab...........aaaaaaaaaab........................",
".......................aaaaaaaaaab...........aaaaaaaaaab........................",
".......................aaaaaaaaaab...........aaaaaaaaaab........................",
".......................aaaaaaaaaab...........aaaaaaaaaab........................",
".......................aaaaaaaaaab...........aaaaaaaaaab........................",
".......................aaaaaaaaaab...........aaaaaaaaaab........................",
".......................aaaaaaaaaab...........aaaaaaaaaab........................",
".......................aaaaaaaaaab...........aaaaaaaaaab........................",
".......................aaaaaaaaaab...........aaaaaaaaaab........................",
".......................aaaaaaaaaab...........aaaaaaaaaab........................",
".......................aaaaaaaaaab...........dddddcaaaacddddd...................",
".......................aaaaaaaaaab................baaaaaaaaaa...................",
".......................aaaaaaaaaab................baaaaaaaaaa...................",
".......................aaaaaaaaaab................baaaaaaaaaa...................",
".......................aaaaaaaaaab................baaaaaaaaaa...................",
".......................aaaaaaaaaab................baaaaaaaaaa...................",
"................................................................................",
"................................................................................",
"................................................................................",
"................................................................................",
"................................................................................",
"................................................................................",
"................................................................................",
"................................................................................",
"................................................................................",
"................................................................................",
"................................................................................",
"................................................................................",
"................................................................................",
"................................................................................",
"................................................................................"
};