/* XPM */
static char *S_gold_80[] = {
"80 80 6 1",
". c None",
"a c #ffc864",
"b c #ffc864",
"c c #ffc864",
"d c #ffc864",
"e c #ffc864",
"................................................................................",
"................................................................................",
"................................................................................",
"................................................................................",
"................................................................................",
"................................................................................",
"................................................................................",
"................................................................................",
"................................................................................",
"................................................................................",
"................................................................................",
"................................................................................",
"................................................................................",
"................................................................................",
"................................................................................",
"............................abbbbbbbbbbbbbbbbbbbbbbbbbba........................",
"............................abbbbbbbbbbbbbbbbbbbbbbbbbba........................",
"............................abbbbbbbbbbbbbbbbbbbbbbbbbba........................",
"............................abbbbbbbbbbbbbbbbbbbbbbbbbba........................",
"............................abbbbbbbbbbbbbbbbbbbbbbbbbba........................",
"............................abbbbcddddddddddddddddcbbbba........................",
".......................bbbbbbbbbba................abbbbbbbbbb...................",
".......................bbbbbbbbbba................abbbbbbbbbb...................",
".......................bbbbbbbbbba................abbbbbbbbbb...................",
".......................bbbbbbbbbba................abbbbbbbbbb...................",
".......................bbbbbbbbbba................abbbbbbbbbb...................",
".......................bbbbbbbbbba................edddddddddd...................",
".......................bbbbbbbbbba..............................................",
".......................bbbbbbbbbba..............................................",
".......................bbbbbbbbbba..............................................",
".......................bbbbbbbbbba..............................................",
".......................bbbbbbbbbba..............................................",
"............................abbbbbbbbbb.........................................",
"............................abbbbbbbbbb.........................................",
"............................abbbbbbbbbb.........................................",
"............................abbbbbbbbbb.........................................",
"............................abbbbbbbbbb.........................................",
"............................edddddbbbbbddddddddddd..............................",
"..................................bbbbbbbbbbbbbbbb..............................",
"..................................bbbbbbbbbbbbbbbb..............................",
"..................................bbbbbbbbbbbbbbbb..............................",
"..................................bbbbbbbbbbbbbbbb..............................",
"..................................bbbbbbbbbbbbbbbb..............................",
".............................................bbbbbbbbbba........................",
".............................................bbbbbbbbbba........................",
".............................................bbbbbbbbbba........................",
".............................................bbbbbbbbbba........................",
".............................................bbbbbbbbbba........................",
".............................................dddddcbbbbcddddd...................",
"..................................................abbbbbbbbbb...................",
"..................................................abbbbbbbbbb...................",
"..................................................abbbbbbbbbb...................",
"..................................................abbbbbbbbbb...................",
"..................................................abbbbbbbbbb...................",
".......................bbbbbbbbbba................abbbbbbbbbb...................",
".......................bbbbbbbbbba................abbbbbbbbbb...................",
".......................bbbbbbbbbba................abbbbbbbbbb...................",
".......................bbbbbbbbbba................abbbbbbbbbb...................",
".......................bbbbbbbbbba................abbbbbbbbbb...................",
".......................dddddcbbbbcddddddddddddddddcbbbbcddddd...................",
"............................abbbbbbbbbbbbbbbbbbbbbbbbbba........................",
"............................abbbbbbbbbbbbbbbbbbbbbbbbbba........................",
"............................abbbbbbbbbbbbbbbbbbbbbbbbbba........................",
"............................abbbbbbbbbbbbbbbbbbbbbbbbbba........................",
"............................abbbbbbbbbbbbbbbbbbbbbbbbbba........................",
"................................................................................",
"................................................................................",
"................................................................................",
"................................................................................",
"................................................................................",
"................................................................................",
"................................................................................",
"................................................................................",
"................................................................................",
"................................................................................",
"................................................................................",
"................................................................................",
"................................................................................",
"................................................................................",
"................................................................................"
};