/* XPM */
static char *T_white_80[] = {
"80 80 5 1",
". c None",
"a c #ffffff",
"b c #ffffff",
"c c #ffffff",
"d c #ffffff",
"................................................................................",
"................................................................................",
"................................................................................",
"................................................................................",
"................................................................................",
"................................................................................",
"................................................................................",
"................................................................................",
"................................................................................",
"................................................................................",
"................................................................................",
"................................................................................",
"................................................................................",
"................................................................................",
"................................................................................",
"..........................aaaaaaaaaaaaaaaaaaaaaaaaaaaaaaaaa.....................",
"..........................aaaaaaaaaaaaaaaaaaaaaaaaaaaaaaaaa.....................",
"..........................aaaaaaaaaaaaaaaaaaaaaaaaaaaaaaaaa.....................",
"..........................aaaaaaaaaaaaaaaaaaaaaaaaaaaaaaaaa.....................",
"..........................aaaaaaaaaaaaaaaaaaaaaaaaaaaaaaaaa.....................",
"..........................bbbbbbbbbbbaaaaaaaaaacbbbbbbbbbbb.....................",
".....................................aaaaaaaaaad................................",
".....................................aaaaaaaaaad................................",
".....................................aaaaaaaaaad................................",
".....................................aaaaaaaaaad................................",
".....................................aaaaaaaaaad................................",
".....................................aaaaaaaaaad................................",
".....................................aaaaaaaaaad................................",
".....................................aaaaaaaaaad................................",
".....................................aaaaaaaaaad................................",
".....................................aaaaaaaaaad................................",
".....................................aaaaaaaaaad................................",
".....................................aaaaaaaaaad................................",
".....................................aaaaaaaaaad................................",
".....................................aaaaaaaaaad................................",
".....................................aaaaaaaaaad................................",
".....................................aaaaaaaaaad................................",
".....................................aaaaaaaaaad................................",
".....................................aaaaaaaaaad................................",
".....................................aaaaaaaaaad................................",
".....................................aaaaaaaaaad................................",
".....................................aaaaaaaaaad................................",
".....................................aaaaaaaaaad................................",
".....................................aaaaaaaaaad................................",
".....................................aaaaaaaaaad................................",
".....................................aaaaaaaaaad................................",
".....................................aaaaaaaaaad................................",
".....................................aaaaaaaaaad................................",
".....................................aaaaaaaaaad................................",
".....................................aaaaaaaaaad................................",
".....................................aaaaaaaaaad................................",
".....................................aaaaaaaaaad................................",
".....................................aaaaaaaaaad................................",
".....................................aaaaaaaaaad................................",
".....................................aaaaaaaaaad................................",
".....................................aaaaaaaaaad................................",
".....................................aaaaaaaaaad................................",
".....................................aaaaaaaaaad................................",
".....................................aaaaaaaaaad................................",
".....................................aaaaaaaaaad................................",
".....................................aaaaaaaaaad................................",
".....................................aaaaaaaaaad................................",
".....................................aaaaaaaaaad................................",
".....................................aaaaaaaaaad................................",
".....................................aaaaaaaaaad................................",
"................................................................................",
"................................................................................",
"................................................................................",
"................................................................................",
"................................................................................",
"................................................................................",
"................................................................................",
"................................................................................",
"................................................................................",
"................................................................................",
"................................................................................",
"................................................................................",
"................................................................................",
"................................................................................",
"................................................................................"
};