/* XPM */
static char *U_gold_80[] = {
"80 80 5 1",
". c None",
"a c #ffc864",
"b c #ffc864",
"c c #ffc864",
"d c #ffc864",
"................................................................................",
"................................................................................",
"................................................................................",
"................................................................................",
"................................................................................",
"................................................................................",
"................................................................................",
"................................................................................",
"................................................................................",
"................................................................................",
"................................................................................",
"................................................................................",
"................................................................................",
"................................................................................",
"................................................................................",
".......................aaaaaaaaaab................baaaaaaaaaa...................",
".......................aaaaaaaaaab................baaaaaaaaaa...................",
".......................aaaaaaaaaab................baaaaaaaaaa...................",
".......................aaaaaaaaaab................baaaaaaaaaa...................",
".......................aaaaaaaaaab................baaaaaaaaaa...................",
".......................aaaaaaaaaab................baaaaaaaaaa...................",
".......................aaaaaaaaaab................baaaaaaaaaa...................",
".......................aaaaaaaaaab................baaaaaaaaaa...................",
".......................aaaaaaaaaab................baaaaaaaaaa...................",
".......................aaaaaaaaaab................baaaaaaaaaa...................",
".......................aaaaaaaaaab................baaaaaaaaaa...................",
".......................aaaaaaaaaab................baaaaaaaaaa...................",
".......................aaaaaaaaaab................baaaaaaaaaa...................",
".......................aaaaaaaaaab................baaaaaaaaaa...................",
".......................aaaaaaaaaab................baaaaaaaaaa...................",
".......................aaaaaaaaaab................baaaaaaaaaa...................",
".......................aaaaaaaaaab................baaaaaaaaaa...................",
".......................aaaaaaaaaab................baaaaaaaaaa...................",
".......................aaaaaaaaaab................baaaaaaaaaa...................",
".......................aaaaaaaaaab................baaaaaaaaaa...................",
".......................aaaaaaaaaab................baaaaaaaaaa...................",
".......................aaaaaaaaaab................baaaaaaaaaa...................",
".......................aaaaaaaaaab................baaaaaaaaaa...................",
".......................aaaaaaaaaab................baaaaaaaaaa...................",
".......................aaaaaaaaaab................baaaaaaaaaa...................",
".......................aaaaaaaaaab................baaaaaaaaaa...................",
".......................aaaaaaaaaab................baaaaaaaaaa...................",
".......................aaaaaaaaaab................baaaaaaaaaa...................",
".......................aaaaaaaaaab................baaaaaaaaaa...................",
".......................aaaaaaaaaab................baaaaaaaaaa...................",
".......................aaaaaaaaaab................baaaaaaaaaa...................",
".......................aaaaaaaaaab................baaaaaaaaaa...................",
".......................aaaaaaaaaab................baaaaaaaaaa...................",
".......................aaaaaaaaaab................baaaaaaaaaa...................",
".......................aaaaaaaaaab................baaaaaaaaaa...................",
".......................aaaaaaaaaab................baaaaaaaaaa...................",
".......................aaaaaaaaaab................baaaaaaaaaa...................",
".......................aaaaaaaaaab................baaaaaaaaaa...................",
".......................aaaaaaaaaab................baaaaaaaaaa...................",
".......................aaaaaaaaaab................baaaaaaaaaa...................",
".......................aaaaaaaaaab................baaaaaaaaaa...................",
".......................aaaaaaaaaab................baaaaaaaaaa...................",
".......................aaaaaaaaaab................baaaaaaaaaa...................",
".......................aaaaaaaaaab................baaaaaaaaaa...................",
".............................aaaacddddddddddddddddcaaaaa........................",
".............................aaaaaaaaaaaaaaaaaaaaaaaaaaa........................",
".............................aaaaaaaaaaaaaaaaaaaaaaaaaaa........................",
".............................aaaaaaaaaaaaaaaaaaaaaaaaaaa........................",
".............................aaaaaaaaaaaaaaaaaaaaaaaaaaa........................",
".............................aaaaaaaaaaaaaaaaaaaaaaaaaaa........................",
"................................................................................",
"................................................................................",
"................................................................................",
"................................................................................",
"................................................................................",
"................................................................................",
"................................................................................",
"................................................................................",
"................................................................................",
"................................................................................",
"................................................................................",
"................................................................................",
"................................................................................",
"................................................................................",
"................................................................................"
};