/* XPM */
static char *V_gold_80[] = {
"80 80 3 1",
". c None",
"a c #ffc864",
"b c #ffc864",
"................................................................................",
"................................................................................",
"................................................................................",
"................................................................................",
"................................................................................",
"................................................................................",
"................................................................................",
"................................................................................",
"................................................................................",
"................................................................................",
"................................................................................",
"................................................................................",
"................................................................................",
"................................................................................",
"................................................................................",
".......................aaaaaaaaaab................baaaaaaaaaa...................",
".......................aaaaaaaaaab................baaaaaaaaaa...................",
".......................aaaaaaaaaab................baaaaaaaaaa...................",
".......................aaaaaaaaaab................baaaaaaaaaa...................",
".......................aaaaaaaaaab................baaaaaaaaaa...................",
".......................aaaaaaaaaab................baaaaaaaaaa...................",
".......................aaaaaaaaaab................baaaaaaaaaa...................",
".......................aaaaaaaaaab................baaaaaaaaaa...................",
".......................aaaaaaaaaab................baaaaaaaaaa...................",
".......................aaaaaaaaaab................baaaaaaaaaa...................",
".......................aaaaaaaaaab................baaaaaaaaaa...................",
".......................aaaaaaaaaab................baaaaaaaaaa...................",
".......................aaaaaaaaaab................baaaaaaaaaa...................",
".......................aaaaaaaaaab................baaaaaaaaaa...................",
".......................aaaaaaaaaab................baaaaaaaaaa...................",
".......................aaaaaaaaaab................baaaaaaaaaa...................",
".......................aaaaaaaaaab................baaaaaaaaaa...................",
".......................aaaaaaaaaab................baaaaaaaaaa...................",
".......................aaaaaaaaaab................baaaaaaaaaa...................",
".......................aaaaaaaaaab................baaaaaaaaaa...................",
".......................aaaaaaaaaab................baaaaaaaaaa...................",
".......................aaaaaaaaaab................baaaaaaaaaa...................",
"............................baaaaaaaaaa......aaaaaaaaaab........................",
"............................baaaaaaaaaa......aaaaaaaaaab........................",
"............................baaaaaaaaaa......aaaaaaaaaab........................",
"............................baaaaaaaaaa......aaaaaaaaaab........................",
"............................baaaaaaaaaa......aaaaaaaaaab........................",
"............................baaaaaaaaaa......aaaaaaaaaab........................",
"............................baaaaaaaaaa......aaaaaaaaaab........................",
"............................baaaaaaaaaa......aaaaaaaaaab........................",
"............................baaaaaaaaaa......aaaaaaaaaab........................",
"............................baaaaaaaaaa......aaaaaaaaaab........................",
"............................baaaaaaaaaa......aaaaaaaaaab........................",
"............................baaaaaaaaaa......aaaaaaaaaab........................",
"............................baaaaaaaaaa......aaaaaaaaaab........................",
"............................baaaaaaaaaa......aaaaaaaaaab........................",
"............................baaaaaaaaaa......aaaaaaaaaab........................",
"............................baaaaaaaaaa......aaaaaaaaaab........................",
"............................baaaaaaaaaa......aaaaaaaaaab........................",
"..................................aaaaaaaaaaaaaaaa..............................",
"..................................aaaaaaaaaaaaaaaa..............................",
"..................................aaaaaaaaaaaaaaaa..............................",
"..................................aaaaaaaaaaaaaaaa..............................",
"..................................aaaaaaaaaaaaaaaa..............................",
"..................................aaaaaaaaaaaaaaaa..............................",
"..................................aaaaaaaaaaaaaaaa..............................",
"..................................aaaaaaaaaaaaaaaa..............................",
"..................................aaaaaaaaaaaaaaaa..............................",
"..................................aaaaaaaaaaaaaaaa..............................",
"..................................aaaaaaaaaaaaaaaa..............................",
"................................................................................",
"................................................................................",
"................................................................................",
"................................................................................",
"................................................................................",
"................................................................................",
"................................................................................",
"................................................................................",
"................................................................................",
"................................................................................",
"................................................................................",
"................................................................................",
"................................................................................",
"................................................................................",
"................................................................................"
};