/* XPM */
static char *V_white_80[] = {
"80 80 3 1",
". c None",
"a c #ffffff",
"b c #ffffff",
"................................................................................",
"................................................................................",
"................................................................................",
"................................................................................",
"................................................................................",
"................................................................................",
"................................................................................",
"................................................................................",
"................................................................................",
"................................................................................",
"................................................................................",
"................................................................................",
"................................................................................",
"................................................................................",
"................................................................................",
".......................aaaaaaaaaab................baaaaaaaaaa...................",
".......................aaaaaaaaaab................baaaaaaaaaa...................",
".......................aaaaaaaaaab................baaaaaaaaaa...................",
".......................aaaaaaaaaab................baaaaaaaaaa...................",
".......................aaaaaaaaaab................baaaaaaaaaa...................",
".......................aaaaaaaaaab................baaaaaaaaaa...................",
".......................aaaaaaaaaab................baaaaaaaaaa...................",
".......................aaaaaaaaaab................baaaaaaaaaa...................",
".......................aaaaaaaaaab................baaaaaaaaaa...................",
".......................aaaaaaaaaab................baaaaaaaaaa...................",
".......................aaaaaaaaaab................baaaaaaaaaa...................",
".......................aaaaaaaaaab................baaaaaaaaaa...................",
".......................aaaaaaaaaab................baaaaaaaaaa...................",
".......................aaaaaaaaaab................baaaaaaaaaa...................",
".......................aaaaaaaaaab................baaaaaaaaaa...................",
".......................aaaaaaaaaab................baaaaaaaaaa...................",
".......................aaaaaaaaaab................baaaaaaaaaa...................",
".......................aaaaaaaaaab................baaaaaaaaaa...................",
".......................aaaaaaaaaab................baaaaaaaaaa...................",
".......................aaaaaaaaaab................baaaaaaaaaa...................",
".......................aaaaaaaaaab................baaaaaaaaaa...................",
".......................aaaaaaaaaab................baaaaaaaaaa...................",
"............................baaaaaaaaaa......aaaaaaaaaab........................",
"............................baaaaaaaaaa......aaaaaaaaaab........................",
"............................baaaaaaaaaa......aaaaaaaaaab........................",
"............................baaaaaaaaaa......aaaaaaaaaab........................",
"............................baaaaaaaaaa......aaaaaaaaaab........................",
"............................baaaaaaaaaa......aaaaaaaaaab........................",
"............................baaaaaaaaaa......aaaaaaaaaab........................",
"............................baaaaaaaaaa......aaaaaaaaaab........................",
"............................baaaaaaaaaa......aaaaaaaaaab........................",
"............................baaaaaaaaaa......aaaaaaaaaab........................",
"............................baaaaaaaaaa......aaaaaaaaaab........................",
"............................baaaaaaaaaa......aaaaaaaaaab........................",
"............................baaaaaaaaaa......aaaaaaaaaab........................",
"............................baaaaaaaaaa......aaaaaaaaaab........................",
"............................baaaaaaaaaa......aaaaaaaaaab........................",
"............................baaaaaaaaaa......aaaaaaaaaab........................",
"............................baaaaaaaaaa......aaaaaaaaaab........................",
"..................................aaaaaaaaaaaaaaaa..............................",
"..................................aaaaaaaaaaaaaaaa..............................",
"..................................aaaaaaaaaaaaaaaa..............................",
"..................................aaaaaaaaaaaaaaaa..............................",
"..................................aaaaaaaaaaaaaaaa..............................",
"..................................aaaaaaaaaaaaaaaa..............................",
"..................................aaaaaaaaaaaaaaaa..............................",
"..................................aaaaaaaaaaaaaaaa..............................",
"..................................aaaaaaaaaaaaaaaa..............................",
"..................................aaaaaaaaaaaaaaaa..............................",
"..................................aaaaaaaaaaaaaaaa..............................",
"................................................................................",
"................................................................................",
"................................................................................",
"................................................................................",
"................................................................................",
"................................................................................",
"................................................................................",
"................................................................................",
"................................................................................",
"................................................................................",
"................................................................................",
"................................................................................",
"................................................................................",
"................................................................................",
"................................................................................"
};