/* XPM */
static char *W_gold_80[] = {
"80 80 6 1",
". c None",
"a c #ffc864",
"b c #ffc864",
"c c #ffc864",
"d c #ffc864",
"e c #ffc864",
"................................................................................",
"................................................................................",
"................................................................................",
"................................................................................",
"................................................................................",
"................................................................................",
"................................................................................",
"................................................................................",
"................................................................................",
"................................................................................",
"................................................................................",
"................................................................................",
"................................................................................",
"................................................................................",
"................................................................................",
"...............abbbbbbbbbb.................................bbbbbbbbbbb..........",
"...............abbbbbbbbbb.................................bbbbbbbbbbb..........",
"...............abbbbbbbbbb.................................bbbbbbbbbbb..........",
"...............abbbbbbbbbb.................................bbbbbbbbbbb..........",
"...............abbbbbbbbbb.................................bbbbbbbbbbb..........",
"...............abbbbbbbbbb.................................bbbbbbbbbbb..........",
"...............abbbbbbbbbb...........cbbbbbbbbbb...........bbbbbbbbbbb..........",
"...............abbbbbbbbbb...........cbbbbbbbbbb...........bbbbbbbbbbb..........",
"...............abbbbbbbbbb...........cbbbbbbbbbb...........bbbbbbbbbbb..........",
"...............abbbbbbbbbb...........cbbbbbbbbbb...........bbbbbbbbbbb..........",
"...............abbbbbbbbbb...........cbbbbbbbbbb...........bbbbbbbbbbb..........",
"...............abbbbbbbbbb...........cbbbbbbbbbb...........bbbbbbbbbbb..........",
"...............abbbbbbbbbb...........cbbbbbbbbbb...........bbbbbbbbbbb..........",
"...............abbbbbbbbbb...........cbbbbbbbbbb...........bbbbbbbbbbb..........",
"...............abbbbbbbbbb...........cbbbbbbbbbb...........bbbbbbbbbbb..........",
"...............abbbbbbbbbb...........cbbbbbbbbbb...........bbbbbbbbbbb..........",
"...............abbbbbbbbbb...........cbbbbbbbbbb...........bbbbbbbbbbb..........",
"...............abbbbbbbbbb......bbbbbbbbbbbbbbbbbbbbbb.....bbbbbbbbbbb..........",
"...............abbbbbbbbbb......bbbbbbbbbbbbbbbbbbbbbb.....bbbbbbbbbbb..........",
"...............abbbbbbbbbb......bbbbbbbbbbbbbbbbbbbbbb.....bbbbbbbbbbb..........",
"...............abbbbbbbbbb......bbbbbbbbbbbbbbbbbbbbbb.....bbbbbbbbbbb..........",
"...............abbbbbbbbbb......bbbbbbbbbbbbbbbbbbbbbb.....bbbbbbbbbbb..........",
".....................bbbbb......bbbbbbbbbbbbbbbbbbbbbb.....bbbbb................",
".....................bbbbb......bbbbbbbbbbbbbbbbbbbbbb.....bbbbb................",
".....................bbbbb......bbbbbbbbbbbbbbbbbbbbbb.....bbbbb................",
".....................bbbbb......bbbbbbbbbbbbbbbbbbbbbb.....bbbbb................",
".....................bbbbb......bbbbbbbbbbbbbbbbbbbbbb.....bbbbb................",
".....................bbbbb......bbbbbbbbbbbbbbbbbbbbbb.....bbbbb................",
".....................bbbbbbbbbbbbbbbbbbbbbbbbbbbbbbbbbbbbbbbbbbb................",
".....................bbbbbbbbbbbbbbbbbbbbbbbbbbbbbbbbbbbbbbbbbbb................",
".....................bbbbbbbbbbbbbbbbbbbbbbbbbbbbbbbbbbbbbbbbbbb................",
".....................bbbbbbbbbbbbbbbbbbbbbbbbbbbbbbbbbbbbbbbbbbb................",
".....................bbbbbbbbbbbbbbbbbbbbbbbbbbbbbbbbbbbbbbbbbbb................",
".....................bbbbbbbbbbbbbbbbbbbbbbbbbbbbbbbbbbbbbbbbbbb................",
".....................bbbbbbbbbbbbbbbb...........cbbbbbbbbbbbbbbb................",
".....................bbbbbbbbbbbbbbbb...........cbbbbbbbbbbbbbbb................",
".....................bbbbbbbbbbbbbbbb...........cbbbbbbbbbbbbbbb................",
".....................bbbbbbbbbbbbbbbb...........cbbbbbbbbbbbbbbb................",
".....................bbbbbbbbbbbbbbbb...........cbbbbbbbbbbbbbbb................",
".....................dddddebbbbbbbbbb...........cbbbbbbbbbbddddd................",
"..........................cbbbbbbbbbb...........cbbbbbbbbbb.....................",
"..........................cbbbbbbbbbb...........cbbbbbbbbbb.....................",
"..........................cbbbbbbbbbb...........cbbbbbbbbbb.....................",
"..........................cbbbbbbbbbb...........cbbbbbbbbbb.....................",
"..........................cbbbbbbbbbb...........cbbbbbbbbbb.....................",
"..........................cbbbbbbbbbb...........cbbbbbbbbbb.....................",
"..........................cbbbbbbbbbb...........cbbbbbbbbbb.....................",
"..........................cbbbbbbbbbb...........cbbbbbbbbbb.....................",
"..........................cbbbbbbbbbb...........cbbbbbbbbbb.....................",
"..........................cbbbbbbbbbb...........cbbbbbbbbbb.....................",
"................................................................................",
"................................................................................",
"................................................................................",
"................................................................................",
"................................................................................",
"................................................................................",
"................................................................................",
"................................................................................",
"................................................................................",
"................................................................................",
"................................................................................",
"................................................................................",
"................................................................................",
"................................................................................",
"................................................................................"
};