/* XPM */
static char *Y_white_80[] = {
"80 80 3 1",
". c None",
"a c #ffffff",
"b c #ffffff",
"................................................................................",
"................................................................................",
"................................................................................",
"................................................................................",
"................................................................................",
"................................................................................",
"................................................................................",
"................................................................................",
"................................................................................",
"................................................................................",
"................................................................................",
"................................................................................",
"................................................................................",
"................................................................................",
"................................................................................",
"....................aaaaaaaaaab......................aaaaaaaaaab................",
"....................aaaaaaaaaab......................aaaaaaaaaab................",
"....................aaaaaaaaaab......................aaaaaaaaaab................",
"....................aaaaaaaaaab......................aaaaaaaaaab................",
"....................aaaaaaaaaab......................aaaaaaaaaab................",
"....................aaaaaaaaaab......................aaaaaaaaaab................",
"....................aaaaaaaaaab......................aaaaaaaaaab................",
"....................aaaaaaaaaab......................aaaaaaaaaab................",
"....................aaaaaaaaaab......................aaaaaaaaaab................",
"....................aaaaaaaaaab......................aaaaaaaaaab................",
"....................aaaaaaaaaab......................aaaaaaaaaab................",
".........................baaaab......................aaaaa......................",
".........................baaaaaaaaaa...........baaaaaaaaaa......................",
".........................baaaaaaaaaa...........baaaaaaaaaa......................",
".........................baaaaaaaaaa...........baaaaaaaaaa......................",
".........................baaaaaaaaaa...........baaaaaaaaaa......................",
".........................baaaaaaaaaa...........baaaaaaaaaa......................",
"...............................aaaaaaaaaaaaaaaaaaaaaa...........................",
"...............................aaaaaaaaaaaaaaaaaaaaaa...........................",
"...............................aaaaaaaaaaaaaaaaaaaaaa...........................",
"...............................aaaaaaaaaaaaaaaaaaaaaa...........................",
"...............................aaaaaaaaaaaaaaaaaaaaaa...........................",
"...............................aaaaaaaaaaaaaaaaaaaaaa...........................",
"....................................baaaaaaaaaa.................................",
"....................................baaaaaaaaaa.................................",
"....................................baaaaaaaaaa.................................",
"....................................baaaaaaaaaa.................................",
"....................................baaaaaaaaaa.................................",
"....................................baaaaaaaaaa.................................",
"....................................baaaaaaaaaa.................................",
"....................................baaaaaaaaaa.................................",
"....................................baaaaaaaaaa.................................",
"....................................baaaaaaaaaa.................................",
"....................................baaaaaaaaaa.................................",
"....................................baaaaaaaaaa.................................",
"....................................baaaaaaaaaa.................................",
"....................................baaaaaaaaaa.................................",
"....................................baaaaaaaaaa.................................",
"....................................baaaaaaaaaa.................................",
"....................................baaaaaaaaaa.................................",
"....................................baaaaaaaaaa.................................",
"....................................baaaaaaaaaa.................................",
"....................................baaaaaaaaaa.................................",
"....................................baaaaaaaaaa.................................",
"....................................baaaaaaaaaa.................................",
"....................................baaaaaaaaaa.................................",
"....................................baaaaaaaaaa.................................",
"....................................baaaaaaaaaa.................................",
"....................................baaaaaaaaaa.................................",
"....................................baaaaaaaaaa.................................",
"................................................................................",
"................................................................................",
"................................................................................",
"................................................................................",
"................................................................................",
"................................................................................",
"................................................................................",
"................................................................................",
"................................................................................",
"................................................................................",
"................................................................................",
"................................................................................",
"................................................................................",
"................................................................................",
"................................................................................"
};