/* XPM */
static char *Z_white_80[] = {
"80 80 10 1",
". c None",
"a c #ffffff",
"b c #ffffff",
"c c #ffffff",
"d c #ffffff",
"e c #ffffff",
"f c #ffffff",
"g c #ffffff",
"h c #ffffff",
"i c #ffffff",
"................................................................................",
"................................................................................",
"................................................................................",
"................................................................................",
"................................................................................",
"................................................................................",
"................................................................................",
"................................................................................",
"................................................................................",
"................................................................................",
"................................................................................",
"................................................................................",
"................................................................................",
"................................................................................",
"................................................................................",
"....................aaaaaaaaaaaaaaaaaaaaaaaaaaaaaaaaaaaaaaaaaaab................",
"....................aaaaaaaaaaaaaaaaaaaaaaaaaaaaaaaaaaaaaaaaaaab................",
"....................aaaaaaaaaaaaaaaaaaaaaaaaaaaaaaaaaaaaaaaaaaab................",
"....................aaaaaaaaaaaaaaaaaaaaaaaaaaaaaaaaaaaaaaaaaaab................",
"....................aaaaaaaaaaaaaaaaaaaaaaaaaaaaaaaaaaaaaaaaaaab................",
"....................cccccccccccccccccccccccccccccccccaaaaaaaaaab................",
".....................................................aaaaaaaaaab................",
".....................................................aaaaaaaaaab................",
".....................................................aaaaaaaaaab................",
".....................................................aaaaaaaaaab................",
".....................................................aaaaaaaaaab................",
".....................................................aaaaaaaaaab................",
"...............................................baaaaaaaaaa......................",
"...............................................baaaaaaaaaa......................",
"...............................................baaaaaaaaaa......................",
"...............................................baaaaaaaaaa......................",
"...............................................baaaaaaaaaa......................",
"..........................................aaaaaaaaaab...........................",
"..........................................aaaaaaaaaab...........................",
"..........................................aaaaaaaaaab...........................",
"..........................................aaaaaaaaaab...........................",
"..........................................aaaaaaaaaab...........................",
"..........................................aaaaaaaaaab...........................",
"....................................baaaaaaaaaa.................................",
"....................................baaaaaaaaaa.................................",
"....................................baaaaaaaaaa.................................",
"....................................baaaaaaaaaa.................................",
"....................................baaaaaaaaaa.................................",
"...............................aaaaaaaaaab......................................",
"...............................aaaaaaaaaab......................................",
"...............................aaaaaaaaaab......................................",
"...............................aaaaaaaaaab......................................",
"...............................aaaaaaaaaab......................................",
".........................deeeeeaaaaafffffg......................................",
".........................baaaaaaaaaa............................................",
".........................baaaaaaaaaa............................................",
".........................baaaaaaaaaa............................................",
".........................baaaaaaaaaa............................................",
".........................baaaaaaaaaa............................................",
"....................aaaaaaaaaab.................................................",
"....................aaaaaaaaaab.................................................",
"....................aaaaaaaaaab.................................................",
"....................aaaaaaaaaab.................................................",
"....................aaaaaaaaaab.................................................",
"....................aaaaaaaaaahcccccccccccccccccccccccccccccccci................",
"....................aaaaaaaaaaaaaaaaaaaaaaaaaaaaaaaaaaaaaaaaaaab................",
"....................aaaaaaaaaaaaaaaaaaaaaaaaaaaaaaaaaaaaaaaaaaab................",
"....................aaaaaaaaaaaaaaaaaaaaaaaaaaaaaaaaaaaaaaaaaaab................",
"....................aaaaaaaaaaaaaaaaaaaaaaaaaaaaaaaaaaaaaaaaaaab................",
"....................aaaaaaaaaaaaaaaaaaaaaaaaaaaaaaaaaaaaaaaaaaab................",
"................................................................................",
"................................................................................",
"................................................................................",
"................................................................................",
"................................................................................",
"................................................................................",
"................................................................................",
"................................................................................",
"................................................................................",
"................................................................................",
"................................................................................",
"................................................................................",
"................................................................................",
"................................................................................",
"................................................................................"
};