/* XPM */
static char *0_gold_48[] = {
"48 48 7 1",
". c None",
"a c #ffc864",
"b c #ffc864",
"c c #ffc864",
"d c #ffc864",
"e c #ffc864",
"f c #ffc864",
"................................................",
"................................................",
"................................................",
"................................................",
"................................................",
"................................................",
"................................................",
"................................................",
"................................................",
"..................aaaaaaaaaaaaa.................",
"..................aaaaaaaaaaaaa.................",
"..................aaaaaaaaaaaaa.................",
"..................aaabccccccaaa.................",
"...............aaaaaad......aaaaaad.............",
"...............aaaaaad......aaaaaad.............",
"...............aaaaaad......aaaaaad.............",
"...............aaaaaad......aaaaaad.............",
"...............aaaaaad......aaaaaad.............",
"...............aaaaaad......aaaaaad.............",
"...............aaaaaad......aaaaaad.............",
"...............aaaaaad......aaaaaad.............",
"...............aaaaaad......aaaaaad.............",
"...............aaaaaad......aaaaaad.............",
"...............aaaaaad......aaaaaad.............",
"...............aaaaaad......aaaaaad.............",
"...............aaaaaad......aaaaaad.............",
"...............aaaaaad......aaaaaad.............",
"...............aaaaaad......aaaaaad.............",
"...............aaaaaad......aaaaaad.............",
"...............aaaaaad......aaaaaad.............",
"...............aaaaaad......aaaaaad.............",
"...............aaaaaad......aaaaaad.............",
"...............aaaaaad......aaaaaad.............",
"...............aaaaaad......aaaaaad.............",
"...............aaaaaad......aaaaaad.............",
"...............eeeaaabccccccaaaeeef.............",
"..................aaaaaaaaaaaaa.................",
"..................aaaaaaaaaaaaa.................",
"..................aaaaaaaaaaaaa.................",
"................................................",
"................................................",
"................................................",
"................................................",
"................................................",
"................................................",
"................................................",
"................................................",
"................................................"
};