/* XPM */
static char *1_gold_48[] = {
"48 48 10 1",
". c None",
"a c #ffc864",
"b c #ffc864",
"c c #ffc864",
"d c #ffc864",
"e c #ffc864",
"f c #ffc864",
"g c #ffc864",
"h c #ffc864",
"i c #ffc864",
"................................................",
"................................................",
"................................................",
"................................................",
"................................................",
"................................................",
"................................................",
"................................................",
"................................................",
".........................aaaaaab................",
".........................aaaaaab................",
".........................aaaaaab................",
".....................cdddaaaaaab................",
".....................eaaaaaaaaab................",
".....................eaaaaaaaaab................",
"..................fgghaaaaaaaaab................",
"..................iaaaaaaaaaaaab................",
"..................iaaaaaaaaaaaab................",
"..................iaaaaaaaaaaaab................",
".........................aaaaaab................",
".........................aaaaaab................",
".........................aaaaaab................",
".........................aaaaaab................",
".........................aaaaaab................",
".........................aaaaaab................",
".........................aaaaaab................",
".........................aaaaaab................",
".........................aaaaaab................",
".........................aaaaaab................",
".........................aaaaaab................",
".........................aaaaaab................",
".........................aaaaaab................",
".........................aaaaaab................",
".........................aaaaaab................",
".........................aaaaaab................",
".........................aaaaaab................",
".........................aaaaaab................",
".........................aaaaaab................",
".........................aaaaaab................",
"................................................",
"................................................",
"................................................",
"................................................",
"................................................",
"................................................",
"................................................",
"................................................",
"................................................"
};