/* XPM */
static char *2_gold_48[] = {
"48 48 11 1",
". c None",
"a c #ffc864",
"b c #ffc864",
"c c #ffc864",
"d c #ffc864",
"e c #ffc864",
"f c #ffc864",
"g c #ffc864",
"h c #ffc864",
"i c #ffc864",
"j c #ffc864",
"................................................",
"................................................",
"................................................",
"................................................",
"................................................",
"................................................",
"................................................",
"................................................",
"................................................",
"..................abbbbbbbbbbbba................",
"..................abbbbbbbbbbbba................",
"..................abbbbbbbbbbbba................",
"...............bbbbbbcddddddbbbbbba.............",
"...............bbbbbba......bbbbbba.............",
"...............bbbbbba......bbbbbba.............",
"...............dddddde......bbbbbba.............",
"............................bbbbbba.............",
"............................bbbbbba.............",
"............................bbbbbba.............",
"............................bbbbbba.............",
"............................bbbbbba.............",
"............................bbbbbba.............",
".........................bbbbbba................",
".........................bbbbbba................",
".........................bbbbbba................",
".........................bbbbbba................",
".....................fbbbbbb....................",
".....................fbbbbbb....................",
".....................fbbbbbb....................",
"..................abbbbbb.......................",
"..................abbbbbb.......................",
"..................abbbbbb.......................",
"...............ggghbbijjj.......................",
"...............bbbbbba..........................",
"...............bbbbbba..........................",
"...............bbbbbbcdddddddddddde.............",
"...............bbbbbbbbbbbbbbbbbbba.............",
"...............bbbbbbbbbbbbbbbbbbba.............",
"...............bbbbbbbbbbbbbbbbbbba.............",
"................................................",
"................................................",
"................................................",
"................................................",
"................................................",
"................................................",
"................................................",
"................................................",
"................................................"
};