/* XPM */
static char *3_gold_48[] = {
"48 48 11 1",
". c None",
"a c #ffc864",
"b c #ffc864",
"c c #ffc864",
"d c #ffc864",
"e c #ffc864",
"f c #ffc864",
"g c #ffc864",
"h c #ffc864",
"i c #ffc864",
"j c #ffc864",
"................................................",
"................................................",
"................................................",
"................................................",
"................................................",
"................................................",
"................................................",
"................................................",
"................................................",
"..................aaaaaaaaaaaaa.................",
"..................aaaaaaaaaaaaa.................",
"..................aaaaaaaaaaaaa.................",
"...............aaaaaabccccccaaaaaad.............",
"...............aaaaaad......aaaaaad.............",
"...............aaaaaad......aaaaaad.............",
"...............cccccce......aaaaaad.............",
"............................aaaaaad.............",
"............................aaaaaad.............",
"............................aaaaaad.............",
"............................aaaaaad.............",
"............................aaaaaad.............",
"............................aaaaaad.............",
".....................fccccccaaa.................",
".....................gaaaaaaaaa.................",
".....................gaaaaaaaaa.................",
".....................hiiiiiiaaaccce.............",
"............................aaaaaad.............",
"............................aaaaaad.............",
"............................aaaaaad.............",
"............................aaaaaad.............",
"............................aaaaaad.............",
"............................aaaaaad.............",
"...............cccccce......aaaaaad.............",
"...............aaaaaad......aaaaaad.............",
"...............aaaaaad......aaaaaad.............",
"...............iiiaaabccccccaaaiiij.............",
"..................aaaaaaaaaaaaa.................",
"..................aaaaaaaaaaaaa.................",
"..................aaaaaaaaaaaaa.................",
"................................................",
"................................................",
"................................................",
"................................................",
"................................................",
"................................................",
"................................................",
"................................................",
"................................................"
};