/* XPM */
static char *4_gold_48[] = {
"48 48 8 1",
". c None",
"a c #ffc864",
"b c #ffc864",
"c c #ffc864",
"d c #ffc864",
"e c #ffc864",
"f c #ffc864",
"g c #ffc864",
"................................................",
"................................................",
"................................................",
"................................................",
"................................................",
"................................................",
"................................................",
"................................................",
"................................................",
".........................abbbbbb................",
".........................abbbbbb................",
".........................abbbbbb................",
"......................bbbbbbbbbb................",
"......................bbbbbbbbbb................",
"......................bbbbbbbbbb................",
"......................bbbbbbbbbb................",
"......................bbbbbbbbbb................",
"......................bbbbbbbbbb................",
"......................bbbbbbbbbb................",
"...................bbbbbbbbbbbbb................",
"...................bbbbbbbbbbbbb................",
"...................bbbbbbbbbbbbb................",
"...................bbb...abbbbbb................",
"...................bbb...abbbbbb................",
"...................bbb...abbbbbb................",
"...............cdddbbb...abbbbbb................",
"...............dbbbbbb...abbbbbb................",
"...............dbbbbbb...abbbbbb................",
"...............dbbbbbb...abbbbbb................",
"...............dbbbbbbbbbbbbbbbbbbbd............",
"...............dbbbbbbbbbbbbbbbbbbbd............",
"...............dbbbbbbbbbbbbbbbbbbbd............",
"...............efffffffffgbbbbbbfffe............",
".........................abbbbbb................",
".........................abbbbbb................",
".........................abbbbbb................",
".........................abbbbbb................",
".........................abbbbbb................",
".........................abbbbbb................",
"................................................",
"................................................",
"................................................",
"................................................",
"................................................",
"................................................",
"................................................",
"................................................",
"................................................"
};