/* XPM */
static char *5_white_48[] = {
"48 48 8 1",
". c None",
"a c #ffffff",
"b c #ffffff",
"c c #ffffff",
"d c #ffffff",
"e c #ffffff",
"f c #ffffff",
"g c #ffffff",
"................................................",
"................................................",
"................................................",
"................................................",
"................................................",
"................................................",
"................................................",
"................................................",
"................................................",
"...............aaaaaaaaaaaaaaaaaaab.............",
"...............aaaaaaaaaaaaaaaaaaab.............",
"...............aaaaaaaaaaaaaaaaaaab.............",
"...............aaaaaacdddddddddddde.............",
"...............aaaaaab..........................",
"...............aaaaaab..........................",
"...............aaaaaab..........................",
"...............aaaaaab..........................",
"...............aaaaaab..........................",
"...............aaaaaab..........................",
"...............aaaaaaaaaaaaaaaa.................",
"...............aaaaaaaaaaaaaaaa.................",
"...............aaaaaaaaaaaaaaaa.................",
"...............aaaaaacddddddaaaddde.............",
"...............aaaaaab......aaaaaab.............",
"...............aaaaaab......aaaaaab.............",
"...............aaaaaab......aaaaaab.............",
"............................aaaaaab.............",
"............................aaaaaab.............",
"............................aaaaaab.............",
"............................aaaaaab.............",
"............................aaaaaab.............",
"............................aaaaaab.............",
"...............dddddde......aaaaaab.............",
"...............aaaaaab......aaaaaab.............",
"...............aaaaaab......aaaaaab.............",
"...............fffaaacddddddaaafffg.............",
"..................aaaaaaaaaaaaa.................",
"..................aaaaaaaaaaaaa.................",
"..................aaaaaaaaaaaaa.................",
"................................................",
"................................................",
"................................................",
"................................................",
"................................................",
"................................................",
"................................................",
"................................................",
"................................................"
};