/* XPM */
static char *6_gold_48[] = {
"48 48 8 1",
". c None",
"a c #ffc864",
"b c #ffc864",
"c c #ffc864",
"d c #ffc864",
"e c #ffc864",
"f c #ffc864",
"g c #ffc864",
"................................................",
"................................................",
"................................................",
"................................................",
"................................................",
"................................................",
"................................................",
"................................................",
"................................................",
"..................aaaaaaaaaaaaa.................",
"..................aaaaaaaaaaaaa.................",
"..................aaaaaaaaaaaaa.................",
"...............bbbaaacbbbbbbaaabbbd.............",
"...............aaaaaae......aaaaaae.............",
"...............aaaaaae......aaaaaae.............",
"...............aaaaaae......aaaaaae.............",
"...............aaaaaae..........................",
"...............aaaaaae..........................",
"...............aaaaaae..........................",
"...............aaaaaae..........................",
"...............aaaaaae..........................",
"...............aaaaaae..........................",
"...............aaaaaacbbbbbbbbb.................",
"...............aaaaaaaaaaaaaaaa.................",
"...............aaaaaaaaaaaaaaaa.................",
"...............aaaaaaaaaaaaaaaa.................",
"...............aaaaaae......aaaaaae.............",
"...............aaaaaae......aaaaaae.............",
"...............aaaaaae......aaaaaae.............",
"...............aaaaaae......aaaaaae.............",
"...............aaaaaae......aaaaaae.............",
"...............aaaaaae......aaaaaae.............",
"...............aaaaaae......aaaaaae.............",
"...............aaaaaae......aaaaaae.............",
"...............aaaaaae......aaaaaae.............",
"...............fffaaacbbbbbbaaafffg.............",
"..................aaaaaaaaaaaaa.................",
"..................aaaaaaaaaaaaa.................",
"..................aaaaaaaaaaaaa.................",
"................................................",
"................................................",
"................................................",
"................................................",
"................................................",
"................................................",
"................................................",
"................................................",
"................................................"
};