/* XPM */
static char *8_white_48[] = {
"48 48 7 1",
". c None",
"a c #ffffff",
"b c #ffffff",
"c c #ffffff",
"d c #ffffff",
"e c #ffffff",
"f c #ffffff",
"................................................",
"................................................",
"................................................",
"................................................",
"................................................",
"................................................",
"................................................",
"................................................",
"................................................",
"..................aaaaaaaaaaaaa.................",
"..................aaaaaaaaaaaaa.................",
"..................aaaaaaaaaaaaa.................",
"...............aaaaaabccccccaaaaaad.............",
"...............aaaaaad......aaaaaad.............",
"...............aaaaaad......aaaaaad.............",
"...............aaaaaad......aaaaaad.............",
"...............aaaaaad......aaaaaad.............",
"...............aaaaaad......aaaaaad.............",
"...............aaaaaad......aaaaaad.............",
"...............aaaaaad......aaaaaad.............",
"...............aaaaaad......aaaaaad.............",
"...............aaaaaad......aaaaaad.............",
"..................aaabccccccaaa.................",
"..................aaaaaaaaaaaaa.................",
"..................aaaaaaaaaaaaa.................",
"..................aaaaaaaaaaaaa.................",
"...............aaaaaad......aaaaaad.............",
"...............aaaaaad......aaaaaad.............",
"...............aaaaaad......aaaaaad.............",
"...............aaaaaad......aaaaaad.............",
"...............aaaaaad......aaaaaad.............",
"...............aaaaaad......aaaaaad.............",
"...............aaaaaad......aaaaaad.............",
"...............aaaaaad......aaaaaad.............",
"...............aaaaaad......aaaaaad.............",
"...............eeeaaabccccccaaaeeef.............",
"..................aaaaaaaaaaaaa.................",
"..................aaaaaaaaaaaaa.................",
"..................aaaaaaaaaaaaa.................",
"................................................",
"................................................",
"................................................",
"................................................",
"................................................",
"................................................",
"................................................",
"................................................",
"................................................"
};