/* XPM */
static char *9_gold_48[] = {
"48 48 8 1",
". c None",
"a c #ffc864",
"b c #ffc864",
"c c #ffc864",
"d c #ffc864",
"e c #ffc864",
"f c #ffc864",
"g c #ffc864",
"................................................",
"................................................",
"................................................",
"................................................",
"................................................",
"................................................",
"................................................",
"................................................",
"................................................",
"..................aaaaaaaaaaaaa.................",
"..................aaaaaaaaaaaaa.................",
"..................aaaaaaaaaaaaa.................",
"...............aaaaaabccccccaaaaaad.............",
"...............aaaaaad......aaaaaad.............",
"...............aaaaaad......aaaaaad.............",
"...............aaaaaad......aaaaaad.............",
"...............aaaaaad......aaaaaad.............",
"...............aaaaaad......aaaaaad.............",
"...............aaaaaad......aaaaaad.............",
"...............aaaaaad......aaaaaad.............",
"...............aaaaaad......aaaaaad.............",
"...............aaaaaad......aaaaaad.............",
"..................aaabccccccaaaaaad.............",
"..................aaaaaaaaaaaaaaaad.............",
"..................aaaaaaaaaaaaaaaad.............",
"..................aaaaaaaaaaaaaaaad.............",
"............................aaaaaad.............",
"............................aaaaaad.............",
"............................aaaaaad.............",
"............................aaaaaad.............",
"............................aaaaaad.............",
"............................aaaaaad.............",
"...............cccccce......aaaaaad.............",
"...............aaaaaad......aaaaaad.............",
"...............aaaaaad......aaaaaad.............",
"...............fffaaabccccccaaafffg.............",
"..................aaaaaaaaaaaaa.................",
"..................aaaaaaaaaaaaa.................",
"..................aaaaaaaaaaaaa.................",
"................................................",
"................................................",
"................................................",
"................................................",
"................................................",
"................................................",
"................................................",
"................................................",
"................................................"
};