/* XPM */
static char *A_white_48[] = {
"48 48 6 1",
". c None",
"a c #ffffff",
"b c #ffffff",
"c c #ffffff",
"d c #ffffff",
"e c #ffffff",
"................................................",
"................................................",
"................................................",
"................................................",
"................................................",
"................................................",
"................................................",
"................................................",
"................................................",
"......................aaaaaab...................",
"......................aaaaaab...................",
"......................aaaaaab...................",
"......................aaaaaab...................",
"......................aaaaaab...................",
"......................aaaaaab...................",
"...................cccaaaaaadccc................",
"...................aaaaaaaaaaaaa................",
"...................aaaaaaaaaaaaa................",
"...................aaaaaaaaaaaaa................",
"...................aaaaaaaaaaaaa................",
"...................aaaaaaaaaaaaa................",
"...................aaaaaaaaaaaaa................",
"...............baaaaaa......eaaaaaa.............",
"...............baaaaaa......eaaaaaa.............",
"...............baaaaaa......eaaaaaa.............",
"...............baaaaaa......eaaaaaa.............",
"...............baaaaaa......eaaaaaa.............",
"...............baaaaaa......eaaaaaa.............",
"...............baaaaaa......eaaaaaa.............",
"...............baaaaaaaaaaaaaaaaaaa.............",
"...............baaaaaaaaaaaaaaaaaaa.............",
"...............baaaaaaaaaaaaaaaaaaa.............",
"............aaaaaab.............aaaaaa..........",
"............aaaaaab.............aaaaaa..........",
"............aaaaaab.............aaaaaa..........",
"............aaaaaab.............aaaaaa..........",
"............aaaaaab.............aaaaaa..........",
"............aaaaaab.............aaaaaa..........",
"............aaaaaab.............aaaaaa..........",
"................................................",
"................................................",
"................................................",
"................................................",
"................................................",
"................................................",
"................................................",
"................................................",
"................................................"
};