/* XPM */
static char *B_gold_48[] = {
"48 48 8 1",
". c None",
"a c #ffc864",
"b c #ffc864",
"c c #ffc864",
"d c #ffc864",
"e c #ffc864",
"f c #ffc864",
"g c #ffc864",
"................................................",
"................................................",
"................................................",
"................................................",
"................................................",
"................................................",
"................................................",
"................................................",
"................................................",
"..............aaaaaaaaaaaaaaaaaaab..............",
"..............aaaaaaaaaaaaaaaaaaab..............",
"..............aaaaaaaaaaaaaaaaaaab..............",
"..............aaaaaacdddddddddcaaaaaa...........",
"..............aaaaaae.........eaaaaaa...........",
"..............aaaaaae.........eaaaaaa...........",
"..............aaaaaae.........eaaaaaa...........",
"..............aaaaaae.........eaaaaaa...........",
"..............aaaaaae.........eaaaaaa...........",
"..............aaaaaae.........eaaaaaa...........",
"..............aaaaaae.........eaaaaaa...........",
"..............aaaaaae.........eaaaaaa...........",
"..............aaaaaae.........eaaaaaa...........",
"..............aaaaaacdddddddddcaab..............",
"..............aaaaaaaaaaaaaaaaaaab..............",
"..............aaaaaaaaaaaaaaaaaaab..............",
"..............aaaaaaaaaaaaaaaaaaab..............",
"..............aaaaaae.........eaaaaaa...........",
"..............aaaaaae.........eaaaaaa...........",
"..............aaaaaae.........eaaaaaa...........",
"..............aaaaaae.........eaaaaaa...........",
"..............aaaaaae.........eaaaaaa...........",
"..............aaaaaae.........eaaaaaa...........",
"..............aaaaaae.........eaaaaaa...........",
"..............aaaaaae.........eaaaaaa...........",
"..............aaaaaae.........eaaaaaa...........",
"..............aaaaaacdddddddddcaafggg...........",
"..............aaaaaaaaaaaaaaaaaaab..............",
"..............aaaaaaaaaaaaaaaaaaab..............",
"..............aaaaaaaaaaaaaaaaaaab..............",
"................................................",
"................................................",
"................................................",
"................................................",
"................................................",
"................................................",
"................................................",
"................................................",
"................................................"
};