/* XPM */
static char *C_white_48[] = {
"48 48 9 1",
". c None",
"a c #ffffff",
"b c #ffffff",
"c c #ffffff",
"d c #ffffff",
"e c #ffffff",
"f c #ffffff",
"g c #ffffff",
"h c #ffffff",
"................................................",
"................................................",
"................................................",
"................................................",
"................................................",
"................................................",
"................................................",
"................................................",
"................................................",
".....................aaaaaaaaaaaaa..............",
".....................aaaaaaaaaaaaa..............",
".....................aaaaaaaaaaaaa..............",
".................bcccaaaccccccdaaaccc...........",
".................eaaaaaa......eaaaaaa...........",
".................eaaaaaa......eaaaaaa...........",
".................eaaaaaa......eaaaaaa...........",
"..............aaaaaae...........................",
"..............aaaaaae...........................",
"..............aaaaaae...........................",
"..............aaaaaae...........................",
"..............aaaaaae...........................",
"..............aaaaaae...........................",
"..............aaaaaae...........................",
"..............aaaaaae...........................",
"..............aaaaaae...........................",
"..............aaaaaae...........................",
"..............aaaaaae...........................",
"..............aaaaaae...........................",
"..............aaaaaae...........................",
"..............aaaaaae...........................",
"..............aaaaaae...........................",
"..............aaaaaae...........................",
"..............fffgaadccc......bcccccc...........",
".................eaaaaaa......eaaaaaa...........",
".................eaaaaaa......eaaaaaa...........",
".................hfffaaaccccccdaaafff...........",
".....................aaaaaaaaaaaaa..............",
".....................aaaaaaaaaaaaa..............",
".....................aaaaaaaaaaaaa..............",
"................................................",
"................................................",
"................................................",
"................................................",
"................................................",
"................................................",
"................................................",
"................................................",
"................................................"
};