/* XPM */
static char *1_white_48[] = {
"48 48 2 1",
"a c #ffffff",
"b c #000000",
"aaaaaaaaaaaaaaaaaaaaaaaaaaaaaaaaaaaaaaaaaaaaaaaa",
"aaaaaaaaaaaaaaaaaaaaaaaaaaaaaaaaaaaaaaaaaaaaaaaa",
"aaaaaaaaaaaaaaaaaaaaaaaaaaaaaaaaaaaaaaaaaaaaaaaa",
"aaaaaaaaaaaaaaaaaaaaaaaaaaaaaaaaaaaaaaaaaaaaaaaa",
"aaaabbbbbbbbbbbbbbbbbbbbbbbbbbbbbbbbbbbbbbbbaaaa",
"aaaabbbbbbbbbbbbbbbbbbbbbbbbbbbbbbbbbbbbbbbbaaaa",
"aaaabbbbbbbbbbbbbbbbbbbbbbbbbbbbbbbbbbbbbbbbaaaa",
"aaaabbbbbbbbbbbbbbbbbbbbbbbbbbbbbbbbbbbbbbbbaaaa",
"aaaabbbbbbbbbbbbbbbbbbbbbbbbbbbbbbbbbbbbbbbbaaaa",
"aaaabbbbbbbbbbbbbbbbbbbbbbbbbbbbbbbbbbbbbbbbaaaa",
"aaaabbbbbbbbbbbbbbbbbbbbbbbbbbbbbbbbabbbbbbbaaaa",
"aaaabbbbbbbbbbbbbbbbbbbbbbbbbbbbbbbbaaaabbbbaaaa",
"aaaabbbbbbbbbbbbbbbbbbbbbbbbbbbbbbbaaaabbbbbaaaa",
"aaaabbbbbbbbbbbbbbbbbbbbbbbbbbbbbbbaaaabbbbbaaaa",
"aaaabbbbbbbbbbbbbbbbbbbbbbbbbbbbbbaaaabbbbbbaaaa",
"aaaabbbbbbbbbbbbbbbbbbbbbbbbbbbbbbaaaabbbbbbaaaa",
"aaaabbbbbbbbbbbbbbbbbbbbbbbbbbbbbaaaabbbbbbbaaaa",
"aaaabbbbbbbbbbbbbbbbbbbbbbbbbbbbbaaaabbbbbbbaaaa",
"aaaabbbbbbbbbbbbbbbbbbbbbbbbbbbbaaaabbbbbbbbaaaa",
"aaaabbbbbbbbbbbbbbbbbbbbbbbbbbbbaaaabbbbbbbbaaaa",
"aaaabbbbbbbbbbbbbbbbbbbbbbbbbbbaaaabbbbbbbbbaaaa",
"aaaabbbbbbbbbbbbbbbbbbbbbbbbbbbaaaabbbbbbbbbaaaa",
"aaaabbbbbbbbbbbbbbbbbbbbbbbbbbaaaabbbbbbbbbbaaaa",
"aaaabbbbbbbabbbbbbbbbbbbbbbbbbaaaabbbbbbbbbbaaaa",
"aaaabbbbbbaaabbbbbbbbbbbbbbbbaaaabbbbbbbbbbbaaaa",
"aaaabbbbbaaaaabbbbbbbbbbbbbbbaaaabbbbbbbbbbbaaaa",
"aaaabbbbbbaaaaabbbbbbbbbbbbbaaaabbbbbbbbbbbbaaaa",
"aaaabbbbbbbaaaaabbbbbbbbbbbbaaaabbbbbbbbbbbbaaaa",
"aaaabbbbbbbbaaaaabbbbbbbbbbaaaabbbbbbbbbbbbbaaaa",
"aaaabbbbbbbbbaaaaabbbbbbbbbaaaabbbbbbbbbbbbbaaaa",
"aaaabbbbbbbbbbaaaaabbbbbbbaaaabbbbbbbbbbbbbbaaaa",
"aaaabbbbbbbbbbbaaaaabbbbbbaaaabbbbbbbbbbbbbbaaaa",
"aaaabbbbbbbbbbbbaaaaabbbbaaaabbbbbbbbbbbbbbbaaaa",
"aaaabbbbbbbbbbbbbaaaaabbbaaaabbbbbbbbbbbbbbbaaaa",
"aaaabbbbbbbbbbbbbbaaaaabaaaabbbbbbbbbbbbbbbbaaaa",
"aaaabbbbbbbbbbbbbbbaaaaaaaaabbbbbbbbbbbbbbbbaaaa",
"aaaabbbbbbbbbbbbbbbbaaaaaaabbbbbbbbbbbbbbbbbaaaa",
"aaaabbbbbbbbbbbbbbbbbaaaaaabbbbbbbbbbbbbbbbbaaaa",
"aaaabbbbbbbbbbbbbbbbbbaaaabbbbbbbbbbbbbbbbbbaaaa",
"aaaabbbbbbbbbbbbbbbbbbbababbbbbbbbbbbbbbbbbbaaaa",
"aaaabbbbbbbbbbbbbbbbbbbbbbbbbbbbbbbbbbbbbbbbaaaa",
"aaaabbbbbbbbbbbbbbbbbbbbbbbbbbbbbbbbbbbbbbbbaaaa",
"aaaabbbbbbbbbbbbbbbbbbbbbbbbbbbbbbbbbbbbbbbbaaaa",
"aaaabbbbbbbbbbbbbbbbbbbbbbbbbbbbbbbbbbbbbbbbaaaa",
"aaaaaaaaaaaaaaaaaaaaaaaaaaaaaaaaaaaaaaaaaaaaaaaa",
"aaaaaaaaaaaaaaaaaaaaaaaaaaaaaaaaaaaaaaaaaaaaaaaa",
"aaaaaaaaaaaaaaaaaaaaaaaaaaaaaaaaaaaaaaaaaaaaaaaa",
"aaaaaaaaaaaaaaaaaaaaaaaaaaaaaaaaaaaaaaaaaaaaaaaa"
};