/* XPM */
static char *D_white_48[] = {
"48 48 14 1",
". c None",
"a c #ffffff",
"b c #ffffff",
"c c #ffffff",
"d c #ffffff",
"e c #ffffff",
"f c #ffffff",
"g c #ffffff",
"h c #ffffff",
"i c #ffffff",
"j c #ffffff",
"k c #ffffff",
"l c #ffffff",
"m c #ffffff",
"................................................",
"................................................",
"................................................",
"................................................",
"................................................",
"................................................",
"................................................",
"................................................",
"................................................",
"..............aaaaaaaaaaaaaaaab.................",
"..............aaaaaaaaaaaaaaaab.................",
"..............aaaaaaaaaaaaaaaab.................",
"..............aaaaaacddddddaaab.................",
"..............aaaaaae......aaaaaae..............",
"..............aaaaaae......aaaaaae..............",
"..............aaaaaae......aaaaaae..............",
"..............aaaaaae.........faaaaaa...........",
"..............aaaaaae.........faaaaaa...........",
"..............aaaaaae.........faaaaaa...........",
"..............aaaaaae.........faaaaaa...........",
"..............aaaaaae.........faaaaaa...........",
"..............aaaaaae.........faaaaaa...........",
"..............aaaaaae.........faaaaaa...........",
"..............aaaaaae.........faaaaaa...........",
"..............aaaaaae.........faaaaaa...........",
"..............aaaaaae.........faaaaaa...........",
"..............aaaaaae.........faaaaaa...........",
"..............aaaaaae.........faaaaaa...........",
"..............aaaaaae.........faaaaaa...........",
"..............aaaaaae.........faaaaaa...........",
"..............aaaaaae.........faaaaaa...........",
"..............aaaaaae.........faaaaaa...........",
"..............aaaaaae......ggghaaijjj...........",
"..............aaaaaae......aaaaaae..............",
"..............aaaaaae......aaaaaae..............",
"..............aaaaaacddddddaaakllm..............",
"..............aaaaaaaaaaaaaaaab.................",
"..............aaaaaaaaaaaaaaaab.................",
"..............aaaaaaaaaaaaaaaab.................",
"................................................",
"................................................",
"................................................",
"................................................",
"................................................",
"................................................",
"................................................",
"................................................",
"................................................"
};