/* XPM */
static char *E_white_48[] = {
"48 48 7 1",
". c None",
"a c #ffffff",
"b c #ffffff",
"c c #ffffff",
"d c #ffffff",
"e c #ffffff",
"f c #ffffff",
"................................................",
"................................................",
"................................................",
"................................................",
"................................................",
"................................................",
"................................................",
"................................................",
"................................................",
"...............aaaaaaaaaaaaaaaaaaab.............",
"...............aaaaaaaaaaaaaaaaaaab.............",
"...............aaaaaaaaaaaaaaaaaaab.............",
"...............aaaaaacdddddddddddde.............",
"...............aaaaaaf..........................",
"...............aaaaaaf..........................",
"...............aaaaaaf..........................",
"...............aaaaaaf..........................",
"...............aaaaaaf..........................",
"...............aaaaaaf..........................",
"...............aaaaaaf..........................",
"...............aaaaaaf..........................",
"...............aaaaaaf..........................",
"...............aaaaaacddddddddde................",
"...............aaaaaaaaaaaaaaaab................",
"...............aaaaaaaaaaaaaaaab................",
"...............aaaaaaaaaaaaaaaab................",
"...............aaaaaaf..........................",
"...............aaaaaaf..........................",
"...............aaaaaaf..........................",
"...............aaaaaaf..........................",
"...............aaaaaaf..........................",
"...............aaaaaaf..........................",
"...............aaaaaaf..........................",
"...............aaaaaaf..........................",
"...............aaaaaaf..........................",
"...............aaaaaacdddddddddddde.............",
"...............aaaaaaaaaaaaaaaaaaab.............",
"...............aaaaaaaaaaaaaaaaaaab.............",
"...............aaaaaaaaaaaaaaaaaaab.............",
"................................................",
"................................................",
"................................................",
"................................................",
"................................................",
"................................................",
"................................................",
"................................................",
"................................................"
};