/* XPM */
static char *0_white_48[] = {
"48 48 2 1",
"a c #ffffff",
"b c #000000",
"aaaaaaaaaaaaaaaaaaaaaaaaaaaaaaaaaaaaaaaaaaaaaaaa",
"aaaaaaaaaaaaaaaaaaaaaaaaaaaaaaaaaaaaaaaaaaaaaaaa",
"aaaaaaaaaaaaaaaaaaaaaaaaaaaaaaaaaaaaaaaaaaaaaaaa",
"aaaaaaaaaaaaaaaaaaaaaaaaaaaaaaaaaaaaaaaaaaaaaaaa",
"aaaabbbbbbbbbbbbbbbbbbbbbbbbbbbbbbbbbbbbbbbbaaaa",
"aaaabbbbbbbbbbbbbbbbbbbbbbbbbbbbbbbbbbbbbbbbaaaa",
"aaaabbbbbbbbbbbbbbbbbbbbbbbbbbbbbbbbbbbbbbbbaaaa",
"aaaabbbbbbbbbbbbbbbbbbbbbbbbbbbbbbbbbbbbbbbbaaaa",
"aaaabbbbbbbbbbbbbbbbbbbbbbbbbbbbbbbbbbbbbbbbaaaa",
"aaaabbbbbbbbbbbbbbbbbbbbbbbbbbbbbbbbbbbbbbbbaaaa",
"aaaabbbbbbbbbbbbbbbbbbbbbbbbbbbbbbbbbbbbbbbbaaaa",
"aaaabbbbbbbbbbbbbbbbbbbbbbbbbbbbbbbbbbbbbbbbaaaa",
"aaaabbbbbbbbbbbbbbbbbbbbbbbbbbbbbbbbbbbbbbbbaaaa",
"aaaabbbbbbbbbbbbbbbbbbbbbbbbbbbbbbbbbbbbbbbbaaaa",
"aaaabbbbbbbbbbbbbbbbbbbbbbbbbbbbbbbbbbbbbbbbaaaa",
"aaaabbbbbbbbbbbbbbbbbbbbbbbbbbbbbbbbbbbbbbbbaaaa",
"aaaabbbbbbbbbbbbbbbbbbbbbbbbbbbbbbbbbbbbbbbbaaaa",
"aaaabbbbbbbbbbbbbbbbbbbbbbbbbbbbbbbbbbbbbbbbaaaa",
"aaaabbbbbbbbbbbbbbbbbbbbbbbbbbbbbbbbbbbbbbbbaaaa",
"aaaabbbbbbbbbbbbbbbbbbbbbbbbbbbbbbbbbbbbbbbbaaaa",
"aaaabbbbbbbbbbbbbbbbbbbbbbbbbbbbbbbbbbbbbbbbaaaa",
"aaaabbbbbbbbbbbbbbbbbbbbbbbbbbbbbbbbbbbbbbbbaaaa",
"aaaabbbbbbbbbbbbbbbbbbbbbbbbbbbbbbbbbbbbbbbbaaaa",
"aaaabbbbbbbbbbbbbbbbbbbbbbbbbbbbbbbbbbbbbbbbaaaa",
"aaaabbbbbbbbbbbbbbbbbbbbbbbbbbbbbbbbbbbbbbbbaaaa",
"aaaabbbbbbbbbbbbbbbbbbbbbbbbbbbbbbbbbbbbbbbbaaaa",
"aaaabbbbbbbbbbbbbbbbbbbbbbbbbbbbbbbbbbbbbbbbaaaa",
"aaaabbbbbbbbbbbbbbbbbbbbbbbbbbbbbbbbbbbbbbbbaaaa",
"aaaabbbbbbbbbbbbbbbbbbbbbbbbbbbbbbbbbbbbbbbbaaaa",
"aaaabbbbbbbbbbbbbbbbbbbbbbbbbbbbbbbbbbbbbbbbaaaa",
"aaaabbbbbbbbbbbbbbbbbbbbbbbbbbbbbbbbbbbbbbbbaaaa",
"aaaabbbbbbbbbbbbbbbbbbbbbbbbbbbbbbbbbbbbbbbbaaaa",
"aaaabbbbbbbbbbbbbbbbbbbbbbbbbbbbbbbbbbbbbbbbaaaa",
"aaaabbbbbbbbbbbbbbbbbbbbbbbbbbbbbbbbbbbbbbbbaaaa",
"aaaabbbbbbbbbbbbbbbbbbbbbbbbbbbbbbbbbbbbbbbbaaaa",
"aaaabbbbbbbbbbbbbbbbbbbbbbbbbbbbbbbbbbbbbbbbaaaa",
"aaaabbbbbbbbbbbbbbbbbbbbbbbbbbbbbbbbbbbbbbbbaaaa",
"aaaabbbbbbbbbbbbbbbbbbbbbbbbbbbbbbbbbbbbbbbbaaaa",
"aaaabbbbbbbbbbbbbbbbbbbbbbbbbbbbbbbbbbbbbbbbaaaa",
"aaaabbbbbbbbbbbbbbbbbbbbbbbbbbbbbbbbbbbbbbbbaaaa",
"aaaabbbbbbbbbbbbbbbbbbbbbbbbbbbbbbbbbbbbbbbbaaaa",
"aaaabbbbbbbbbbbbbbbbbbbbbbbbbbbbbbbbbbbbbbbbaaaa",
"aaaabbbbbbbbbbbbbbbbbbbbbbbbbbbbbbbbbbbbbbbbaaaa",
"aaaabbbbbbbbbbbbbbbbbbbbbbbbbbbbbbbbbbbbbbbbaaaa",
"aaaaaaaaaaaaaaaaaaaaaaaaaaaaaaaaaaaaaaaaaaaaaaaa",
"aaaaaaaaaaaaaaaaaaaaaaaaaaaaaaaaaaaaaaaaaaaaaaaa",
"aaaaaaaaaaaaaaaaaaaaaaaaaaaaaaaaaaaaaaaaaaaaaaaa",
"aaaaaaaaaaaaaaaaaaaaaaaaaaaaaaaaaaaaaaaaaaaaaaaa"
};