/* XPM */
static char *G_white_48[] = {
"48 48 13 1",
". c None",
"a c #ffffff",
"b c #ffffff",
"c c #ffffff",
"d c #ffffff",
"e c #ffffff",
"f c #ffffff",
"g c #ffffff",
"h c #ffffff",
"i c #ffffff",
"j c #ffffff",
"k c #ffffff",
"l c #ffffff",
"................................................",
"................................................",
"................................................",
"................................................",
"................................................",
"................................................",
"................................................",
"................................................",
"................................................",
".....................aaaaaaaaaaaaa..............",
".....................aaaaaaaaaaaaa..............",
".....................aaaaaaaaaaaaa..............",
".....................aaabbbbbbcaaa..............",
".................daaaaaa......daaaaaa...........",
".................daaaaaa......daaaaaa...........",
".................daaaaaa......daaaaaa...........",
"..............aaaaaad...........................",
"..............aaaaaad...........................",
"..............aaaaaad...........................",
"..............aaaaaad...........................",
"..............aaaaaad...........................",
"..............aaaaaad...........................",
"..............aaaaaad......ebbbbbbbbb...........",
"..............aaaaaad......faaaaaaaaa...........",
"..............aaaaaad......faaaaaaaaa...........",
"..............aaaaaad......faaaaaaaaa...........",
"..............aaaaaad.........daaaaaa...........",
"..............aaaaaad.........daaaaaa...........",
"..............aaaaaad.........daaaaaa...........",
"..............aaaaaad.........daaaaaa...........",
"..............aaaaaad.........daaaaaa...........",
"..............aaaaaad.........daaaaaa...........",
"..............ggghaaijjj......daaaaaa...........",
".................daaaaaa......daaaaaa...........",
".................daaaaaa......daaaaaa...........",
".................klllaaabbbbbbcaaalll...........",
".....................aaaaaaaaaaaaa..............",
".....................aaaaaaaaaaaaa..............",
".....................aaaaaaaaaaaaa..............",
"................................................",
"................................................",
"................................................",
"................................................",
"................................................",
"................................................",
"................................................",
"................................................",
"................................................"
};