/* XPM */
static char *H_white_48[] = {
"48 48 5 1",
". c None",
"a c #ffffff",
"b c #ffffff",
"c c #ffffff",
"d c #ffffff",
"................................................",
"................................................",
"................................................",
"................................................",
"................................................",
"................................................",
"................................................",
"................................................",
"................................................",
"..............aaaaaab.........baaaaaa...........",
"..............aaaaaab.........baaaaaa...........",
"..............aaaaaab.........baaaaaa...........",
"..............aaaaaab.........baaaaaa...........",
"..............aaaaaab.........baaaaaa...........",
"..............aaaaaab.........baaaaaa...........",
"..............aaaaaab.........baaaaaa...........",
"..............aaaaaab.........baaaaaa...........",
"..............aaaaaab.........baaaaaa...........",
"..............aaaaaab.........baaaaaa...........",
"..............aaaaaab.........baaaaaa...........",
"..............aaaaaab.........baaaaaa...........",
"..............aaaaaab.........baaaaaa...........",
"..............aaaaaacdddddddddcaaaaaa...........",
"..............aaaaaaaaaaaaaaaaaaaaaaa...........",
"..............aaaaaaaaaaaaaaaaaaaaaaa...........",
"..............aaaaaaaaaaaaaaaaaaaaaaa...........",
"..............aaaaaab.........baaaaaa...........",
"..............aaaaaab.........baaaaaa...........",
"..............aaaaaab.........baaaaaa...........",
"..............aaaaaab.........baaaaaa...........",
"..............aaaaaab.........baaaaaa...........",
"..............aaaaaab.........baaaaaa...........",
"..............aaaaaab.........baaaaaa...........",
"..............aaaaaab.........baaaaaa...........",
"..............aaaaaab.........baaaaaa...........",
"..............aaaaaab.........baaaaaa...........",
"..............aaaaaab.........baaaaaa...........",
"..............aaaaaab.........baaaaaa...........",
"..............aaaaaab.........baaaaaa...........",
"................................................",
"................................................",
"................................................",
"................................................",
"................................................",
"................................................",
"................................................",
"................................................",
"................................................"
};