/* XPM */
static char *I_white_48[] = {
"48 48 3 1",
". c None",
"a c #ffffff",
"b c #ffffff",
"................................................",
"................................................",
"................................................",
"................................................",
"................................................",
"................................................",
"................................................",
"................................................",
"................................................",
"......................aaaaaab...................",
"......................aaaaaab...................",
"......................aaaaaab...................",
"......................aaaaaab...................",
"......................aaaaaab...................",
"......................aaaaaab...................",
"......................aaaaaab...................",
"......................aaaaaab...................",
"......................aaaaaab...................",
"......................aaaaaab...................",
"......................aaaaaab...................",
"......................aaaaaab...................",
"......................aaaaaab...................",
"......................aaaaaab...................",
"......................aaaaaab...................",
"......................aaaaaab...................",
"......................aaaaaab...................",
"......................aaaaaab...................",
"......................aaaaaab...................",
"......................aaaaaab...................",
"......................aaaaaab...................",
"......................aaaaaab...................",
"......................aaaaaab...................",
"......................aaaaaab...................",
"......................aaaaaab...................",
"......................aaaaaab...................",
"......................aaaaaab...................",
"......................aaaaaab...................",
"......................aaaaaab...................",
"......................aaaaaab...................",
"................................................",
"................................................",
"................................................",
"................................................",
"................................................",
"................................................",
"................................................",
"................................................",
"................................................"
};