/* XPM */
static char *J_white_48[] = {
"48 48 7 1",
". c None",
"a c #ffffff",
"b c #ffffff",
"c c #ffffff",
"d c #ffffff",
"e c #ffffff",
"f c #ffffff",
"................................................",
"................................................",
"................................................",
"................................................",
"................................................",
"................................................",
"................................................",
"................................................",
"................................................",
"...........................aaaaaab..............",
"...........................aaaaaab..............",
"...........................aaaaaab..............",
"...........................aaaaaab..............",
"...........................aaaaaab..............",
"...........................aaaaaab..............",
"...........................aaaaaab..............",
"...........................aaaaaab..............",
"...........................aaaaaab..............",
"...........................aaaaaab..............",
"...........................aaaaaab..............",
"...........................aaaaaab..............",
"...........................aaaaaab..............",
"...........................aaaaaab..............",
"...........................aaaaaab..............",
"...........................aaaaaab..............",
"...........................aaaaaab..............",
"...........................aaaaaab..............",
"...........................aaaaaab..............",
"...........................aaaaaab..............",
".................aaaaaab...aaaaaab..............",
".................aaaaaab...aaaaaab..............",
".................aaaaaab...aaaaaab..............",
".................aaaaaab...aaaaaab..............",
".................aaaaaab...aaaaaab..............",
".................aaaaaab...aaaaaab..............",
".................aaaaaacdddaaaaaab..............",
"....................eaaaaaaaaaf.................",
"....................eaaaaaaaaaf.................",
"....................eaaaaaaaaaf.................",
"................................................",
"................................................",
"................................................",
"................................................",
"................................................",
"................................................",
"................................................",
"................................................",
"................................................"
};