/* XPM */
static char *K_gold_48[] = {
"48 48 17 1",
". c None",
"a c #ffc864",
"b c #ffc864",
"c c #ffc864",
"d c #ffc864",
"e c #ffc864",
"f c #ffc864",
"g c #ffc864",
"h c #ffc864",
"i c #ffc864",
"j c #ffc864",
"k c #ffc864",
"l c #ffc864",
"m c #ffc864",
"n c #ffc864",
"o c #ffc864",
"p c #ffc864",
"................................................",
"................................................",
"................................................",
"................................................",
"................................................",
"................................................",
"................................................",
"................................................",
"................................................",
"..............aaaaaab.........caaaaaa...........",
"..............aaaaaab.........caaaaaa...........",
"..............aaaaaab.........caaaaaa...........",
"..............aaaaaab......daaaaaefff...........",
"..............aaaaaab......daaaaab..............",
"..............aaaaaab......daaaaab..............",
"..............aaaaaab......daaaaab..............",
"..............aaaaaab...gaaaaab.................",
"..............aaaaaab...gaaaaab.................",
"..............aaaaaab...gaaaaab.................",
"..............aaaaaaaaaaaaah....................",
"..............aaaaaaaaaaaaah....................",
"..............aaaaaaaaaaaaah....................",
"..............aaaaaaaaaaaaah....................",
"..............aaaaaaaaaai.......................",
"..............aaaaaaaaaai.......................",
"..............aaaaaaaaaai.......................",
"..............aaaaaaaaaaaaah....................",
"..............aaaaaaaaaaaaah....................",
"..............aaaaaaaaaaaaah....................",
"..............aaaaaab...gaaaaab.................",
"..............aaaaaab...gaaaaab.................",
"..............aaaaaab...gaaaaab.................",
"..............aaaaaab...jhhkaalddm..............",
"..............aaaaaab......daaaaab..............",
"..............aaaaaab......daaaaab..............",
"..............aaaaaab......noopaaefff...........",
"..............aaaaaab.........caaaaaa...........",
"..............aaaaaab.........caaaaaa...........",
"..............aaaaaab.........caaaaaa...........",
"................................................",
"................................................",
"................................................",
"................................................",
"................................................",
"................................................",
"................................................",
"................................................",
"................................................"
};