/* XPM */
static char *L_gold_48[] = {
"48 48 7 1",
". c None",
"a c #ffc864",
"b c #ffc864",
"c c #ffc864",
"d c #ffc864",
"e c #ffc864",
"f c #ffc864",
"................................................",
"................................................",
"................................................",
"................................................",
"................................................",
"................................................",
"................................................",
"................................................",
"................................................",
"...............aaaaaab..........................",
"...............aaaaaab..........................",
"...............aaaaaab..........................",
"...............aaaaaab..........................",
"...............aaaaaab..........................",
"...............aaaaaab..........................",
"...............aaaaaab..........................",
"...............aaaaaab..........................",
"...............aaaaaab..........................",
"...............aaaaaab..........................",
"...............aaaaaab..........................",
"...............aaaaaab..........................",
"...............aaaaaab..........................",
"...............aaaaaab..........................",
"...............aaaaaab..........................",
"...............aaaaaab..........................",
"...............aaaaaab..........................",
"...............aaaaaab..........................",
"...............aaaaaab..........................",
"...............aaaaaab..........................",
"...............aaaaaab..........................",
"...............aaaaaab..........................",
"...............aaaaaab..........................",
"...............aaaaaab..........................",
"...............aaaaaab..........................",
"...............aaaaaab..........................",
"...............aaaaaacdddddddddddde.............",
"...............aaaaaaaaaaaaaaaaaaaf.............",
"...............aaaaaaaaaaaaaaaaaaaf.............",
"...............aaaaaaaaaaaaaaaaaaaf.............",
"................................................",
"................................................",
"................................................",
"................................................",
"................................................",
"................................................",
"................................................",
"................................................",
"................................................"
};