/* XPM */
static char *M_gold_48[] = {
"48 48 6 1",
". c None",
"a c #ffc864",
"b c #ffc864",
"c c #ffc864",
"d c #ffc864",
"e c #ffc864",
"................................................",
"................................................",
"................................................",
"................................................",
"................................................",
"................................................",
"................................................",
"................................................",
"................................................",
"..........aaaaaab................aaaaaac........",
"..........aaaaaab................aaaaaac........",
"..........aaaaaab................aaaaaac........",
"..........aaaaaab................aaaaaac........",
"..........aaaaaab................aaaaaac........",
"..........aaaaaab................aaaaaac........",
"..........aaaaaab................aaaaaac........",
"..........aaaaaaaaaad........baaaaaaaaac........",
"..........aaaaaaaaaad........baaaaaaaaac........",
"..........aaaaaaaaaad........baaaaaaaaac........",
"..........aaaaaaaaaad........baaaaaaaaac........",
"..........aaaaaaaaaad........baaaaaaaaac........",
"..........aaaaaaaaaad........baaaaaaaaac........",
"..........aaaaaaaaaaaaa....aaaaaaaaaaaac........",
"..........aaaaaaaaaaaaa....aaaaaaaaaaaac........",
"..........aaaaaaaaaaaaa....aaaaaaaaaaaac........",
"..........aaaaaaaaaaaaa....aaaaaaaaaaaac........",
"..........aaaaaab...eaa....aab...aaaaaac........",
"..........aaaaaab...eaa....aab...aaaaaac........",
"..........aaaaaab...eaa....aab...aaaaaac........",
"..........aaaaaab...eaaaaaaaab...aaaaaac........",
"..........aaaaaab...eaaaaaaaab...aaaaaac........",
"..........aaaaaab...eaaaaaaaab...aaaaaac........",
"..........aaaaaab......aaa.......aaaaaac........",
"..........aaaaaab......aaa.......aaaaaac........",
"..........aaaaaab......aaa.......aaaaaac........",
"..........aaaaaab......aaa.......aaaaaac........",
"..........aaaaaab......aaa.......aaaaaac........",
"..........aaaaaab......aaa.......aaaaaac........",
"..........aaaaaab......aaa.......aaaaaac........",
"................................................",
"................................................",
"................................................",
"................................................",
"................................................",
"................................................",
"................................................",
"................................................",
"................................................"
};