/* XPM */
static char *M_white_48[] = {
"48 48 6 1",
". c None",
"a c #ffffff",
"b c #ffffff",
"c c #ffffff",
"d c #ffffff",
"e c #ffffff",
"................................................",
"................................................",
"................................................",
"................................................",
"................................................",
"................................................",
"................................................",
"................................................",
"................................................",
"..........aaaaaab................aaaaaac........",
"..........aaaaaab................aaaaaac........",
"..........aaaaaab................aaaaaac........",
"..........aaaaaab................aaaaaac........",
"..........aaaaaab................aaaaaac........",
"..........aaaaaab................aaaaaac........",
"..........aaaaaab................aaaaaac........",
"..........aaaaaaaaaad........baaaaaaaaac........",
"..........aaaaaaaaaad........baaaaaaaaac........",
"..........aaaaaaaaaad........baaaaaaaaac........",
"..........aaaaaaaaaad........baaaaaaaaac........",
"..........aaaaaaaaaad........baaaaaaaaac........",
"..........aaaaaaaaaad........baaaaaaaaac........",
"..........aaaaaaaaaaaaa....aaaaaaaaaaaac........",
"..........aaaaaaaaaaaaa....aaaaaaaaaaaac........",
"..........aaaaaaaaaaaaa....aaaaaaaaaaaac........",
"..........aaaaaaaaaaaaa....aaaaaaaaaaaac........",
"..........aaaaaab...eaa....aab...aaaaaac........",
"..........aaaaaab...eaa....aab...aaaaaac........",
"..........aaaaaab...eaa....aab...aaaaaac........",
"..........aaaaaab...eaaaaaaaab...aaaaaac........",
"..........aaaaaab...eaaaaaaaab...aaaaaac........",
"..........aaaaaab...eaaaaaaaab...aaaaaac........",
"..........aaaaaab......aaa.......aaaaaac........",
"..........aaaaaab......aaa.......aaaaaac........",
"..........aaaaaab......aaa.......aaaaaac........",
"..........aaaaaab......aaa.......aaaaaac........",
"..........aaaaaab......aaa.......aaaaaac........",
"..........aaaaaab......aaa.......aaaaaac........",
"..........aaaaaab......aaa.......aaaaaac........",
"................................................",
"................................................",
"................................................",
"................................................",
"................................................",
"................................................",
"................................................",
"................................................",
"................................................"
};