/* XPM */
static char *N_gold_48[] = {
"48 48 5 1",
". c None",
"a c #ffc864",
"b c #ffc864",
"c c #ffc864",
"d c #ffc864",
"................................................",
"................................................",
"................................................",
"................................................",
"................................................",
"................................................",
"................................................",
"................................................",
"................................................",
"............aaaaaaaaaab........caaaaaa..........",
"............aaaaaaaaaab........caaaaaa..........",
"............aaaaaaaaaab........caaaaaa..........",
"............aaaaaaaaaab........caaaaaa..........",
"............aaaaaaaaaab........caaaaaa..........",
"............aaaaaaaaaab........caaaaaa..........",
"............aaaaaaaaaab........caaaaaa..........",
"............aaaaaaaaaaaaa......caaaaaa..........",
"............aaaaaaaaaaaaa......caaaaaa..........",
"............aaaaaaaaaaaaa......caaaaaa..........",
"............aaaaaac...daa......caaaaaa..........",
"............aaaaaac...daa......caaaaaa..........",
"............aaaaaac...daa......caaaaaa..........",
"............aaaaaac...daaaaa...caaaaaa..........",
"............aaaaaac...daaaaa...caaaaaa..........",
"............aaaaaac...daaaaa...caaaaaa..........",
"............aaaaaac...daaaaa...caaaaaa..........",
"............aaaaaac......aaa...caaaaaa..........",
"............aaaaaac......aaa...caaaaaa..........",
"............aaaaaac......aaa...caaaaaa..........",
"............aaaaaac......aaaaaaaaaaaaa..........",
"............aaaaaac......aaaaaaaaaaaaa..........",
"............aaaaaac......aaaaaaaaaaaaa..........",
"............aaaaaac.........aaaaaaaaaa..........",
"............aaaaaac.........aaaaaaaaaa..........",
"............aaaaaac.........aaaaaaaaaa..........",
"............aaaaaac.........aaaaaaaaaa..........",
"............aaaaaac.........aaaaaaaaaa..........",
"............aaaaaac.........aaaaaaaaaa..........",
"............aaaaaac.........aaaaaaaaaa..........",
"................................................",
"................................................",
"................................................",
"................................................",
"................................................",
"................................................",
"................................................",
"................................................",
"................................................"
};