/* XPM */
static char *O_gold_48[] = {
"48 48 12 1",
". c None",
"a c #ffc864",
"b c #ffc864",
"c c #ffc864",
"d c #ffc864",
"e c #ffc864",
"f c #ffc864",
"g c #ffc864",
"h c #ffc864",
"i c #ffc864",
"j c #ffc864",
"k c #ffc864",
"................................................",
"................................................",
"................................................",
"................................................",
"................................................",
"................................................",
"................................................",
"................................................",
"................................................",
"...................aaaaaaaaaaaaa................",
"...................aaaaaaaaaaaaa................",
"...................aaaaaaaaaaaaa................",
"...................aaabbbbbbcaaa................",
"...............daaaaaa......daaaaaa.............",
"...............daaaaaa......daaaaaa.............",
"...............daaaaaa......daaaaaa.............",
"............aaaaaad.............aaaaaa..........",
"............aaaaaad.............aaaaaa..........",
"............aaaaaad.............aaaaaa..........",
"............aaaaaad.............aaaaaa..........",
"............aaaaaad.............aaaaaa..........",
"............aaaaaad.............aaaaaa..........",
"............aaaaaad.............aaaaaa..........",
"............aaaaaad.............aaaaaa..........",
"............aaaaaad.............aaaaaa..........",
"............aaaaaad.............aaaaaa..........",
"............aaaaaad.............aaaaaa..........",
"............aaaaaad.............aaaaaa..........",
"............aaaaaad.............aaaaaa..........",
"............aaaaaad.............aaaaaa..........",
"............aaaaaad.............aaaaaa..........",
"............aaaaaad.............aaaaaa..........",
"............eeefaaghhh......ihhhaaaeee..........",
"...............daaaaaa......daaaaaa.............",
"...............daaaaaa......daaaaaa.............",
"...............jkkkaaabbbbbbcaaakkk.............",
"...................aaaaaaaaaaaaa................",
"...................aaaaaaaaaaaaa................",
"...................aaaaaaaaaaaaa................",
"................................................",
"................................................",
"................................................",
"................................................",
"................................................",
"................................................",
"................................................",
"................................................",
"................................................"
};