/* XPM */
static char *Q_white_48[] = {
"48 48 14 1",
". c None",
"a c #ffffff",
"b c #ffffff",
"c c #ffffff",
"d c #ffffff",
"e c #ffffff",
"f c #ffffff",
"g c #ffffff",
"h c #ffffff",
"i c #ffffff",
"j c #ffffff",
"k c #ffffff",
"l c #ffffff",
"m c #ffffff",
"................................................",
"................................................",
"................................................",
"................................................",
"................................................",
"................................................",
"................................................",
"................................................",
"................................................",
"..................abbbbbbbbbbbbc................",
"..................abbbbbbbbbbbbc................",
"..................abbbbbbbbbbbbc................",
"..................abbbddddddebbc................",
"...............cbbbbbb......cbbbbbb.............",
"...............cbbbbbb......cbbbbbb.............",
"............fffgbbeddd......hddibbbfff..........",
"............bbbbbbc............abbbbbb..........",
"............bbbbbbc............abbbbbb..........",
"............bbbbbbc............abbbbbb..........",
"............bbbbbbc............abbbbbb..........",
"............bbbbbbc............abbbbbb..........",
"............bbbbbbc............abbbbbb..........",
"............bbbbbbc............abbbbbb..........",
"............bbbbbbc............abbbbbb..........",
"............bbbbbbc............abbbbbb..........",
"............bbbbbbc............abbbbbb..........",
"............bbbbbbc............abbbbbb..........",
"............bbbbbbc............abbbbbb..........",
"............bbbbbbc............abbbbbb..........",
"............bbbbbbc.....jbbbbbbbbbbbbb..........",
"............bbbbbbc.....jbbbbbbbbbbbbb..........",
"............bbbbbbc.....jbbbbbbbbbbbbb..........",
"............dddebbgfff..kdddebbbbbbddd..........",
"...............cbbbbbb......cbbbbbb.............",
"...............cbbbbbb......cbbbbbb.............",
"...............lffmbbbddddddlffmbbbddd..........",
"..................abbbbbbbbb...abbbbbb..........",
"..................abbbbbbbbb...abbbbbb..........",
"..................abbbbbbbbb...abbbbbb..........",
"................................................",
"................................................",
"................................................",
"................................................",
"................................................",
"................................................",
"................................................",
"................................................",
"................................................"
};