/* XPM */
static char *R_gold_48[] = {
"48 48 13 1",
". c None",
"a c #ffc864",
"b c #ffc864",
"c c #ffc864",
"d c #ffc864",
"e c #ffc864",
"f c #ffc864",
"g c #ffc864",
"h c #ffc864",
"i c #ffc864",
"j c #ffc864",
"k c #ffc864",
"l c #ffc864",
"................................................",
"................................................",
"................................................",
"................................................",
"................................................",
"................................................",
"................................................",
"................................................",
"................................................",
"..............aaaaaaaaaaaaaaaaaaab..............",
"..............aaaaaaaaaaaaaaaaaaab..............",
"..............aaaaaaaaaaaaaaaaaaab..............",
"..............aaaaaacdddddddddeaaaaaa...........",
"..............aaaaaab.........faaaaaa...........",
"..............aaaaaab.........faaaaaa...........",
"..............aaaaaab.........faaaaaa...........",
"..............aaaaaab.........faaaaaa...........",
"..............aaaaaab.........faaaaaa...........",
"..............aaaaaab.........faaaaaa...........",
"..............aaaaaab.........faaaaaa...........",
"..............aaaaaab.........faaaaaa...........",
"..............aaaaaab.........faaaaaa...........",
"..............aaaaaacdddddddddeaab..............",
"..............aaaaaaaaaaaaaaaaaaab..............",
"..............aaaaaaaaaaaaaaaaaaab..............",
"..............aaaaaaaaaaaaaaaaaaab..............",
"..............aaaaaab...aaaaaab.................",
"..............aaaaaab...aaaaaab.................",
"..............aaaaaab...aaaaaab.................",
"..............aaaaaab...gggaaahiij..............",
"..............aaaaaab......aaaaaab..............",
"..............aaaaaab......aaaaaab..............",
"..............aaaaaab......aaaaaab..............",
"..............aaaaaab......aaaaaab..............",
"..............aaaaaab......aaaaaab..............",
"..............aaaaaab......kkklaacddd...........",
"..............aaaaaab.........faaaaaa...........",
"..............aaaaaab.........faaaaaa...........",
"..............aaaaaab.........faaaaaa...........",
"................................................",
"................................................",
"................................................",
"................................................",
"................................................",
"................................................",
"................................................",
"................................................",
"................................................"
};