/* XPM */
static char *S_white_48[] = {
"48 48 15 1",
". c None",
"a c #ffffff",
"b c #ffffff",
"c c #ffffff",
"d c #ffffff",
"e c #ffffff",
"f c #ffffff",
"g c #ffffff",
"h c #ffffff",
"i c #ffffff",
"j c #ffffff",
"k c #ffffff",
"l c #ffffff",
"m c #ffffff",
"n c #ffffff",
"................................................",
"................................................",
"................................................",
"................................................",
"................................................",
"................................................",
"................................................",
"................................................",
"................................................",
".................abbbbbbbbbbbbbbba..............",
".................abbbbbbbbbbbbbbba..............",
".................abbbbbbbbbbbbbbba..............",
"..............bbbbbbcdddddddddcbbbbbb...........",
"..............bbbbbba.........abbbbbb...........",
"..............bbbbbba.........abbbbbb...........",
"..............bbbbbba.........edddddd...........",
"..............bbbbbba...........................",
"..............bbbbbba...........................",
"..............bbbbbba...........................",
".................abbbbbb........................",
".................abbbbbb........................",
".................abbbbbb........................",
".................fgghbbbdddddd..................",
"....................ibbbbbbbbb..................",
"....................ibbbbbbbbb..................",
"....................jkkkkkkbbblllm..............",
"...........................bbbbbba..............",
"...........................bbbbbba..............",
"...........................gggnbbcddd...........",
"..............................abbbbbb...........",
"..............................abbbbbb...........",
"..............................abbbbbb...........",
"..............dddddde.........abbbbbb...........",
"..............bbbbbba.........abbbbbb...........",
"..............bbbbbba.........abbbbbb...........",
"..............gggnbbcdddddddddcbbnggg...........",
".................abbbbbbbbbbbbbbba..............",
".................abbbbbbbbbbbbbbba..............",
".................abbbbbbbbbbbbbbba..............",
"................................................",
"................................................",
"................................................",
"................................................",
"................................................",
"................................................",
"................................................",
"................................................",
"................................................"
};