/* XPM */
static char *T_white_48[] = {
"48 48 5 1",
". c None",
"a c #ffffff",
"b c #ffffff",
"c c #ffffff",
"d c #ffffff",
"................................................",
"................................................",
"................................................",
"................................................",
"................................................",
"................................................",
"................................................",
"................................................",
"................................................",
"...............aaaaaaaaaaaaaaaaaaaa.............",
"...............aaaaaaaaaaaaaaaaaaaa.............",
"...............aaaaaaaaaaaaaaaaaaaa.............",
"...............bbbbbbcaaaaaabbbbbbb.............",
".....................daaaaaa....................",
".....................daaaaaa....................",
".....................daaaaaa....................",
".....................daaaaaa....................",
".....................daaaaaa....................",
".....................daaaaaa....................",
".....................daaaaaa....................",
".....................daaaaaa....................",
".....................daaaaaa....................",
".....................daaaaaa....................",
".....................daaaaaa....................",
".....................daaaaaa....................",
".....................daaaaaa....................",
".....................daaaaaa....................",
".....................daaaaaa....................",
".....................daaaaaa....................",
".....................daaaaaa....................",
".....................daaaaaa....................",
".....................daaaaaa....................",
".....................daaaaaa....................",
".....................daaaaaa....................",
".....................daaaaaa....................",
".....................daaaaaa....................",
".....................daaaaaa....................",
".....................daaaaaa....................",
".....................daaaaaa....................",
"................................................",
"................................................",
"................................................",
"................................................",
"................................................",
"................................................",
"................................................",
"................................................",
"................................................"
};