/* XPM */
static char *U_gold_48[] = {
"48 48 5 1",
". c None",
"a c #ffc864",
"b c #ffc864",
"c c #ffc864",
"d c #ffc864",
"................................................",
"................................................",
"................................................",
"................................................",
"................................................",
"................................................",
"................................................",
"................................................",
"................................................",
"..............aaaaaab.........baaaaaa...........",
"..............aaaaaab.........baaaaaa...........",
"..............aaaaaab.........baaaaaa...........",
"..............aaaaaab.........baaaaaa...........",
"..............aaaaaab.........baaaaaa...........",
"..............aaaaaab.........baaaaaa...........",
"..............aaaaaab.........baaaaaa...........",
"..............aaaaaab.........baaaaaa...........",
"..............aaaaaab.........baaaaaa...........",
"..............aaaaaab.........baaaaaa...........",
"..............aaaaaab.........baaaaaa...........",
"..............aaaaaab.........baaaaaa...........",
"..............aaaaaab.........baaaaaa...........",
"..............aaaaaab.........baaaaaa...........",
"..............aaaaaab.........baaaaaa...........",
"..............aaaaaab.........baaaaaa...........",
"..............aaaaaab.........baaaaaa...........",
"..............aaaaaab.........baaaaaa...........",
"..............aaaaaab.........baaaaaa...........",
"..............aaaaaab.........baaaaaa...........",
"..............aaaaaab.........baaaaaa...........",
"..............aaaaaab.........baaaaaa...........",
"..............aaaaaab.........baaaaaa...........",
"..............aaaaaab.........baaaaaa...........",
"..............aaaaaab.........baaaaaa...........",
"..............aaaaaab.........baaaaaa...........",
"..............aaaaaacdddddddddcaaaaaa...........",
".................aaaaaaaaaaaaaaaa...............",
".................aaaaaaaaaaaaaaaa...............",
".................aaaaaaaaaaaaaaaa...............",
"................................................",
"................................................",
"................................................",
"................................................",
"................................................",
"................................................",
"................................................",
"................................................",
"................................................"
};