/* XPM */
static char *V_gold_48[] = {
"48 48 4 1",
". c None",
"a c #ffc864",
"b c #ffc864",
"c c #ffc864",
"................................................",
"................................................",
"................................................",
"................................................",
"................................................",
"................................................",
"................................................",
"................................................",
"................................................",
"..............aaaaaab.........baaaaaa...........",
"..............aaaaaab.........baaaaaa...........",
"..............aaaaaab.........baaaaaa...........",
"..............aaaaaab.........baaaaaa...........",
"..............aaaaaab.........baaaaaa...........",
"..............aaaaaab.........baaaaaa...........",
"..............aaaaaab.........baaaaaa...........",
"..............aaaaaab.........baaaaaa...........",
"..............aaaaaab.........baaaaaa...........",
"..............aaaaaab.........baaaaaa...........",
"..............aaaaaab.........baaaaaa...........",
"..............aaaaaab.........baaaaaa...........",
"..............aaaaaab.........baaaaaa...........",
".................baaaaaa...aaaaaab..............",
".................baaaaaa...aaaaaab..............",
".................baaaaaa...aaaaaab..............",
".................baaaaaa...aaaaaab..............",
".................baaaaaa...aaaaaab..............",
".................baaaaaa...aaaaaab..............",
".................baaaaaa...aaaaaab..............",
".................baaaaaa...aaaaaab..............",
".................baaaaaa...aaaaaab..............",
".................baaaaaa...aaaaaab..............",
"....................caaaaaaaaa..................",
"....................caaaaaaaaa..................",
"....................caaaaaaaaa..................",
"....................caaaaaaaaa..................",
"....................caaaaaaaaa..................",
"....................caaaaaaaaa..................",
"....................caaaaaaaaa..................",
"................................................",
"................................................",
"................................................",
"................................................",
"................................................",
"................................................",
"................................................",
"................................................",
"................................................"
};