/* XPM */
static char *V_white_48[] = {
"48 48 4 1",
". c None",
"a c #ffffff",
"b c #ffffff",
"c c #ffffff",
"................................................",
"................................................",
"................................................",
"................................................",
"................................................",
"................................................",
"................................................",
"................................................",
"................................................",
"..............aaaaaab.........baaaaaa...........",
"..............aaaaaab.........baaaaaa...........",
"..............aaaaaab.........baaaaaa...........",
"..............aaaaaab.........baaaaaa...........",
"..............aaaaaab.........baaaaaa...........",
"..............aaaaaab.........baaaaaa...........",
"..............aaaaaab.........baaaaaa...........",
"..............aaaaaab.........baaaaaa...........",
"..............aaaaaab.........baaaaaa...........",
"..............aaaaaab.........baaaaaa...........",
"..............aaaaaab.........baaaaaa...........",
"..............aaaaaab.........baaaaaa...........",
"..............aaaaaab.........baaaaaa...........",
".................baaaaaa...aaaaaab..............",
".................baaaaaa...aaaaaab..............",
".................baaaaaa...aaaaaab..............",
".................baaaaaa...aaaaaab..............",
".................baaaaaa...aaaaaab..............",
".................baaaaaa...aaaaaab..............",
".................baaaaaa...aaaaaab..............",
".................baaaaaa...aaaaaab..............",
".................baaaaaa...aaaaaab..............",
".................baaaaaa...aaaaaab..............",
"....................caaaaaaaaa..................",
"....................caaaaaaaaa..................",
"....................caaaaaaaaa..................",
"....................caaaaaaaaa..................",
"....................caaaaaaaaa..................",
"....................caaaaaaaaa..................",
"....................caaaaaaaaa..................",
"................................................",
"................................................",
"................................................",
"................................................",
"................................................",
"................................................",
"................................................",
"................................................",
"................................................"
};