/* XPM */
static char *W_white_48[] = {
"48 48 7 1",
". c None",
"a c #ffffff",
"b c #ffffff",
"c c #ffffff",
"d c #ffffff",
"e c #ffffff",
"f c #ffffff",
"................................................",
"................................................",
"................................................",
"................................................",
"................................................",
"................................................",
"................................................",
"................................................",
"................................................",
"........abbbbbb....................bbbbbba......",
"........abbbbbb....................bbbbbba......",
"........abbbbbb....................bbbbbba......",
"........abbbbbb.......bbbbbbc......bbbbbba......",
"........abbbbbb.......bbbbbbc......bbbbbba......",
"........abbbbbb.......bbbbbbc......bbbbbba......",
"........abbbbbb.......bbbbbbc......bbbbbba......",
"........abbbbbb.......bbbbbbc......bbbbbba......",
"........abbbbbb.......bbbbbbc......bbbbbba......",
"........abbbbbb.......bbbbbbc......bbbbbba......",
"........abbbbbb....bbbbbbbbbbbbb...bbbbbba......",
"........abbbbbb....bbbbbbbbbbbbb...bbbbbba......",
"........abbbbbb....bbbbbbbbbbbbb...bbbbbba......",
"............bbb....bbbbbbbbbbbbb...bbb..........",
"............bbb....bbbbbbbbbbbbb...bbb..........",
"............bbb....bbbbbbbbbbbbb...bbb..........",
"............bbb....bbbbbbbbbbbbb...bbb..........",
"............bbbbbbbbbbbbbbbbbbbbbbbbbb..........",
"............bbbbbbbbbbbbbbbbbbbbbbbbbb..........",
"............bbbbbbbbbbbbbbbbbbbbbbbbbb..........",
"............bbbbbbbbbb......dbbbbbbbbb..........",
"............bbbbbbbbbb......dbbbbbbbbb..........",
"............bbbbbbbbbb......dbbbbbbbbb..........",
"............eeefbbbbbb......dbbbbbbeee..........",
"...............cbbbbbb......dbbbbbb.............",
"...............cbbbbbb......dbbbbbb.............",
"...............cbbbbbb......dbbbbbb.............",
"...............cbbbbbb......dbbbbbb.............",
"...............cbbbbbb......dbbbbbb.............",
"...............cbbbbbb......dbbbbbb.............",
"................................................",
"................................................",
"................................................",
"................................................",
"................................................",
"................................................",
"................................................",
"................................................",
"................................................"
};