/* XPM */
static char *X_white_48[] = {
"48 48 4 1",
". c None",
"a c #ffffff",
"b c #ffffff",
"c c #ffffff",
"................................................",
"................................................",
"................................................",
"................................................",
"................................................",
"................................................",
"................................................",
"................................................",
"................................................",
"............aaaaaab.............aaaaaa..........",
"............aaaaaab.............aaaaaa..........",
"............aaaaaab.............aaaaaa..........",
"............aaaaaab.............aaaaaa..........",
"............aaaaaab.............aaaaaa..........",
"............aaaaaab.............aaaaaa..........",
"............aaaaaab.............aaaaaa..........",
"...............baaaaaa......caaaaaa.............",
"...............baaaaaa......caaaaaa.............",
"...............baaaaaa......caaaaaa.............",
"...................aaaaaaaaaaaaa................",
"...................aaaaaaaaaaaaa................",
"...................aaaaaaaaaaaaa................",
"...................aaaaaaaaaaaaa................",
"......................aaaaaab...................",
"......................aaaaaab...................",
"......................aaaaaab...................",
"...................aaaaaaaaaaaaa................",
"...................aaaaaaaaaaaaa................",
"...................aaaaaaaaaaaaa................",
"...............baaaaaa......caaaaaa.............",
"...............baaaaaa......caaaaaa.............",
"...............baaaaaa......caaaaaa.............",
"............aaaaaab.............aaaaaa..........",
"............aaaaaab.............aaaaaa..........",
"............aaaaaab.............aaaaaa..........",
"............aaaaaab.............aaaaaa..........",
"............aaaaaab.............aaaaaa..........",
"............aaaaaab.............aaaaaa..........",
"............aaaaaab.............aaaaaa..........",
"................................................",
"................................................",
"................................................",
"................................................",
"................................................",
"................................................",
"................................................",
"................................................",
"................................................"
};