/* XPM */
static char *Y_gold_48[] = {
"48 48 4 1",
". c None",
"a c #ffc864",
"b c #ffc864",
"c c #ffc864",
"................................................",
"................................................",
"................................................",
"................................................",
"................................................",
"................................................",
"................................................",
"................................................",
"................................................",
"............aaaaaab.............aaaaaa..........",
"............aaaaaab.............aaaaaa..........",
"............aaaaaab.............aaaaaa..........",
"............aaaaaab.............aaaaaa..........",
"............aaaaaab.............aaaaaa..........",
"............aaaaaab.............aaaaaa..........",
"............aaaaaab.............aaaaaa..........",
"...............baaaaaa......caaaaaa.............",
"...............baaaaaa......caaaaaa.............",
"...............baaaaaa......caaaaaa.............",
"...................aaaaaaaaaaaaa................",
"...................aaaaaaaaaaaaa................",
"...................aaaaaaaaaaaaa................",
"...................aaaaaaaaaaaaa................",
"......................aaaaaab...................",
"......................aaaaaab...................",
"......................aaaaaab...................",
"......................aaaaaab...................",
"......................aaaaaab...................",
"......................aaaaaab...................",
"......................aaaaaab...................",
"......................aaaaaab...................",
"......................aaaaaab...................",
"......................aaaaaab...................",
"......................aaaaaab...................",
"......................aaaaaab...................",
"......................aaaaaab...................",
"......................aaaaaab...................",
"......................aaaaaab...................",
"......................aaaaaab...................",
"................................................",
"................................................",
"................................................",
"................................................",
"................................................",
"................................................",
"................................................",
"................................................",
"................................................"
};