/* XPM */
static char *Z_white_48[] = {
"48 48 11 1",
". c None",
"a c #ffffff",
"b c #ffffff",
"c c #ffffff",
"d c #ffffff",
"e c #ffffff",
"f c #ffffff",
"g c #ffffff",
"h c #ffffff",
"i c #ffffff",
"j c #ffffff",
"................................................",
"................................................",
"................................................",
"................................................",
"................................................",
"................................................",
"................................................",
"................................................",
"................................................",
"............aaaaaaaaaaaaaaaaaaaaaaaaaa..........",
"............aaaaaaaaaaaaaaaaaaaaaaaaaa..........",
"............aaaaaaaaaaaaaaaaaaaaaaaaaa..........",
"............bbbbbbbbbbbbbbbbbbbcaaaaaa..........",
"...............................daaaaaa..........",
"...............................daaaaaa..........",
"...............................daaaaaa..........",
"............................daaaaaa.............",
"............................daaaaaa.............",
"............................daaaaaa.............",
".........................aaaaaae................",
".........................aaaaaae................",
".........................aaaaaae................",
"......................aaaaaae...................",
"......................aaaaaae...................",
"......................aaaaaae...................",
"......................aaaaaae...................",
"..................daaaaaa.......................",
"..................daaaaaa.......................",
"..................daaaaaa.......................",
"...............eaaaaaa..........................",
"...............eaaaaaa..........................",
"...............eaaaaaa..........................",
"............fffgaahiii..........................",
"............aaaaaae.............................",
"............aaaaaae.............................",
"............aaaaaajbbbbbbbbbbbbbbbbbbb..........",
"............aaaaaaaaaaaaaaaaaaaaaaaaaa..........",
"............aaaaaaaaaaaaaaaaaaaaaaaaaa..........",
"............aaaaaaaaaaaaaaaaaaaaaaaaaa..........",
"................................................",
"................................................",
"................................................",
"................................................",
"................................................",
"................................................",
"................................................",
"................................................",
"................................................"
};