/* XPM */
static char * detailed_frame_2[] = {
"64 64 16 1",
"a c #666b6a",
"b c #8e918f",
"c c #282826",
"d c #3e403e",
"e c #7d8281",
"f c #40413e",
"g c #7a7f80",
"h c #7b807e",
"i c #3e4140",
"j c #000000",
"k c #353534",
"l c #272826",
"m c #181918",
"n c #545755",
"o c #464846",
"p c #646968",
"kkkkkkkkkkkkkkkkkkkkjjjjjjjjjjjjjjjjjjjjjjjjkkkkkkkkkkkkkkkkkkkk",
"mmmmmmmclllmmmmjjjjkjjjjjjjjjjjjjjjjjjjjjjjjkjjjjjjjjjjjmmmmmmmc",
"mmmmmmmmlcmmmmjjjjjkjjjjjjjjjjjjjjjjjjjjjjjjkjjjmmcmjmmjmmmmmmmm",
"lmmmmmlllllcmmmmmmmkjjjjjjjjjjjjjjjjjjjjjjjjkjmmmlmcmlmmlmmmmmll",
"lmmmmlllclllmmmmmmmkjjjjjjjjjjjjjjjjjjjjjjjjkjmmmmmcmlcmlmmmmlll",
"lmmmmlllcllllcmmmmmkjjjjjjjjjjjjjjjjjjjjjjjjkjmmmlmkmllmlmmmmlll",
"lmmcllllklllllmcmmmkjjjjjjjjjjjjjjjjjjjjjjjjkjmmllckmclmlmmcllll",
"lmlllcckkkkcklllllmkjjjjjjjjjjjjjjjjjjjjjjjjkmllllclmllmlmlllcck",
"clllkkkkokckllclmmmkjjjjjjjjjjjjjjjjjjjjjjjjkjmmlllkcklmclllkkkk",
"kllkkkfkokkkllllclmkjjjjjjjjjjjjjjjjjjjjjjjjkcmmlclolkclkllkkkfk",
"klckffokakkkllllllmkjjjjjjjjjjjjjjjjjjjjjjjjkmmmckcolkklklckffok",
"okkfoooonoofokkklllkjjjjjjjjjjjjjjjjjjjjjjjjklllkkkaloklokkfoooo",
"kkkooaannaookklmmmjkjjjjjjjjjjjjjjjjjjjjjjjjkmclllllllllkkkooaan",
"kkkooondnkkfllllmmmkjjjjjjjjjjjjjjjjjjjjjjjjkjmmlllklkklkkkooond",
"oddoaonoaoookkkkllmkjjjjjjjjjjjjjjjjjjjjjjjjkmmlckknkookoddoaono",
"oooannaapoookkkkllmkjjjjjjjjjjjjjjjjjjjjjjjjkmclkkfakookoooannaa",
"aoonnappppannokkkllkjjjjjjjjjjjjjjjjjjjjjjjjkkdkddkokoooaoonnapp",
"ooannappppnnofkllmmkjjjjjjjjjjjjjjjjjjjjjjjjkkkkkkkkkkooooannapp",
"oaonnnpnpnookklmmmmkjjjjjjjjjjjjjjjjjjjjjjjjklllllkkkkoooaonnnpn",
"anannnpnpnnnaokklllkjjjjjjjjjjjjjjjjjjjjjjjjkllkfooponaaanannnpn",
"pnnnaapppapnaaookklkjjjjjjjjjjjjjjjjjjjjjjjjkkoooaoaoppnpnnnaapp",
"nnnapppppppanokllmmkjjjjjjjjjjjjjjjjjjjjjjjjkoaokkkooanannnapppp",
"aaappppppppanakllmmkjjjjjjjjjjjjjjjjjjjjjjjjkonoikkoonaaaaappppp",
"appppppppppanokllmmkjjjjjjjjjjjjjjjjjjjjjjjjkonokkkioaapappppppp",
"ppapppanpnannnkkllckjjjjjjjjjjjjjjjjjjjjjjjjklckoooannppppapppan",
"apaaaaaaapappaokkklkjjjjjjjjjjjjjjjjjjjjjjjjkannnnnpnppaapaaaaaa",
"aaaaaaaaaapppnlkllmkjjjjjjjjjjjjjjjjjjjjjjjjkannaalnnapaaaaaaaaa",
"aaaaeebhaaapplnlllckjjjjjjjjjjjjjjjjjjjjjjjjkannalnlappaaaaaeebh",
"aaaebbbbeaapplnlkllkjjjjjjjjjjjjjjjjjjjjjjjjkonnalnlppaaaaaebbbb",
"agabbbbaeapplnnnlklkjjjjjjjjjjjjjjjjjjjjjjjjkdoolnnnlaaaagabbbba",
"aebbbbbbbaaalnnnlllkjjjjjjjjjjjjjjjjjjjjjjjjkioolnnnlaaaaebbbbbb",
"abbbbbbbbeaalnnnlklkjjjjjjjjjjjjjjjjjjjjjjjjkkoolnnnlaaaabbbbbbb",
"abbbbbbbbeaalnnnlklkjjjjjjjjjjjjjjjjjjjjjjjjkkkolnnnlaaaabbbbbbb",
"gbbbbbbbbbaalnnnlklkjjjjjjjjjjjjjjjjjjjjjjjjkkkolnnnlaaagbbbbbbb",
"abbbbbbbbapalnnnlkkkjjjjjjjjjjjjjjjjjjjjjjjjklkklnnnlpaaabbbbbbb",
"aebbbbbbbbaalnnnlkkkjjjjjjjjjjjjjjjjjjjjjjjjklkdlnnnlaaaaebbbbbb",
"agbbbbbbbbaaalnlodkkjjjjjjjjjjjjjjjjjjjjjjjjklkdolnlaaaaagbbbbbb",
"ahbbbbbbbbaaalnlodkkjjjjjjjjjjjjjjjjjjjjjjjjklkdolnlaaaaahbbbbbb",
"pahbbbbbbapannlokklkjjjjjjjjjjjjjjjjjjjjjjjjkllkkolaappapahbbbbb",
"paabbebabpnponkkonokjjjjjjjjjjjjjjjjjjjjjjjjkmmllionpnpppaabbeba",
"aaabbbbbbhaaapanaokkjjjjjjjjjjjjjjjjjjjjjjjjkkkdonaapappaaabbbbb",
"ppagebbbbaaaapnodklkjjjjjjjjjjjjjjjjjjjjjjjjkllkkonapaapppagebbb",
"apaaaebbhaaaapnokklkjjjjjjjjjjjjjjjjjjjjjjjjkllkkonnannaapaaaebb",
"appaaaepaanponkllllkjjjjjjjjjjjjjjjjjjjjjjjjkmmllkdknonnappaaaep",
"nanpapaaannpkakkkokkjjjjjjjjjjjjjjjjjjjjjjjjkmmllkionnnananpapaa",
"annpppapapppanooookkjjjjjjjjjjjjjjjjjjjjjjjjklkkkoonannnannpppap",
"nnnaappppppppnokclmkjjjjjjjjjjjjjjjjjjjjjjjjkllckioooooannnaappp",
"onnnnnpnannnankllmmkjjjjjjjjjjjjjjjjjjjjjjjjkmmllkkkokooonnnnnpn",
"oaonnnaonokalflllllkjjjjjjjjjjjjjjjjjjjjjjjjkcmmclkfiooooaonnnao",
"aooooononokokdlllllkjjjjjjjjjjjjjjjjjjjjjjjjkmmmllkokookaooooono",
"oooooononkkolkllllmkjjjjjjjjjjjjjjjjjjjjjjjjkcmmclkfkfokoooooono",
"oooooannnnnanaofkllkjjjjjjjjjjjjjjjjjjjjjjjjklkkddkokokkoooooann",
"kdkdooakakkolklmmmmkjjjjjjjjjjjjjjjjjjjjjjjjkjmmmlllclkkkdkdooak",
"dkkkkdokoklklkmmmmmkjjjjjjjjjjjjjjjjjjjjjjjjkjjmmllkkkkkdkkkkdok",
"kkkkkkokollkmcmmmmmkjjjjjjjjjjjjjjjjjjjjjjjjkjjmmllklkklkkkkkkok",
"kkkkkkflollkmlmmmmmkjjjjjjjjjjjjjjjjjjjjjjjjkjjmmclclkklkkkkkkfl",
"kkkkkkkkfkkkkkclllckjjjjjjjjjjjjjjjjjjjjjjjjkllllllklkklkkkkkkkk",
"lclckkklkllccljjmjjkjjjjjjjjjjjjjjjjjjjjjjjjkjjmmmmllllllclckkkl",
"llllllklkclcjljjmjjkjjjjjjjjjjjjjjjjjjjjjjjjkjjmmmmlllllllllllkl",
"llllllklkmmljljjmjjkjjjjjjjjjjjjjjjjjjjjjjjjkjjjmmmcllllllllllkl",
"llllllcccmmljcjmmmjkjjjjjjjjjjjjjjjjjjjjjjjjkjjmmmmmmcllllllllcc",
"lllllllcclkclcllmlmkjjjjjjjjjjjjjjjjjjjjjjjjkcllmllllllllllllllc",
"llllllllllcclcllmmjkjjjjjjjjjjjjjjjjjjjjjjjjkmmmmmmmmmmlllllllll",
"kkkkkkkkkkkkkkkkkkkkjjjjjjjjjjjjjjjjjjjjjjjjkkkkkkkkkkkkkkkkkkkk"
};