/* XPM */
static char * detailed_frame_3[] = {
"64 64 16 1",
"a c #666b6a",
"b c #272724",
"c c #898c8b",
"d c #3e403e",
"e c #40413d",
"f c #3e4140",
"g c #7c8180",
"h c #7c807e",
"i c #797f80",
"j c #000000",
"k c #353534",
"l c #272826",
"m c #181918",
"n c #545654",
"o c #464846",
"p c #646968",
"kkkkkkkkkkkkkjjjjjjjjjjjjjjjjjjjjjjjjjjjjjjjjjjjjjjkkkkkkkkkkkkk",
"blllmmmmjjjjkjjjjjjjjjjjjjjjjjjjjjjjjjjjjjjjjjjjjjjkjjjjjjjjjjjm",
"mlbmmmmjjjjjkjjjjjjjjjjjjjjjjjjjjjjjjjjjjjjjjjjjjjjkjjjmmbmjmmjm",
"llllbmmmmmmmkjjjjjjjjjjjjjjjjjjjjjjjjjjjjjjjjjjjjjjkjmmmlmbmlmml",
"lblllmmmmmmmkjjjjjjjjjjjjjjjjjjjjjjjjjjjjjjjjjjjjjjkjmmmmmbmlbml",
"lbllllbmmmmmkjjjjjjjjjjjjjjjjjjjjjjjjjjjjjjjjjjjjjjkjmmmlmkmllml",
"lklllllmbmmmkjjjjjjjjjjjjjjjjjjjjjjjjjjjjjjjjjjjjjjkjmmllbkmblml",
"kkkkbklllllmkjjjjjjjjjjjjjjjjjjjjjjjjjjjjjjjjjjjjjjkmllllblmllml",
"kokbkllblmmmkjjjjjjjjjjjjjjjjjjjjjjjjjjjjjjjjjjjjjjkjmmlllkbklmb",
"kokkkllllblmkjjjjjjjjjjjjjjjjjjjjjjjjjjjjjjjjjjjjjjkbmmlblolkblk",
"kakkkllllllmkjjjjjjjjjjjjjjjjjjjjjjjjjjjjjjjjjjjjjjkmmmbkbolkklk",
"onooeokkklllkjjjjjjjjjjjjjjjjjjjjjjjjjjjjjjjjjjjjjjklllkkkaloklo",
"nnaookklmmmjkjjjjjjjjjjjjjjjjjjjjjjjjjjjjjjjjjjjjjjkmblllllllllk",
"dnkkellllmmmkjjjjjjjjjjjjjjjjjjjjjjjjjjjjjjjjjjjjjjkjmmlllklkklk",
"oaoookkkkllmkjjjjjjjjjjjjjjjjjjjjjjjjjjjjjjjjjjjjjjkmmlbkknkooko",
"apoookkkkllmkjjjjjjjjjjjjjjjjjjjjjjjjjjjjjjjjjjjjjjkmblkkeakooko",
"pppannokkkllkjjjjjjjjjjjjjjjjjjjjjjjjjjjjjjjjjjjjjjkkdkddkokoooa",
"pppnnoekllmmkjjjjjjjjjjjjjjjjjjjjjjjjjjjjjjjjjjjjjjkkkkkkkkkkooo",
"npnookklmmmmkjjjjjjjjjjjjjjjjjjjjjjjjjjjjjjjjjjjjjjklllllkkkkooo",
"npnnnaokklllkjjjjjjjjjjjjjjjjjjjjjjjjjjjjjjjjjjjjjjkllkeooponaaa",
"ppapnaaookklkjjjjjjjjjjjjjjjjjjjjjjjjjjjjjjjjjjjjjjkkoooaoaoppnp",
"ppppanokllmmkjjjjjjjjjjjjjjjjjjjjjjjjjjjjjjjjjjjjjjkoaokkkooanan",
"ppppanakllmmkjjjjjjjjjjjjjjjjjjjjjjjjjjjjjjjjjjjjjjkonofkkoonaaa",
"ppppanokllmmkjjjjjjjjjjjjjjjjjjjjjjjjjjjjjjjjjjjjjjkonokkkfoaapa",
"npnannnkkllbkjjjjjjjjjjjjjjjjjjjjjjjjjjjjjjjjjjjjjjklbkoooannppp",
"aapappaokkklkjjjjjjjjjjjjjjjjjjjjjjjjjjjjjjjjjjjjjjkannnnnpnppaa",
"aaapppnlkllmkjjjjjjjjjjjjjjjjjjjjjjjjjjjjjjjjjjjjjjkannaalnnapaa",
"haaapplnlllbkjjjjjjjjjjjjjjjjjjjjjjjjjjjjjjjjjjjjjjkannalnlappaa",
"cgaapplnlkllkjjjjjjjjjjjjjjjjjjjjjjjjjjjjjjjjjjjjjjkonnalnlppaaa",
"agapplnnnlklkjjjjjjjjjjjjjjjjjjjjjjjjjjjjjjjjjjjjjjkdoolnnnlaaaa",
"ccaaalnnnlllkjjjjjjjjjjjjjjjjjjjjjjjjjjjjjjjjjjjjjjkfoolnnnlaaaa",
"ccgaalnnnlklkjjjjjjjjjjjjjjjjjjjjjjjjjjjjjjjjjjjjjjkkoolnnnlaaaa",
"ccgaalnnnlklkjjjjjjjjjjjjjjjjjjjjjjjjjjjjjjjjjjjjjjkkkolnnnlaaaa",
"cccaalnnnlklkjjjjjjjjjjjjjjjjjjjjjjjjjjjjjjjjjjjjjjkkkolnnnlaaai",
"ccapalnnnlkkkjjjjjjjjjjjjjjjjjjjjjjjjjjjjjjjjjjjjjjklkklnnnlpaaa",
"cccaalnnnlkkkjjjjjjjjjjjjjjjjjjjjjjjjjjjjjjjjjjjjjjklkdlnnnlaaaa",
"cccaaalnlodkkjjjjjjjjjjjjjjjjjjjjjjjjjjjjjjjjjjjjjjklkdolnlaaaaa",
"cccaaalnlodkkjjjjjjjjjjjjjjjjjjjjjjjjjjjjjjjjjjjjjjklkdolnlaaaaa",
"ccapannlokklkjjjjjjjjjjjjjjjjjjjjjjjjjjjjjjjjjjjjjjkllkkolaappap",
"acpnponkkonokjjjjjjjjjjjjjjjjjjjjjjjjjjjjjjjjjjjjjjkmmllfonpnppp",
"cchaaapanaokkjjjjjjjjjjjjjjjjjjjjjjjjjjjjjjjjjjjjjjkkkdonaapappa",
"ccaaaapnodklkjjjjjjjjjjjjjjjjjjjjjjjjjjjjjjjjjjjjjjkllkkonapaapp",
"chaaaapnokklkjjjjjjjjjjjjjjjjjjjjjjjjjjjjjjjjjjjjjjkllkkonnannaa",
"paanponkllllkjjjjjjjjjjjjjjjjjjjjjjjjjjjjjjjjjjjjjjkmmllkdknonna",
"aannpkakkkokkjjjjjjjjjjjjjjjjjjjjjjjjjjjjjjjjjjjjjjkmmllkfonnnan",
"papppanooookkjjjjjjjjjjjjjjjjjjjjjjjjjjjjjjjjjjjjjjklkkkoonannna",
"ppppppnokblmkjjjjjjjjjjjjjjjjjjjjjjjjjjjjjjjjjjjjjjkllbkfoooooan",
"nannnankllmmkjjjjjjjjjjjjjjjjjjjjjjjjjjjjjjjjjjjjjjkmmllkkkokooo",
"onokalelllllkjjjjjjjjjjjjjjjjjjjjjjjjjjjjjjjjjjjjjjkbmmblkefoooo",
"onokokdlllllkjjjjjjjjjjjjjjjjjjjjjjjjjjjjjjjjjjjjjjkmmmllkokooka",
"onkkolkllllmkjjjjjjjjjjjjjjjjjjjjjjjjjjjjjjjjjjjjjjkbmmblkekeoko",
"nnnnanaoekllkjjjjjjjjjjjjjjjjjjjjjjjjjjjjjjjjjjjjjjklkkddkokokko",
"kakkolklmmmmkjjjjjjjjjjjjjjjjjjjjjjjjjjjjjjjjjjjjjjkjmmmlllblkkk",
"koklklkmmmmmkjjjjjjjjjjjjjjjjjjjjjjjjjjjjjjjjjjjjjjkjjmmllkkkkkd",
"kollkmbmmmmmkjjjjjjjjjjjjjjjjjjjjjjjjjjjjjjjjjjjjjjkjjmmllklkklk",
"lollkmlmmmmmkjjjjjjjjjjjjjjjjjjjjjjjjjjjjjjjjjjjjjjkjjmmblblkklk",
"kekkkkkblllbkjjjjjjjjjjjjjjjjjjjjjjjjjjjjjjjjjjjjjjkllllllklkklk",
"lkllbbljjmjjkjjjjjjjjjjjjjjjjjjjjjjjjjjjjjjjjjjjjjjkjjmmmmllllll",
"lkblbjljjmjjkjjjjjjjjjjjjjjjjjjjjjjjjjjjjjjjjjjjjjjkjjmmmmllllll",
"lkmmljljjmjjkjjjjjjjjjjjjjjjjjjjjjjjjjjjjjjjjjjjjjjkjjjmmmblllll",
"bbmmljbjmmmjkjjjjjjjjjjjjjjjjjjjjjjjjjjjjjjjjjjjjjjkjjmmmmmmblll",
"bblkblbllmlmkjjjjjjjjjjjjjjjjjjjjjjjjjjjjjjjjjjjjjjkbllmllllllll",
"lllbblbllmmjkjjjjjjjjjjjjjjjjjjjjjjjjjjjjjjjjjjjjjjkmmmmmmmmmmll",
"kkkkkkkkkkkkkjjjjjjjjjjjjjjjjjjjjjjjjjjjjjjjjjjjjjjkkkkkkkkkkkkk"
};