/* XPM */
static char * detailed_frame_4[] = {
"64 64 16 1",
"a c #1c1d1a",
"b c #606462",
"c c #000000",
"d c #343434",
"e c #272827",
"f c #181918",
"g c #525353",
"h c #474947",
"i c #3e403e",
"j c #1e201e",
"k c #31312e",
"l c #4e5250",
"m c #4d504f",
"n c #3f4140",
"o c #40413d",
"p c #1f2020",
"dddddddccccccccccccccccccccccccccccccccccccccccccccccccccddddddd",
"ffccccdccccccccccccccccccccccccccccccccccccccccccccccccccdcccccc",
"fcccccdccccccccccccccccccccccccccccccccccccccccccccccccccdcccffa",
"ffffffdccccccccccccccccccccccccccccccccccccccccccccccccccdcfffef",
"ffffffdccccccccccccccccccccccccccccccccccccccccccccccccccdcfffff",
"jfffffdccccccccccccccccccccccccccccccccccccccccccccccccccdcfffef",
"efjfffdccccccccccccccccccccccccccccccccccccccccccccccccccdcffeea",
"eeeeefdccccccccccccccccccccccccccccccccccccccccccccccccccdfeeeej",
"epefffdccccccccccccccccccccccccccccccccccccccccccccccccccdcffeee",
"eeejefdccccccccccccccccccccccccccccccccccccccccccccccccccdaffeke",
"eeeeefdccccccccccccccccccccccccccccccccccccccccccccccccccdfffkdk",
"dddeeedccccccccccccccccccccccccccccccccccccccccccccccccccdeeeddd",
"defffcdccccccccccccccccccccccccccccccccccccccccccccccccccdfpeeee",
"eeefffdccccccccccccccccccccccccccccccccccccccccccccccccccdcffeee",
"dddeefdccccccccccccccccccccccccccccccccccccccccccccccccccdffekdd",
"dddeefdccccccccccccccccccccccccccccccccccccccccccccccccccdfjeddo",
"hdddeedccccccccccccccccccccccccccccccccccccccccccccccccccddidiid",
"odeeffdccccccccccccccccccccccccccccccccccccccccccccccccccddddddd",
"deffffdccccccccccccccccccccccccccccccccccccccccccccccccccdeeeeed",
"hddeeedccccccccccccccccccccccccccccccccccccccccccccccccccdeedohh",
"lhhddedccccccccccccccccccccccccccccccccccccccccccccccccccddhhhlh",
"hdeeffdccccccccccccccccccccccccccccccccccccccccccccccccccdhlhddd",
"mdeeffdccccccccccccccccccccccccccccccccccccccccccccccccccdhghndd",
"hdeeffdccccccccccccccccccccccccccccccccccccccccccccccccccdhghddd",
"gddeejdccccccccccccccccccccccccccccccccccccccccccccccccccdekdhhh",
"bhdddedccccccccccccccccccccccccccccccccccccccccccccccccccdmggggg",
"gedeefdccccccccccccccccccccccccccccccccccccccccccccccccccdlgglme",
"egeeejdccccccccccccccccccccccccccccccccccccccccccccccccccdmggleg",
"egedeedccccccccccccccccccccccccccccccccccccccccccccccccccdhggmeg",
"gggededccccccccccccccccccccccccccccccccccccccccccccccccccdihhegg",
"gggeeedccccccccccccccccccccccccccccccccccccccccccccccccccdnhhegg",
"gggededccccccccccccccccccccccccccccccccccccccccccccccccccddhhegg",
"gggededccccccccccccccccccccccccccccccccccccccccccccccccccdddhegg",
"gggededccccccccccccccccccccccccccccccccccccccccccccccccccdddhegg",
"gggedddccccccccccccccccccccccccccccccccccccccccccccccccccdeddegg",
"gggedddccccccccccccccccccccccccccccccccccccccccccccccccccdediegg",
"egehiddccccccccccccccccccccccccccccccccccccccccccccccccccdediheg",
"egehiddccccccccccccccccccccccccccccccccccccccccccccccccccdediheg",
"gehddedccccccccccccccccccccccccccccccccccccccccccccccccccdeeddhe",
"gddhghdccccccccccccccccccccccccccccccccccccccccccccccccccdffeenh",
"bbglhddccccccccccccccccccccccccccccccccccccccccccccccccccdddihgb",
"bghidedccccccccccccccccccccccccccccccccccccccccccccccccccdeeddhg",
"bghddedccccccccccccccccccccccccccccccccccccccccccccccccccdeeddhg",
"gdeeeedccccccccccccccccccccccccccccccccccccccccccccccccccdffeedi",
"mdddhddccccccccccccccccccccccccccccccccccccccccccccccccccdffeedn",
"ghhhhddccccccccccccccccccccccccccccccccccccccccccccccccccdedddhh",
"ghdkefdccccccccccccccccccccccccccccccccccccccccccccccccccdeeadnh",
"gdeeffdccccccccccccccccccccccccccccccccccccccccccccccccccdffeedd",
"oeeeeedccccccccccccccccccccccccccccccccccccccccccccccccccdaffjed",
"ieeeeedccccccccccccccccccccccccccccccccccccccccccccccccccdfffeed",
"deeeefdccccccccccccccccccccccccccccccccccccccccccccccccccdaffaed",
"bhodeedccccccccccccccccccccccccccccccccccccccccccccccccccdeddiid",
"deffffdccccccccccccccccccccccccccccccccccccccccccccccccccdcfffee",
"dfffffdccccccccccccccccccccccccccccccccccccccccccccccccccdccffee",
"kfffffdccccccccccccccccccccccccccccccccccccccccccccccccccdccffee",
"efffffdccccccccccccccccccccccccccccccccccccccccccccccccccdccffje",
"dkeeepdccccccccccccccccccccccccccccccccccccccccccccccccccdeeeeee",
"eccfccdccccccccccccccccccccccccccccccccccccccccccccccccccdccffff",
"eccfccdccccccccccccccccccccccccccccccccccccccccccccccccccdccffff",
"eccfccdccccccccccccccccccccccccccccccccccccccccccccccccccdcccfff",
"acfffcdccccccccccccccccccccccccccccccccccccccccccccccccccdccffff",
"keefefdccccccccccccccccccccccccccccccccccccccccccccccccccdpeefee",
"aeeffcdccccccccccccccccccccccccccccccccccccccccccccccccccdffffff",
"dddddddccccccccccccccccccccccccccccccccccccccccccccccccccddddddd"
};