/* XPM */
static char * detailed_frame_1[] = {
"64 64 16 1",
"a c #676c6b",
"b c #8d908f",
"c c #282926",
"d c #3e403e",
"e c #40413d",
"f c #7c8281",
"g c #3e4140",
"h c #7b807e",
"i c #7a7f80",
"j c #000000",
"k c #353634",
"l c #272826",
"m c #191918",
"n c #555756",
"o c #464846",
"p c #646968",
"kkkkkkkkkkkkkkkkkkkkkkkkkkjjjjjjjjjjjjkkkkkkkkkkkkkkkkkkkkkkkkkk",
"jjjjjjmmmmmmmclllmmmmjjjjkjjjjjjjjjjjjkjjjjjjjjjjjmmmmmmmclllmmm",
"cmjmmjmmmmmmmmlcmmmmjjjjjkjjjjjjjjjjjjkjjjmmcmjmmjmmmmmmmmlcmmmm",
"mcmlmmlmmmmmlllllcmmmmmmmkjjjjjjjjjjjjkjmmmlmcmlmmlmmmmmlllllcmm",
"mcmlcmlmmmmlllclllmmmmmmmkjjjjjjjjjjjjkjmmmmmcmlcmlmmmmlllclllmm",
"mkmllmlmmmmlllcllllcmmmmmkjjjjjjjjjjjjkjmmmlmkmllmlmmmmlllcllllc",
"ckmclmlmmcllllklllllmcmmmkjjjjjjjjjjjjkjmmllckmclmlmmcllllklllll",
"clmllmlmlllcckkkkcklllllmkjjjjjjjjjjjjkmllllclmllmlmlllcckkkkckl",
"lkcklmclllkkkkokckllclmmmkjjjjjjjjjjjjkjmmlllkcklmclllkkkkokckll",
"lolkclkllkkkekokkkllllclmkjjjjjjjjjjjjkcmmlclolkclkllkkkekokkkll",
"colkklklckeeokakkkllllllmkjjjjjjjjjjjjkmmmckcolkklklckeeokakkkll",
"kaloklokkeoooonooeokkklllkjjjjjjjjjjjjklllkkkaloklokkeoooonooeok",
"llllllkkkooaannaookklmmmjkjjjjjjjjjjjjkmclllllllllkkkooaannaookk",
"lklkklkkkooondnkkellllmmmkjjjjjjjjjjjjkjmmlllklkklkkkooondnkkell",
"knkookoddoaonoaoookkkkllmkjjjjjjjjjjjjkmmlckknkookoddoaonoaoookk",
"eakookoooannaapoookkkkllmkjjjjjjjjjjjjkmclkkeakookoooannaapoookk",
"kokoooaoonnappppannokkkllkjjjjjjjjjjjjkkdkddkokoooaoonnappppanno",
"kkkkooooannappppnnoekllmmkjjjjjjjjjjjjkkkkkkkkkkooooannappppnnoe",
"kkkkoooaonnnpnpnookklmmmmkjjjjjjjjjjjjklllllkkkkoooaonnnpnpnookk",
"oponaaanannnpnpnnnaokklllkjjjjjjjjjjjjkllkeooponaaanannnpnpnnnao",
"oaoppnpnnnaapppapnaaookklkjjjjjjjjjjjjkkoooaoaoppnpnnnaapppapnaa",
"kooanannnapppppppanokllmmkjjjjjjjjjjjjkoaokkkooanannnapppppppano",
"koonaaaaappppppppanakllmmkjjjjjjjjjjjjkonogkkoonaaaaappppppppana",
"kgoaapappppppppppanokllmmkjjjjjjjjjjjjkonokkkgoaapappppppppppano",
"oannppppapppanpnannnkkllckjjjjjjjjjjjjklckoooannppppapppanpnannn",
"npnppaapaaaaaaapappaokkklkjjjjjjjjjjjjkannnnnpnppaapaaaaaaapappa",
"nnnapaaaaaaaaaaapppnlkllmkjjjjjjjjjjjjkannaalnnapaaaaaaaaaaapppn",
"naappaaaaaffbhaaapplnlllckjjjjjjjjjjjjkannalnlappaaaaaffbhaaappa",
"apppaaaaafbbbbfaapplnlkllkjjjjjjjjjjjjkonnalnlppaaaaafbbbbfaappp",
"nnpaaaaiabbbbafapplnnnlklkjjjjjjjjjjjjkdoolnnnlaaaaiabbbbafappna",
"paaaaaafbbbbbbbaaalnnnlllkjjjjjjjjjjjjkgoolnnnlaaaafbbbbbbbaaapp",
"paaaaaabbbbbbbbfaalnnnlklkjjjjjjjjjjjjkkoolnnnlaaaabbbbbbbbfaapp",
"paaaaaabbbbbbbbfaalnnnlklkjjjjjjjjjjjjkkkolnnnlaaaabbbbbbbbfaaap",
"paaaaaibbbbbbbbbaalnnnlklkjjjjjjjjjjjjkkkolnnnlaaaibbbbbbbbbaaap",
"npapaaabbbbbbbbapalnnnlkkkjjjjjjjjjjjjklkklnnnlpaaabbbbbbbbapana",
"pifaaaafbbbbbbbbaalnnnlkkkjjjjjjjjjjjjklkdlnnnlaaaafbbbbbbbbaaap",
"afaaaaaibbbbbbbbaaalnlodkkjjjjjjjjjjjjklkdolnlaaaaaibbbbbbbbaaap",
"paaaaaahbbbbbbbbaaalnlodkkjjjjjjjjjjjjklkdolnlaaaaahbbbbbbbbaaap",
"naappapahbbbbbbapannlokklkjjjjjjjjjjjjkllkkolaappapahbbbbbbapann",
"onpnpppaabbfbabpnponkkonokjjjjjjjjjjjjkmmllgonpnpppaabbfbabpnpon",
"aapappaaabbbbbbhaaapanaokkjjjjjjjjjjjjkkkdonaapappaaabbbbbbhaaap",
"napaapppaifbbbbaaaapnodklkjjjjjjjjjjjjkllkkonapaapppaifbbbbaaaap",
"nnannaapaaafbbhaaaapnokklkjjjjjjjjjjjjkllkkonnannaapaaafbbhaaaap",
"dknonnappaaafpaanponkllllkjjjjjjjjjjjjkmmllkdknonnappaaafpaanpon",
"gonnnananpapaaannpkakkkokkjjjjjjjjjjjjkmmllkgonnnananpapaaannpka",
"onannnannpppapapppanooookkjjjjjjjjjjjjklkkkoonannnannpppapapppan",
"oooooannnaappppppppnokclmkjjjjjjjjjjjjkllckgoooooannnaappppppppn",
"kkokooonnnnnpnannnankllmmkjjjjjjjjjjjjkmmllkkkokooonnnnnpnannnan",
"kegooooaonnnaonokalelllllkjjjjjjjjjjjjkcmmclkegooooaonnnaonokale",
"kokookaooooononokokdlllllkjjjjjjjjjjjjkmmmllkokookaooooononokokd",
"kekeokoooooononkkolkllllmkjjjjjjjjjjjjkcmmclkekeokoooooononkkolk",
"kokokkoooooannnnnanaoekllkjjjjjjjjjjjjklkkddkokokkoooooannnnnana",
"llclkkkdkdooakakkolklmmmmkjjjjjjjjjjjjkjmmmlllclkkkdkdooakakkolk",
"lkkkkkdkkkkdokoklklkmmmmmkjjjjjjjjjjjjkjjmmllkkkkkdkkkkdokoklklk",
"lklkklkkkkkkokollkmcmmmmmkjjjjjjjjjjjjkjjmmllklkklkkkkkkokollkmc",
"lclkklkkkkkkelollkmlmmmmmkjjjjjjjjjjjjkjjmmclclkklkkkkkkelollkml",
"lklkklkkkkkkkkekkkkkclllckjjjjjjjjjjjjkllllllklkklkkkkkkkkekkkkk",
"mllllllclckkklkllccljjmjjkjjjjjjjjjjjjkjjmmmmllllllclckkklkllccl",
"mlllllllllllklkclcjljjmjjkjjjjjjjjjjjjkjjmmmmlllllllllllklkclcjl",
"mcllllllllllklkmmljljjmjjkjjjjjjjjjjjjkjjjmmmcllllllllllklkmmljl",
"mmmcllllllllcccmmljcjmmmjkjjjjjjjjjjjjkjjmmmmmmcllllllllcccmmljc",
"lllllllllllllcclkclcllmlmkjjjjjjjjjjjjkcllmllllllllllllllcclkclc",
"mmmmmlllllllllllcclcllmmjkjjjjjjjjjjjjkmmmmmmmmmmlllllllllllcclc",
"kkkkkkkkkkkkkkkkkkkkkkkkkkjjjjjjjjjjjjkkkkkkkkkkkkkkkkkkkkkkkkkk"
};