/* XPM */
static char *1_white[] = {
"64 64 10 1",
". c None",
"a c #ffffff",
"b c #ffffff",
"c c #ffffff",
"d c #ffffff",
"e c #ffffff",
"f c #ffffff",
"g c #ffffff",
"h c #ffffff",
"i c #ffffff",
"................................................................",
"................................................................",
"................................................................",
"................................................................",
"................................................................",
"................................................................",
"................................................................",
"................................................................",
"................................................................",
"................................................................",
"................................................................",
"................................................................",
".................................aaaaaaaab......................",
".................................aaaaaaaab......................",
".................................aaaaaaaab......................",
".................................aaaaaaaab......................",
"............................cddddaaaaaaaab......................",
"............................eaaaaaaaaaaaab......................",
"............................eaaaaaaaaaaaab......................",
"............................eaaaaaaaaaaaab......................",
"........................fggghaaaaaaaaaaaab......................",
"........................iaaaaaaaaaaaaaaaab......................",
"........................iaaaaaaaaaaaaaaaab......................",
"........................iaaaaaaaaaaaaaaaab......................",
"........................iaaaaaaaaaaaaaaaab......................",
".................................aaaaaaaab......................",
".................................aaaaaaaab......................",
".................................aaaaaaaab......................",
".................................aaaaaaaab......................",
".................................aaaaaaaab......................",
".................................aaaaaaaab......................",
".................................aaaaaaaab......................",
".................................aaaaaaaab......................",
".................................aaaaaaaab......................",
".................................aaaaaaaab......................",
".................................aaaaaaaab......................",
".................................aaaaaaaab......................",
".................................aaaaaaaab......................",
".................................aaaaaaaab......................",
".................................aaaaaaaab......................",
".................................aaaaaaaab......................",
".................................aaaaaaaab......................",
".................................aaaaaaaab......................",
".................................aaaaaaaab......................",
".................................aaaaaaaab......................",
".................................aaaaaaaab......................",
".................................aaaaaaaab......................",
".................................aaaaaaaab......................",
".................................aaaaaaaab......................",
".................................aaaaaaaab......................",
".................................aaaaaaaab......................",
"................................................................",
"................................................................",
"................................................................",
"................................................................",
"................................................................",
"................................................................",
"................................................................",
"................................................................",
"................................................................",
"................................................................",
"................................................................",
"................................................................",
"................................................................"
};