/* XPM */
static char *3_gold[] = {
"64 64 8 1",
". c None",
"a c #ffc864",
"b c #ffc864",
"c c #ffc864",
"d c #ffc864",
"e c #ffc864",
"f c #ffc864",
"g c #ffc864",
"................................................................",
"................................................................",
"................................................................",
"................................................................",
"................................................................",
"................................................................",
"................................................................",
"................................................................",
"................................................................",
"................................................................",
"................................................................",
"................................................................",
".........................aaaaaaaaaaaaaaaaa......................",
".........................aaaaaaaaaaaaaaaaa......................",
".........................aaaaaaaaaaaaaaaaa......................",
".........................aaaaaaaaaaaaaaaaa......................",
"....................aaaaaaaabccccccccbaaaaaaaa..................",
"....................aaaaaaaad........daaaaaaaa..................",
"....................aaaaaaaad........daaaaaaaa..................",
"....................aaaaaaaad........daaaaaaaa..................",
"....................cccccccce........daaaaaaaa..................",
".....................................daaaaaaaa..................",
".....................................daaaaaaaa..................",
".....................................daaaaaaaa..................",
".....................................daaaaaaaa..................",
".....................................daaaaaaaa..................",
".....................................daaaaaaaa..................",
".....................................daaaaaaaa..................",
".....................................daaaaaaaa..................",
".............................ccccccccbaaaa......................",
".............................aaaaaaaaaaaaa......................",
".............................aaaaaaaaaaaaa......................",
".............................aaaaaaaaaaaaa......................",
".............................ffffffffgaaaacccc..................",
".....................................daaaaaaaa..................",
".....................................daaaaaaaa..................",
".....................................daaaaaaaa..................",
".....................................daaaaaaaa..................",
".....................................daaaaaaaa..................",
".....................................daaaaaaaa..................",
".....................................daaaaaaaa..................",
".....................................daaaaaaaa..................",
"....................cccccccce........daaaaaaaa..................",
"....................aaaaaaaad........daaaaaaaa..................",
"....................aaaaaaaad........daaaaaaaa..................",
"....................aaaaaaaad........daaaaaaaa..................",
"....................fffffaaabccccccccbaaaaffff..................",
".........................aaaaaaaaaaaaaaaaa......................",
".........................aaaaaaaaaaaaaaaaa......................",
".........................aaaaaaaaaaaaaaaaa......................",
".........................aaaaaaaaaaaaaaaaa......................",
"................................................................",
"................................................................",
"................................................................",
"................................................................",
"................................................................",
"................................................................",
"................................................................",
"................................................................",
"................................................................",
"................................................................",
"................................................................",
"................................................................",
"................................................................"
};