/* XPM */
static char *7_white[] = {
"64 64 10 1",
". c None",
"a c #ffffff",
"b c #ffffff",
"c c #ffffff",
"d c #ffffff",
"e c #ffffff",
"f c #ffffff",
"g c #ffffff",
"h c #ffffff",
"i c #ffffff",
"................................................................",
"................................................................",
"................................................................",
"................................................................",
"................................................................",
"................................................................",
"................................................................",
"................................................................",
"................................................................",
"................................................................",
"................................................................",
"................................................................",
"....................abbbbbbbbbbbbbbbbbbbbbbbbbc.................",
"....................abbbbbbbbbbbbbbbbbbbbbbbbbc.................",
"....................abbbbbbbbbbbbbbbbbbbbbbbbbc.................",
"....................abbbbbbbbbbbbbbbbbbbbbbbbbc.................",
"....................deeeeeeeeeeeeeeeeebbbbbbbbc.................",
"......................................bbbbbbbbc.................",
"......................................bbbbbbbbc.................",
"......................................bbbbbbbbc.................",
"......................................bbbbbbbbc.................",
"..................................bbbbbbbbc.....................",
"..................................bbbbbbbbc.....................",
"..................................bbbbbbbbc.....................",
"..................................bbbbbbbbc.....................",
"..................................bbbbbbbbc.....................",
"..................................bbbbbbbbc.....................",
"..................................bbbbbbbbc.....................",
"..................................bbbbbbbbc.....................",
".............................fggggbbbbhhhhi.....................",
".............................cbbbbbbbb..........................",
".............................cbbbbbbbb..........................",
".............................cbbbbbbbb..........................",
".............................cbbbbbbbb..........................",
".............................cbbbbbbbb..........................",
".............................cbbbbbbbb..........................",
".............................cbbbbbbbb..........................",
".............................cbbbbbbbb..........................",
".........................bbbbbbbbc..............................",
".........................bbbbbbbbc..............................",
".........................bbbbbbbbc..............................",
".........................bbbbbbbbc..............................",
".........................bbbbbbbbc..............................",
".........................bbbbbbbbc..............................",
".........................bbbbbbbbc..............................",
".........................bbbbbbbbc..............................",
".........................bbbbbbbbc..............................",
".........................bbbbbbbbc..............................",
".........................bbbbbbbbc..............................",
".........................bbbbbbbbc..............................",
".........................bbbbbbbbc..............................",
"................................................................",
"................................................................",
"................................................................",
"................................................................",
"................................................................",
"................................................................",
"................................................................",
"................................................................",
"................................................................",
"................................................................",
"................................................................",
"................................................................",
"................................................................"
};