/* XPM */
static char *8_white[] = {
"64 64 6 1",
". c None",
"a c #ffffff",
"b c #ffffff",
"c c #ffffff",
"d c #ffffff",
"e c #ffffff",
"................................................................",
"................................................................",
"................................................................",
"................................................................",
"................................................................",
"................................................................",
"................................................................",
"................................................................",
"................................................................",
"................................................................",
"................................................................",
"................................................................",
".........................aaaaaaaaaaaaaaaaa......................",
".........................aaaaaaaaaaaaaaaaa......................",
".........................aaaaaaaaaaaaaaaaa......................",
".........................aaaaaaaaaaaaaaaaa......................",
"....................aaaaaaaabccccccccbaaaaaaaa..................",
"....................aaaaaaaad........daaaaaaaa..................",
"....................aaaaaaaad........daaaaaaaa..................",
"....................aaaaaaaad........daaaaaaaa..................",
"....................aaaaaaaad........daaaaaaaa..................",
"....................aaaaaaaad........daaaaaaaa..................",
"....................aaaaaaaad........daaaaaaaa..................",
"....................aaaaaaaad........daaaaaaaa..................",
"....................aaaaaaaad........daaaaaaaa..................",
"....................aaaaaaaad........daaaaaaaa..................",
"....................aaaaaaaad........daaaaaaaa..................",
"....................aaaaaaaad........daaaaaaaa..................",
"....................aaaaaaaad........daaaaaaaa..................",
".........................aaabccccccccbaaaa......................",
".........................aaaaaaaaaaaaaaaaa......................",
".........................aaaaaaaaaaaaaaaaa......................",
".........................aaaaaaaaaaaaaaaaa......................",
".........................aaaaaaaaaaaaaaaaa......................",
"....................aaaaaaaad........daaaaaaaa..................",
"....................aaaaaaaad........daaaaaaaa..................",
"....................aaaaaaaad........daaaaaaaa..................",
"....................aaaaaaaad........daaaaaaaa..................",
"....................aaaaaaaad........daaaaaaaa..................",
"....................aaaaaaaad........daaaaaaaa..................",
"....................aaaaaaaad........daaaaaaaa..................",
"....................aaaaaaaad........daaaaaaaa..................",
"....................aaaaaaaad........daaaaaaaa..................",
"....................aaaaaaaad........daaaaaaaa..................",
"....................aaaaaaaad........daaaaaaaa..................",
"....................aaaaaaaad........daaaaaaaa..................",
"....................eeeeeaaabccccccccbaaaaeeee..................",
".........................aaaaaaaaaaaaaaaaa......................",
".........................aaaaaaaaaaaaaaaaa......................",
".........................aaaaaaaaaaaaaaaaa......................",
".........................aaaaaaaaaaaaaaaaa......................",
"................................................................",
"................................................................",
"................................................................",
"................................................................",
"................................................................",
"................................................................",
"................................................................",
"................................................................",
"................................................................",
"................................................................",
"................................................................",
"................................................................",
"................................................................"
};