/* XPM */
static char *C_gold[] = {
"64 64 9 1",
". c None",
"a c #ffc864",
"b c #ffc864",
"c c #ffc864",
"d c #ffc864",
"e c #ffc864",
"f c #ffc864",
"g c #ffc864",
"h c #ffc864",
"................................................................",
"................................................................",
"................................................................",
"................................................................",
"................................................................",
"................................................................",
"................................................................",
"................................................................",
"................................................................",
"................................................................",
"................................................................",
"................................................................",
"...........................aaaaaaaaaaaaaaaaa....................",
"...........................aaaaaaaaaaaaaaaaa....................",
"...........................aaaaaaaaaaaaaaaaa....................",
"...........................aaaaaaaaaaaaaaaaa....................",
"......................bccccaaaacccccccccaaaaccccb...............",
"......................daaaaaaaa.........aaaaaaaad...............",
"......................daaaaaaaa.........aaaaaaaad...............",
"......................daaaaaaaa.........aaaaaaaad...............",
"......................daaaaaaaa.........aaaaaaaad...............",
"..................aaaaaaaad.....................................",
"..................aaaaaaaad.....................................",
"..................aaaaaaaad.....................................",
"..................aaaaaaaad.....................................",
"..................aaaaaaaad.....................................",
"..................aaaaaaaad.....................................",
"..................aaaaaaaad.....................................",
"..................aaaaaaaad.....................................",
"..................aaaaaaaad.....................................",
"..................aaaaaaaad.....................................",
"..................aaaaaaaad.....................................",
"..................aaaaaaaad.....................................",
"..................aaaaaaaad.....................................",
"..................aaaaaaaad.....................................",
"..................aaaaaaaad.....................................",
"..................aaaaaaaad.....................................",
"..................aaaaaaaad.....................................",
"..................aaaaaaaad.....................................",
"..................aaaaaaaad.....................................",
"..................aaaaaaaad.....................................",
"..................aaaaaaaad.....................................",
"..................eeeefaaagcccc.........ccccccccb...............",
"......................daaaaaaaa.........aaaaaaaad...............",
"......................daaaaaaaa.........aaaaaaaad...............",
"......................daaaaaaaa.........aaaaaaaad...............",
"......................heeeeaaaacccccccccaaaaeeeeh...............",
"...........................aaaaaaaaaaaaaaaaa....................",
"...........................aaaaaaaaaaaaaaaaa....................",
"...........................aaaaaaaaaaaaaaaaa....................",
"...........................aaaaaaaaaaaaaaaaa....................",
"................................................................",
"................................................................",
"................................................................",
"................................................................",
"................................................................",
"................................................................",
"................................................................",
"................................................................",
"................................................................",
"................................................................",
"................................................................",
"................................................................",
"................................................................"
};