/* XPM */
static char *J_white[] = {
"64 64 7 1",
". c None",
"a c #ffffff",
"b c #ffffff",
"c c #ffffff",
"d c #ffffff",
"e c #ffffff",
"f c #ffffff",
"................................................................",
"................................................................",
"................................................................",
"................................................................",
"................................................................",
"................................................................",
"................................................................",
"................................................................",
"................................................................",
"................................................................",
"................................................................",
"................................................................",
"....................................aaaaaaaab...................",
"....................................aaaaaaaab...................",
"....................................aaaaaaaab...................",
"....................................aaaaaaaab...................",
"....................................aaaaaaaab...................",
"....................................aaaaaaaab...................",
"....................................aaaaaaaab...................",
"....................................aaaaaaaab...................",
"....................................aaaaaaaab...................",
"....................................aaaaaaaab...................",
"....................................aaaaaaaab...................",
"....................................aaaaaaaab...................",
"....................................aaaaaaaab...................",
"....................................aaaaaaaab...................",
"....................................aaaaaaaab...................",
"....................................aaaaaaaab...................",
"....................................aaaaaaaab...................",
"....................................aaaaaaaab...................",
"....................................aaaaaaaab...................",
"....................................aaaaaaaab...................",
"....................................aaaaaaaab...................",
"....................................aaaaaaaab...................",
"....................................aaaaaaaab...................",
"....................................aaaaaaaab...................",
"....................................aaaaaaaab...................",
"....................................aaaaaaaab...................",
".......................aaaaaaaab....aaaaaaaab...................",
".......................aaaaaaaab....aaaaaaaab...................",
".......................aaaaaaaab....aaaaaaaab...................",
".......................aaaaaaaab....aaaaaaaab...................",
".......................aaaaaaaab....aaaaaaaab...................",
".......................aaaaaaaab....aaaaaaaab...................",
".......................aaaaaaaab....aaaaaaaab...................",
".......................aaaaaaaab....aaaaaaaab...................",
".......................aaaaaaaacddddaaaaaaaab...................",
"...........................eaaaaaaaaaaaaf.......................",
"...........................eaaaaaaaaaaaaf.......................",
"...........................eaaaaaaaaaaaaf.......................",
"...........................eaaaaaaaaaaaaf.......................",
"................................................................",
"................................................................",
"................................................................",
"................................................................",
"................................................................",
"................................................................",
"................................................................",
"................................................................",
"................................................................",
"................................................................",
"................................................................",
"................................................................",
"................................................................"
};