/* XPM */
static char *K_gold[] = {
"64 64 16 1",
". c None",
"a c #ffc864",
"b c #ffc864",
"c c #ffc864",
"d c #ffc864",
"e c #ffc864",
"f c #ffc864",
"g c #ffc864",
"h c #ffc864",
"i c #ffc864",
"j c #ffc864",
"k c #ffc864",
"l c #ffc864",
"m c #ffc864",
"n c #ffc864",
"o c #ffc864",
"................................................................",
"................................................................",
"................................................................",
"................................................................",
"................................................................",
"................................................................",
"................................................................",
"................................................................",
"................................................................",
"................................................................",
"................................................................",
"................................................................",
"..................aaaaaaaab.............aaaaaaaab...............",
"..................aaaaaaaab.............aaaaaaaab...............",
"..................aaaaaaaab.............aaaaaaaab...............",
"..................aaaaaaaab.............aaaaaaaab...............",
"..................aaaaaaaab........caaaaaaaadddde...............",
"..................aaaaaaaab........caaaaaaaa....................",
"..................aaaaaaaab........caaaaaaaa....................",
"..................aaaaaaaab........caaaaaaaa....................",
"..................aaaaaaaab........caaaaaaaa....................",
"..................aaaaaaaab....faaaaaaab........................",
"..................aaaaaaaab....faaaaaaab........................",
"..................aaaaaaaab....faaaaaaab........................",
"..................aaaaaaaab....faaaaaaab........................",
"..................aaaaaaaaaaaaaaaaag............................",
"..................aaaaaaaaaaaaaaaaag............................",
"..................aaaaaaaaaaaaaaaaag............................",
"..................aaaaaaaaaaaaaaaaag............................",
"..................aaaaaaaaaaaaaaaaag............................",
"..................aaaaaaaaaaaaah................................",
"..................aaaaaaaaaaaaah................................",
"..................aaaaaaaaaaaaah................................",
"..................aaaaaaaaaaaaah................................",
"..................aaaaaaaaaaaaaaaaag............................",
"..................aaaaaaaaaaaaaaaaag............................",
"..................aaaaaaaaaaaaaaaaag............................",
"..................aaaaaaaaaaaaaaaaag............................",
"..................aaaaaaaab....faaaaaaab........................",
"..................aaaaaaaab....faaaaaaab........................",
"..................aaaaaaaab....faaaaaaab........................",
"..................aaaaaaaab....faaaaaaab........................",
"..................aaaaaaaab....ijjjkaaalmmmm....................",
"..................aaaaaaaab........caaaaaaaa....................",
"..................aaaaaaaab........caaaaaaaa....................",
"..................aaaaaaaab........caaaaaaaa....................",
"..................aaaaaaaab........nooooaaaadddde...............",
"..................aaaaaaaab.............aaaaaaaab...............",
"..................aaaaaaaab.............aaaaaaaab...............",
"..................aaaaaaaab.............aaaaaaaab...............",
"..................aaaaaaaab.............aaaaaaaab...............",
"................................................................",
"................................................................",
"................................................................",
"................................................................",
"................................................................",
"................................................................",
"................................................................",
"................................................................",
"................................................................",
"................................................................",
"................................................................",
"................................................................",
"................................................................"
};