/* XPM */
static char *L_white[] = {
"64 64 5 1",
". c None",
"a c #ffffff",
"b c #ffffff",
"c c #ffffff",
"d c #ffffff",
"................................................................",
"................................................................",
"................................................................",
"................................................................",
"................................................................",
"................................................................",
"................................................................",
"................................................................",
"................................................................",
"................................................................",
"................................................................",
"................................................................",
"....................aaaaaaaab...................................",
"....................aaaaaaaab...................................",
"....................aaaaaaaab...................................",
"....................aaaaaaaab...................................",
"....................aaaaaaaab...................................",
"....................aaaaaaaab...................................",
"....................aaaaaaaab...................................",
"....................aaaaaaaab...................................",
"....................aaaaaaaab...................................",
"....................aaaaaaaab...................................",
"....................aaaaaaaab...................................",
"....................aaaaaaaab...................................",
"....................aaaaaaaab...................................",
"....................aaaaaaaab...................................",
"....................aaaaaaaab...................................",
"....................aaaaaaaab...................................",
"....................aaaaaaaab...................................",
"....................aaaaaaaab...................................",
"....................aaaaaaaab...................................",
"....................aaaaaaaab...................................",
"....................aaaaaaaab...................................",
"....................aaaaaaaab...................................",
"....................aaaaaaaab...................................",
"....................aaaaaaaab...................................",
"....................aaaaaaaab...................................",
"....................aaaaaaaab...................................",
"....................aaaaaaaab...................................",
"....................aaaaaaaab...................................",
"....................aaaaaaaab...................................",
"....................aaaaaaaab...................................",
"....................aaaaaaaab...................................",
"....................aaaaaaaab...................................",
"....................aaaaaaaab...................................",
"....................aaaaaaaab...................................",
"....................aaaaaaaacddddddddddddddddd..................",
"....................aaaaaaaaaaaaaaaaaaaaaaaaaa..................",
"....................aaaaaaaaaaaaaaaaaaaaaaaaaa..................",
"....................aaaaaaaaaaaaaaaaaaaaaaaaaa..................",
"....................aaaaaaaaaaaaaaaaaaaaaaaaaa..................",
"................................................................",
"................................................................",
"................................................................",
"................................................................",
"................................................................",
"................................................................",
"................................................................",
"................................................................",
"................................................................",
"................................................................",
"................................................................",
"................................................................",
"................................................................"
};