/* XPM */
static char *M_white[] = {
"64 64 6 1",
". c None",
"a c #ffffff",
"b c #ffffff",
"c c #ffffff",
"d c #ffffff",
"e c #ffffff",
"................................................................",
"................................................................",
"................................................................",
"................................................................",
"................................................................",
"................................................................",
"................................................................",
"................................................................",
"................................................................",
"................................................................",
"................................................................",
"................................................................",
"..............aaaaaaaab.....................baaaaaaaac..........",
"..............aaaaaaaab.....................baaaaaaaac..........",
"..............aaaaaaaab.....................baaaaaaaac..........",
"..............aaaaaaaab.....................baaaaaaaac..........",
"..............aaaaaaaab.....................baaaaaaaac..........",
"..............aaaaaaaab.....................baaaaaaaac..........",
"..............aaaaaaaab.....................baaaaaaaac..........",
"..............aaaaaaaab.....................baaaaaaaac..........",
"..............aaaaaaaab.....................baaaaaaaac..........",
"..............aaaaaaaaaaaaad.............baaaaaaaaaaac..........",
"..............aaaaaaaaaaaaad.............baaaaaaaaaaac..........",
"..............aaaaaaaaaaaaad.............baaaaaaaaaaac..........",
"..............aaaaaaaaaaaaad.............baaaaaaaaaaac..........",
"..............aaaaaaaaaaaaad.............baaaaaaaaaaac..........",
"..............aaaaaaaaaaaaad.............baaaaaaaaaaac..........",
"..............aaaaaaaaaaaaad.............baaaaaaaaaaac..........",
"..............aaaaaaaaaaaaad.............baaaaaaaaaaac..........",
"..............aaaaaaaaaaaaaaaaa.....aaaaaaaaaaaaaaaaac..........",
"..............aaaaaaaaaaaaaaaaa.....aaaaaaaaaaaaaaaaac..........",
"..............aaaaaaaaaaaaaaaaa.....aaaaaaaaaaaaaaaaac..........",
"..............aaaaaaaaaaaaaaaaa.....aaaaaaaaaaaaaaaaac..........",
"..............aaaaaaaaaaaaaaaaa.....aaaaaaaaaaaaaaaaac..........",
"..............aaaaaaaab....eaaa.....aaaac...baaaaaaaac..........",
"..............aaaaaaaab....eaaa.....aaaac...baaaaaaaac..........",
"..............aaaaaaaab....eaaa.....aaaac...baaaaaaaac..........",
"..............aaaaaaaab....eaaa.....aaaac...baaaaaaaac..........",
"..............aaaaaaaab....eaaaaaaaaaaaac...baaaaaaaac..........",
"..............aaaaaaaab....eaaaaaaaaaaaac...baaaaaaaac..........",
"..............aaaaaaaab....eaaaaaaaaaaaac...baaaaaaaac..........",
"..............aaaaaaaab....eaaaaaaaaaaaac...baaaaaaaac..........",
"..............aaaaaaaab.........aaaa........baaaaaaaac..........",
"..............aaaaaaaab.........aaaa........baaaaaaaac..........",
"..............aaaaaaaab.........aaaa........baaaaaaaac..........",
"..............aaaaaaaab.........aaaa........baaaaaaaac..........",
"..............aaaaaaaab.........aaaa........baaaaaaaac..........",
"..............aaaaaaaab.........aaaa........baaaaaaaac..........",
"..............aaaaaaaab.........aaaa........baaaaaaaac..........",
"..............aaaaaaaab.........aaaa........baaaaaaaac..........",
"..............aaaaaaaab.........aaaa........baaaaaaaac..........",
"................................................................",
"................................................................",
"................................................................",
"................................................................",
"................................................................",
"................................................................",
"................................................................",
"................................................................",
"................................................................",
"................................................................",
"................................................................",
"................................................................",
"................................................................"
};