/* XPM */
static char *P_white[] = {
"64 64 6 1",
". c None",
"a c #ffffff",
"b c #ffffff",
"c c #ffffff",
"d c #ffffff",
"e c #ffffff",
"................................................................",
"................................................................",
"................................................................",
"................................................................",
"................................................................",
"................................................................",
"................................................................",
"................................................................",
"................................................................",
"................................................................",
"................................................................",
"................................................................",
"..................aaaaaaaaaaaaaaaaaaaaaaaaaab...................",
"..................aaaaaaaaaaaaaaaaaaaaaaaaaab...................",
"..................aaaaaaaaaaaaaaaaaaaaaaaaaab...................",
"..................aaaaaaaaaaaaaaaaaaaaaaaaaab...................",
"..................aaaaaaaacdddddddddddddaaaaaaaae...............",
"..................aaaaaaaae.............aaaaaaaae...............",
"..................aaaaaaaae.............aaaaaaaae...............",
"..................aaaaaaaae.............aaaaaaaae...............",
"..................aaaaaaaae.............aaaaaaaae...............",
"..................aaaaaaaae.............aaaaaaaae...............",
"..................aaaaaaaae.............aaaaaaaae...............",
"..................aaaaaaaae.............aaaaaaaae...............",
"..................aaaaaaaae.............aaaaaaaae...............",
"..................aaaaaaaae.............aaaaaaaae...............",
"..................aaaaaaaae.............aaaaaaaae...............",
"..................aaaaaaaae.............aaaaaaaae...............",
"..................aaaaaaaae.............aaaaaaaae...............",
"..................aaaaaaaacdddddddddddddaaaab...................",
"..................aaaaaaaaaaaaaaaaaaaaaaaaaab...................",
"..................aaaaaaaaaaaaaaaaaaaaaaaaaab...................",
"..................aaaaaaaaaaaaaaaaaaaaaaaaaab...................",
"..................aaaaaaaaaaaaaaaaaaaaaaaaaab...................",
"..................aaaaaaaae.....................................",
"..................aaaaaaaae.....................................",
"..................aaaaaaaae.....................................",
"..................aaaaaaaae.....................................",
"..................aaaaaaaae.....................................",
"..................aaaaaaaae.....................................",
"..................aaaaaaaae.....................................",
"..................aaaaaaaae.....................................",
"..................aaaaaaaae.....................................",
"..................aaaaaaaae.....................................",
"..................aaaaaaaae.....................................",
"..................aaaaaaaae.....................................",
"..................aaaaaaaae.....................................",
"..................aaaaaaaae.....................................",
"..................aaaaaaaae.....................................",
"..................aaaaaaaae.....................................",
"..................aaaaaaaae.....................................",
"................................................................",
"................................................................",
"................................................................",
"................................................................",
"................................................................",
"................................................................",
"................................................................",
"................................................................",
"................................................................",
"................................................................",
"................................................................",
"................................................................",
"................................................................"
};