/* XPM */
static char *Q_gold[] = {
"64 64 10 1",
". c None",
"a c #ffc864",
"b c #ffc864",
"c c #ffc864",
"d c #ffc864",
"e c #ffc864",
"f c #ffc864",
"g c #ffc864",
"h c #ffc864",
"i c #ffc864",
"................................................................",
"................................................................",
"................................................................",
"................................................................",
"................................................................",
"................................................................",
"................................................................",
"................................................................",
"................................................................",
"................................................................",
"................................................................",
"................................................................",
".........................aaaaaaaaaaaaaaaaa......................",
".........................aaaaaaaaaaaaaaaaa......................",
".........................aaaaaaaaaaaaaaaaa......................",
".........................aaaaaaaaaaaaaaaaa......................",
".........................aaaabbbbbbbbbaaaa......................",
"....................caaaaaaaa.........aaaaaaaac.................",
"....................caaaaaaaa.........aaaaaaaac.................",
"....................caaaaaaaa.........aaaaaaaac.................",
"................ddddeaaafbbbb.........bbbbfaaaedddd.............",
"................aaaaaaaac.................caaaaaaaa.............",
"................aaaaaaaac.................caaaaaaaa.............",
"................aaaaaaaac.................caaaaaaaa.............",
"................aaaaaaaac.................caaaaaaaa.............",
"................aaaaaaaac.................caaaaaaaa.............",
"................aaaaaaaac.................caaaaaaaa.............",
"................aaaaaaaac.................caaaaaaaa.............",
"................aaaaaaaac.................caaaaaaaa.............",
"................aaaaaaaac.................caaaaaaaa.............",
"................aaaaaaaac.................caaaaaaaa.............",
"................aaaaaaaac.................caaaaaaaa.............",
"................aaaaaaaac.................caaaaaaaa.............",
"................aaaaaaaac.................caaaaaaaa.............",
"................aaaaaaaac.................caaaaaaaa.............",
"................aaaaaaaac.................caaaaaaaa.............",
"................aaaaaaaac.................caaaaaaaa.............",
"................aaaaaaaac.................caaaaaaaa.............",
"................aaaaaaaac........gaaaaaaaaaaaaaaaaa.............",
"................aaaaaaaac........gaaaaaaaaaaaaaaaaa.............",
"................aaaaaaaac........gaaaaaaaaaaaaaaaaa.............",
"................aaaaaaaac........gaaaaaaaaaaaaaaaaa.............",
"................bbbbfaaaedddd....hbbbbaaaaaaaafbbbb.............",
"....................caaaaaaaa.........aaaaaaaac.................",
"....................caaaaaaaa.........aaaaaaaac.................",
"....................caaaaaaaa.........aaaaaaaac.................",
"....................iddddaaaabbbbbbbbbddddeaaafbbbb.............",
".........................aaaaaaaaaaaaa....caaaaaaaa.............",
".........................aaaaaaaaaaaaa....caaaaaaaa.............",
".........................aaaaaaaaaaaaa....caaaaaaaa.............",
".........................aaaaaaaaaaaaa....caaaaaaaa.............",
"................................................................",
"................................................................",
"................................................................",
"................................................................",
"................................................................",
"................................................................",
"................................................................",
"................................................................",
"................................................................",
"................................................................",
"................................................................",
"................................................................",
"................................................................"
};