/* XPM */
static char *S_white[] = {
"64 64 12 1",
". c None",
"a c #ffffff",
"b c #ffffff",
"c c #ffffff",
"d c #ffffff",
"e c #ffffff",
"f c #ffffff",
"g c #ffffff",
"h c #ffffff",
"i c #ffffff",
"j c #ffffff",
"k c #ffffff",
"................................................................",
"................................................................",
"................................................................",
"................................................................",
"................................................................",
"................................................................",
"................................................................",
"................................................................",
"................................................................",
"................................................................",
"................................................................",
"................................................................",
"......................abbbbbbbbbbbbbbbbbbbbb....................",
"......................abbbbbbbbbbbbbbbbbbbbb....................",
"......................abbbbbbbbbbbbbbbbbbbbb....................",
"......................abbbbbbbbbbbbbbbbbbbbb....................",
"..................bbbbbbbbcdddddddddddddbbbbbbbba...............",
"..................bbbbbbbba.............bbbbbbbba...............",
"..................bbbbbbbba.............bbbbbbbba...............",
"..................bbbbbbbba.............bbbbbbbba...............",
"..................bbbbbbbba.............dddddddde...............",
"..................bbbbbbbba.....................................",
"..................bbbbbbbba.....................................",
"..................bbbbbbbba.....................................",
"..................bbbbbbbba.....................................",
"......................abbbbbbbb.................................",
"......................abbbbbbbb.................................",
"......................abbbbbbbb.................................",
"......................abbbbbbbb.................................",
"......................fggggbbbbddddddddd........................",
"...........................bbbbbbbbbbbbb........................",
"...........................bbbbbbbbbbbbb........................",
"...........................bbbbbbbbbbbbb........................",
"...........................hhhhhhhhibbbbjjjj....................",
"...................................abbbbbbbb....................",
"...................................abbbbbbbb....................",
"...................................abbbbbbbb....................",
"...................................fggggbbbbdddde...............",
"........................................bbbbbbbba...............",
"........................................bbbbbbbba...............",
"........................................bbbbbbbba...............",
"........................................bbbbbbbba...............",
"..................dddddddde.............bbbbbbbba...............",
"..................bbbbbbbba.............bbbbbbbba...............",
"..................bbbbbbbba.............bbbbbbbba...............",
"..................bbbbbbbba.............bbbbbbbba...............",
"..................ggggkbbbcdddddddddddddbbbbggggf...............",
"......................abbbbbbbbbbbbbbbbbbbbb....................",
"......................abbbbbbbbbbbbbbbbbbbbb....................",
"......................abbbbbbbbbbbbbbbbbbbbb....................",
"......................abbbbbbbbbbbbbbbbbbbbb....................",
"................................................................",
"................................................................",
"................................................................",
"................................................................",
"................................................................",
"................................................................",
"................................................................",
"................................................................",
"................................................................",
"................................................................",
"................................................................",
"................................................................",
"................................................................"
};