/* XPM */
static char *V_white[] = {
"64 64 3 1",
". c None",
"a c #ffffff",
"b c #ffffff",
"................................................................",
"................................................................",
"................................................................",
"................................................................",
"................................................................",
"................................................................",
"................................................................",
"................................................................",
"................................................................",
"................................................................",
"................................................................",
"................................................................",
"..................aaaaaaaab.............aaaaaaaab...............",
"..................aaaaaaaab.............aaaaaaaab...............",
"..................aaaaaaaab.............aaaaaaaab...............",
"..................aaaaaaaab.............aaaaaaaab...............",
"..................aaaaaaaab.............aaaaaaaab...............",
"..................aaaaaaaab.............aaaaaaaab...............",
"..................aaaaaaaab.............aaaaaaaab...............",
"..................aaaaaaaab.............aaaaaaaab...............",
"..................aaaaaaaab.............aaaaaaaab...............",
"..................aaaaaaaab.............aaaaaaaab...............",
"..................aaaaaaaab.............aaaaaaaab...............",
"..................aaaaaaaab.............aaaaaaaab...............",
"..................aaaaaaaab.............aaaaaaaab...............",
"..................aaaaaaaab.............aaaaaaaab...............",
"..................aaaaaaaab.............aaaaaaaab...............",
"..................aaaaaaaab.............aaaaaaaab...............",
"..................aaaaaaaab.............aaaaaaaab...............",
"......................baaaaaaaa....baaaaaaaa....................",
"......................baaaaaaaa....baaaaaaaa....................",
"......................baaaaaaaa....baaaaaaaa....................",
"......................baaaaaaaa....baaaaaaaa....................",
"......................baaaaaaaa....baaaaaaaa....................",
"......................baaaaaaaa....baaaaaaaa....................",
"......................baaaaaaaa....baaaaaaaa....................",
"......................baaaaaaaa....baaaaaaaa....................",
"......................baaaaaaaa....baaaaaaaa....................",
"......................baaaaaaaa....baaaaaaaa....................",
"......................baaaaaaaa....baaaaaaaa....................",
"......................baaaaaaaa....baaaaaaaa....................",
"......................baaaaaaaa....baaaaaaaa....................",
"...........................aaaaaaaaaaaaa........................",
"...........................aaaaaaaaaaaaa........................",
"...........................aaaaaaaaaaaaa........................",
"...........................aaaaaaaaaaaaa........................",
"...........................aaaaaaaaaaaaa........................",
"...........................aaaaaaaaaaaaa........................",
"...........................aaaaaaaaaaaaa........................",
"...........................aaaaaaaaaaaaa........................",
"...........................aaaaaaaaaaaaa........................",
"................................................................",
"................................................................",
"................................................................",
"................................................................",
"................................................................",
"................................................................",
"................................................................",
"................................................................",
"................................................................",
"................................................................",
"................................................................",
"................................................................",
"................................................................"
};