/* XPM */
static char *W_gold[] = {
"64 64 6 1",
". c None",
"a c #ffc864",
"b c #ffc864",
"c c #ffc864",
"d c #ffc864",
"e c #ffc864",
"................................................................",
"................................................................",
"................................................................",
"................................................................",
"................................................................",
"................................................................",
"................................................................",
"................................................................",
"................................................................",
"................................................................",
"................................................................",
"................................................................",
"...........abbbbbbbb...........................bbbbbbbba........",
"...........abbbbbbbb...........................bbbbbbbba........",
"...........abbbbbbbb...........................bbbbbbbba........",
"...........abbbbbbbb...........................bbbbbbbba........",
"...........abbbbbbbb.........bbbbbbbbc.........bbbbbbbba........",
"...........abbbbbbbb.........bbbbbbbbc.........bbbbbbbba........",
"...........abbbbbbbb.........bbbbbbbbc.........bbbbbbbba........",
"...........abbbbbbbb.........bbbbbbbbc.........bbbbbbbba........",
"...........abbbbbbbb.........bbbbbbbbc.........bbbbbbbba........",
"...........abbbbbbbb.........bbbbbbbbc.........bbbbbbbba........",
"...........abbbbbbbb.........bbbbbbbbc.........bbbbbbbba........",
"...........abbbbbbbb.........bbbbbbbbc.........bbbbbbbba........",
"...........abbbbbbbb.........bbbbbbbbc.........bbbbbbbba........",
"...........abbbbbbbb.....bbbbbbbbbbbbbbbbb.....bbbbbbbba........",
"...........abbbbbbbb.....bbbbbbbbbbbbbbbbb.....bbbbbbbba........",
"...........abbbbbbbb.....bbbbbbbbbbbbbbbbb.....bbbbbbbba........",
"...........abbbbbbbb.....bbbbbbbbbbbbbbbbb.....bbbbbbbba........",
"................bbbb.....bbbbbbbbbbbbbbbbb.....bbbb.............",
"................bbbb.....bbbbbbbbbbbbbbbbb.....bbbb.............",
"................bbbb.....bbbbbbbbbbbbbbbbb.....bbbb.............",
"................bbbb.....bbbbbbbbbbbbbbbbb.....bbbb.............",
"................bbbb.....bbbbbbbbbbbbbbbbb.....bbbb.............",
"................bbbbbbbbbbbbbbbbbbbbbbbbbbbbbbbbbbb.............",
"................bbbbbbbbbbbbbbbbbbbbbbbbbbbbbbbbbbb.............",
"................bbbbbbbbbbbbbbbbbbbbbbbbbbbbbbbbbbb.............",
"................bbbbbbbbbbbbbbbbbbbbbbbbbbbbbbbbbbb.............",
"................bbbbbbbbbbbbb.........bbbbbbbbbbbbb.............",
"................bbbbbbbbbbbbb.........bbbbbbbbbbbbb.............",
"................bbbbbbbbbbbbb.........bbbbbbbbbbbbb.............",
"................bbbbbbbbbbbbb.........bbbbbbbbbbbbb.............",
"................ddddebbbbbbbb.........bbbbbbbbedddd.............",
"....................cbbbbbbbb.........bbbbbbbbc.................",
"....................cbbbbbbbb.........bbbbbbbbc.................",
"....................cbbbbbbbb.........bbbbbbbbc.................",
"....................cbbbbbbbb.........bbbbbbbbc.................",
"....................cbbbbbbbb.........bbbbbbbbc.................",
"....................cbbbbbbbb.........bbbbbbbbc.................",
"....................cbbbbbbbb.........bbbbbbbbc.................",
"....................cbbbbbbbb.........bbbbbbbbc.................",
"................................................................",
"................................................................",
"................................................................",
"................................................................",
"................................................................",
"................................................................",
"................................................................",
"................................................................",
"................................................................",
"................................................................",
"................................................................",
"................................................................",
"................................................................"
};