/* XPM */
static char *0_gold[] = {
"64 64 6 1",
". c None",
"a c #ffc864",
"b c #ffc864",
"c c #ffc864",
"d c #ffc864",
"e c #ffc864",
"................................................................",
"................................................................",
"................................................................",
"................................................................",
"................................................................",
"................................................................",
"................................................................",
"................................................................",
"................................................................",
"................................................................",
"................................................................",
"................................................................",
".........................aaaaaaaaaaaaaaaaa......................",
".........................aaaaaaaaaaaaaaaaa......................",
".........................aaaaaaaaaaaaaaaaa......................",
".........................aaaaaaaaaaaaaaaaa......................",
".........................aaabccccccccbaaaa......................",
"....................aaaaaaaad........daaaaaaaa..................",
"....................aaaaaaaad........daaaaaaaa..................",
"....................aaaaaaaad........daaaaaaaa..................",
"....................aaaaaaaad........daaaaaaaa..................",
"....................aaaaaaaad........daaaaaaaa..................",
"....................aaaaaaaad........daaaaaaaa..................",
"....................aaaaaaaad........daaaaaaaa..................",
"....................aaaaaaaad........daaaaaaaa..................",
"....................aaaaaaaad........daaaaaaaa..................",
"....................aaaaaaaad........daaaaaaaa..................",
"....................aaaaaaaad........daaaaaaaa..................",
"....................aaaaaaaad........daaaaaaaa..................",
"....................aaaaaaaad........daaaaaaaa..................",
"....................aaaaaaaad........daaaaaaaa..................",
"....................aaaaaaaad........daaaaaaaa..................",
"....................aaaaaaaad........daaaaaaaa..................",
"....................aaaaaaaad........daaaaaaaa..................",
"....................aaaaaaaad........daaaaaaaa..................",
"....................aaaaaaaad........daaaaaaaa..................",
"....................aaaaaaaad........daaaaaaaa..................",
"....................aaaaaaaad........daaaaaaaa..................",
"....................aaaaaaaad........daaaaaaaa..................",
"....................aaaaaaaad........daaaaaaaa..................",
"....................aaaaaaaad........daaaaaaaa..................",
"....................aaaaaaaad........daaaaaaaa..................",
"....................aaaaaaaad........daaaaaaaa..................",
"....................aaaaaaaad........daaaaaaaa..................",
"....................aaaaaaaad........daaaaaaaa..................",
"....................aaaaaaaad........daaaaaaaa..................",
"....................eeeeeaaabccccccccbaaaaeeee..................",
".........................aaaaaaaaaaaaaaaaa......................",
".........................aaaaaaaaaaaaaaaaa......................",
".........................aaaaaaaaaaaaaaaaa......................",
".........................aaaaaaaaaaaaaaaaa......................",
"................................................................",
"................................................................",
"................................................................",
"................................................................",
"................................................................",
"................................................................",
"................................................................",
"................................................................",
"................................................................",
"................................................................",
"................................................................",
"................................................................",
"................................................................"
};