/* XPM */
static char *2_gold[] = {
"64 64 12 1",
". c None",
"a c #ffc864",
"b c #ffc864",
"c c #ffc864",
"d c #ffc864",
"e c #ffc864",
"f c #ffc864",
"g c #ffc864",
"h c #ffc864",
"i c #ffc864",
"j c #ffc864",
"k c #ffc864",
"................................................................",
"................................................................",
"................................................................",
"................................................................",
"................................................................",
"................................................................",
"................................................................",
"................................................................",
"................................................................",
"................................................................",
"................................................................",
"................................................................",
"........................abbbbbbbbbbbbbbbba......................",
"........................abbbbbbbbbbbbbbbba......................",
"........................abbbbbbbbbbbbbbbba......................",
"........................abbbbbbbbbbbbbbbba......................",
"....................bbbbbbbbcddddddddebbbbbbbb..................",
"....................bbbbbbbba........fbbbbbbbb..................",
"....................bbbbbbbba........fbbbbbbbb..................",
"....................bbbbbbbba........fbbbbbbbb..................",
"....................ddddddddg........fbbbbbbbb..................",
".....................................fbbbbbbbb..................",
".....................................fbbbbbbbb..................",
".....................................fbbbbbbbb..................",
".....................................fbbbbbbbb..................",
".....................................fbbbbbbbb..................",
".....................................fbbbbbbbb..................",
".....................................fbbbbbbbb..................",
".....................................fbbbbbbbb..................",
".................................bbbbbbbba......................",
".................................bbbbbbbba......................",
".................................bbbbbbbba......................",
".................................bbbbbbbba......................",
".................................bbbbbbbba......................",
".............................bbbbbbbba..........................",
".............................bbbbbbbba..........................",
".............................bbbbbbbba..........................",
".............................bbbbbbbba..........................",
"........................abbbbbbbb...............................",
"........................abbbbbbbb...............................",
"........................abbbbbbbb...............................",
"........................abbbbbbbb...............................",
"....................hhhhibbbjkkkk...............................",
"....................bbbbbbbba...................................",
"....................bbbbbbbba...................................",
"....................bbbbbbbba...................................",
"....................bbbbbbbbcddddddddddddddddd..................",
"....................bbbbbbbbbbbbbbbbbbbbbbbbbb..................",
"....................bbbbbbbbbbbbbbbbbbbbbbbbbb..................",
"....................bbbbbbbbbbbbbbbbbbbbbbbbbb..................",
"....................bbbbbbbbbbbbbbbbbbbbbbbbbb..................",
"................................................................",
"................................................................",
"................................................................",
"................................................................",
"................................................................",
"................................................................",
"................................................................",
"................................................................",
"................................................................",
"................................................................",
"................................................................",
"................................................................",
"................................................................"
};