/* XPM */
static char *5_gold[] = {
"64 64 7 1",
". c None",
"a c #ffc864",
"b c #ffc864",
"c c #ffc864",
"d c #ffc864",
"e c #ffc864",
"f c #ffc864",
"................................................................",
"................................................................",
"................................................................",
"................................................................",
"................................................................",
"................................................................",
"................................................................",
"................................................................",
"................................................................",
"................................................................",
"................................................................",
"................................................................",
"....................aaaaaaaaaaaaaaaaaaaaaaaaaa..................",
"....................aaaaaaaaaaaaaaaaaaaaaaaaaa..................",
"....................aaaaaaaaaaaaaaaaaaaaaaaaaa..................",
"....................aaaaaaaaaaaaaaaaaaaaaaaaaa..................",
"....................aaaaaaaabccccccccccccccccc..................",
"....................aaaaaaaad...................................",
"....................aaaaaaaad...................................",
"....................aaaaaaaad...................................",
"....................aaaaaaaad...................................",
"....................aaaaaaaad...................................",
"....................aaaaaaaad...................................",
"....................aaaaaaaad...................................",
"....................aaaaaaaad...................................",
"....................aaaaaaaaaaaaaaaaaaaaaa......................",
"....................aaaaaaaaaaaaaaaaaaaaaa......................",
"....................aaaaaaaaaaaaaaaaaaaaaa......................",
"....................aaaaaaaaaaaaaaaaaaaaaa......................",
"....................aaaaaaaabccccccccbaaaacccc..................",
"....................aaaaaaaad........daaaaaaaa..................",
"....................aaaaaaaad........daaaaaaaa..................",
"....................aaaaaaaad........daaaaaaaa..................",
"....................aaaaaaaad........daaaaaaaa..................",
".....................................daaaaaaaa..................",
".....................................daaaaaaaa..................",
".....................................daaaaaaaa..................",
".....................................daaaaaaaa..................",
".....................................daaaaaaaa..................",
".....................................daaaaaaaa..................",
".....................................daaaaaaaa..................",
".....................................daaaaaaaa..................",
"....................cccccccce........daaaaaaaa..................",
"....................aaaaaaaad........daaaaaaaa..................",
"....................aaaaaaaad........daaaaaaaa..................",
"....................aaaaaaaad........daaaaaaaa..................",
"....................fffffaaabccccccccbaaaaffff..................",
".........................aaaaaaaaaaaaaaaaa......................",
".........................aaaaaaaaaaaaaaaaa......................",
".........................aaaaaaaaaaaaaaaaa......................",
".........................aaaaaaaaaaaaaaaaa......................",
"................................................................",
"................................................................",
"................................................................",
"................................................................",
"................................................................",
"................................................................",
"................................................................",
"................................................................",
"................................................................",
"................................................................",
"................................................................",
"................................................................",
"................................................................"
};