/* XPM */
static char *6_gold[] = {
"64 64 6 1",
". c None",
"a c #ffc864",
"b c #ffc864",
"c c #ffc864",
"d c #ffc864",
"e c #ffc864",
"................................................................",
"................................................................",
"................................................................",
"................................................................",
"................................................................",
"................................................................",
"................................................................",
"................................................................",
"................................................................",
"................................................................",
"................................................................",
"................................................................",
".........................aaaaaaaaaaaaaaaaa......................",
".........................aaaaaaaaaaaaaaaaa......................",
".........................aaaaaaaaaaaaaaaaa......................",
".........................aaaaaaaaaaaaaaaaa......................",
"....................bbbbbaaacbbbbbbbbcaaaabbbb..................",
"....................aaaaaaaad........daaaaaaaa..................",
"....................aaaaaaaad........daaaaaaaa..................",
"....................aaaaaaaad........daaaaaaaa..................",
"....................aaaaaaaad........daaaaaaaa..................",
"....................aaaaaaaad...................................",
"....................aaaaaaaad...................................",
"....................aaaaaaaad...................................",
"....................aaaaaaaad...................................",
"....................aaaaaaaad...................................",
"....................aaaaaaaad...................................",
"....................aaaaaaaad...................................",
"....................aaaaaaaad...................................",
"....................aaaaaaaacbbbbbbbbbbbbb......................",
"....................aaaaaaaaaaaaaaaaaaaaaa......................",
"....................aaaaaaaaaaaaaaaaaaaaaa......................",
"....................aaaaaaaaaaaaaaaaaaaaaa......................",
"....................aaaaaaaaaaaaaaaaaaaaaa......................",
"....................aaaaaaaad........daaaaaaaa..................",
"....................aaaaaaaad........daaaaaaaa..................",
"....................aaaaaaaad........daaaaaaaa..................",
"....................aaaaaaaad........daaaaaaaa..................",
"....................aaaaaaaad........daaaaaaaa..................",
"....................aaaaaaaad........daaaaaaaa..................",
"....................aaaaaaaad........daaaaaaaa..................",
"....................aaaaaaaad........daaaaaaaa..................",
"....................aaaaaaaad........daaaaaaaa..................",
"....................aaaaaaaad........daaaaaaaa..................",
"....................aaaaaaaad........daaaaaaaa..................",
"....................aaaaaaaad........daaaaaaaa..................",
"....................eeeeeaaacbbbbbbbbcaaaaeeee..................",
".........................aaaaaaaaaaaaaaaaa......................",
".........................aaaaaaaaaaaaaaaaa......................",
".........................aaaaaaaaaaaaaaaaa......................",
".........................aaaaaaaaaaaaaaaaa......................",
"................................................................",
"................................................................",
"................................................................",
"................................................................",
"................................................................",
"................................................................",
"................................................................",
"................................................................",
"................................................................",
"................................................................",
"................................................................",
"................................................................",
"................................................................"
};