/* XPM */
static char *A_gold[] = {
"64 64 5 1",
". c None",
"a c #ffc864",
"b c #ffc864",
"c c #ffc864",
"d c #ffc864",
"................................................................",
"................................................................",
"................................................................",
"................................................................",
"................................................................",
"................................................................",
"................................................................",
"................................................................",
"................................................................",
"................................................................",
"................................................................",
"................................................................",
".............................aaaaaaaab..........................",
".............................aaaaaaaab..........................",
".............................aaaaaaaab..........................",
".............................aaaaaaaab..........................",
".............................aaaaaaaab..........................",
".............................aaaaaaaab..........................",
".............................aaaaaaaab..........................",
".............................aaaaaaaab..........................",
".........................ccccaaaaaaaadcccc......................",
".........................aaaaaaaaaaaaaaaaa......................",
".........................aaaaaaaaaaaaaaaaa......................",
".........................aaaaaaaaaaaaaaaaa......................",
".........................aaaaaaaaaaaaaaaaa......................",
".........................aaaaaaaaaaaaaaaaa......................",
".........................aaaaaaaaaaaaaaaaa......................",
".........................aaaaaaaaaaaaaaaaa......................",
".........................aaaaaaaaaaaaaaaaa......................",
"....................baaaaaaaa.........aaaaaaaab.................",
"....................baaaaaaaa.........aaaaaaaab.................",
"....................baaaaaaaa.........aaaaaaaab.................",
"....................baaaaaaaa.........aaaaaaaab.................",
"....................baaaaaaaa.........aaaaaaaab.................",
"....................baaaaaaaa.........aaaaaaaab.................",
"....................baaaaaaaa.........aaaaaaaab.................",
"....................baaaaaaaa.........aaaaaaaab.................",
"....................baaaaaaaa.........aaaaaaaab.................",
"....................baaaaaaaaaaaaaaaaaaaaaaaaab.................",
"....................baaaaaaaaaaaaaaaaaaaaaaaaab.................",
"....................baaaaaaaaaaaaaaaaaaaaaaaaab.................",
"....................baaaaaaaaaaaaaaaaaaaaaaaaab.................",
"................aaaaaaaab.................baaaaaaaa.............",
"................aaaaaaaab.................baaaaaaaa.............",
"................aaaaaaaab.................baaaaaaaa.............",
"................aaaaaaaab.................baaaaaaaa.............",
"................aaaaaaaab.................baaaaaaaa.............",
"................aaaaaaaab.................baaaaaaaa.............",
"................aaaaaaaab.................baaaaaaaa.............",
"................aaaaaaaab.................baaaaaaaa.............",
"................aaaaaaaab.................baaaaaaaa.............",
"................................................................",
"................................................................",
"................................................................",
"................................................................",
"................................................................",
"................................................................",
"................................................................",
"................................................................",
"................................................................",
"................................................................",
"................................................................",
"................................................................",
"................................................................"
};