/* XPM */
static char *D_white[] = {
"64 64 14 1",
". c None",
"a c #ffffff",
"b c #ffffff",
"c c #ffffff",
"d c #ffffff",
"e c #ffffff",
"f c #ffffff",
"g c #ffffff",
"h c #ffffff",
"i c #ffffff",
"j c #ffffff",
"k c #ffffff",
"l c #ffffff",
"m c #ffffff",
"................................................................",
"................................................................",
"................................................................",
"................................................................",
"................................................................",
"................................................................",
"................................................................",
"................................................................",
"................................................................",
"................................................................",
"................................................................",
"................................................................",
"..................aaaaaaaaaaaaaaaaaaaaaab.......................",
"..................aaaaaaaaaaaaaaaaaaaaaab.......................",
"..................aaaaaaaaaaaaaaaaaaaaaab.......................",
"..................aaaaaaaaaaaaaaaaaaaaaab.......................",
"..................aaaaaaaacddddddddcaaaab.......................",
"..................aaaaaaaae........eaaaaaaaa....................",
"..................aaaaaaaae........eaaaaaaaa....................",
"..................aaaaaaaae........eaaaaaaaa....................",
"..................aaaaaaaae........eaaaaaaaa....................",
"..................aaaaaaaae.............faaaaaaae...............",
"..................aaaaaaaae.............faaaaaaae...............",
"..................aaaaaaaae.............faaaaaaae...............",
"..................aaaaaaaae.............faaaaaaae...............",
"..................aaaaaaaae.............faaaaaaae...............",
"..................aaaaaaaae.............faaaaaaae...............",
"..................aaaaaaaae.............faaaaaaae...............",
"..................aaaaaaaae.............faaaaaaae...............",
"..................aaaaaaaae.............faaaaaaae...............",
"..................aaaaaaaae.............faaaaaaae...............",
"..................aaaaaaaae.............faaaaaaae...............",
"..................aaaaaaaae.............faaaaaaae...............",
"..................aaaaaaaae.............faaaaaaae...............",
"..................aaaaaaaae.............faaaaaaae...............",
"..................aaaaaaaae.............faaaaaaae...............",
"..................aaaaaaaae.............faaaaaaae...............",
"..................aaaaaaaae.............faaaaaaae...............",
"..................aaaaaaaae.............faaaaaaae...............",
"..................aaaaaaaae.............faaaaaaae...............",
"..................aaaaaaaae.............faaaaaaae...............",
"..................aaaaaaaae.............faaaaaaae...............",
"..................aaaaaaaae........ghhhhiaaajjjjk...............",
"..................aaaaaaaae........eaaaaaaaa....................",
"..................aaaaaaaae........eaaaaaaaa....................",
"..................aaaaaaaae........eaaaaaaaa....................",
"..................aaaaaaaacddddddddcaaaalmmm....................",
"..................aaaaaaaaaaaaaaaaaaaaaab.......................",
"..................aaaaaaaaaaaaaaaaaaaaaab.......................",
"..................aaaaaaaaaaaaaaaaaaaaaab.......................",
"..................aaaaaaaaaaaaaaaaaaaaaab.......................",
"................................................................",
"................................................................",
"................................................................",
"................................................................",
"................................................................",
"................................................................",
"................................................................",
"................................................................",
"................................................................",
"................................................................",
"................................................................",
"................................................................",
"................................................................"
};