/* XPM */
static char *G_gold[] = {
"64 64 13 1",
". c None",
"a c #ffc864",
"b c #ffc864",
"c c #ffc864",
"d c #ffc864",
"e c #ffc864",
"f c #ffc864",
"g c #ffc864",
"h c #ffc864",
"i c #ffc864",
"j c #ffc864",
"k c #ffc864",
"l c #ffc864",
"................................................................",
"................................................................",
"................................................................",
"................................................................",
"................................................................",
"................................................................",
"................................................................",
"................................................................",
"................................................................",
"................................................................",
"................................................................",
"................................................................",
"...........................aaaaaaaaaaaaaaaaa....................",
"...........................aaaaaaaaaaaaaaaaa....................",
"...........................aaaaaaaaaaaaaaaaa....................",
"...........................aaaaaaaaaaaaaaaaa....................",
"...........................aaaabbbbbbbbbaaaa....................",
"......................caaaaaaaa.........aaaaaaaac...............",
"......................caaaaaaaa.........aaaaaaaac...............",
"......................caaaaaaaa.........aaaaaaaac...............",
"......................caaaaaaaa.........aaaaaaaac...............",
"..................aaaaaaaac.....................................",
"..................aaaaaaaac.....................................",
"..................aaaaaaaac.....................................",
"..................aaaaaaaac.....................................",
"..................aaaaaaaac.....................................",
"..................aaaaaaaac.....................................",
"..................aaaaaaaac.....................................",
"..................aaaaaaaac.....................................",
"..................aaaaaaaac........dbbbbbbbbbbbbe...............",
"..................aaaaaaaac........faaaaaaaaaaaac...............",
"..................aaaaaaaac........faaaaaaaaaaaac...............",
"..................aaaaaaaac........faaaaaaaaaaaac...............",
"..................aaaaaaaac........faaaaaaaaaaaac...............",
"..................aaaaaaaac.............aaaaaaaac...............",
"..................aaaaaaaac.............aaaaaaaac...............",
"..................aaaaaaaac.............aaaaaaaac...............",
"..................aaaaaaaac.............aaaaaaaac...............",
"..................aaaaaaaac.............aaaaaaaac...............",
"..................aaaaaaaac.............aaaaaaaac...............",
"..................aaaaaaaac.............aaaaaaaac...............",
"..................aaaaaaaac.............aaaaaaaac...............",
"..................gggghaaaijjjj.........aaaaaaaac...............",
"......................caaaaaaaa.........aaaaaaaac...............",
"......................caaaaaaaa.........aaaaaaaac...............",
"......................caaaaaaaa.........aaaaaaaac...............",
"......................kllllaaaabbbbbbbbbaaaallllk...............",
"...........................aaaaaaaaaaaaaaaaa....................",
"...........................aaaaaaaaaaaaaaaaa....................",
"...........................aaaaaaaaaaaaaaaaa....................",
"...........................aaaaaaaaaaaaaaaaa....................",
"................................................................",
"................................................................",
"................................................................",
"................................................................",
"................................................................",
"................................................................",
"................................................................",
"................................................................",
"................................................................",
"................................................................",
"................................................................",
"................................................................",
"................................................................"
};