/* XPM */
static char *H_gold[] = {
"64 64 5 1",
". c None",
"a c #ffc864",
"b c #ffc864",
"c c #ffc864",
"d c #ffc864",
"................................................................",
"................................................................",
"................................................................",
"................................................................",
"................................................................",
"................................................................",
"................................................................",
"................................................................",
"................................................................",
"................................................................",
"................................................................",
"................................................................",
"..................aaaaaaaab.............aaaaaaaab...............",
"..................aaaaaaaab.............aaaaaaaab...............",
"..................aaaaaaaab.............aaaaaaaab...............",
"..................aaaaaaaab.............aaaaaaaab...............",
"..................aaaaaaaab.............aaaaaaaab...............",
"..................aaaaaaaab.............aaaaaaaab...............",
"..................aaaaaaaab.............aaaaaaaab...............",
"..................aaaaaaaab.............aaaaaaaab...............",
"..................aaaaaaaab.............aaaaaaaab...............",
"..................aaaaaaaab.............aaaaaaaab...............",
"..................aaaaaaaab.............aaaaaaaab...............",
"..................aaaaaaaab.............aaaaaaaab...............",
"..................aaaaaaaab.............aaaaaaaab...............",
"..................aaaaaaaab.............aaaaaaaab...............",
"..................aaaaaaaab.............aaaaaaaab...............",
"..................aaaaaaaab.............aaaaaaaab...............",
"..................aaaaaaaab.............aaaaaaaab...............",
"..................aaaaaaaacdddddddddddddaaaaaaaab...............",
"..................aaaaaaaaaaaaaaaaaaaaaaaaaaaaaab...............",
"..................aaaaaaaaaaaaaaaaaaaaaaaaaaaaaab...............",
"..................aaaaaaaaaaaaaaaaaaaaaaaaaaaaaab...............",
"..................aaaaaaaaaaaaaaaaaaaaaaaaaaaaaab...............",
"..................aaaaaaaab.............aaaaaaaab...............",
"..................aaaaaaaab.............aaaaaaaab...............",
"..................aaaaaaaab.............aaaaaaaab...............",
"..................aaaaaaaab.............aaaaaaaab...............",
"..................aaaaaaaab.............aaaaaaaab...............",
"..................aaaaaaaab.............aaaaaaaab...............",
"..................aaaaaaaab.............aaaaaaaab...............",
"..................aaaaaaaab.............aaaaaaaab...............",
"..................aaaaaaaab.............aaaaaaaab...............",
"..................aaaaaaaab.............aaaaaaaab...............",
"..................aaaaaaaab.............aaaaaaaab...............",
"..................aaaaaaaab.............aaaaaaaab...............",
"..................aaaaaaaab.............aaaaaaaab...............",
"..................aaaaaaaab.............aaaaaaaab...............",
"..................aaaaaaaab.............aaaaaaaab...............",
"..................aaaaaaaab.............aaaaaaaab...............",
"..................aaaaaaaab.............aaaaaaaab...............",
"................................................................",
"................................................................",
"................................................................",
"................................................................",
"................................................................",
"................................................................",
"................................................................",
"................................................................",
"................................................................",
"................................................................",
"................................................................",
"................................................................",
"................................................................"
};