/* XPM */
static char *I_gold[] = {
"64 64 3 1",
". c None",
"a c #ffc864",
"b c #ffc864",
"................................................................",
"................................................................",
"................................................................",
"................................................................",
"................................................................",
"................................................................",
"................................................................",
"................................................................",
"................................................................",
"................................................................",
"................................................................",
"................................................................",
".............................aaaaaaaab..........................",
".............................aaaaaaaab..........................",
".............................aaaaaaaab..........................",
".............................aaaaaaaab..........................",
".............................aaaaaaaab..........................",
".............................aaaaaaaab..........................",
".............................aaaaaaaab..........................",
".............................aaaaaaaab..........................",
".............................aaaaaaaab..........................",
".............................aaaaaaaab..........................",
".............................aaaaaaaab..........................",
".............................aaaaaaaab..........................",
".............................aaaaaaaab..........................",
".............................aaaaaaaab..........................",
".............................aaaaaaaab..........................",
".............................aaaaaaaab..........................",
".............................aaaaaaaab..........................",
".............................aaaaaaaab..........................",
".............................aaaaaaaab..........................",
".............................aaaaaaaab..........................",
".............................aaaaaaaab..........................",
".............................aaaaaaaab..........................",
".............................aaaaaaaab..........................",
".............................aaaaaaaab..........................",
".............................aaaaaaaab..........................",
".............................aaaaaaaab..........................",
".............................aaaaaaaab..........................",
".............................aaaaaaaab..........................",
".............................aaaaaaaab..........................",
".............................aaaaaaaab..........................",
".............................aaaaaaaab..........................",
".............................aaaaaaaab..........................",
".............................aaaaaaaab..........................",
".............................aaaaaaaab..........................",
".............................aaaaaaaab..........................",
".............................aaaaaaaab..........................",
".............................aaaaaaaab..........................",
".............................aaaaaaaab..........................",
".............................aaaaaaaab..........................",
"................................................................",
"................................................................",
"................................................................",
"................................................................",
"................................................................",
"................................................................",
"................................................................",
"................................................................",
"................................................................",
"................................................................",
"................................................................",
"................................................................",
"................................................................"
};