/* XPM */
static char *M_gold[] = {
"64 64 6 1",
". c None",
"a c #ffc864",
"b c #ffc864",
"c c #ffc864",
"d c #ffc864",
"e c #ffc864",
"................................................................",
"................................................................",
"................................................................",
"................................................................",
"................................................................",
"................................................................",
"................................................................",
"................................................................",
"................................................................",
"................................................................",
"................................................................",
"................................................................",
"..............aaaaaaaab.....................baaaaaaaac..........",
"..............aaaaaaaab.....................baaaaaaaac..........",
"..............aaaaaaaab.....................baaaaaaaac..........",
"..............aaaaaaaab.....................baaaaaaaac..........",
"..............aaaaaaaab.....................baaaaaaaac..........",
"..............aaaaaaaab.....................baaaaaaaac..........",
"..............aaaaaaaab.....................baaaaaaaac..........",
"..............aaaaaaaab.....................baaaaaaaac..........",
"..............aaaaaaaab.....................baaaaaaaac..........",
"..............aaaaaaaaaaaaad.............baaaaaaaaaaac..........",
"..............aaaaaaaaaaaaad.............baaaaaaaaaaac..........",
"..............aaaaaaaaaaaaad.............baaaaaaaaaaac..........",
"..............aaaaaaaaaaaaad.............baaaaaaaaaaac..........",
"..............aaaaaaaaaaaaad.............baaaaaaaaaaac..........",
"..............aaaaaaaaaaaaad.............baaaaaaaaaaac..........",
"..............aaaaaaaaaaaaad.............baaaaaaaaaaac..........",
"..............aaaaaaaaaaaaad.............baaaaaaaaaaac..........",
"..............aaaaaaaaaaaaaaaaa.....aaaaaaaaaaaaaaaaac..........",
"..............aaaaaaaaaaaaaaaaa.....aaaaaaaaaaaaaaaaac..........",
"..............aaaaaaaaaaaaaaaaa.....aaaaaaaaaaaaaaaaac..........",
"..............aaaaaaaaaaaaaaaaa.....aaaaaaaaaaaaaaaaac..........",
"..............aaaaaaaaaaaaaaaaa.....aaaaaaaaaaaaaaaaac..........",
"..............aaaaaaaab....eaaa.....aaaac...baaaaaaaac..........",
"..............aaaaaaaab....eaaa.....aaaac...baaaaaaaac..........",
"..............aaaaaaaab....eaaa.....aaaac...baaaaaaaac..........",
"..............aaaaaaaab....eaaa.....aaaac...baaaaaaaac..........",
"..............aaaaaaaab....eaaaaaaaaaaaac...baaaaaaaac..........",
"..............aaaaaaaab....eaaaaaaaaaaaac...baaaaaaaac..........",
"..............aaaaaaaab....eaaaaaaaaaaaac...baaaaaaaac..........",
"..............aaaaaaaab....eaaaaaaaaaaaac...baaaaaaaac..........",
"..............aaaaaaaab.........aaaa........baaaaaaaac..........",
"..............aaaaaaaab.........aaaa........baaaaaaaac..........",
"..............aaaaaaaab.........aaaa........baaaaaaaac..........",
"..............aaaaaaaab.........aaaa........baaaaaaaac..........",
"..............aaaaaaaab.........aaaa........baaaaaaaac..........",
"..............aaaaaaaab.........aaaa........baaaaaaaac..........",
"..............aaaaaaaab.........aaaa........baaaaaaaac..........",
"..............aaaaaaaab.........aaaa........baaaaaaaac..........",
"..............aaaaaaaab.........aaaa........baaaaaaaac..........",
"................................................................",
"................................................................",
"................................................................",
"................................................................",
"................................................................",
"................................................................",
"................................................................",
"................................................................",
"................................................................",
"................................................................",
"................................................................",
"................................................................",
"................................................................"
};