/* XPM */
static char *N_white[] = {
"64 64 5 1",
". c None",
"a c #ffffff",
"b c #ffffff",
"c c #ffffff",
"d c #ffffff",
"................................................................",
"................................................................",
"................................................................",
"................................................................",
"................................................................",
"................................................................",
"................................................................",
"................................................................",
"................................................................",
"................................................................",
"................................................................",
"................................................................",
"................aaaaaaaaaaaaab............caaaaaaaa.............",
"................aaaaaaaaaaaaab............caaaaaaaa.............",
"................aaaaaaaaaaaaab............caaaaaaaa.............",
"................aaaaaaaaaaaaab............caaaaaaaa.............",
"................aaaaaaaaaaaaab............caaaaaaaa.............",
"................aaaaaaaaaaaaab............caaaaaaaa.............",
"................aaaaaaaaaaaaab............caaaaaaaa.............",
"................aaaaaaaaaaaaab............caaaaaaaa.............",
"................aaaaaaaaaaaaab............caaaaaaaa.............",
"................aaaaaaaaaaaaaaaaa.........caaaaaaaa.............",
"................aaaaaaaaaaaaaaaaa.........caaaaaaaa.............",
"................aaaaaaaaaaaaaaaaa.........caaaaaaaa.............",
"................aaaaaaaaaaaaaaaaa.........caaaaaaaa.............",
"................aaaaaaaac....daaa.........caaaaaaaa.............",
"................aaaaaaaac....daaa.........caaaaaaaa.............",
"................aaaaaaaac....daaa.........caaaaaaaa.............",
"................aaaaaaaac....daaa.........caaaaaaaa.............",
"................aaaaaaaac....daaaaaaaa....caaaaaaaa.............",
"................aaaaaaaac....daaaaaaaa....caaaaaaaa.............",
"................aaaaaaaac....daaaaaaaa....caaaaaaaa.............",
"................aaaaaaaac....daaaaaaaa....caaaaaaaa.............",
"................aaaaaaaac....daaaaaaaa....caaaaaaaa.............",
"................aaaaaaaac.........aaaa....caaaaaaaa.............",
"................aaaaaaaac.........aaaa....caaaaaaaa.............",
"................aaaaaaaac.........aaaa....caaaaaaaa.............",
"................aaaaaaaac.........aaaa....caaaaaaaa.............",
"................aaaaaaaac.........aaaaaaaaaaaaaaaaa.............",
"................aaaaaaaac.........aaaaaaaaaaaaaaaaa.............",
"................aaaaaaaac.........aaaaaaaaaaaaaaaaa.............",
"................aaaaaaaac.........aaaaaaaaaaaaaaaaa.............",
"................aaaaaaaac.............aaaaaaaaaaaaa.............",
"................aaaaaaaac.............aaaaaaaaaaaaa.............",
"................aaaaaaaac.............aaaaaaaaaaaaa.............",
"................aaaaaaaac.............aaaaaaaaaaaaa.............",
"................aaaaaaaac.............aaaaaaaaaaaaa.............",
"................aaaaaaaac.............aaaaaaaaaaaaa.............",
"................aaaaaaaac.............aaaaaaaaaaaaa.............",
"................aaaaaaaac.............aaaaaaaaaaaaa.............",
"................aaaaaaaac.............aaaaaaaaaaaaa.............",
"................................................................",
"................................................................",
"................................................................",
"................................................................",
"................................................................",
"................................................................",
"................................................................",
"................................................................",
"................................................................",
"................................................................",
"................................................................",
"................................................................",
"................................................................"
};