/* XPM */
static char *O_white[] = {
"64 64 10 1",
". c None",
"a c #ffffff",
"b c #ffffff",
"c c #ffffff",
"d c #ffffff",
"e c #ffffff",
"f c #ffffff",
"g c #ffffff",
"h c #ffffff",
"i c #ffffff",
"................................................................",
"................................................................",
"................................................................",
"................................................................",
"................................................................",
"................................................................",
"................................................................",
"................................................................",
"................................................................",
"................................................................",
"................................................................",
"................................................................",
".........................aaaaaaaaaaaaaaaaa......................",
".........................aaaaaaaaaaaaaaaaa......................",
".........................aaaaaaaaaaaaaaaaa......................",
".........................aaaaaaaaaaaaaaaaa......................",
".........................aaaabbbbbbbbbaaaa......................",
"....................caaaaaaaa.........aaaaaaaac.................",
"....................caaaaaaaa.........aaaaaaaac.................",
"....................caaaaaaaa.........aaaaaaaac.................",
"....................caaaaaaaa.........aaaaaaaac.................",
"................aaaaaaaac.................caaaaaaaa.............",
"................aaaaaaaac.................caaaaaaaa.............",
"................aaaaaaaac.................caaaaaaaa.............",
"................aaaaaaaac.................caaaaaaaa.............",
"................aaaaaaaac.................caaaaaaaa.............",
"................aaaaaaaac.................caaaaaaaa.............",
"................aaaaaaaac.................caaaaaaaa.............",
"................aaaaaaaac.................caaaaaaaa.............",
"................aaaaaaaac.................caaaaaaaa.............",
"................aaaaaaaac.................caaaaaaaa.............",
"................aaaaaaaac.................caaaaaaaa.............",
"................aaaaaaaac.................caaaaaaaa.............",
"................aaaaaaaac.................caaaaaaaa.............",
"................aaaaaaaac.................caaaaaaaa.............",
"................aaaaaaaac.................caaaaaaaa.............",
"................aaaaaaaac.................caaaaaaaa.............",
"................aaaaaaaac.................caaaaaaaa.............",
"................aaaaaaaac.................caaaaaaaa.............",
"................aaaaaaaac.................caaaaaaaa.............",
"................aaaaaaaac.................caaaaaaaa.............",
"................aaaaaaaac.................caaaaaaaa.............",
"................ddddeaaafgggg.........ggggfaaaedddd.............",
"....................caaaaaaaa.........aaaaaaaac.................",
"....................caaaaaaaa.........aaaaaaaac.................",
"....................caaaaaaaa.........aaaaaaaac.................",
"....................hiiiiaaaabbbbbbbbbaaaaiiiih.................",
".........................aaaaaaaaaaaaaaaaa......................",
".........................aaaaaaaaaaaaaaaaa......................",
".........................aaaaaaaaaaaaaaaaa......................",
".........................aaaaaaaaaaaaaaaaa......................",
"................................................................",
"................................................................",
"................................................................",
"................................................................",
"................................................................",
"................................................................",
"................................................................",
"................................................................",
"................................................................",
"................................................................",
"................................................................",
"................................................................",
"................................................................"
};