/* XPM */
static char *R_gold[] = {
"64 64 12 1",
". c None",
"a c #ffc864",
"b c #ffc864",
"c c #ffc864",
"d c #ffc864",
"e c #ffc864",
"f c #ffc864",
"g c #ffc864",
"h c #ffc864",
"i c #ffc864",
"j c #ffc864",
"k c #ffc864",
"................................................................",
"................................................................",
"................................................................",
"................................................................",
"................................................................",
"................................................................",
"................................................................",
"................................................................",
"................................................................",
"................................................................",
"................................................................",
"................................................................",
"..................aaaaaaaaaaaaaaaaaaaaaaaaaa....................",
"..................aaaaaaaaaaaaaaaaaaaaaaaaaa....................",
"..................aaaaaaaaaaaaaaaaaaaaaaaaaa....................",
"..................aaaaaaaaaaaaaaaaaaaaaaaaaa....................",
"..................aaaaaaaabcccccccccccccaaaaaaaad...............",
"..................aaaaaaaad.............aaaaaaaad...............",
"..................aaaaaaaad.............aaaaaaaad...............",
"..................aaaaaaaad.............aaaaaaaad...............",
"..................aaaaaaaad.............aaaaaaaad...............",
"..................aaaaaaaad.............aaaaaaaad...............",
"..................aaaaaaaad.............aaaaaaaad...............",
"..................aaaaaaaad.............aaaaaaaad...............",
"..................aaaaaaaad.............aaaaaaaad...............",
"..................aaaaaaaad.............aaaaaaaad...............",
"..................aaaaaaaad.............aaaaaaaad...............",
"..................aaaaaaaad.............aaaaaaaad...............",
"..................aaaaaaaad.............aaaaaaaad...............",
"..................aaaaaaaabcccccccccccccaaaa....................",
"..................aaaaaaaaaaaaaaaaaaaaaaaaaa....................",
"..................aaaaaaaaaaaaaaaaaaaaaaaaaa....................",
"..................aaaaaaaaaaaaaaaaaaaaaaaaaa....................",
"..................aaaaaaaaaaaaaaaaaaaaaaaaaa....................",
"..................aaaaaaaad....aaaaaaaad........................",
"..................aaaaaaaad....aaaaaaaad........................",
"..................aaaaaaaad....aaaaaaaad........................",
"..................aaaaaaaad....aaaaaaaad........................",
"..................aaaaaaaad....eeeefaaaghhhh....................",
"..................aaaaaaaad........daaaaaaaa....................",
"..................aaaaaaaad........daaaaaaaa....................",
"..................aaaaaaaad........daaaaaaaa....................",
"..................aaaaaaaad........daaaaaaaa....................",
"..................aaaaaaaad........daaaaaaaa....................",
"..................aaaaaaaad........daaaaaaaa....................",
"..................aaaaaaaad........daaaaaaaa....................",
"..................aaaaaaaad........ijjjjaaaacccck...............",
"..................aaaaaaaad.............aaaaaaaad...............",
"..................aaaaaaaad.............aaaaaaaad...............",
"..................aaaaaaaad.............aaaaaaaad...............",
"..................aaaaaaaad.............aaaaaaaad...............",
"................................................................",
"................................................................",
"................................................................",
"................................................................",
"................................................................",
"................................................................",
"................................................................",
"................................................................",
"................................................................",
"................................................................",
"................................................................",
"................................................................",
"................................................................"
};