/* XPM */
static char *T_gold[] = {
"64 64 5 1",
". c None",
"a c #ffc864",
"b c #ffc864",
"c c #ffc864",
"d c #ffc864",
"................................................................",
"................................................................",
"................................................................",
"................................................................",
"................................................................",
"................................................................",
"................................................................",
"................................................................",
"................................................................",
"................................................................",
"................................................................",
"................................................................",
"....................aaaaaaaaaaaaaaaaaaaaaaaaaa..................",
"....................aaaaaaaaaaaaaaaaaaaaaaaaaa..................",
"....................aaaaaaaaaaaaaaaaaaaaaaaaaa..................",
"....................aaaaaaaaaaaaaaaaaaaaaaaaaa..................",
"....................bbbbbbbbbaaaaaaaacbbbbbbbb..................",
".............................aaaaaaaad..........................",
".............................aaaaaaaad..........................",
".............................aaaaaaaad..........................",
".............................aaaaaaaad..........................",
".............................aaaaaaaad..........................",
".............................aaaaaaaad..........................",
".............................aaaaaaaad..........................",
".............................aaaaaaaad..........................",
".............................aaaaaaaad..........................",
".............................aaaaaaaad..........................",
".............................aaaaaaaad..........................",
".............................aaaaaaaad..........................",
".............................aaaaaaaad..........................",
".............................aaaaaaaad..........................",
".............................aaaaaaaad..........................",
".............................aaaaaaaad..........................",
".............................aaaaaaaad..........................",
".............................aaaaaaaad..........................",
".............................aaaaaaaad..........................",
".............................aaaaaaaad..........................",
".............................aaaaaaaad..........................",
".............................aaaaaaaad..........................",
".............................aaaaaaaad..........................",
".............................aaaaaaaad..........................",
".............................aaaaaaaad..........................",
".............................aaaaaaaad..........................",
".............................aaaaaaaad..........................",
".............................aaaaaaaad..........................",
".............................aaaaaaaad..........................",
".............................aaaaaaaad..........................",
".............................aaaaaaaad..........................",
".............................aaaaaaaad..........................",
".............................aaaaaaaad..........................",
".............................aaaaaaaad..........................",
"................................................................",
"................................................................",
"................................................................",
"................................................................",
"................................................................",
"................................................................",
"................................................................",
"................................................................",
"................................................................",
"................................................................",
"................................................................",
"................................................................",
"................................................................"
};