/* XPM */
static char *U_white[] = {
"64 64 5 1",
". c None",
"a c #ffffff",
"b c #ffffff",
"c c #ffffff",
"d c #ffffff",
"................................................................",
"................................................................",
"................................................................",
"................................................................",
"................................................................",
"................................................................",
"................................................................",
"................................................................",
"................................................................",
"................................................................",
"................................................................",
"................................................................",
"..................aaaaaaaab.............aaaaaaaab...............",
"..................aaaaaaaab.............aaaaaaaab...............",
"..................aaaaaaaab.............aaaaaaaab...............",
"..................aaaaaaaab.............aaaaaaaab...............",
"..................aaaaaaaab.............aaaaaaaab...............",
"..................aaaaaaaab.............aaaaaaaab...............",
"..................aaaaaaaab.............aaaaaaaab...............",
"..................aaaaaaaab.............aaaaaaaab...............",
"..................aaaaaaaab.............aaaaaaaab...............",
"..................aaaaaaaab.............aaaaaaaab...............",
"..................aaaaaaaab.............aaaaaaaab...............",
"..................aaaaaaaab.............aaaaaaaab...............",
"..................aaaaaaaab.............aaaaaaaab...............",
"..................aaaaaaaab.............aaaaaaaab...............",
"..................aaaaaaaab.............aaaaaaaab...............",
"..................aaaaaaaab.............aaaaaaaab...............",
"..................aaaaaaaab.............aaaaaaaab...............",
"..................aaaaaaaab.............aaaaaaaab...............",
"..................aaaaaaaab.............aaaaaaaab...............",
"..................aaaaaaaab.............aaaaaaaab...............",
"..................aaaaaaaab.............aaaaaaaab...............",
"..................aaaaaaaab.............aaaaaaaab...............",
"..................aaaaaaaab.............aaaaaaaab...............",
"..................aaaaaaaab.............aaaaaaaab...............",
"..................aaaaaaaab.............aaaaaaaab...............",
"..................aaaaaaaab.............aaaaaaaab...............",
"..................aaaaaaaab.............aaaaaaaab...............",
"..................aaaaaaaab.............aaaaaaaab...............",
"..................aaaaaaaab.............aaaaaaaab...............",
"..................aaaaaaaab.............aaaaaaaab...............",
"..................aaaaaaaab.............aaaaaaaab...............",
"..................aaaaaaaab.............aaaaaaaab...............",
"..................aaaaaaaab.............aaaaaaaab...............",
"..................aaaaaaaab.............aaaaaaaab...............",
"..................aaaaaaaacdddddddddddddaaaaaaaab...............",
"......................aaaaaaaaaaaaaaaaaaaaaa....................",
"......................aaaaaaaaaaaaaaaaaaaaaa....................",
"......................aaaaaaaaaaaaaaaaaaaaaa....................",
"......................aaaaaaaaaaaaaaaaaaaaaa....................",
"................................................................",
"................................................................",
"................................................................",
"................................................................",
"................................................................",
"................................................................",
"................................................................",
"................................................................",
"................................................................",
"................................................................",
"................................................................",
"................................................................",
"................................................................"
};