/* XPM */
static char *X_gold[] = {
"64 64 3 1",
". c None",
"a c #ffc864",
"b c #ffc864",
"................................................................",
"................................................................",
"................................................................",
"................................................................",
"................................................................",
"................................................................",
"................................................................",
"................................................................",
"................................................................",
"................................................................",
"................................................................",
"................................................................",
"................aaaaaaaab.................baaaaaaaa.............",
"................aaaaaaaab.................baaaaaaaa.............",
"................aaaaaaaab.................baaaaaaaa.............",
"................aaaaaaaab.................baaaaaaaa.............",
"................aaaaaaaab.................baaaaaaaa.............",
"................aaaaaaaab.................baaaaaaaa.............",
"................aaaaaaaab.................baaaaaaaa.............",
"................aaaaaaaab.................baaaaaaaa.............",
"................aaaaaaaab.................baaaaaaaa.............",
"....................baaaaaaaa.........aaaaaaaab.................",
"....................baaaaaaaa.........aaaaaaaab.................",
"....................baaaaaaaa.........aaaaaaaab.................",
"....................baaaaaaaa.........aaaaaaaab.................",
".........................aaaaaaaaaaaaaaaaa......................",
".........................aaaaaaaaaaaaaaaaa......................",
".........................aaaaaaaaaaaaaaaaa......................",
".........................aaaaaaaaaaaaaaaaa......................",
".........................aaaaaaaaaaaaaaaaa......................",
".............................aaaaaaaab..........................",
".............................aaaaaaaab..........................",
".............................aaaaaaaab..........................",
".............................aaaaaaaab..........................",
".........................aaaaaaaaaaaaaaaaa......................",
".........................aaaaaaaaaaaaaaaaa......................",
".........................aaaaaaaaaaaaaaaaa......................",
".........................aaaaaaaaaaaaaaaaa......................",
"....................baaaaaaaa.........aaaaaaaab.................",
"....................baaaaaaaa.........aaaaaaaab.................",
"....................baaaaaaaa.........aaaaaaaab.................",
"....................baaaaaaaa.........aaaaaaaab.................",
"................aaaaaaaab.................baaaaaaaa.............",
"................aaaaaaaab.................baaaaaaaa.............",
"................aaaaaaaab.................baaaaaaaa.............",
"................aaaaaaaab.................baaaaaaaa.............",
"................aaaaaaaab.................baaaaaaaa.............",
"................aaaaaaaab.................baaaaaaaa.............",
"................aaaaaaaab.................baaaaaaaa.............",
"................aaaaaaaab.................baaaaaaaa.............",
"................aaaaaaaab.................baaaaaaaa.............",
"................................................................",
"................................................................",
"................................................................",
"................................................................",
"................................................................",
"................................................................",
"................................................................",
"................................................................",
"................................................................",
"................................................................",
"................................................................",
"................................................................",
"................................................................"
};