/* XPM */
static char *Z_gold[] = {
"64 64 10 1",
". c None",
"a c #ffc864",
"b c #ffc864",
"c c #ffc864",
"d c #ffc864",
"e c #ffc864",
"f c #ffc864",
"g c #ffc864",
"h c #ffc864",
"i c #ffc864",
"................................................................",
"................................................................",
"................................................................",
"................................................................",
"................................................................",
"................................................................",
"................................................................",
"................................................................",
"................................................................",
"................................................................",
"................................................................",
"................................................................",
"................aaaaaaaaaaaaaaaaaaaaaaaaaaaaaaaaaaa.............",
"................aaaaaaaaaaaaaaaaaaaaaaaaaaaaaaaaaaa.............",
"................aaaaaaaaaaaaaaaaaaaaaaaaaaaaaaaaaaa.............",
"................aaaaaaaaaaaaaaaaaaaaaaaaaaaaaaaaaaa.............",
"................bbbbbbbbbbbbbbbbbbbbbbbbbbcaaaaaaaa.............",
"..........................................daaaaaaaa.............",
"..........................................daaaaaaaa.............",
"..........................................daaaaaaaa.............",
"..........................................daaaaaaaa.............",
"......................................aaaaaaaad.................",
"......................................aaaaaaaad.................",
"......................................aaaaaaaad.................",
"......................................aaaaaaaad.................",
".................................eaaaaaaaa......................",
".................................eaaaaaaaa......................",
".................................eaaaaaaaa......................",
".................................eaaaaaaaa......................",
".............................aaaaaaaad..........................",
".............................aaaaaaaad..........................",
".............................aaaaaaaad..........................",
".............................aaaaaaaad..........................",
".............................aaaaaaaad..........................",
".........................aaaaaaaad..............................",
".........................aaaaaaaad..............................",
".........................aaaaaaaad..............................",
".........................aaaaaaaad..............................",
"....................daaaaaaaa...................................",
"....................daaaaaaaa...................................",
"....................daaaaaaaa...................................",
"....................daaaaaaaa...................................",
"................ffffgaaahiiii...................................",
"................aaaaaaaad.......................................",
"................aaaaaaaad.......................................",
"................aaaaaaaad.......................................",
"................aaaaaaaacbbbbbbbbbbbbbbbbbbbbbbbbbb.............",
"................aaaaaaaaaaaaaaaaaaaaaaaaaaaaaaaaaaa.............",
"................aaaaaaaaaaaaaaaaaaaaaaaaaaaaaaaaaaa.............",
"................aaaaaaaaaaaaaaaaaaaaaaaaaaaaaaaaaaa.............",
"................aaaaaaaaaaaaaaaaaaaaaaaaaaaaaaaaaaa.............",
"................................................................",
"................................................................",
"................................................................",
"................................................................",
"................................................................",
"................................................................",
"................................................................",
"................................................................",
"................................................................",
"................................................................",
"................................................................",
"................................................................",
"................................................................"
};